<?xml version="1.0" encoding="UTF-8"?>
<!DOCTYPE svg PUBLIC "-//W3C//DTD SVG 1.1//EN" "http://www.w3.org/Graphics/SVG/1.1/DTD/svg11.dtd">
<!-- Creator: CorelDRAW -->
<svg xmlns="http://www.w3.org/2000/svg" xml:space="preserve" width="20mm" height="20mm" style="shape-rendering:geometricPrecision; text-rendering:geometricPrecision; image-rendering:optimizeQuality; fill-rule:evenodd; clip-rule:evenodd"
viewBox="0 0 20 20"
 xmlns:xlink="http://www.w3.org/1999/xlink"
 xmlns:dc="http://purl.org/dc/elements/1.1/"
 xmlns:cc="http://web.resource.org/cc/"
 xmlns:rdf="http://www.w3.org/1999/02/22-rdf-syntax-ns#"
 xmlns:svg="http://www.w3.org/2000/svg"
 xmlns:sodipodi="http://sodipodi.sourceforge.net/DTD/sodipodi-0.dtd"
 xmlns:inkscape="http://www.inkscape.org/namespaces/inkscape"
 version="1.0"
 sodipodi:version="0.32"
 inkscape:version="0.44.1"
 sodipodi:docname="Fahrrad_aus_Zusatzzeichen_1000-32.svg"
 sodipodi:docbase="L:\Wiki\pedia\ksh\svg">
 <defs>
  <style type="text/css">
   <![CDATA[
    .str2 {stroke:#84C225;stroke-width:0.0762}
    .str0 {stroke:#84C225;stroke-width:0.2}
    .str1 {stroke:white;stroke-width:0.2}
    .fil0 {fill:#84C225}
    .fil1 {fill:white}
    .fil2 {fill:#84C225;fill-rule:nonzero}
   ]]>
  </style>
 </defs>
 <g id="Ebene_x0020_1">
  <metadata id="CorelCorpID_0Corel-Layer"/>
  <path class="fil0 str0" d="M2.6772 0l14.6456 0c1.4783,0 2.6772,1.7983 2.6772,4.0158l0 11.9684c0,2.2174 -1.1989,4.0157 -2.6772,4.0157l-14.6456 0.0001c-1.4783,-0.0001 -2.6771,-1.7984 -2.6771,-4.0159l-0.0001 -11.9683c0.0001,-2.2175 1.1989,-4.0158 2.6773,-4.0158z"/>
  <circle class="fil1 str1" cx="10" cy="10" r="6"/>
  <path id="_1" class="fil2 str2" d="M9.9989 7.3298c-0.3302,0 -0.6011,-0.0974 -0.8107,-0.2942 -0.2116,-0.1969 -0.3175,-0.4361 -0.3175,-0.7218 0,-0.2942 0.1059,-0.5334 0.3175,-0.7197 0.2096,-0.1863 0.4805,-0.2794 0.8107,-0.2794 0.3366,0 0.6075,0.0931 0.817,0.2794 0.2075,0.1863 0.3133,0.4255 0.3133,0.7197 0,0.2984 -0.1058,0.5418 -0.3133,0.7323 -0.2095,0.1884 -0.4804,0.2837 -0.817,0.2837zm0.9673 7.3554l-1.9579 0 0 -6.35 1.9579 0 0 6.35z"/>
  <sodipodi:namedview inkscape:window-height="749" inkscape:window-width="1024" inkscape:pageshadow="2" inkscape:pageopacity="1" guidetolerance="10.0" gridtolerance="10.0" objecttolerance="10.0" borderopacity="1.0" bordercolor="#666666" pagecolor="white" id="base" inkscape:zoom="1.05" inkscape:cx="426.38288" inkscape:cy="175.14" inkscape:window-x="545" inkscape:window-y="8" inkscape:current-layer="g2015" inkscape:showpageshadow="false" showborder="true" showgrid="true" gridempspacing="20" width="440px" height="360px"/>
 </g>
</svg>
