<?xml version="1.0" encoding="UTF-8"?>
<!DOCTYPE svg PUBLIC "-//W3C//DTD SVG 1.1//EN" "http://www.w3.org/Graphics/SVG/1.1/DTD/svg11.dtd">
<!-- Creator: CorelDRAW -->
<svg xmlns="http://www.w3.org/2000/svg" xml:space="preserve" width="30mm" height="20mm" style="shape-rendering:geometricPrecision; text-rendering:geometricPrecision; image-rendering:optimizeQuality; fill-rule:evenodd; clip-rule:evenodd"
viewBox="0 0 30 20"
 xmlns:xlink="http://www.w3.org/1999/xlink"
 xmlns:dc="http://purl.org/dc/elements/1.1/"
 xmlns:cc="http://web.resource.org/cc/"
 xmlns:rdf="http://www.w3.org/1999/02/22-rdf-syntax-ns#"
 xmlns:svg="http://www.w3.org/2000/svg"
 xmlns:sodipodi="http://sodipodi.sourceforge.net/DTD/sodipodi-0.dtd"
 xmlns:inkscape="http://www.inkscape.org/namespaces/inkscape"
 version="1.0"
 sodipodi:version="0.32"
 inkscape:version="0.44.1"
 sodipodi:docname="Fahrrad_aus_Zusatzzeichen_1000-32.svg"
 sodipodi:docbase="L:\Wiki\pedia\ksh\svg">
 <defs>
  <style type="text/css">
   <![CDATA[
    .str1 {stroke:#84C225;stroke-width:0.0762}
    .str0 {stroke:white;stroke-width:0.2}
    .str2 {stroke:white}
    .fil3 {fill:none;fill-rule:nonzero}
    .fil0 {fill:#84C225}
    .fil1 {fill:white}
    .fil2 {fill:#84C225;fill-rule:nonzero}
   ]]>
  </style>
 </defs>
 <g id="Ebene_x0020_1">
  <metadata id="CorelCorpID_0Corel-Layer"/>
  <rect class="fil0 str0" width="30" height="20" rx="4.0158" ry="4.0158"/>
  <circle class="fil1 str0" cx="7" cy="10" r="6"/>
  <path class="fil2" d="M6.8801 7.1986c-0.3302,0 -0.6011,-0.0974 -0.8107,-0.2942 -0.2116,-0.1969 -0.3175,-0.4361 -0.3175,-0.7218 0,-0.2942 0.1059,-0.5334 0.3175,-0.7197 0.2096,-0.1863 0.4805,-0.2794 0.8107,-0.2794 0.3366,0 0.6075,0.0931 0.817,0.2794 0.2075,0.1863 0.3133,0.4255 0.3133,0.7197 0,0.2984 -0.1058,0.5418 -0.3133,0.7323 -0.2095,0.1884 -0.4804,0.2837 -0.817,0.2837zm0.9673 7.3554l-1.9579 0 0 -6.35 1.9579 0 0 6.35z"/>
  <path id="1" class="fil3 str1" d="M6.8801 7.1986c-0.3302,0 -0.6011,-0.0974 -0.8107,-0.2942 -0.2116,-0.1969 -0.3175,-0.4361 -0.3175,-0.7218 0,-0.2942 0.1059,-0.5334 0.3175,-0.7197 0.2096,-0.1863 0.4805,-0.2794 0.8107,-0.2794 0.3366,0 0.6075,0.0931 0.817,0.2794 0.2075,0.1863 0.3133,0.4255 0.3133,0.7197 0,0.2984 -0.1058,0.5418 -0.3133,0.7323 -0.2095,0.1884 -0.4804,0.2837 -0.817,0.2837zm0.9673 7.3554l-1.9579 0 0 -6.35 1.9579 0 0 6.35z"/>
  <sodipodi:namedview inkscape:window-height="749" inkscape:window-width="1024" inkscape:pageshadow="2" inkscape:pageopacity="1" guidetolerance="10.0" gridtolerance="10.0" objecttolerance="10.0" borderopacity="1.0" bordercolor="#666666" pagecolor="white" id="base" inkscape:zoom="1.05" inkscape:cx="426.38288" inkscape:cy="175.14" inkscape:window-x="545" inkscape:window-y="8" inkscape:current-layer="g2015" inkscape:showpageshadow="false" showborder="true" showgrid="true" gridempspacing="20" width="440px" height="360px"/>
  <circle id="circle2001" class="fil0 str2" cx="16.741" cy="11.8911" r="2.68283" sodipodi:cx="215" sodipodi:cy="409" sodipodi:rx="161" sodipodi:ry="161"/>
  <circle id="circle2003" class="fil0 str2" cx="26.3226" cy="11.8411" r="2.68283" sodipodi:cx="790" sodipodi:cy="406" sodipodi:rx="161" sodipodi:ry="161"/>
  <path id="path2005" class="fil1 str0" d="M20.3151 5.3334c-2.209,0.0216 -1.8344,-0.2282 -3.0229,3.5913 -0.9682,3.0518 -0.8627,2.719 -0.8678,2.933 -0.0035,0.1664 0.1307,0.2982 0.2994,0.3095 0.3508,-0.0355 0.2033,0.0379 1.4196,-3.7391 4.4444,4.6884 2.7769,3.9281 5.1687,4.0233 3.1435,-0.0301 3.399,0.1636 3.4363,-0.2971 -0.0043,-0.1565 -0.0775,-0.2498 -2.2348,-5.0511l0.2066 -0.5684 0.7106 -0.0129 -0.0259 -0.5942 -2.6482 0c-0.234,0.3201 0.0947,0.3186 1.2789,0.5813l-0.2067 0.5813 -5.2836 0.0129c0.356,-1.243 0.155,-1.1655 1.7569,-1.1626l0.0129 -0.6072zm-1.9225 2.407l5.1701 -0.0092 -1.4942 4.0151 -3.6759 -4.0059zm5.7935 0.2383l-1.4667 3.8501 3.2083 0.0091 -1.7416 -3.8592z"/>
 </g>
</svg>
