<?xml version="1.0" encoding="UTF-8"?>
<!DOCTYPE svg PUBLIC "-//W3C//DTD SVG 1.1//EN" "http://www.w3.org/Graphics/SVG/1.1/DTD/svg11.dtd">
<!-- Creator: CorelDRAW -->
<svg xmlns="http://www.w3.org/2000/svg" xml:space="preserve" width="30mm" height="20mm" style="shape-rendering:geometricPrecision; text-rendering:geometricPrecision; image-rendering:optimizeQuality; fill-rule:evenodd; clip-rule:evenodd"
viewBox="0 0 30 20"
 xmlns:xlink="http://www.w3.org/1999/xlink">
 <defs>
  <style type="text/css">
   <![CDATA[
    .str1 {stroke:#84C225;stroke-width:0.0762}
    .str0 {stroke:white;stroke-width:0.2}
    .fil3 {fill:none;fill-rule:nonzero}
    .fil0 {fill:#84C225}
    .fil1 {fill:white}
    .fil2 {fill:#84C225;fill-rule:nonzero}
   ]]>
  </style>
 </defs>
 <g id="Ebene_x0020_1">
  <metadata id="CorelCorpID_0Corel-Layer"/>
  <rect class="fil0 str0" width="30" height="20" rx="4.0158" ry="4.0158"/>
  <g id="_158430000">
   <path id="_158431128" class="fil1 str0" d="M14.6818 3.9295c0.6326,0 1.1457,0.5131 1.1457,1.1457 0,0.6327 -0.5131,1.1458 -1.1457,1.1458 -0.6327,0 -1.1457,-0.5131 -1.1457,-1.1458 0,-0.6326 0.513,-1.1457 1.1457,-1.1457z"/>
   <polygon id="_158428152" class="fil1 str0" points="21.6218,6.3843 25.1017,5.2031 25.4535,5.865 25.6817,5.7566 25.3681,5.0965 25.7602,4.9574 25.5833,4.7333 25.2243,4.849 24.857,4.096 24.5858,4.2343 24.9847,4.9368 21.5474,6.2033 "/>
   <polygon id="_158028288" class="fil1 str0" points="15.9257,8.4854 16.9828,8.1009 16.8318,7.8426 15.8074,8.2181 "/>
   <path id="_155431968" class="fil1 str0" d="M21.1866 5.903l-1.2985 1.9136 -2.4177 -0.5488c0.366,0.5715 1.0685,1.1514 1.3214,1.7169 0.1149,0.257 0.0835,0.6696 -0.0205,0.7986l-4.196 -0.5996c0.2173,-0.6634 0.7751,-0.6243 1.1626,-0.5214l1.7538 0.3085 -1.3198 -2.2564c-0.3477,-0.5819 -0.0781,-1.7172 1.1921,-1.554l3.8226 0.7426z"/>
   <path id="_158431296" class="fil1 str0" d="M21.5364 5.9906c-3.179,4.5839 -3.2301,3.6082 0.9209,6.8226 0.6439,-0.4722 0.3511,-1.0268 0.2286,-1.1601l-2.2139 -1.9372 1.362 -2.206c0.2887,-0.4606 0.043,-1.4554 -0.2976,-1.5193z"/>
   <path id="_158434776" class="fil1 str0" d="M28.7951 11.1852l-13.1672 4.6985c-0.2257,0.0751 -1.1469,0.5306 -2.4229,-0.334 0.6628,0.1772 1.3834,0.1451 2.1398,-0.126l13.1632 -4.8314 0.2871 0.5929z"/>
  </g>
  <circle class="fil1 str0" cx="7" cy="10" r="6"/>
  <path class="fil2" d="M6.8801 7.1986c-0.3302,0 -0.6011,-0.0974 -0.8107,-0.2942 -0.2116,-0.1969 -0.3175,-0.4361 -0.3175,-0.7218 0,-0.2942 0.1059,-0.5334 0.3175,-0.7197 0.2096,-0.1863 0.4805,-0.2794 0.8107,-0.2794 0.3366,0 0.6075,0.0931 0.817,0.2794 0.2075,0.1863 0.3133,0.4255 0.3133,0.7197 0,0.2984 -0.1058,0.5418 -0.3133,0.7323 -0.2095,0.1884 -0.4804,0.2837 -0.817,0.2837zm0.9673 7.3554l-1.9579 0 0 -6.35 1.9579 0 0 6.35z"/>
  <path id="1" class="fil3 str1" d="M6.8801 7.1986c-0.3302,0 -0.6011,-0.0974 -0.8107,-0.2942 -0.2116,-0.1969 -0.3175,-0.4361 -0.3175,-0.7218 0,-0.2942 0.1059,-0.5334 0.3175,-0.7197 0.2096,-0.1863 0.4805,-0.2794 0.8107,-0.2794 0.3366,0 0.6075,0.0931 0.817,0.2794 0.2075,0.1863 0.3133,0.4255 0.3133,0.7197 0,0.2984 -0.1058,0.5418 -0.3133,0.7323 -0.2095,0.1884 -0.4804,0.2837 -0.817,0.2837zm0.9673 7.3554l-1.9579 0 0 -6.35 1.9579 0 0 6.35z"/>
 </g>
</svg>
