<?xml version="1.0" encoding="UTF-8"?>
<!DOCTYPE svg PUBLIC "-//W3C//DTD SVG 1.1//EN" "http://www.w3.org/Graphics/SVG/1.1/DTD/svg11.dtd">
<!-- Creator: CorelDRAW -->
<svg xmlns="http://www.w3.org/2000/svg" xml:space="preserve" width="30mm" height="20mm" style="shape-rendering:geometricPrecision; text-rendering:geometricPrecision; image-rendering:optimizeQuality; fill-rule:evenodd; clip-rule:evenodd"
viewBox="0 0 30 20"
 xmlns:xlink="http://www.w3.org/1999/xlink"
 version="1.1">
 <defs>
  <style type="text/css">
   <![CDATA[
    .str1 {stroke:#84C225;stroke-width:0.0762}
    .str0 {stroke:white;stroke-width:0.2}
    .fil3 {fill:none;fill-rule:nonzero}
    .fil0 {fill:#84C225}
    .fil1 {fill:white}
    .fil2 {fill:#84C225;fill-rule:nonzero}
   ]]>
  </style>
 </defs>
 <g id="Ebene_x0020_1">
  <metadata id="CorelCorpID_0Corel-Layer"/>
  <rect class="fil0 str0" width="30" height="20" rx="4.0158" ry="4.0158"/>
  <circle class="fil1 str0" cx="7" cy="10" r="6"/>
  <path class="fil2" d="M6.8801 7.1986c-0.3302,0 -0.6011,-0.0974 -0.8107,-0.2942 -0.2116,-0.1969 -0.3175,-0.4361 -0.3175,-0.7218 0,-0.2942 0.1059,-0.5334 0.3175,-0.7197 0.2096,-0.1863 0.4805,-0.2794 0.8107,-0.2794 0.3366,0 0.6075,0.0931 0.817,0.2794 0.2075,0.1863 0.3133,0.4255 0.3133,0.7197 0,0.2984 -0.1058,0.5418 -0.3133,0.7323 -0.2095,0.1884 -0.4804,0.2837 -0.817,0.2837zm0.9673 7.3554l-1.9579 0 0 -6.35 1.9579 0 0 6.35z"/>
  <path id="1" class="fil3 str1" d="M6.8801 7.1986c-0.3302,0 -0.6011,-0.0974 -0.8107,-0.2942 -0.2116,-0.1969 -0.3175,-0.4361 -0.3175,-0.7218 0,-0.2942 0.1059,-0.5334 0.3175,-0.7197 0.2096,-0.1863 0.4805,-0.2794 0.8107,-0.2794 0.3366,0 0.6075,0.0931 0.817,0.2794 0.2075,0.1863 0.3133,0.4255 0.3133,0.7197 0,0.2984 -0.1058,0.5418 -0.3133,0.7323 -0.2095,0.1884 -0.4804,0.2837 -0.817,0.2837zm0.9673 7.3554l-1.9579 0 0 -6.35 1.9579 0 0 6.35z"/>
  <g id="_158429376">
   <path id="Wanderer" class="fil1 str0" d="M18.613 11.3541l-1.0486 1.9133 1.8354 3.3866 -0.5023 0.265 -1.6601 -3.0358 -1.3334 2.4416 -0.0226 0.0656 -0.1752 0.2207 -0.1078 0.0872 -0.1096 0.066 -0.1312 0.066c-0.3187,0.1474 -0.6986,0.1115 -1.0056,-0.0432l2.2294 -4.114 -1.9234 -3.5413c-0.2863,0.0469 -0.5835,-0.2449 -0.5464,-0.5272 0.0142,-0.1433 0.0809,-0.2849 0.1963,-0.3736l3.4314 -2.5962 0.0655 -0.0448 0.1523 -0.0872 0.1322 -0.066 0.1522 -0.0443 0.1537 -0.0213 0.1752 -0.0231 0.1523 0 0.1537 0.0231 0.1522 0.0444 0.3056 0.1316 0.1963 0.1319 1.6179 1.3861c0.1934,0.1203 0.2775,0.3795 0.3059,0.5928 0.0241,0.9367 0.2488,2.1424 -0.9834,2.2656l0 -2.1552 -0.7211 -0.5943 0 3.3221 -2.295 0 0 -3.3881 -2.2949 1.7384 1.7486 3.2338 0.4811 -0.8809 0.0211 -0.0213 0.023 -0.066 0.0211 -0.0443 0 -0.2863 2.295 0 0 0.2203 0.0215 0.066 0.0225 0.0443 0 0.066 0.0215 0.0213 1.639 3.0145 1.639 -3.0145 0.0211 -0.0213 0.023 -0.066 0.0211 -0.0443 0 -0.1104 0.023 -0.0429 0 -0.133 2.272 0c-0.0128,0.1143 0.0058,0.2203 0.0215,0.3306 0.8166,1.4866 1.9449,2.9456 2.4257,4.5968 0.098,0.4597 -0.138,1.0111 -0.5678,1.2101l-3.0162 -5.5649 -2.2068 4.0685 0.0656 0.199 0.0215 0.1316 0.0226 0.1317 0 0.1319 -0.0226 0.1316c-0.1239,0.3927 -0.2149,0.5485 -0.5678,0.7706l-0.1964 -0.331c-0.3726,0.3567 -0.9061,0.4425 -1.356,0.1991l0.7216 -1.3645 -2.1854 -4.0685zm4.5685 -0.8579l2.272 0 0 -2.4415 1.5294 2.4415c0.2833,-0.1833 0.4694,-0.5154 0.4596,-0.8578 0.0215,-0.2892 -0.0798,-0.3233 -0.1537,-0.5283l-2.0101 -3.2334 -0.0441 -0.0443 -0.0871 -0.1089 -0.0881 -0.0887 -0.1082 -0.0876c-0.3882,-0.2361 -0.8748,-0.275 -1.2675,-0.0228 -0.2149,0.1573 -0.2873,0.2819 -0.4155,0.507l-0.0441 0.1316 -0.0426 0.1316 0 2.0449 -1.4427 1.4309c0.4367,0.3996 1.0173,0.3853 1.4427,-0.0231l0 0.7489zm-3.9996 -6.7091c-0.0611,-1.462 -2.0884,-1.5778 -2.2945,-0.0887 0.0113,1.5811 2.1867,1.6427 2.2945,0.0887zm5.8349 0c-0.0343,-1.4546 -2.0914,-1.5852 -2.2735,-0.0887 -0.0258,1.5709 2.1952,1.6457 2.2735,0.0887z"/>
  </g>
 </g>
</svg>
