<?xml version="1.0" encoding="UTF-8" standalone="no"?>
<!-- Created with Inkscape (http://www.inkscape.org/) -->
<svg
   xmlns:dc="http://purl.org/dc/elements/1.1/"
   xmlns:cc="http://web.resource.org/cc/"
   xmlns:rdf="http://www.w3.org/1999/02/22-rdf-syntax-ns#"
   xmlns:svg="http://www.w3.org/2000/svg"
   xmlns="http://www.w3.org/2000/svg"
   xmlns:sodipodi="http://sodipodi.sourceforge.net/DTD/sodipodi-0.dtd"
   xmlns:inkscape="http://www.inkscape.org/namespaces/inkscape"
   width="32"
   height="32"
   id="svg2"
   sodipodi:version="0.32"
   inkscape:version="0.45.1"
   version="1.0"
   sodipodi:docbase="C:\Dokumente und Einstellungen\ulfl\Eigene Dateien\svn.openstreetmap.org\applications\share\map-icons\svg"
   sodipodi:docname="religion.svg"
   inkscape:output_extension="org.inkscape.output.svg.inkscape">
  <defs
     id="defs4">
</defs>
  <sodipodi:namedview
     id="base"
     pagecolor="#ffffff"
     bordercolor="#666666"
     borderopacity="1.0"
     gridtolerance="10000"
     guidetolerance="10"
     objecttolerance="10"
     inkscape:pageopacity="0.0"
     inkscape:pageshadow="2"
     inkscape:zoom="7.919596"
     inkscape:cx="15.870025"
     inkscape:cy="14.112383"
     inkscape:document-units="px"
     inkscape:current-layer="layer1"
     width="32px"
     height="32px"
     inkscape:window-width="1400"
     inkscape:window-height="960"
     inkscape:window-x="-4"
     inkscape:window-y="-4" />
  <metadata
     id="metadata7">
    <rdf:RDF>
      <cc:Work
         rdf:about="">
        <dc:format>image/svg+xml</dc:format>
        <dc:type
           rdf:resource="http://purl.org/dc/dcmitype/StillImage" />
        <cc:license
           rdf:resource="http://web.resource.org/cc/PublicDomain" />
      </cc:Work>
      <cc:License
         rdf:about="http://web.resource.org/cc/PublicDomain">
        <cc:permits
           rdf:resource="http://web.resource.org/cc/Reproduction" />
        <cc:permits
           rdf:resource="http://web.resource.org/cc/Distribution" />
        <cc:permits
           rdf:resource="http://web.resource.org/cc/DerivativeWorks" />
      </cc:License>
    </rdf:RDF>
  </metadata>
  <g
     inkscape:label="Layer 1"
     inkscape:groupmode="layer"
     id="layer1">
    <g
       id="g2212"
       transform="translate(-23.005076,-11.785714)">
      <g
         id="g3385">
        <rect
           style="fill:#000000;fill-opacity:1;stroke:none;stroke-width:1;stroke-linecap:square;stroke-linejoin:miter;stroke-miterlimit:1;stroke-dasharray:none;stroke-dashoffset:18;stroke-opacity:1"
           id="rect3279"
           width="2.6737955"
           height="14.220004"
           x="30.11763"
           y="13.291089"
           transform="matrix(0.999933,-1.1572613e-2,1.1572613e-2,0.999933,0,0)" />
        <rect
           style="fill:#000000;fill-opacity:1;stroke:none;stroke-width:1;stroke-linecap:square;stroke-linejoin:miter;stroke-miterlimit:1;stroke-dasharray:none;stroke-dashoffset:18;stroke-opacity:1"
           id="rect3281"
           width="9.8616724"
           height="2.3008447"
           x="26.513855"
           y="16.258488"
           transform="matrix(0.9999009,-1.4081469e-2,9.5106519e-3,0.9999548,0,0)" />
      </g>
    </g>
    <path
       d="M 29.283943,6.5690673 L 27.583702,6.2113774 L 26.689575,7.7011263 L 26.504323,5.9735758 L 24.811169,5.5835274 L 26.396958,4.8735191 L 26.244679,3.1427327 L 27.40997,4.431471 L 29.008993,3.7518149 L 28.143438,5.2583254 L 29.283943,6.5690673 z "
       id="path273"
       style="font-size:12px;fill:#000000;fill-rule:evenodd;stroke-width:1pt" />
    <path
       d="M 29.925303,10.970691 C 28.415734,14.296492 24.454579,15.749476 21.119079,14.204208 C 17.783611,12.658971 16.330657,8.6977845 17.875925,5.362316 C 18.664084,3.6610523 19.953915,2.4919215 21.774639,1.8538392 C 21.565219,2.0309379 21.358,2.2146372 21.130917,2.4489716 C 18.778927,4.8762318 18.840036,8.7550511 21.267266,11.10704 C 23.694526,13.45903 27.573345,13.397952 29.925303,10.970691 z "
       id="path278"
       style="font-size:12px;fill:#000000;fill-rule:evenodd;stroke-width:1pt" />
    <g
       id="g3335"
       transform="matrix(6.562822e-2,0,0,6.562822e-2,0.8399029,16.976311)">
      <path
         id="path6"
         d="M 110.986,16.235 C 111.176,15.1 111.989,15.68 111.986,16.235 C 117.615,20.462 122.685,22.846 126.985,28.234 C 130.577,32.735 132.24,39.903 136.983,45.232 C 147.447,56.987 167.468,61.769 182.978,60.23 C 203.518,58.191 219.115,40.292 217.973,15.236 C 223.04,17.449 226.464,21.651 229.972,25.235 C 233.9,29.248 239.643,33.822 239.97,41.233 C 240.88,61.851 223.887,79.922 205.975,82.228 C 182.026,85.311 159.201,71.005 146.982,60.231 C 130.861,46.016 121.354,30.583 110.986,16.235 z "
         clip-rule="evenodd"
         style="fill-rule:evenodd" />
      <path
         id="path8"
         d="M 3,150.219 C 5.805,150.273 7.575,153.389 9.999,155.218 C 19.038,162.039 32.578,169.417 46.995,173.216 C 64.65,177.868 83.548,180.324 94.989,172.216 C 105.909,164.477 113.333,135.49 95.989,127.222 C 81.845,120.48 72.268,135.91 54.994,133.221 C 46.629,131.919 41.371,122.995 35.996,117.223 C 34.296,115.398 31.214,114.807 31.996,112.224 C 46.477,113.754 57.142,106.039 65.992,100.225 C 75.44,94.017 85.45,87.486 83.99,70.229 C 68.012,63.626 48.387,66.302 30.997,71.229 C 27.38,72.254 23.837,74.447 21.998,74.229 C 12.378,73.088 6.979,58.357 0,53.231 C 17.235,46.76 33.888,43.066 53.993,45.232 C 67.707,46.71 81.101,56.97 90.989,67.229 C 97.691,74.183 108.017,85.425 104.987,101.225 C 104.704,102.699 101.558,107.808 99.987,110.224 C 96.845,115.058 91.867,116.511 97.987,122.223 C 101.493,125.494 108.431,130.261 110.986,133.221 C 129.213,122.569 144.141,105.821 175.977,108.224 C 194.958,109.658 205.175,117.424 215.972,128.222 C 225.794,138.044 240.515,149.654 239.969,163.217 C 239.392,177.58 223.815,172.551 212.973,179.215 C 205.961,183.525 204.728,187.712 202.974,198.213 C 197.006,195.16 194.527,192.765 190.976,189.214 C 187.514,185.752 182.811,181.585 181.977,177.216 C 180.452,169.23 185.006,160.854 188.976,158.218 C 197.84,152.331 215.283,156.683 217.972,145.22 C 218.427,143.279 218.101,137.555 217.972,137.221 C 215.357,130.433 194.415,129.357 185.976,130.222 C 160.601,132.821 141.519,149.65 126.984,162.217 C 129.68,187.138 118.255,200.904 91.988,199.213 C 53.93,196.763 20.814,171.461 3,150.219 z "
         clip-rule="evenodd"
         style="fill-rule:evenodd" />
      <rect
         id="rect10"
         height="23.318001"
         width="23.318001"
         clip-rule="evenodd"
         transform="matrix(0.7071,-0.7071,0.7071,0.7071,39.1583,127.513)"
         y="4.829"
         x="161.842"
         style="fill-rule:evenodd" />
    </g>
    <g
       style="overflow:visible"
       id="g3379"
       transform="matrix(0.1775499,0,0,0.1775499,17.674245,16.718066)">
      <g
         id="g3"
         transform="matrix(0.454369,0,0,-0.454369,0,532)">
	<path
   id="path5"
   d="M 79.028,1126.463 C 78.328,1126.115 77.628,1125.122 77.454,1123.953 C 77.221,1122.786 76.519,1121.793 75.642,1121.327 C 74.067,1120.45 72.782,1117.297 73.133,1115.197 C 73.308,1114.32 73.133,1113.68 72.547,1113.445 C 71.905,1113.211 71.788,1112.392 72.082,1109.181 C 72.666,1103.634 72.9,1103.109 74.475,1103.344 C 75.236,1103.46 75.935,1103.284 76.05,1102.994 C 76.284,1102.409 75.7,1102.059 70.854,1099.957 C 66.358,1098.031 65.891,1097.505 65.365,1093.651 C 65.133,1092.015 64.49,1087.637 63.965,1083.958 C 63.441,1080.281 63.147,1076.835 63.264,1076.367 C 63.439,1075.726 62.329,1074.615 59.877,1072.924 C 54.274,1069.186 51.997,1066.732 51.997,1064.458 C 51.997,1062.12 53.69,1060.194 56.2,1059.728 C 57.252,1059.554 69.22,1059.436 82.766,1059.554 C 106.705,1059.728 107.405,1059.788 109.043,1060.955 C 110.969,1062.414 111.433,1064.983 110.148,1067.493 C 109.684,1068.426 107.229,1070.53 104.547,1072.282 C 100.635,1074.85 99.874,1075.609 100.107,1076.602 C 100.343,1077.593 99.406,1085.068 97.715,1095.522 C 97.365,1097.798 96.079,1098.733 90.711,1100.601 C 88.551,1101.36 86.679,1102.295 86.505,1102.703 C 86.387,1103.111 86.739,1103.23 87.5,1102.995 C 89.191,1102.41 89.89,1103.988 90.359,1109.359 C 90.593,1112.454 90.535,1113.737 90.011,1113.737 C 89.659,1113.737 89.366,1114.788 89.366,1116.366 C 89.366,1118.642 89.078,1119.345 87.324,1121.094 C 86.213,1122.203 85.28,1123.604 85.28,1124.247 C 85.276,1126.521 81.772,1127.807 79.028,1126.463 z M 83.64,1123.078 C 84.225,1121.967 85.45,1120.159 86.501,1119.108 C 87.963,1117.528 88.195,1116.83 87.902,1115.603 C 87.378,1113.561 87.32,1113.503 85.86,1114.32 C 84.691,1114.963 78.033,1114.905 75.935,1114.32 C 75.291,1114.086 75,1114.554 74.883,1115.898 C 74.708,1117.708 75.058,1118.29 77.919,1120.626 C 78.447,1121.034 78.853,1122.027 78.853,1122.786 C 78.853,1124.245 80.312,1125.47 81.774,1125.238 C 82.241,1125.18 83.116,1124.187 83.64,1123.078 z M 85.86,1111.984 C 87.201,1110.643 87.962,1110.527 88.368,1111.576 C 88.834,1112.629 88.834,1109.534 88.426,1107.432 C 88.194,1106.205 87.786,1105.738 87.261,1105.973 C 85.916,1106.439 84.69,1104.98 84.69,1102.936 C 84.69,1101.416 84.982,1100.892 86.323,1100.426 C 92.919,1097.974 94.791,1097.041 95.548,1095.93 C 96.017,1095.229 96.661,1092.545 96.949,1090.032 C 97.241,1087.464 97.766,1083.9 98.118,1082.03 C 98.875,1078.12 98.582,1076.777 96.777,1075.668 C 95.197,1074.675 89.708,1072.513 87.374,1071.993 C 85.799,1071.636 85.738,1071.696 86.439,1072.573 C 87.084,1073.329 87.084,1073.798 86.557,1074.675 C 85.798,1075.9 86.265,1076.074 88.365,1075.26 C 89.592,1074.791 90.119,1075.084 92.513,1077.478 L 95.197,1080.225 L 93.68,1084.717 C 92.687,1087.696 91.87,1089.215 91.288,1089.215 C 90.703,1089.215 90.527,1088.923 90.819,1088.22 C 91.051,1087.638 91.578,1085.886 91.988,1084.308 C 92.452,1082.788 92.921,1081.331 93.157,1081.155 C 93.329,1080.981 92.628,1079.988 91.635,1078.937 C 89.941,1077.185 89.591,1077.067 86.967,1077.359 C 84.513,1077.651 84.044,1077.535 82.703,1076.19 C 81.885,1075.375 81.186,1074.907 81.186,1075.201 C 81.186,1075.493 80.543,1076.19 79.669,1076.718 C 78.502,1077.535 77.799,1077.591 76.283,1077.124 C 74.531,1076.6 74.122,1076.718 72.196,1078.349 L 70.036,1080.161 L 71.262,1083.606 C 72.603,1087.634 72.72,1088.627 71.669,1088.627 C 71.025,1088.627 70.326,1086.757 68.573,1080.451 C 68.457,1079.929 69.45,1078.409 70.968,1076.95 C 73.42,1074.498 73.713,1074.377 75.347,1075.022 C 77.157,1075.725 77.624,1075.375 76.397,1074.145 C 75.932,1073.681 75.932,1073.268 76.514,1072.567 C 78.089,1070.699 74.354,1071.694 67.288,1075.019 C 64.543,1076.304 64.193,1077.413 65.128,1081.091 C 65.594,1082.845 66.005,1085.239 66.005,1086.408 C 66.005,1087.633 66.237,1089.735 66.589,1091.078 C 66.88,1092.479 67.29,1094.231 67.407,1095.048 C 67.64,1096.157 68.573,1096.918 70.968,1098.143 C 72.72,1099.02 74.587,1099.721 75.055,1099.721 C 76.339,1099.721 77.682,1101.413 77.682,1103.166 C 77.682,1105.034 76.397,1106.435 75.055,1105.911 C 74.354,1105.677 74.179,1106.025 74.179,1107.544 C 74.179,1108.653 74.004,1109.996 73.829,1110.465 C 73.596,1111.108 73.713,1111.34 74.295,1111.108 C 74.761,1110.932 75.638,1111.282 76.223,1111.983 C 77.745,1113.677 84.167,1113.677 85.86,1111.984 z M 70.094,1071.754 C 72.604,1070.587 74.123,1070.295 77.101,1070.355 C 79.204,1070.355 82.998,1070.413 85.624,1070.413 C 89.772,1070.471 90.823,1070.703 94.21,1072.341 L 98.006,1074.267 L 102.674,1071.172 C 108.456,1067.437 109.332,1066.444 109.098,1064.342 C 108.748,1061.247 108.163,1061.191 81.48,1061.191 C 55.09,1061.191 54.155,1061.307 53.922,1064.11 C 53.746,1065.92 54.446,1066.852 58.009,1069.423 C 59.527,1070.472 61.628,1071.994 62.621,1072.75 C 64.664,1074.206 65.074,1074.148 70.094,1071.754 z " />

</g>
      <g
         id="g7"
         transform="matrix(0.156,0,0,-0.156,0,461)">
	<path
   id="path9"
   d="M 245.84,2488.625 C 250.56,2493.07 261.19,2500.413 269.453,2505.189 C 287.332,2515.255 300.471,2527.719 303.858,2538.136 C 305.029,2542.243 306.713,2545.836 307.558,2546.343 C 308.234,2546.85 313.975,2545.147 320.216,2542.756 C 333.03,2537.46 340.279,2537.629 362.722,2543.777 C 369.796,2545.655 382.278,2548.222 390.711,2549.242 L 405.879,2551.295 L 406.893,2564.948 C 407.394,2572.466 409.935,2586.301 412.464,2595.691 C 417.691,2614.984 417.528,2625.057 411.963,2637.52 C 410.098,2641.789 408.414,2646.228 408.414,2647.254 C 408.414,2648.45 411.963,2650.334 416.339,2651.53 C 426.968,2654.084 440.284,2667.568 451.414,2687.049 C 455.971,2694.905 463.058,2705.14 466.92,2709.754 L 474.363,2717.948 L 467.27,2725.979 C 463.383,2730.417 456.302,2740.822 451.251,2749.37 C 446.362,2757.74 439.445,2767.975 435.895,2771.74 C 429.504,2778.736 417.691,2786.079 412.62,2786.079 C 408.582,2786.079 407.743,2791.031 410.78,2797.35 C 417.184,2811.357 417.021,2823.645 409.935,2848.059 C 408.082,2854.382 406.054,2865.484 405.378,2872.824 L 404.207,2885.967 L 391.543,2887.172 C 384.632,2888.02 371.311,2890.412 362.033,2892.806 C 342.808,2897.579 329.662,2898.099 319.884,2894.337 C 306.049,2888.869 304.872,2889.044 302.337,2897.924 C 299.138,2908.679 288.346,2919.274 267.431,2931.907 C 258.323,2937.538 247.192,2944.881 242.979,2948.634 L 235.048,2955.129 L 226.124,2947.786 C 221.063,2943.682 209.591,2935.833 200.486,2930.364 C 182.266,2919.274 171.652,2908.848 168.616,2898.438 C 166.247,2890.068 163.549,2888.882 156.134,2892.632 C 141.464,2899.631 130.333,2899.462 104.357,2891.784 C 98.116,2889.894 87.154,2887.853 79.905,2887.167 L 66.919,2885.968 L 65.908,2873.173 C 65.404,2866.159 62.878,2851.992 60.177,2841.751 C 54.947,2820.401 55.116,2809.815 61.016,2798.04 C 63.044,2794.102 64.221,2790.002 63.886,2788.979 C 63.545,2787.786 59.667,2785.908 55.454,2784.722 C 43.986,2781.301 35.384,2772.59 23.243,2752.267 C 17.174,2742.195 9.242,2730.42 5.53,2726.144 C -0.877,2718.629 -1.049,2718.119 1.649,2715.048 C 7.89,2708.046 15.311,2697.467 23.575,2683.632 C 36.561,2662.285 43.141,2655.969 59.833,2649.646 C 65.401,2647.436 65.401,2645.89 60.844,2636.318 C 57.811,2630.008 57.476,2626.765 58.152,2614.815 C 58.65,2607.14 60.512,2595.008 62.531,2587.997 C 64.556,2581.011 66.753,2569.73 67.254,2563.251 C 67.761,2556.584 69.11,2550.781 70.124,2550.092 C 71.132,2549.422 76.193,2548.727 81.251,2548.727 C 86.312,2548.727 99.63,2546.342 110.764,2543.606 C 134.546,2537.628 139.61,2537.459 152.093,2542.066 C 157.139,2543.938 162.538,2545.834 163.893,2546.341 C 165.912,2547.023 167.599,2544.632 170.466,2537.796 C 175.693,2524.819 183.452,2517.295 206.045,2503.641 C 216.678,2497.168 228.143,2489.474 231.348,2486.232 L 237.254,2480.767 L 245.84,2488.625 z M 224.093,2501.434 C 218.359,2505.534 209.93,2510.655 205.207,2513.04 C 200.653,2515.256 192.559,2521.41 187.328,2526.699 C 179.065,2534.73 177.547,2537.46 176.539,2544.452 C 175.187,2553.51 177.891,2569.567 181.428,2572.465 C 182.946,2573.83 187.328,2573.31 196.94,2570.756 C 205.541,2568.371 217.517,2566.831 230.5,2566.311 C 250.059,2565.46 258.654,2566.649 288.17,2573.829 C 291.206,2574.511 292.395,2573.491 294.411,2568.37 C 298.123,2559.324 297.954,2543.267 293.735,2535.248 C 289.516,2526.884 283.45,2521.57 265.734,2511.666 C 257.815,2507.234 249.051,2501.431 246.015,2498.871 C 242.979,2496.304 239.267,2494.251 237.583,2494.101 C 235.896,2494.097 229.827,2497.333 224.093,2501.434 z M 323.921,2549.585 C 319.883,2551.125 314.312,2554.355 311.777,2556.922 C 305.542,2562.725 299.977,2573.667 301.16,2577.423 C 301.661,2578.957 307.558,2583.395 314.143,2587.151 C 335.214,2599.101 364.06,2629.844 373.162,2649.989 C 375.704,2655.454 379.24,2655.804 388.004,2651.354 C 400.649,2644.693 408.412,2631.722 408.412,2616.867 C 408.412,2613.449 406.221,2601.661 403.354,2590.919 C 400.487,2579.983 398.296,2568.877 398.296,2565.979 C 398.296,2559.663 396.593,2558.63 384.799,2556.921 C 379.741,2556.245 368.611,2553.86 360.347,2551.462 C 342.301,2546.499 333.875,2546.161 323.921,2549.585 z M 112.458,2551.464 C 103.178,2553.861 91.371,2556.409 86.31,2557.092 C 78.044,2557.95 77.036,2558.632 76.532,2562.382 C 76.194,2564.786 73.662,2576.223 70.795,2587.835 C 61.859,2624.894 65.233,2640.432 84.627,2650.335 C 89.175,2652.733 93.735,2654.598 94.574,2654.598 C 95.416,2654.598 100.477,2647.943 105.873,2639.743 C 121.395,2615.329 142.128,2596.204 168.11,2581.863 C 173.168,2578.958 172.999,2573.831 167.428,2564.786 C 156.466,2546.85 142.638,2543.607 112.458,2551.464 z M 206.393,2577.073 C 192.051,2579.984 171.982,2588.178 157.649,2596.88 C 129.313,2614.12 105.872,2646.228 96.26,2681.065 C 90.864,2700.534 90.864,2736.391 96.26,2756.025 C 114.643,2822.791 174.344,2866.158 242.979,2862.408 C 281.253,2860.361 313.642,2845.85 340.46,2818.522 C 378.058,2780.445 391.041,2722.909 373.682,2670.992 C 357.819,2623.698 318.193,2588.86 266.755,2576.904 C 253.434,2573.831 221.896,2573.831 206.393,2577.073 z M 388.85,2659.893 C 380.08,2662.122 380.08,2661.42 385.482,2684.489 C 390.352,2705.322 390.709,2728.19 386.496,2746.807 C 380.424,2773.281 380.424,2773.788 385.645,2775.841 C 388.337,2776.862 394.76,2778.06 399.98,2778.736 C 408.08,2779.59 411.11,2779.083 418.86,2775.496 C 429.151,2770.716 432.857,2766.438 444.676,2745.952 C 449.064,2738.437 454.786,2729.732 457.49,2726.317 C 460.182,2723.071 462.379,2719.487 462.379,2718.461 C 462.379,2717.434 460.025,2713.503 457.139,2709.922 C 454.284,2706.166 447.874,2696.256 442.822,2687.561 C 433.707,2671.842 423.078,2660.58 416.173,2659.203 C 408.757,2657.671 396.099,2658.015 388.85,2659.893 z M 48.03,2664.169 C 44.49,2666.892 38.584,2674.072 34.871,2679.869 C 31.162,2685.678 25.093,2695.237 21.384,2701.04 C 17.669,2706.856 13.628,2713.178 12.279,2715.216 C 10.088,2718.634 10.254,2719.488 14.808,2725.47 C 17.503,2729.051 24.589,2739.978 30.661,2749.884 C 46.849,2776.52 57.131,2782.323 79.902,2777.199 L 90.525,2774.983 L 90.359,2768.998 C 90.19,2765.765 88.669,2758.071 86.982,2751.936 C 82.938,2736.734 82.938,2701.039 86.982,2685.332 C 92.55,2664.849 92.55,2663.472 86.143,2660.58 C 82.259,2658.859 76.193,2658.189 67.419,2658.351 C 55.952,2658.86 53.933,2659.38 48.03,2664.169 z M 368.781,2793.601 C 356.299,2815.282 331.515,2839.534 310.438,2850.968 C 302.338,2855.237 300.472,2857.122 300.472,2860.53 C 300.472,2869.241 311.44,2882.897 321.218,2886.659 C 329.156,2889.73 346.014,2888.706 362.885,2884.44 C 371.649,2882.211 382.786,2879.82 387.506,2879.141 L 396.276,2877.949 L 397.465,2868.387 C 398.116,2863.094 399.982,2854.214 401.672,2848.411 C 408.245,2827.067 408.927,2810.159 403.857,2800.597 C 401.334,2795.98 393.409,2788.809 387.331,2785.57 C 378.227,2780.621 375.704,2781.644 368.781,2793.601 z M 82.939,2786.424 C 65.064,2795.98 60.512,2814.938 68.773,2843.797 C 70.291,2849.09 72.482,2858.818 73.496,2865.316 L 75.515,2877.435 L 83.102,2878.797 C 87.155,2879.658 98.452,2882.212 108.067,2884.613 C 140.444,2892.46 156.297,2888.882 167.428,2870.947 C 173.669,2860.706 172.824,2857.291 162.539,2851.992 C 142.303,2841.575 120.719,2820.911 105.873,2797.527 C 95.415,2780.956 94.066,2780.446 82.939,2786.424 z M 272.489,2866.508 C 254.435,2871.456 220.888,2871.801 202.671,2867.356 C 180.079,2861.728 179.741,2861.728 177.715,2868.386 C 172.319,2885.46 174.003,2897.583 183.28,2908.522 C 186.316,2912.106 194.745,2918.425 202.001,2922.513 C 209.416,2926.789 219.204,2933.105 224.093,2936.692 C 228.988,2940.27 233.874,2943.171 235.223,2943.171 C 236.563,2943.171 240.45,2940.961 243.824,2938.229 C 247.361,2935.315 256.638,2929.349 264.732,2924.898 C 294.411,2908.171 301.491,2894.512 293.572,2868.386 C 291.376,2861.898 290.192,2861.729 272.489,2866.508 z " />

</g>
    </g>
  </g>
</svg>
