<?xml version="1.0" encoding="UTF-8" standalone="no"?>
<!-- Generator: Adobe Illustrator 13.0.2, SVG Export Plug-In . SVG Version: 6.00 Build 14948)  -->
<svg
   xmlns:dc="http://purl.org/dc/elements/1.1/"
   xmlns:cc="http://creativecommons.org/ns#"
   xmlns:rdf="http://www.w3.org/1999/02/22-rdf-syntax-ns#"
   xmlns:svg="http://www.w3.org/2000/svg"
   xmlns="http://www.w3.org/2000/svg"
   xmlns:sodipodi="http://sodipodi.sourceforge.net/DTD/sodipodi-0.dtd"
   xmlns:inkscape="http://www.inkscape.org/namespaces/inkscape"
   version="1.2"
   baseProfile="tiny"
   id="Layer_1"
   x="0px"
   y="0px"
   width="334.713px"
   height="279.209px"
   viewBox="0 0 334.713 279.209"
   xml:space="preserve"
   sodipodi:version="0.32"
   inkscape:version="0.46"
   sodipodi:docname="school.svg"
   inkscape:output_extension="org.inkscape.output.svg.inkscape"><metadata
   id="metadata20"><rdf:RDF><cc:Work
       rdf:about=""><dc:format>image/svg+xml</dc:format><dc:type
         rdf:resource="http://purl.org/dc/dcmitype/StillImage" /><cc:license
         rdf:resource="http://creativecommons.org/licenses/publicdomain/" /></cc:Work><cc:License
       rdf:about="http://creativecommons.org/licenses/publicdomain/"><cc:permits
         rdf:resource="http://creativecommons.org/ns#Reproduction" /><cc:permits
         rdf:resource="http://creativecommons.org/ns#Distribution" /><cc:permits
         rdf:resource="http://creativecommons.org/ns#DerivativeWorks" /></cc:License></rdf:RDF></metadata><defs
   id="defs18"><inkscape:perspective
     sodipodi:type="inkscape:persp3d"
     inkscape:vp_x="0 : 139.60451 : 1"
     inkscape:vp_y="0 : 1000 : 0"
     inkscape:vp_z="334.71301 : 139.60451 : 1"
     inkscape:persp3d-origin="167.35651 : 93.069672 : 1"
     id="perspective22" /></defs><sodipodi:namedview
   inkscape:window-height="713"
   inkscape:window-width="760"
   inkscape:pageshadow="2"
   inkscape:pageopacity="0.0"
   guidetolerance="10.0"
   gridtolerance="10.0"
   objecttolerance="10.0"
   borderopacity="1.0"
   bordercolor="#666666"
   pagecolor="#ffffff"
   id="base"
   showgrid="false"
   inkscape:zoom="1.6103348"
   inkscape:cx="298.69566"
   inkscape:cy="139.60451"
   inkscape:window-x="0"
   inkscape:window-y="0"
   inkscape:current-layer="Layer_1" />
<path
   d="M333.995,74.953c-1.021-2.078-3.003-3.518-5.297-3.842c-0.293-0.038-0.954-0.247-1.883-1.004  c-0.918-0.743-2.027-2.004-3.051-3.685c-1.029-1.682-1.982-3.774-2.713-6.109c-0.737-2.35-1.255-4.948-1.468-7.636  c0-0.002-0.001-0.004-0.001-0.006c0-0.004,0-0.009,0-0.014c-0.005-0.055-0.006-0.108-0.01-0.162L330.5,34.629  c1.246-2.037,1.368-4.571,0.324-6.716c-1.046-2.146-3.114-3.615-5.484-3.891L159.552,4.711c-0.146-0.017-0.292-0.016-0.438-0.024  c-0.357-0.03-0.721-0.065-1.056-0.065c-0.536,0-1.064,0.037-1.57,0.101c-1.011,0.128-2.025,0.394-2.971,0.778  c-0.951,0.382-1.836,0.885-2.624,1.463c-0.79,0.575-1.489,1.227-2.104,1.922c-6.127,6.926-12.255,13.852-18.382,20.778  l-23.211-19.526L66.341,2.881l-0.256-0.251l-0.172,0.175L50.122,0l18.916,52.182L92.8,72.173  c-29.756,33.635-59.511,67.27-89.269,100.905c-0.069,0.079-0.123,0.167-0.188,0.248c-1.758,2.086-2.618,4.531-3.024,6.825  c-0.222,1.271-0.315,2.558-0.318,3.864c0.002,1.747,0.17,3.542,0.484,5.397c0.542,3.221,1.519,6.638,2.911,10.229  c1.388,3.569,3.077,7.001,4.957,10.205c1.872,3.187,3.935,6.154,6.121,8.801c2.181,2.641,4.477,4.97,6.917,6.892  c2.451,1.91,5.032,3.476,8.127,4.313l186.178,49.127c0.591,0.155,1.188,0.23,1.778,0.23c0.589,0,1.171-0.08,1.733-0.224  c0.627-0.158,1.233-0.397,1.797-0.726c0.238-0.139,0.464-0.296,0.683-0.461c0.052-0.039,0.101-0.082,0.151-0.122  c0.161-0.129,0.316-0.264,0.465-0.406c0.072-0.068,0.144-0.137,0.212-0.208c0.141-0.146,0.273-0.3,0.401-0.457  c0.079-0.098,0.155-0.197,0.229-0.3c0.123-0.17,0.239-0.345,0.348-0.524c0.023-0.04,0.053-0.075,0.076-0.116l35.914-63.262  l18.966,15.956c0.259,0.147,8.013,7.205,19.188,7.312c0.061,0,0.121,0,0.182,0c6.574,0,14.136-2.937,20.612-10.772  c3.624-4.312,5.68-8.731,6.555-12.937c0.913-2.047,1.543-4.091,1.781-6.077c0.06-0.534,0.087-1.043,0.087-1.536  c0.01-2.236-0.65-4.305-2.089-5.767c-0.318-0.327-0.671-0.607-1.042-0.854c-0.908-2.384-2.06-4.479-3.208-6.232  c-2.486-3.783-4.99-6.071-5.458-6.492l-0.052-0.044l-0.025-0.023l-27.006-22.719l45.827-80.723  C334.944,79.481,335.018,77.033,333.995,74.953z"
   id="path3" />
<g
   id="g5">
	<path
   fill="#FFFFFF"
   d="M78.945,39.393c3.13-3.518,7.661-4.085,10.969-4.108c0.527,0,1.029,0.017,1.499,0.044   c-0.304-1.436-0.566-3.193-0.573-5.015c0.008-2.653,0.543-5.748,3.054-7.886c3.21-2.691,5.842-4.458,9.376-4.45   c0.61,0,1.228,0.056,1.86,0.148l-1.201-1.01l-28.485-5.06l-9.522,9.694l9.433,26.021l1.524,1.282   c-0.147-0.905-0.242-1.849-0.25-2.81C76.625,43.96,77.168,41.435,78.945,39.393z"
   id="path7" />
	<path
   fill="#FFFFFF"
   d="M292.173,223.379c0.4-3.331,1.88-6.826,4.015-10.221c-18.314-15.644-54.675-46.703-91.662-78.289   C153.206,91.048,100.669,46.199,93.49,40.13c-0.173-0.029-0.372-0.062-0.621-0.096c-0.744-0.101-1.793-0.203-2.956-0.203   c-2.784-0.022-5.967,0.654-7.54,2.548c-0.824,0.943-1.193,2.245-1.197,3.862c-0.022,2.811,1.257,6.16,1.906,7.554   c0.211,0.469,0.332,0.693,0.332,0.693v0.002l-0.045,0.023l199.928,168.201c0,0,0,0,0.025,0.021   c0.035,0.031,0.097,0.082,0.185,0.151c0.173,0.139,0.446,0.353,0.808,0.614c0.724,0.522,1.8,1.237,3.129,1.948   c1.41,0.755,3.102,1.485,4.95,2.01c-0.213-0.805-0.319-1.662-0.315-2.546C292.08,224.418,292.111,223.9,292.173,223.379z"
   id="path9" />
	<path
   fill="#FFFFFF"
   d="M103.271,22.525c-1.881,0.008-3.259,0.748-6.467,3.398c-0.904,0.703-1.424,2.312-1.417,4.391   c-0.008,2.47,0.711,5.217,1.07,6.36c0.001,0.003,0.002,0.006,0.003,0.009c12.645,10.695,158.311,135.114,202.368,172.748   c3.052-3.847,6.854-7.363,10.979-9.838c1.887-1.125,3.693-1.947,5.42-2.469c-0.304-0.538-0.614-1.06-0.935-1.546   c-1.853-2.829-3.818-4.687-4.142-4.978L112.167,24.046c-1.193-0.029-3.009-0.258-5.834-1.023   C105.042,22.672,104.06,22.523,103.271,22.525z"
   id="path11" />
</g>
<path
   fill="#FFFFFF"
   d="M228.249,191.699l-3.226-9.227c-7.913,12.767-15.827,25.534-23.741,38.301L13.711,176.465  c-1.81-0.428-3.271-0.152-4.361,0.708c-1.086,0.856-1.804,2.291-2.135,4.185c-0.33,1.883-0.278,4.22,0.172,6.894  c0.447,2.656,1.287,5.645,2.534,8.855c1.241,3.191,2.769,6.302,4.468,9.197c1.692,2.882,3.557,5.557,5.482,7.89  c1.92,2.327,3.906,4.319,5.846,5.844c1.939,1.524,3.838,2.585,5.586,3.047l186.179,49.128l24.082-42.421L228.249,191.699z"
   id="path13" />
<path
   fill="#FFFFFF"
   d="M322.39,75.529c-1.678-1.37-3.235-3.23-4.596-5.455c-1.363-2.229-2.531-4.829-3.421-7.67  c-0.895-2.853-1.511-5.954-1.766-9.175c-0.069-0.867-0.108-1.72-0.123-2.559l-53.374,87.266l1.25,1.052l22.167,18.647l45.187-79.596  C325.868,77.779,324.067,76.898,322.39,75.529z"
   id="path15" />
</svg>