<?xml version="1.0" encoding="UTF-8" standalone="no"?>
<svg
   xmlns:dc="http://purl.org/dc/elements/1.1/"
   xmlns:cc="http://web.resource.org/cc/"
   xmlns:rdf="http://www.w3.org/1999/02/22-rdf-syntax-ns#"
   xmlns:svg="http://www.w3.org/2000/svg"
   xmlns="http://www.w3.org/2000/svg"
   xmlns:sodipodi="http://sodipodi.sourceforge.net/DTD/sodipodi-0.dtd"
   xmlns:inkscape="http://www.inkscape.org/namespaces/inkscape"
   version="1.0"
   height="2084.5081"
   width="2723.3662"
   id="svg2"
   sodipodi:version="0.32"
   inkscape:version="0.45.1"
   sodipodi:docname="transport.svg"
   inkscape:output_extension="org.inkscape.output.svg.inkscape"
   sodipodi:docbase="C:\Dokumente und Einstellungen\ulfl\Eigene Dateien\svn.openstreetmap.org\applications\share\map-icons\svg">
  <metadata
     id="metadata10">
    <rdf:RDF>
      <cc:Work
         rdf:about="">
        <dc:format>image/svg+xml</dc:format>
        <dc:type
           rdf:resource="http://purl.org/dc/dcmitype/StillImage" />
        <cc:license
           rdf:resource="http://web.resource.org/cc/PublicDomain" />
      </cc:Work>
      <cc:License
         rdf:about="http://web.resource.org/cc/PublicDomain">
        <cc:permits
           rdf:resource="http://web.resource.org/cc/Reproduction" />
        <cc:permits
           rdf:resource="http://web.resource.org/cc/Distribution" />
        <cc:permits
           rdf:resource="http://web.resource.org/cc/DerivativeWorks" />
      </cc:License>
    </rdf:RDF>
  </metadata>
  <defs
     id="defs8">
    <marker
       viewBox="0 0 10 10"
       refY="5"
       refX="10"
       orient="auto"
       markerWidth="4"
       markerUnits="strokeWidth"
       markerHeight="3"
       id="ArrowStart">
      <path
         id="path1968"
         d="M 10,0 L 0,5 L 10,10 L 10,0 z " />
    </marker>
    <marker
       viewBox="0 0 10 10"
       refY="5"
       refX="0"
       orient="auto"
       markerWidth="4"
       markerUnits="strokeWidth"
       markerHeight="3"
       id="ArrowEnd">
      <path
         id="path1965"
         d="M 0,0 L 10,5 L 0,10 L 0,0 z " />
    </marker>
    <marker
       viewBox="0 0 10 10"
       refY="5"
       refX="10"
       orient="auto"
       markerWidth="4"
       markerUnits="strokeWidth"
       markerHeight="3"
       id="marker2286">
      <path
         id="path2111"
         d="M 10,0 L 0,5 L 10,10 L 10,0 z " />
    </marker>
    <marker
       viewBox="0 0 10 10"
       refY="5"
       refX="0"
       orient="auto"
       markerWidth="4"
       markerUnits="strokeWidth"
       markerHeight="3"
       id="marker2283">
      <path
         id="path2108"
         d="M 0,0 L 10,5 L 0,10 L 0,0 z " />
    </marker>
  </defs>
  <sodipodi:namedview
     inkscape:window-height="808"
     inkscape:window-width="1116"
     inkscape:pageshadow="2"
     inkscape:pageopacity="0.0"
     guidetolerance="10.0"
     gridtolerance="10.0"
     objecttolerance="10.0"
     borderopacity="1.0"
     bordercolor="#666666"
     pagecolor="#ffffff"
     id="base"
     inkscape:zoom="0.1178125"
     inkscape:cx="210.01067"
     inkscape:cy="936.21229"
     inkscape:window-x="44"
     inkscape:window-y="58"
     inkscape:current-layer="svg2" />
  <path
     style="fill:#000000;fill-rule:evenodd;stroke:none"
     id="Car"
     d="M 106.50273,1773.7388 C 104.10957,1597.3285 94.536921,1749.1234 200.86171,1487.585 C 277.78479,1309.8072 199.83607,1357.6704 597.78479,1351.1747 C 951.97282,1358.3542 880.51983,1307.0721 961.88735,1495.7901 C 1063.7677,1737.4995 1055.9044,1611.0038 1055.2207,1768.6106 C 1051.46,1941.602 1115.3917,1897.1576 579.32325,1902.9696 C 47.357433,1895.7901 110.26341,1940.9183 106.50273,1773.7388 z M 214.19504,1603.4824 L 287.01556,1435.2773 C 300.60214,1405.3986 296.26744,1409.8093 328.0412,1409.6362 L 837.16434,1409.5814 C 864.7258,1409.6827 860.68233,1407.8931 872.03613,1434.1968 L 944.45145,1601.4311 L 214.19504,1603.4824 z M 162.11527,1922.2668 L 298.29761,1921.9629 C 297.87976,2092.9411 312.0488,2083.4064 237.78479,2084.508 C 149.35174,2084.1662 163.33084,2093.093 162.11527,1922.2668 z M 863.42581,1923.4824 L 999.83607,1923.4824 C 998.92439,2094.7265 1011.384,2083.0266 934.19504,2083.4824 C 854.38497,2082.4188 864.52742,2095.0304 863.42581,1923.4824 z " />
  <circle
     style="fill:#ffffff;fill-opacity:1;stroke:none"
     r="66.5"
     cy="412"
     cx="150"
     id="LeftLamp"
     sodipodi:cx="150"
     sodipodi:cy="412"
     sodipodi:rx="66.5"
     sodipodi:ry="66.5"
     transform="translate(79.836067,1317.3285)" />
  <circle
     style="fill:#ffffff;fill-opacity:1;stroke:none"
     r="66.5"
     cy="412"
     cx="850"
     id="RightLamp"
     sodipodi:cx="850"
     sodipodi:cy="412"
     sodipodi:rx="66.5"
     sodipodi:ry="66.5"
     transform="translate(79.836067,1317.3285)" />
  <g
     id="g1970"
     transform="matrix(2.2144897,2.2294123,-2.2294123,2.2144897,762.03988,-470.64726)">
    <path
       style="fill:#000000;stroke:none"
       id="path1972"
       d="M 196.91,25.3815 C 196.97,-8.6185 248.219,-8.6185 248.185,26.3395 L 248.185,169.031 L 447.949,289.095 L 447.949,341.812 L 249.144,276.382 L 249.144,383.029 L 295.152,418.973 L 295.152,460.667 L 224.225,438.621 L 153.298,460.667 L 153.298,418.973 L 198.827,383.029 L 198.827,276.382 L 0,341.812 L 0,289.095 L 196.91,169.031 L 196.91,25.3815 z " />
  </g>
  <g
     id="g2113"
     transform="matrix(4.2581866,0,0,4.2581866,1211.6079,227.65004)">
    <path
       style="fill:#000000;stroke:none"
       id="path2115"
       d="M 179.237,0 C 138.982,0 83.388,11.502 60.384,21.087 C 37.38,30.672 22.044,40.257 17.252,64.219 L 0,197.06 L 0,380.105 L 29.712,380.105 L 29.712,408.81 C 29.712,443.81 80.93,443.81 80.93,408.81 L 80.93,380.105 L 175.487,380.105 L 175.787,380.105 L 274.094,380.105 L 274.094,408.81 C 274.094,443.81 325.312,443.81 325.312,408.81 L 325.312,380.105 L 355.024,380.105 L 355.024,197.06 L 337.772,64.219 C 332.98,40.257 317.644,30.672 294.64,21.087 C 271.636,11.502 216.042,0 175.787,0" />
    <g
       id="g2117">
      <g
         id="g2119">
        <g
           id="g2121">
          <path
             style="fill:#ffffff;stroke:none"
             id="path2123"
             d="M 299.682,322.723 C 313.25,322.723 324.25,311.721 324.25,298.153 C 324.25,284.585 313.25,273.583 299.682,273.583 C 286.114,273.583 275.113,284.585 275.113,298.153 C 275.113,311.721 286.114,322.723 299.682,322.723 z " />
          <path
             style="fill:#ffffff;stroke:none"
             id="path2125" />
        </g>
        <g
           id="g2127">
          <path
             style="fill:#ffffff;stroke:none"
             id="path2129"
             d="M 55.342,322.723 C 41.774,322.723 30.774,311.721 30.774,298.153 C 30.774,284.585 41.774,273.583 55.342,273.583 C 68.91,273.583 79.911,284.585 79.911,298.153 C 79.911,311.721 68.91,322.723 55.342,322.723 z " />
          <path
             style="fill:#ffffff;stroke:none"
             id="path2131" />
        </g>
      </g>
      <path
         style="fill:#ffffff;stroke:none"
         id="path2133"
         d="M 175.612,55.113 L 104.476,55.113 C 90.098,55.113 90.098,33.547 104.476,33.547 L 175.787,33.547 L 250.548,33.547 C 264.926,33.547 264.926,55.113 250.548,55.113 L 175.612,55.113 z " />
      <path
         style="fill:#ffffff;stroke:none"
         id="path2135"
         d="M 175.612,76.887 L 65.715,76.887 C 50.527,76.887 46.559,84.604 44.715,96.31 L 31.287,192.658 C 30.035,201.893 32.706,211.06 45.465,211.06 L 175.787,211.06 L 309.559,211.06 C 322.318,211.06 324.989,201.893 323.737,192.658 L 310.309,96.31 C 308.465,84.604 304.497,76.887 289.309,76.887 L 175.612,76.887 z " />
    </g>
  </g>
</svg>
