<?xml version="1.0" encoding="UTF-8" standalone="no"?>
<!-- Created with Sodipodi ("http://www.sodipodi.com/") -->
<svg
   xmlns:dc="http://purl.org/dc/elements/1.1/"
   xmlns:cc="http://web.resource.org/cc/"
   xmlns:rdf="http://www.w3.org/1999/02/22-rdf-syntax-ns#"
   xmlns:svg="http://www.w3.org/2000/svg"
   xmlns="http://www.w3.org/2000/svg"
   xmlns:xlink="http://www.w3.org/1999/xlink"
   xmlns:sodipodi="http://sodipodi.sourceforge.net/DTD/sodipodi-0.dtd"
   xmlns:inkscape="http://www.inkscape.org/namespaces/inkscape"
   height="51.939621"
   id="svg1065"
   sodipodi:docbase="/home/src/apps/gpsdrive/gpsdrive-work/data/map-icons/svg/sports"
   sodipodi:docname="tennis.svg"
   sodipodi:version="0.32"
   space="preserve"
   width="65.389267"
   inkscape:version="0.44.1"
   version="1.0">
  <metadata
     id="metadata3">
    <rdf:RDF>
      <cc:Work
         rdf:about="">
        <dc:title>tennis_racket</dc:title>
        <dc:description />
        <dc:subject>
          <rdf:Bag>
            <rdf:li />
            <rdf:li>sports</rdf:li>
            <rdf:li>sport</rdf:li>
            <rdf:li>recreation</rdf:li>
          </rdf:Bag>
        </dc:subject>
        <dc:publisher>
          <cc:Agent
             rdf:about="http://www.openclipart.org">
            <dc:title>Franck Doucet</dc:title>
          </cc:Agent>
        </dc:publisher>
        <dc:creator>
          <cc:Agent>
            <dc:title>Franck Doucet</dc:title>
          </cc:Agent>
        </dc:creator>
        <dc:rights>
          <cc:Agent>
            <dc:title>Franck Doucet</dc:title>
          </cc:Agent>
        </dc:rights>
        <dc:date />
        <dc:format>image/svg+xml</dc:format>
        <dc:type
           rdf:resource="http://purl.org/dc/dcmitype/StillImage" />
        <cc:license
           rdf:resource="http://web.resource.org/cc/PublicDomain" />
        <dc:language>en</dc:language>
      </cc:Work>
      <cc:License
         rdf:about="http://web.resource.org/cc/PublicDomain">
        <cc:permits
           rdf:resource="http://web.resource.org/cc/Reproduction" />
        <cc:permits
           rdf:resource="http://web.resource.org/cc/Distribution" />
        <cc:permits
           rdf:resource="http://web.resource.org/cc/DerivativeWorks" />
      </cc:License>
    </rdf:RDF>
  </metadata>
  <defs
     id="defs1067">
    <linearGradient
       id="linearGradient660">
      <stop
         id="stop661"
         offset="0"
         style="stop-color:#5a3a00;stop-opacity:1;" />
      <stop
         id="stop662"
         offset="1"
         style="stop-color:#b55700;stop-opacity:1;" />
    </linearGradient>
    <linearGradient
       id="linearGradient618">
      <stop
         id="stop619"
         offset="0"
         style="stop-color:#002fff;stop-opacity:1;" />
      <stop
         id="stop620"
         offset="1"
         style="stop-color:#00d2ff;stop-opacity:1;" />
    </linearGradient>
    <linearGradient
       id="linearGradient610">
      <stop
         id="stop611"
         offset="0"
         style="stop-color:#666767;stop-opacity:1;" />
      <stop
         id="stop612"
         offset="1"
         style="stop-color:#f3f2f2;stop-opacity:1;" />
    </linearGradient>
    <linearGradient
       id="linearGradient613"
       x1="104.97143"
       x2="620.09906"
       xlink:href="#linearGradient610"
       y1="291.65118"
       y2="460.67682"
       gradientTransform="scale(1.090974,0.916612)"
       gradientUnits="userSpaceOnUse" />
    <linearGradient
       id="linearGradient617"
       x1="56.804844"
       x2="94.860718"
       xlink:href="#linearGradient618"
       y1="612.43427"
       y2="612.43427"
       gradientTransform="scale(0.91691,1.090619)"
       gradientUnits="userSpaceOnUse" />
    <radialGradient
       cx="647.54254"
       cy="84.237411"
       fx="647.54254"
       fy="84.237411"
       id="radialGradient621"
       r="314.27206"
       xlink:href="#linearGradient618"
       gradientTransform="scale(0.817182,1.223717)"
       gradientUnits="userSpaceOnUse" />
    <linearGradient
       id="linearGradient659"
       x1="43.973091"
       x2="69.677185"
       xlink:href="#linearGradient660"
       y1="697.01044"
       y2="697.01044"
       gradientTransform="scale(1.054979,0.947886)"
       gradientUnits="userSpaceOnUse" />
    <linearGradient
       inkscape:collect="always"
       xlink:href="#linearGradient660"
       id="linearGradient1986"
       gradientUnits="userSpaceOnUse"
       gradientTransform="matrix(2.532197e-2,-0.104017,-0.101668,-2.091418e-2,76.78139,70.7629)"
       x1="43.973091"
       y1="697.01044"
       x2="69.677185"
       y2="697.01044" />
    <linearGradient
       inkscape:collect="always"
       xlink:href="#linearGradient660"
       id="linearGradient1989"
       gradientUnits="userSpaceOnUse"
       gradientTransform="matrix(1.924665e-2,-7.906098e-2,-0.13376,-2.751583e-2,76.78139,70.7629)"
       x1="128.54153"
       y1="493.01468"
       x2="174.81496"
       y2="493.01468" />
    <linearGradient
       inkscape:collect="always"
       xlink:href="#linearGradient660"
       id="linearGradient1992"
       gradientUnits="userSpaceOnUse"
       gradientTransform="matrix(1.89333e-2,-7.77733e-2,-0.135974,-2.797136e-2,76.78139,70.7629)"
       x1="74.654968"
       y1="509.15399"
       x2="122.01689"
       y2="509.15399" />
    <linearGradient
       inkscape:collect="always"
       xlink:href="#linearGradient660"
       id="linearGradient1995"
       gradientUnits="userSpaceOnUse"
       gradientTransform="matrix(1.939954e-2,-7.96886e-2,-0.132706,-2.729906e-2,76.78139,70.7629)"
       x1="154.63251"
       y1="484.70239"
       x2="200.81082"
       y2="484.70239" />
    <linearGradient
       inkscape:collect="always"
       xlink:href="#linearGradient660"
       id="linearGradient1998"
       gradientUnits="userSpaceOnUse"
       gradientTransform="matrix(1.948362e-2,-8.003418e-2,-0.132134,-2.718118e-2,76.78139,70.7629)"
       x1="180.73508"
       y1="486.52179"
       x2="214.42944"
       y2="486.52179" />
    <linearGradient
       inkscape:collect="always"
       xlink:href="#linearGradient660"
       id="linearGradient2001"
       gradientUnits="userSpaceOnUse"
       gradientTransform="matrix(1.912323e-2,-7.855366e-2,-0.134623,-2.769348e-2,76.78139,70.7629)"
       x1="102.09601"
       y1="501.86938"
       x2="148.66516"
       y2="501.86938" />
    <linearGradient
       inkscape:collect="always"
       xlink:href="#linearGradient618"
       id="linearGradient2037"
       gradientUnits="userSpaceOnUse"
       gradientTransform="matrix(2.00622e-2,-9.07853e-2,-0.117472,-2.193593e-2,76.78139,70.7629)"
       x1="56.804844"
       y1="612.43427"
       x2="94.860718"
       y2="612.43427" />
    <radialGradient
       inkscape:collect="always"
       xlink:href="#linearGradient618"
       id="radialGradient2041"
       gradientUnits="userSpaceOnUse"
       gradientTransform="matrix(-5.724149e-2,-6.362365e-2,-0.103646,7.879606e-2,76.78139,70.7629)"
       cx="647.54254"
       cy="84.237411"
       fx="647.54254"
       fy="84.237411"
       r="314.27206" />
    <linearGradient
       inkscape:collect="always"
       xlink:href="#linearGradient610"
       id="linearGradient2044"
       gradientUnits="userSpaceOnUse"
       gradientTransform="matrix(2.618597e-2,-0.107566,-9.831403e-2,-2.022421e-2,76.78139,70.7629)"
       x1="104.97143"
       y1="291.65118"
       x2="620.09906"
       y2="460.67682" />
  </defs>
  <sodipodi:namedview
     id="base"
     inkscape:zoom="5.7470708"
     inkscape:cx="60.459233"
     inkscape:cy="20.053704"
     inkscape:window-width="1212"
     inkscape:window-height="1047"
     inkscape:window-x="1811"
     inkscape:window-y="24"
     inkscape:current-layer="svg1065" />
  <path
     d="M 53.158477,25.878914 C 46.066697,33.454049 36.263843,33.310133 31.837007,30.488164 C 36.815667,36.172899 47.933907,33.727631 55.613937,25.668207 C 62.705727,18.093089 65.303207,3.7839517 53.777467,1.4219016 C 63.477777,6.5392754 60.250277,18.303804 53.158477,25.878914 z "
     id="path609"
     sodipodi:nodetypes="ccccc"
     style="font-size:12px;fill:gray;fill-rule:evenodd;stroke-width:1" />
  <path
     d="M 58.577367,3.6217882 C 53.192257,-1.0057891 43.015187,1.435755 35.846264,9.0751475 C 28.677344,16.714543 27.231279,26.658898 32.616395,31.286465 C 38.001507,35.91405 48.178577,33.472476 55.347497,25.833092 C 62.516417,18.193697 63.962477,8.2493603 58.577367,3.6217882 z M 57.279877,2.1040482 C 50.226957,-1.9247174 41.642847,-0.2653442 33.644525,7.9255817 C 25.646219,16.116486 24.558829,23.274541 28.880541,29.946556 C 33.013195,36.320112 46.851207,35.343116 55.301357,26.389121 C 63.299667,18.198203 64.218587,6.1986038 57.279877,2.1040482 z "
     id="path1074"
     sodipodi:nodetypes="ccscsccscc"
     style="font-size:12px;fill:url(#linearGradient2044);fill-rule:evenodd;stroke-width:1" />
  <path
     d="M 39.195957,34.042511 C 30.192298,34.713325 23.94431,38.340097 13.288547,44.485597 C 16.490981,43.215417 13.599078,40.202423 12.038715,41.009734 C 19.769129,32.672695 25.158776,22.31503 28.6612,14.432467 C 29.685248,15.479099 30.710513,15.747723 31.638089,14.872112 C 30.274219,17.310888 28.742165,22.131796 29.50476,25.762345 C 29.096416,26.377503 28.049706,26.553854 27.261671,26.322706 C 26.935305,25.69028 26.429372,25.560251 25.15102,27.950844 C 22.735787,31.828067 20.812658,34.939553 18.05278,38.395465 C 17.858524,38.720949 17.908754,39.13305 18.174808,38.991696 C 22.425647,36.825799 26.283404,34.94952 28.395007,34.108912 C 29.450807,33.688589 30.334691,32.830898 29.920232,31.139676 C 30.62268,31.890962 31.594563,32.16229 32.346553,30.91053 C 35.681222,32.166908 36.542177,32.103476 37.918117,32.192765 C 39.345327,32.418447 39.760937,33.215167 39.195957,34.042511 z "
     id="path1070"
     sodipodi:nodetypes="ccccccccccscccc"
     style="font-size:12px;fill:url(#radialGradient2041);fill-opacity:1;fill-rule:evenodd" />
  <path
     d="M 15.353374,40.324425 C 16.021847,40.879134 16.314809,42.808882 15.95191,43.062459 L 6.0202031,51.487906 C 5.7460171,51.701798 4.9283761,51.981601 5.3223261,51.507559 C 5.5399871,51.01587 5.5787731,49.721748 5.1078001,49.283813 C 4.4406781,48.714732 2.8332021,48.36134 2.2834091,48.592033 L 12.709234,40.081502 C 12.801333,40.027531 12.927768,39.908823 13.053524,39.912675 C 13.764818,39.64013 15.118814,40.101418 15.353374,40.324425 z "
     id="path614"
     sodipodi:nodetypes="ccccscccs"
     style="font-size:12px;fill:gray;fill-rule:evenodd" />
  <path
     d="M 6.1739521,50.980375 C 6.3551941,51.623099 5.3451421,52.045719 4.6367031,51.916302 L 3.4335151,51.696508 C 2.7250631,51.567087 2.5966171,50.926124 2.4153631,50.28339 L 2.0740441,49.07304 C 1.8927891,48.430306 2.9028581,48.007691 3.6113101,48.137113 L 4.8144981,48.356911 C 5.5229231,48.486328 5.6513951,49.127291 5.8326381,49.77002 L 6.1739521,50.980375 z "
     id="path616"
     sodipodi:nodetypes="cssssssss"
     style="font-size:12px;fill:url(#linearGradient2037);fill-opacity:1;fill-rule:evenodd" />
  <path
     d="M 32.826384,31.151736 L 60.149807,8.3794952"
     id="path625"
     sodipodi:nodetypes="cc"
     style="fill:none;fill-opacity:1;fill-rule:evenodd;stroke:black;stroke-width:0.10537922pt;stroke-linecap:butt;stroke-linejoin:miter;stroke-opacity:1" />
  <path
     d="M 29.336463,23.162481 L 54.589147,1.9827278"
     id="path631"
     sodipodi:nodetypes="cc"
     style="fill:none;fill-opacity:1;fill-rule:evenodd;stroke:black;stroke-width:0.10537922pt;stroke-linecap:butt;stroke-linejoin:miter;stroke-opacity:1" />
  <path
     d="M 39.603047,32.648525 L 59.838237,15.654239"
     id="path633"
     sodipodi:nodetypes="cc"
     style="fill:none;fill-opacity:1;fill-rule:evenodd;stroke:black;stroke-width:0.10537922pt;stroke-linecap:butt;stroke-linejoin:miter;stroke-opacity:1" />
  <path
     d="M 50.373547,29.099937 L 38.738047,6.5295209"
     id="path636"
     style="fill:none;fill-opacity:1;fill-rule:evenodd;stroke:black;stroke-width:0.10537922pt;stroke-linecap:butt;stroke-linejoin:miter;stroke-opacity:1" />
  <path
     d="M 43.115747,32.256379 L 32.752863,12.886567"
     id="path642"
     style="fill:none;fill-opacity:1;fill-rule:evenodd;stroke:black;stroke-width:0.10537922pt;stroke-linecap:butt;stroke-linejoin:miter;stroke-opacity:1" />
  <path
     d="M 54.728557,25.127047 L 43.470227,3.5553353"
     id="path647"
     sodipodi:nodetypes="cc"
     style="fill:none;fill-opacity:1;fill-rule:evenodd;stroke:black;stroke-width:0.10537922pt;stroke-linecap:butt;stroke-linejoin:miter;stroke-opacity:1" />
  <path
     d="M 59.083257,18.215284 L 50.292047,1.4057773"
     id="path652"
     sodipodi:nodetypes="cc"
     style="fill:none;fill-opacity:1;fill-rule:evenodd;stroke:black;stroke-width:0.10537922pt;stroke-linecap:butt;stroke-linejoin:miter;stroke-opacity:1" />
  <path
     d="M 11.676495,46.680503 L 9.5281241,48.506576 C 9.7616931,48.265859 8.0282811,47.003663 7.7051101,46.782774 C 7.3889311,46.612906 5.4047501,46.008064 5.2284911,46.209394 L 7.5483031,44.324433 C 7.7757271,44.239625 9.5129721,44.678352 9.8370241,44.885642 C 10.12769,45.116278 11.986637,46.451887 11.676495,46.680503 z "
     id="path663"
     sodipodi:nodetypes="ccsccsc"
     style="font-size:12px;fill:url(#linearGradient2001);fill-rule:evenodd" />
  <path
     d="M 15.988593,43.067846 C 16.085841,42.799085 14.613062,41.515622 14.289887,41.294731 C 13.973712,41.124863 12.078742,40.569394 11.90247,40.770722 L 12.765974,40.046958 C 13.295598,39.528526 15.154762,40.016073 15.440535,40.29232 C 15.724897,40.517621 16.370632,42.42114 15.988593,43.067846 z "
     id="path669"
     sodipodi:nodetypes="csccsc"
     style="font-size:12px;fill:url(#linearGradient1998);fill-rule:evenodd" />
  <path
     d="M 15.946088,43.115816 L 13.801778,44.867842 C 14.035352,44.627124 12.402985,43.341852 12.079814,43.120964 C 11.763638,42.951094 9.8365231,42.389013 9.6602641,42.590344 L 11.980084,40.705383 C 12.207503,40.620576 13.88768,41.016541 14.211728,41.223834 C 14.502393,41.454466 16.256234,42.887195 15.946088,43.115816 z "
     id="path670"
     sodipodi:nodetypes="ccsccsc"
     style="font-size:12px;fill:url(#linearGradient1995);fill-rule:evenodd" />
  <path
     d="M 9.4928551,48.455465 L 7.3078741,50.374573 C 7.5414391,50.133856 5.6228921,48.743189 5.2997131,48.5223 C 4.9835291,48.352428 2.9936161,47.979031 2.8173581,48.180361 L 5.2659191,46.182316 C 5.4933511,46.097508 7.2646331,46.465692 7.5886851,46.672983 C 7.8793501,46.903617 9.8029961,48.226841 9.4928551,48.455465 z "
     id="path671"
     sodipodi:nodetypes="ccsccsc"
     style="font-size:12px;fill:url(#linearGradient1992);fill-rule:evenodd" />
  <path
     d="M 13.815109,44.870594 L 11.672248,46.697791 C 11.905822,46.457078 10.238349,45.177432 9.9151751,44.956539 C 9.5990001,44.786672 7.6308841,44.185138 7.4546251,44.386466 L 9.7475931,42.542512 C 9.9750031,42.457702 11.723036,42.852118 12.047088,43.059412 C 12.337749,43.290044 14.125238,44.641972 13.815109,44.870594 z "
     id="path672"
     sodipodi:nodetypes="ccsccsc"
     style="font-size:12px;fill:url(#linearGradient1989);fill-rule:evenodd" />
  <path
     d="M 7.3407891,50.33747 L 6.1218271,51.424527 C 6.3553891,51.183805 5.7988211,49.565248 5.6683811,49.170999 C 5.5634951,48.882081 5.3476421,48.659089 5.0685961,48.400646 C 5.2781551,48.421822 7.4769611,49.941474 7.3407891,50.33747 z "
     id="path673"
     sodipodi:nodetypes="ccscc"
     style="font-size:12px;fill:url(#linearGradient1986);fill-rule:evenodd" />
</svg>
