<?xml version="1.0" encoding="UTF-8" standalone="no"?>
<!-- Created with Inkscape (http://www.inkscape.org/) --><svg height="1052.3622047" id="svg2" inkscape:version="0.42+devel" sodipodi:docbase="C:\Documents and Settings\Lumen 2\Desktop" sodipodi:docname="military_airplane.svg" sodipodi:version="0.32" width="744.09448819" xmlns="http://www.w3.org/2000/svg" xmlns:cc="http://web.resource.org/cc/" xmlns:dc="http://purl.org/dc/elements/1.1/" xmlns:inkscape="http://www.inkscape.org/namespaces/inkscape" xmlns:rdf="http://www.w3.org/1999/02/22-rdf-syntax-ns#" xmlns:sodipodi="http://inkscape.sourceforge.net/DTD/sodipodi-0.dtd" xmlns:svg="http://www.w3.org/2000/svg">
  <metadata>
    <rdf:RDF xmlns:cc="http://web.resource.org/cc/" xmlns:dc="http://purl.org/dc/elements/1.1/" xmlns:rdf="http://www.w3.org/1999/02/22-rdf-syntax-ns#">
      <cc:Work rdf:about="">
        <dc:title>military airplane</dc:title>
        <dc:description></dc:description>
        <dc:subject>
          <rdf:Bag>
            <rdf:li>army</rdf:li>
            <rdf:li>military</rdf:li>
            <rdf:li>mig</rdf:li>
            <rdf:li>vehicles</rdf:li>
            <rdf:li>fly</rdf:li>
            <rdf:li>air force</rdf:li>
            <rdf:li>fighter</rdf:li>
            <rdf:li>airplane</rdf:li>
            <rdf:li>bomber</rdf:li>
          </rdf:Bag>
        </dc:subject>
        <dc:publisher>
          <cc:Agent rdf:about="http://www.openclipart.org/">
            <dc:title>Open Clip Art Library</dc:title>
          </cc:Agent>
        </dc:publisher>
        <dc:creator>
          <cc:Agent>
            <dc:title>mo</dc:title>
          </cc:Agent>
        </dc:creator>
        <dc:rights>
          <cc:Agent>
            <dc:title>mo</dc:title>
          </cc:Agent>
        </dc:rights>
        <dc:date>20 09 2005</dc:date>
        <dc:format>image/svg+xml</dc:format>
        <dc:type rdf:resource="http://purl.org/dc/dcmitype/StillImage"/>
        <cc:license rdf:resource="http://web.resource.org/cc/PublicDomain"/>
        <dc:language>en</dc:language>
      </cc:Work>
      <cc:License rdf:about="http://web.resource.org/cc/PublicDomain">
        <cc:permits rdf:resource="http://web.resource.org/cc/Reproduction"/>
        <cc:permits rdf:resource="http://web.resource.org/cc/Distribution"/>
        <cc:permits rdf:resource="http://web.resource.org/cc/DerivativeWorks"/>
      </cc:License>
    </rdf:RDF>
  </metadata>
  <defs id="defs4"/>
  <sodipodi:namedview bordercolor="#666666" borderopacity="1.0" id="base" inkscape:current-layer="layer1" inkscape:cx="375" inkscape:cy="520" inkscape:document-units="px" inkscape:pageopacity="0.0" inkscape:pageshadow="2" inkscape:window-height="1144" inkscape:window-width="1600" inkscape:window-x="-4" inkscape:window-y="-4" inkscape:zoom="0.35" pagecolor="#ffffff"/>
  <g id="layer1" inkscape:groupmode="layer" inkscape:label="Layer 1">
    <path d="M 372.74513,979.43631 C 371.65529,965.92359 369.95779,948.56184 368.97287,940.85467 L 367.18212,926.84165 L 349.19283,925.96456 L 331.20356,925.08746 L 327.87949,913.19903 C 325.96331,906.34592 322.47402,900.90981 319.64122,900.36428 C 315.82936,899.63016 248.84768,915.74382 215.29064,925.46768 C 210.6617,926.80902 210.08428,924.54182 210.1256,905.18649 L 210.17207,883.39515 L 262.24096,800.13058 L 314.30987,716.86597 L 314.19174,691.43277 L 314.07357,665.99953 L 231.55162,750.23936 C 186.16455,796.57125 147.65634,834.42935 145.97784,834.36847 C 140.86463,834.18303 125.69304,770.54619 127.92525,758.64747 C 129.05661,752.61685 147.83573,720.75969 172.55121,682.94354 C 200.18189,640.66685 229.45816,590.48182 255.60553,540.57291 L 295.98723,463.49405 L 298.08663,429.99131 L 300.18604,396.48856 L 317.26626,396.48856 L 334.34644,396.48856 L 336.24026,382.67182 C 337.28184,375.07257 338.13405,356.2719 338.13405,340.89249 C 338.13405,306.85496 346.08391,196.28826 350.30292,171.6479 C 353.90673,150.60058 374.67947,74.862184 376.84833,74.862184 C 379.01998,74.862184 399.79443,150.62154 403.38857,171.6479 C 407.7049,196.89905 415.54975,303.20976 415.5849,336.92811 C 415.60112,352.48827 416.45944,372.25489 417.49232,380.85393 L 419.37025,396.48856 L 436.49812,396.48856 L 453.62594,396.48856 L 455.70958,429.99131 L 457.79321,463.49405 L 498.3161,540.92263 C 523.99736,589.99277 553.30295,640.40526 578.3308,678.56664 C 623.49827,747.43608 627.00218,753.61651 627.00218,764.41604 C 627.00218,776.60416 611.0839,834.24507 607.68646,834.35927 C 606.02576,834.41508 567.53592,796.55697 522.15341,750.23015 L 439.6398,665.99953 L 439.55978,691.31272 L 439.47978,716.62591 L 491.54868,799.89049 L 543.61757,883.15508 L 543.61757,905.06645 C 543.61757,924.52436 543.03402,926.80873 538.40603,925.46768 C 514.86526,918.64623 439.34504,899.77426 435.58838,899.77426 C 430.94458,899.77426 429.87625,901.89355 426.20575,918.38691 C 424.45136,926.27017 423.67573,926.57646 405.46648,926.57646 L 386.54971,926.57646 L 384.7414,940.72207 C 383.7468,948.50215 382.04138,965.92359 380.95153,979.43631 C 379.86169,992.94911 378.01527,1004.005 376.84833,1004.005 C 375.68138,1004.005 373.83496,992.94911 372.74513,979.43631 z " id="path1368" style="fill:#000000"/>
  </g>
</svg>
