<?xml version="1.0" encoding="UTF-8" standalone="no"?>
<svg height="303.489" id="svg1985" inkscape:version="0.41" sodipodi:docbase="/datas/Projs/Cliparts Stocker/tmp/AIGA" sodipodi:docname="AIGA_Heliport.svg" sodipodi:version="0.32" width="480.22" xmlns="http://www.w3.org/2000/svg" xmlns:cc="http://web.resource.org/cc/" xmlns:dc="http://purl.org/dc/elements/1.1/" xmlns:inkscape="http://www.inkscape.org/namespaces/inkscape" xmlns:rdf="http://www.w3.org/1999/02/22-rdf-syntax-ns#" xmlns:sodipodi="http://inkscape.sourceforge.net/DTD/sodipodi-0.dtd" xmlns:svg="http://www.w3.org/2000/svg">
  <metadata>
    <rdf:RDF xmlns:cc="http://web.resource.org/cc/" xmlns:dc="http://purl.org/dc/elements/1.1/" xmlns:rdf="http://www.w3.org/1999/02/22-rdf-syntax-ns#">
      <cc:Work rdf:about="">
        <dc:title>AIGA_Symbol_Signs</dc:title>
        <dc:description>EPS converted from  http://aiga.org</dc:description>
        <dc:subject>
          <rdf:Bag>
            <rdf:li>symbol</rdf:li>
            <rdf:li>mapsym</rdf:li>
          </rdf:Bag>
        </dc:subject>
        <dc:publisher>
          <cc:Agent rdf:about="http://www.openclipart.org/">
            <dc:title>Open Clip Art Library</dc:title>
          </cc:Agent>
        </dc:publisher>
        <dc:creator>
          <cc:Agent>
            <dc:title>Jean-Victor Balin</dc:title>
          </cc:Agent>
        </dc:creator>
        <dc:rights>
          <cc:Agent>
            <dc:title>Jean-Victor Balin</dc:title>
          </cc:Agent>
        </dc:rights>
        <dc:date></dc:date>
        <dc:format>image/svg+xml</dc:format>
        <dc:type rdf:resource="http://purl.org/dc/dcmitype/StillImage"/>
        <cc:license rdf:resource="http://web.resource.org/cc/PublicDomain"/>
        <dc:language>en</dc:language>
      </cc:Work>
      <cc:License rdf:about="http://web.resource.org/cc/PublicDomain">
        <cc:permits rdf:resource="http://web.resource.org/cc/Reproduction"/>
        <cc:permits rdf:resource="http://web.resource.org/cc/Distribution"/>
        <cc:permits rdf:resource="http://web.resource.org/cc/DerivativeWorks"/>
      </cc:License>
    </rdf:RDF>
  </metadata>
  <sodipodi:namedview bordercolor="#666666" borderopacity="1.0" id="base" inkscape:current-layer="svg1985" inkscape:cx="305.25953" inkscape:cy="417.84947" inkscape:pageopacity="0.0" inkscape:pageshadow="2" inkscape:window-height="543" inkscape:window-width="640" inkscape:window-x="0" inkscape:window-y="26" inkscape:zoom="0.43415836" pagecolor="#ffffff"/>
  <defs id="defs1987">
    <marker id="ArrowEnd" markerHeight="3" markerUnits="strokeWidth" markerWidth="4" orient="auto" refX="0" refY="5" viewBox="0 0 10 10">
      <path d="M 0 0 L 10 5 L 0 10 z" id="path1990"/>
    </marker>
    <marker id="ArrowStart" markerHeight="3" markerUnits="strokeWidth" markerWidth="4" orient="auto" refX="10" refY="5" viewBox="0 0 10 10">
      <path d="M 10 0 L 0 5 L 10 10 z" id="path1993"/>
    </marker>
  </defs>
  <g id="g1995">
    <g id="g1997">
      <path d="M 52.188 134.743C 81.009 134.743 104.375 111.377 104.375 82.556C 104.375 53.733 81.009 30.367 52.188 30.367C 23.367 30.367 0 53.733 0 82.556C 0 111.377 23.367 134.743 52.188 134.743z" id="path1999" style="stroke:none; fill:#000000"/>
      <path d="M 52.188 82.556" id="path2001" style="stroke:none; fill:#000000"/>
    </g>
    <g id="g2003">
      <path d="M 52.188 115.765C 70.529 115.765 85.399 100.896 85.399 82.556C 85.399 64.213 70.529 49.345 52.188 49.345C 33.846 49.345 18.977 64.213 18.977 82.556C 18.977 100.896 33.846 115.765 52.188 115.765z" id="path2005" style="stroke:none; fill:#ffffff"/>
      <path d="M 52.188 82.556" id="path2007" style="stroke:none; fill:#ffffff"/>
    </g>
    <g id="g2009">
      <path d="M 220.085 249.813C 180.146 249.813 180.146 303.489 220.085 303.489L 450.945 303.489C 489.677 303.489 489.677 249.813 450.945 249.813L 220.085 249.813z" id="path2011" style="stroke:none; fill:#000000"/>
      <g id="g2013">
        <g id="g2015">
          <path d="M 288.313 65.241L 288.313 16.357L 267.705 16.357L 267.705 65.241L 288.313 65.241z" id="path2017" style="stroke:none; fill:#000000"/>
          <path d="M 278.008 40.799" id="path2019" style="stroke:none; fill:#000000"/>
        </g>
        <g id="g2021">
          <path d="M 319.942 17.733L 319.942 7.189L 236.554 7.189L 236.554 17.733L 319.942 17.733z" id="path2023" style="stroke:none; fill:#000000"/>
          <path d="M 278.249 12.461" id="path2025" style="stroke:none; fill:#000000"/>
        </g>
        <path d="M 327.13 0L 460.237 0C 477.969 0 477.969 25.401 460.237 25.401L 327.13 25.401C 309.877 25.401 309.877 0 327.13 0z" id="path2027" style="stroke:none; fill:#000000"/>
        <path d="M 96.32 0L 227.928 0C 245.66 0 245.66 25.401 227.928 25.401L 96.32 25.401C 77.576 25.401 77.31 0 96.32 0z" id="path2029" style="stroke:none; fill:#000000"/>
      </g>
      <path d="M 240.72 215.307C 223.624 215.307 215.076 202.846 212.227 192.303L 198.93 158.755L 46.916 98.371C 28.445 91.192 32.945 63.865 53.945 63.865L 384.136 63.865C 420.945 63.865 441.445 85.942 450.945 109.442L 477.445 173.942C 486.945 195.942 470.871 215.192 447.195 215.307L 240.72 215.307z" id="path2031" style="stroke:none; fill:#000000"/>
    </g>
    <g id="g2033">
      <g id="g2035">
        <path d="M 324.249 141.706L 324.249 84.677L 288.634 84.677L 288.634 141.706L 324.249 141.706z" id="path2037" style="stroke:none; fill:#ffffff"/>
        <path d="M 306.441 113.192" id="path2039" style="stroke:none; fill:#ffffff"/>
      </g>
      <g id="g2041">
        <path d="M 380.536 84.677L 380.536 141.706L 345.394 141.706L 345.394 84.677L 380.536 84.677z" id="path2043" style="stroke:none; fill:#ffffff"/>
        <path d="M 362.965 113.192" id="path2045" style="stroke:none; fill:#ffffff"/>
      </g>
      <path d="M 402.182 86.942C 413.195 89.598 424.195 99.442 431.445 115.692L 442.695 141.942L 402.182 141.942L 402.182 86.942z" id="path2047" style="stroke:none; fill:#ffffff"/>
    </g>
  </g>
</svg>
