<?xml version="1.0" encoding="UTF-8" standalone="no"?>
<svg
   xmlns:dc="http://purl.org/dc/elements/1.1/"
   xmlns:cc="http://web.resource.org/cc/"
   xmlns:rdf="http://www.w3.org/1999/02/22-rdf-syntax-ns#"
   xmlns:svg="http://www.w3.org/2000/svg"
   xmlns="http://www.w3.org/2000/svg"
   xmlns:sodipodi="http://sodipodi.sourceforge.net/DTD/sodipodi-0.dtd"
   xmlns:inkscape="http://www.inkscape.org/namespaces/inkscape"
   height="343"
   width="477"
   id="svg2"
   sodipodi:version="0.32"
   inkscape:version="0.45.1"
   sodipodi:docname="zoo.svg"
   inkscape:output_extension="org.inkscape.output.svg.inkscape"
   sodipodi:docbase="C:\Dokumente und Einstellungen\ulfl\Eigene Dateien">
  <defs
     id="defs9" />
  <sodipodi:namedview
     inkscape:window-height="573"
     inkscape:window-width="797"
     inkscape:pageshadow="2"
     inkscape:pageopacity="0.0"
     guidetolerance="10.0"
     gridtolerance="10.0"
     objecttolerance="10.0"
     borderopacity="1.0"
     bordercolor="#666666"
     pagecolor="#ffffff"
     id="base"
     inkscape:zoom="0.27478134"
     inkscape:cx="-23.725337"
     inkscape:cy="117.9697"
     inkscape:window-x="308"
     inkscape:window-y="178"
     inkscape:current-layer="svg2" />
  <metadata
     id="metadata4">
    <rdf:RDF>
      <cc:Work
         rdf:about="">
        <dc:title>Clipart by Nicu Buculei - contour_chipmunk</dc:title>
        <dc:description />
        <dc:subject>
          <rdf:Bag>
            <rdf:li>mammal</rdf:li>
            <rdf:li />
            <rdf:li>animal</rdf:li>
          </rdf:Bag>
        </dc:subject>
        <dc:publisher>
          <cc:Agent
             rdf:about="http://www.openclipart.org">
            <dc:title>Nicu Buculei</dc:title>
          </cc:Agent>
        </dc:publisher>
        <dc:creator>
          <cc:Agent>
            <dc:title>Nicu Buculei</dc:title>
          </cc:Agent>
        </dc:creator>
        <dc:rights>
          <cc:Agent>
            <dc:title>Nicu Buculei</dc:title>
          </cc:Agent>
        </dc:rights>
        <dc:date />
        <dc:format>image/svg+xml</dc:format>
        <dc:type
           rdf:resource="http://purl.org/dc/dcmitype/StillImage" />
        <cc:license
           rdf:resource="http://web.resource.org/cc/PublicDomain" />
        <dc:language>en</dc:language>
      </cc:Work>
      <cc:License
         rdf:about="http://web.resource.org/cc/PublicDomain">
        <cc:permits
           rdf:resource="http://web.resource.org/cc/Reproduction" />
        <cc:permits
           rdf:resource="http://web.resource.org/cc/Distribution" />
        <cc:permits
           rdf:resource="http://web.resource.org/cc/DerivativeWorks" />
      </cc:License>
    </rdf:RDF>
  </metadata>
  <path
     d="M 74.082228,263.27851 C 78.979028,264.72251 91.006228,263.50751 86.883928,255.38351 C 84.596728,250.87551 73.835528,245.20051 69.082228,243.85451 C 61.919728,241.82551 49.885728,250.63151 59.082228,256.27851 L 57.082228,262.27851 C 49.380828,258.59851 47.185928,247.33651 47.812928,239.27851 C 48.253828,233.61151 53.370728,227.63551 55.397828,222.27851 C 60.935628,207.64351 65.484128,193.26051 69.791328,178.27851 C 71.513028,172.28951 72.023028,160.95551 77.229628,157.00651 C 82.108128,153.30551 89.600228,152.76651 95.078228,150.04051 C 99.116228,148.03051 101.75423,143.89551 106.09723,142.55251 C 115.42223,139.66951 124.60923,140.41251 129.08223,130.27851 C 138.52623,144.53551 146.41023,157.82051 147.97723,175.27851 C 149.09123,187.68951 140.61923,200.41451 137.75923,212.27851 C 135.76023,220.57151 136.37623,229.01851 134.19823,237.27851 C 131.48123,247.57851 126.18223,257.09851 123.59723,267.27851 C 122.03723,273.41951 123.43523,280.40651 121.51823,286.27751 C 118.08723,296.78651 98.500228,303.06651 100.82923,316.27351 C 101.90523,322.37651 109.02123,323.57651 114.08223,324.61251 C 125.83423,327.01751 138.48523,325.53351 150.08223,323.71751 C 153.94423,323.11251 158.63323,323.85951 161.64823,320.84451 C 168.92723,313.56651 160.32723,299.81351 162.68523,291.27851 C 164.37423,285.16151 170.16023,279.83151 173.18223,274.27851 C 179.75223,262.20251 185.31523,249.48151 189.08223,236.27851 L 190.08223,236.27851 C 190.32223,247.91651 193.13123,262.50251 197.59623,273.27851 C 200.41523,280.08251 207.67423,289.84451 207.47623,297.27851 C 207.13623,310.01851 187.83323,318.35151 197.09123,333.25951 C 206.40523,348.25651 228.41923,333.16851 240.08223,330.52951 C 246.47623,329.08251 255.05023,330.97651 258.18823,323.23551 C 262.52023,312.55151 253.72723,302.42351 252.25223,292.27851 C 250.56323,280.66851 252.74423,268.98751 250.61723,257.27851 C 249.06123,248.70951 242.08623,238.73851 242.32023,230.27851 C 242.48423,224.32551 246.71023,217.27651 248.08223,211.27851 L 286.08223,229.12351 L 302.08223,238.27851 C 302.15223,246.77851 301.91923,256.93451 303.41123,265.27851 C 304.12423,269.26351 307.86623,273.28951 306.72523,277.40851 C 304.50023,285.43451 284.85523,293.66951 289.27623,302.17351 C 291.70623,306.84751 298.41423,308.44851 303.08223,309.64851 C 314.90423,312.68851 345.87723,317.25551 354.56823,306.17051 C 358.39823,301.28551 358.08023,293.15751 358.08223,287.27851 C 358.08823,272.46051 359.65023,256.76151 356.08223,242.27851 C 368.95023,250.21351 371.87623,266.15951 378.32623,279.27851 C 380.56023,283.82251 385.21523,291.02851 383.69223,296.26351 C 381.34223,304.33751 357.25523,316.94451 368.40023,327.84551 C 371.49023,330.86851 377.10723,331.09351 381.08223,332.30351 C 392.58423,335.80351 427.49723,341.51551 432.93423,326.26351 C 438.01523,312.00951 436.71823,286.83851 433.18223,272.27851 C 431.10123,263.70951 426.26723,256.27651 425.42223,247.27851 C 424.64523,238.99951 430.38023,230.62051 430.99223,222.27851 C 431.84323,210.66551 428.25323,200.46751 427.89623,189.27851 C 427.66723,182.08051 430.08223,174.66851 430.08223,167.27851 C 441.06623,196.39351 429.56823,227.71951 437.56323,257.27851 C 438.72723,261.58151 439.18223,285.98451 447.80123,283.52651 C 451.03323,282.60551 451.98923,277.00151 451.34023,274.27851 C 448.51023,262.39651 443.38423,251.89151 443.35623,239.27851 C 443.34223,233.00651 446.20823,226.54251 446.90923,220.27851 C 451.04823,183.28651 456.82923,131.84251 425.07823,104.71751 C 410.92023,92.622515 395.58423,83.788315 380.08223,73.773915 C 367.95123,65.937215 355.53623,56.788015 341.08223,53.668915 C 330.48023,51.381115 318.85823,54.762215 308.08223,54.238415 C 284.58623,53.096215 261.50723,48.648915 238.08223,46.448315 C 227.42223,45.446815 216.86323,47.502115 206.08223,45.474515 C 182.91723,41.117815 165.78423,23.612615 143.08223,17.887315 C 135.89123,16.073955 123.42923,17.316615 116.08223,18.607215 C 109.14423,19.826115 105.47023,24.686015 100.06723,28.533115 C 84.377028,39.706115 63.800128,57.622615 55.112328,75.277715 C 49.779128,86.115715 49.207328,100.59941 45.785928,112.27851 C 40.799028,129.30151 31.325328,143.46451 28.521228,161.27851 C 25.584528,179.93551 30.083428,199.53351 30.082228,218.27851 C 30.081328,232.37051 22.198328,249.60851 27.215728,263.27851 C 34.229328,282.38751 71.461428,288.70151 74.082228,263.27851 z "
     style="fill:#000000;stroke:none"
     id="path6" />
</svg>
