<?xml version="1.0" encoding="UTF-8" standalone="no"?>
<!-- Created with Inkscape (http://www.inkscape.org/) -->
<svg
   xmlns:dc="http://purl.org/dc/elements/1.1/"
   xmlns:cc="http://web.resource.org/cc/"
   xmlns:rdf="http://www.w3.org/1999/02/22-rdf-syntax-ns#"
   xmlns:svg="http://www.w3.org/2000/svg"
   xmlns="http://www.w3.org/2000/svg"
   xmlns:sodipodi="http://sodipodi.sourceforge.net/DTD/sodipodi-0.dtd"
   xmlns:inkscape="http://www.inkscape.org/namespaces/inkscape"
   width="582.85999"
   height="400"
   id="svg2"
   sodipodi:version="0.32"
   inkscape:version="0.45.1"
   version="1.0"
   sodipodi:docbase="C:\Dokumente und Einstellungen\ulfl\Eigene Dateien\svn.openstreetmap.org\applications\share\map-icons\svg\transport\ferry"
   sodipodi:docname="ferry-pedestrian.svg"
   inkscape:output_extension="org.inkscape.output.svg.inkscape">
  <defs
     id="defs4" />
  <sodipodi:namedview
     id="base"
     pagecolor="#ffffff"
     bordercolor="#666666"
     borderopacity="1.0"
     inkscape:pageopacity="0.0"
     inkscape:pageshadow="2"
     inkscape:zoom="0.35"
     inkscape:cx="348.60503"
     inkscape:cy="515.93927"
     inkscape:document-units="px"
     inkscape:current-layer="layer1"
     showguides="true"
     inkscape:guide-bbox="true"
     inkscape:window-width="797"
     inkscape:window-height="573"
     inkscape:window-x="223"
     inkscape:window-y="257"
     height="400px"
     width="582.86px" />
  <metadata
     id="metadata7">
    <rdf:RDF>
      <cc:Work
         rdf:about="">
        <dc:format>image/svg+xml</dc:format>
        <dc:type
           rdf:resource="http://purl.org/dc/dcmitype/StillImage" />
        <cc:license
           rdf:resource="http://web.resource.org/cc/PublicDomain" />
      </cc:Work>
      <cc:License
         rdf:about="http://web.resource.org/cc/PublicDomain">
        <cc:permits
           rdf:resource="http://web.resource.org/cc/Reproduction" />
        <cc:permits
           rdf:resource="http://web.resource.org/cc/Distribution" />
        <cc:permits
           rdf:resource="http://web.resource.org/cc/DerivativeWorks" />
      </cc:License>
    </rdf:RDF>
  </metadata>
  <g
     inkscape:label="Ebene 1"
     inkscape:groupmode="layer"
     id="layer1"
     transform="translate(-97.14286,-449.50505)">
    <path
       style="fill:#000000;fill-opacity:1;fill-rule:nonzero;stroke:none;stroke-width:10;stroke-miterlimit:4;stroke-dasharray:none;stroke-dashoffset:0;stroke-opacity:1"
       d="M 171.60714,688.60714 C 174.82149,757.79089 223.86378,812.37499 284.29464,812.375 L 518.57589,812.375 C 579.00676,812.375 628.04906,757.79091 631.26339,688.60714 C 626.64493,689.29725 621.92377,689.6591 617.13839,689.6591 L 185.70089,689.6591 C 180.91551,689.6591 176.2256,689.29725 171.60714,688.60714 z "
       id="rect2160" />
    <rect
       style="fill:#000000;fill-opacity:1;fill-rule:nonzero;stroke:none;stroke-width:10;stroke-miterlimit:4;stroke-dasharray:none;stroke-dashoffset:0;stroke-opacity:1"
       id="rect2165"
       width="105.71429"
       height="162.85715"
       x="500"
       y="569.50507"
       ry="0" />
    <rect
       style="fill:#ffffff;fill-opacity:1;fill-rule:nonzero;stroke:none;stroke-width:10;stroke-miterlimit:4;stroke-dasharray:none;stroke-dashoffset:0;stroke-opacity:1"
       id="rect2167"
       width="42.857143"
       height="45.714287"
       x="534.28571"
       y="618.07648" />
    <path
       style="fill:#0000ff;fill-opacity:1;fill-rule:evenodd;stroke:#000000;stroke-width:1px;stroke-linecap:butt;stroke-linejoin:miter;stroke-opacity:1"
       d="M 105.71428,846.6479 C 105.71428,846.6479 159.99999,764.50503 225.71428,758.07646 C 291.42857,751.64789 292.14286,791.6479 368.57143,789.50504 C 445,787.36218 455,735.21934 531.42857,740.93362 C 607.85714,746.64791 674.28571,843.79075 674.28571,843.79075 L 105.71428,846.6479 z "
       id="path2169"
       sodipodi:nodetypes="cssscc" />
    <g
       id="g3273"
       transform="matrix(0.3123233,0,0,0.3123233,350.13771,448.9155)">
      <circle
         id="circle3262"
         style="fill:#000000;stroke:none"
         cy="105"
         cx="188"
         r="56"
         sodipodi:cx="188"
         sodipodi:cy="105"
         sodipodi:rx="56"
         sodipodi:ry="56" />
      <path
         id="path3264"
         d="M 22,427 C 173.66667,190.33333 159.33333,183.66667 216,182 C 249,183 250,192 306,236 C 375,286.66667 370,287.33333 369,343 C 368.66667,410 373.33333,405 320,430 L 320,317 L 273,275 L 273,434 L 161,433 L 160,307 C 68,449 74,441 22,427 z "
         style="fill:#000000;stroke:none" />
      <path
         id="path3266"
         d="M 163,450 L 272,450 C 272,475 280,473 338,582 C 399,694.33333 400,686.66667 365,751 L 214,480 C 71,756.66667 89,748.33333 10,743 L 89,595 C 156.66667,472.66667 160.33333,472.33333 163,450 z "
         style="fill:#000000;stroke:none" />
    </g>
    <g
       transform="matrix(0.3186641,0,0,0.3186641,187.67576,444.15362)"
       id="g3278">
      <circle
         sodipodi:ry="56"
         sodipodi:rx="56"
         sodipodi:cy="105"
         sodipodi:cx="188"
         r="56"
         cx="188"
         cy="105"
         style="fill:#000000;stroke:none"
         id="circle3280" />
      <path
         style="fill:#000000;stroke:none"
         d="M 22,427 C 173.66667,190.33333 159.33333,183.66667 216,182 C 249,183 250,192 306,236 C 375,286.66667 370,287.33333 369,343 C 368.66667,410 373.33333,405 320,430 L 320,317 L 273,275 L 273,434 L 161,433 L 160,307 C 68,449 74,441 22,427 z "
         id="path3282" />
      <path
         style="fill:#000000;stroke:none"
         d="M 163,450 L 272,450 C 272,475 280,473 338,582 C 399,694.33333 400,686.66667 365,751 L 214,480 C 71,756.66667 89,748.33333 10,743 L 89,595 C 156.66667,472.66667 160.33333,472.33333 163,450 z "
         id="path3284" />
    </g>
  </g>
</svg>
