<?xml version="1.0" encoding="UTF-8" standalone="no"?>
<!-- Created with Inkscape (http://www.inkscape.org/) -->
<svg
   xmlns:dc="http://purl.org/dc/elements/1.1/"
   xmlns:cc="http://web.resource.org/cc/"
   xmlns:rdf="http://www.w3.org/1999/02/22-rdf-syntax-ns#"
   xmlns:svg="http://www.w3.org/2000/svg"
   xmlns="http://www.w3.org/2000/svg"
   xmlns:sodipodi="http://sodipodi.sourceforge.net/DTD/sodipodi-0.dtd"
   xmlns:inkscape="http://www.inkscape.org/namespaces/inkscape"
   height="521.60559"
   id="svg2"
   inkscape:version="0.45.1"
   sodipodi:docbase="C:\Dokumente und Einstellungen\ulfl\Eigene Dateien\svn.openstreetmap.org\applications\share\map-icons\svg\transport"
   sodipodi:docname="handicapped.svg"
   sodipodi:version="0.32"
   width="485.00174"
   inkscape:output_extension="org.inkscape.output.svg.inkscape"
   version="1.0">
  <metadata
     id="metadata3">
    <rdf:RDF>
      <cc:Work
         rdf:about="">
        <dc:title>Wheelchair Symbol</dc:title>
        <dc:description>symbol depicting an idealized wheelchair driver</dc:description>
        <dc:subject>
          <rdf:Bag>
            <rdf:li>symbol</rdf:li>
            <rdf:li>wheelchair</rdf:li>
          </rdf:Bag>
        </dc:subject>
        <dc:publisher>
          <cc:Agent
             rdf:about="http://www.openclipart.org/">
            <dc:title>Open Clip Art Library</dc:title>
          </cc:Agent>
        </dc:publisher>
        <dc:creator>
          <cc:Agent>
            <dc:title>mailto:ralf@ark.in-berlin.de</dc:title>
          </cc:Agent>
        </dc:creator>
        <dc:rights>
          <cc:Agent>
            <dc:title>mailto:ralf@ark.in-berlin.de</dc:title>
          </cc:Agent>
        </dc:rights>
        <dc:date>2005-08-06</dc:date>
        <dc:format>image/svg+xml</dc:format>
        <dc:type
           rdf:resource="http://purl.org/dc/dcmitype/StillImage" />
        <cc:license
           rdf:resource="http://web.resource.org/cc/PublicDomain" />
        <dc:language>en</dc:language>
      </cc:Work>
      <cc:License
         rdf:about="http://web.resource.org/cc/PublicDomain">
        <cc:permits
           rdf:resource="http://web.resource.org/cc/Reproduction" />
        <cc:permits
           rdf:resource="http://web.resource.org/cc/Distribution" />
        <cc:permits
           rdf:resource="http://web.resource.org/cc/DerivativeWorks" />
      </cc:License>
    </rdf:RDF>
  </metadata>
  <defs
     id="defs4" />
  <sodipodi:namedview
     bordercolor="#666666"
     borderopacity="1.0"
     fill="#000000"
     id="base"
     inkscape:current-layer="layer1"
     inkscape:cx="372.04724"
     inkscape:cy="526.18109"
     inkscape:document-units="px"
     inkscape:pageopacity="0.0"
     inkscape:pageshadow="2"
     inkscape:window-height="573"
     inkscape:window-width="833"
     inkscape:window-x="110"
     inkscape:window-y="145"
     inkscape:zoom="0.3278339"
     pagecolor="#ffffff" />
  <g
     id="layer1"
     inkscape:groupmode="layer"
     inkscape:label="Ebene 1"
     transform="translate(-170.81822,-219.62341)">
    <path
       d="M 475.14239,512.18475 C 455.98022,507.82608 355.63011,511.46176 326.61273,511.45765 C 325.71817,448.40152 325.49175,385.33666 324.95769,322.27616 C 306.90185,303.3047 316.35912,268.99957 341.47238,261.63101 C 366.33467,251.38896 397.00821,274.41644 392.9612,301.45924 C 394.05008,322.82207 369.20964,328.02258 360.82849,339.80159 C 360.22642,364.7506 359.67445,389.78618 361.1968,414.70072 C 394.99835,417.41822 429.25883,415.41662 463.26461,415.88181 C 463.26461,426.84659 463.26461,437.81138 463.26461,448.77616 C 429.95472,448.77616 396.64484,448.77616 363.33495,448.77616 C 355.12082,467.7601 363.27055,483.41896 361.46514,481.67273 C 399.06092,481.85538 460.65743,481.74632 498.25356,481.77616 C 519.8184,526.09655 540.56669,571.03397 562.33619,615.10231 C 585.20389,612.33784 601.8056,599.41482 610.49782,598.85868 C 620.02186,598.03601 620.26631,628.40996 619.21194,627.50546 C 598.78942,634.85834 566.55746,650.7486 546.02023,657.77617 C 540.84192,649.38539 494.42324,551.84326 475.14239,512.18475 z M 358.74924,701.28513 C 313.89925,696.29491 282.53144,682.88945 258.60122,661.39393 C 224.38105,631.56517 204.61044,585.48831 209.87972,539.92978 C 212.43349,488.27629 246.91682,441.52959 292.5749,418.84829 C 299.82092,425.55951 294.94651,442.87901 296.24292,454.29174 C 298.17472,464.19329 285.0523,466.91187 280.24747,473.7567 C 246.33625,506.2488 238.90725,561.67428 260.34286,603.08127 C 283.01946,650.13041 340.39421,679.64452 391.57378,665.24716 C 429.9463,655.60354 460.34575,626.64192 480.54345,593.67296 C 488.98781,600.44577 506.98711,629.12461 488.76424,641.77672 C 457.9627,680.46369 408.61325,704.72754 358.74924,701.28513 z "
       id="path1631"
       sodipodi:nodetypes="cccccccccccccccccccccccccccc"
       style="fill:#000000" />
  </g>
</svg>
