<?xml version="1.0" encoding="UTF-8" standalone="no"?>
<!-- Created with Inkscape (http://www.inkscape.org/) -->
<svg
   xmlns:svg="http://www.w3.org/2000/svg"
   xmlns="http://www.w3.org/2000/svg"
   version="1.0"
   width="753.12"
   height="671.52002"
   id="svg2">
  <defs
     id="defs11" />
  <g
     transform="matrix(1.118133,0,0,-1.118133,-44.48418,711.1844)"
     id="g1875">
    <path
       d="M 71.985614,631.52918 C 60.553114,631.52918 49.989054,625.43 44.272794,615.52918 C 38.556554,605.62833 38.556554,593.43 44.272794,583.52918 L 348.84719,55.99085 C 354.56345,46.09002 365.12751,39.99084 376.56,39.99084 C 387.99251,39.99084 398.55659,46.09002 404.27283,55.99085 L 708.84723,583.52918 C 714.56347,593.43 714.56347,605.62833 708.84723,615.52918 C 703.13097,625.42999 692.56691,631.52918 681.13441,631.52918 L 71.985614,631.52918 z "
       style="fill:white;fill-rule:evenodd;stroke:black;stroke-width:2"
       id="path6" />
    <path
       d="M 71.985614,619.52918 C 64.840294,619.52918 58.237754,615.7172 54.665094,609.52918 C 51.092454,603.34114 51.092454,595.7172 54.665094,589.52918 L 359.23951,61.99086 C 362.81215,55.80282 369.41471,51.99084 376.56,51.99084 C 383.70533,51.99084 390.30787,55.80282 393.88053,61.99086 L 698.45493,589.52918 C 702.02757,595.7172 702.02757,603.34114 698.45493,609.52918 C 694.88227,615.7172 688.27973,619.52918 681.13441,619.52918 L 71.985614,619.52918 z M 141.2677,559.52918 L 376.56,151.99085 L 611.85233,559.52918 L 141.2677,559.52918 z "
       style="fill:#c00;fill-rule:evenodd;stroke:none"
       id="path8" />
  </g>
</svg>
