<?xml version="1.0" encoding="UTF-8" standalone="no"?>
<!-- Created with Inkscape (http://www.inkscape.org/) -->
<svg
   xmlns:dc="http://purl.org/dc/elements/1.1/"
   xmlns:cc="http://web.resource.org/cc/"
   xmlns:rdf="http://www.w3.org/1999/02/22-rdf-syntax-ns#"
   xmlns:svg="http://www.w3.org/2000/svg"
   xmlns="http://www.w3.org/2000/svg"
   xmlns:sodipodi="http://sodipodi.sourceforge.net/DTD/sodipodi-0.dtd"
   xmlns:inkscape="http://www.inkscape.org/namespaces/inkscape"
   version="1.0"
   width="725"
   height="725"
   id="svg2"
   sodipodi:version="0.32"
   inkscape:version="0.45.1"
   sodipodi:docname="roundabout_left.svg"
   inkscape:output_extension="org.inkscape.output.svg.inkscape"
   sodipodi:docbase="G:\Documents\map-icons\svg\vehicle\restrictions">
  <metadata
     id="metadata2845">
    <rdf:RDF>
      <cc:Work
         rdf:about="">
        <dc:format>image/svg+xml</dc:format>
        <dc:type
           rdf:resource="http://purl.org/dc/dcmitype/StillImage" />
        <cc:license
           rdf:resource="http://web.resource.org/cc/PublicDomain" />
      </cc:Work>
      <cc:License
         rdf:about="http://web.resource.org/cc/PublicDomain">
        <cc:permits
           rdf:resource="http://web.resource.org/cc/Reproduction" />
        <cc:permits
           rdf:resource="http://web.resource.org/cc/Distribution" />
        <cc:permits
           rdf:resource="http://web.resource.org/cc/DerivativeWorks" />
      </cc:License>
    </rdf:RDF>
  </metadata>
  <sodipodi:namedview
     inkscape:window-height="757"
     inkscape:window-width="1003"
     inkscape:pageshadow="2"
     inkscape:pageopacity="0.0"
     guidetolerance="10.0"
     gridtolerance="10.0"
     objecttolerance="10.0"
     borderopacity="1.0"
     bordercolor="#666666"
     pagecolor="#ffffff"
     id="base"
     inkscape:zoom="0.52"
     inkscape:cx="329.64033"
     inkscape:cy="398.81115"
     inkscape:window-x="22"
     inkscape:window-y="29"
     inkscape:current-layer="svg2" />
  <defs
     id="defs9" />
  <circle
     cx="362.5"
     cy="362.5"
     r="350"
     style="fill:#ffffff;stroke:#000000;stroke-width:2.5px"
     id="circle4"
     sodipodi:cx="362.5"
     sodipodi:cy="362.5"
     sodipodi:rx="350"
     sodipodi:ry="350"
     transform="matrix(-1,0,0,1,725,0)" />
  <path
     d="M 690.64494,362.49999 C 690.64494,543.72945 543.72943,690.64495 362.49998,690.64495 C 181.27052,690.64495 34.35502,543.72945 34.35502,362.49999 C 34.35502,181.27054 181.27052,34.355034 362.49998,34.355034 C 543.72943,34.355034 690.64494,181.27054 690.64494,362.49999 z "
     style="opacity:1;fill:#003399;fill-opacity:1;fill-rule:nonzero;stroke:none;stroke-width:2;stroke-linecap:round;stroke-linejoin:round;stroke-miterlimit:4;stroke-dasharray:none;stroke-dashoffset:0;stroke-opacity:1"
     id="path1883" />
  <path
     d="M 573.21598,434.22108 L 490.71667,350.31583 L 491.09561,301.34152 L 551.82171,360.72091 C 553.83593,265.73848 472.0494,185.96417 395.23258,175.70399 L 402.03816,134.60623 C 536.91434,161.30323 591.23042,266.74319 593.8256,360.37317 L 655.12891,300.77246 L 655.40787,351.70146 L 573.21598,434.22108 z "
     style="opacity:1;fill:#ffffff;fill-opacity:1;fill-rule:evenodd;stroke:none;stroke-width:1px;stroke-linecap:butt;stroke-linejoin:miter;stroke-opacity:1"
     id="path2806" />
  <path
     d="M 194.79481,509.211 L 308.82707,480.17877 L 350.94974,505.1649 L 269.07054,527.7341 C 350.12054,577.29837 460.22482,546.80204 507.76709,485.59886 L 539.84863,512.17172 C 448.87196,615.26176 330.42422,609.10108 248.22188,564.20025 L 268.85004,647.17507 L 224.70728,621.77315 L 194.79481,509.211 z "
     style="opacity:1;fill:#ffffff;fill-opacity:1;fill-rule:evenodd;stroke:none;stroke-width:1px;stroke-linecap:butt;stroke-linejoin:miter;stroke-opacity:1"
     id="path3753" />
  <path
     d="M 319.44061,145.06645 L 287.29295,258.25989 L 244.53504,282.14267 L 266.12809,200.00064 C 182.56947,245.20768 153.66021,355.73927 182.7187,427.58425 L 143.63019,441.98665 C 100.15564,311.54788 164.95553,212.20608 245.05974,163.66099 L 162.94479,139.83919 L 207.07657,114.41819 L 319.44061,145.06645 z "
     style="opacity:1;fill:#ffffff;fill-opacity:1;fill-rule:evenodd;stroke:none;stroke-width:1px;stroke-linecap:butt;stroke-linejoin:miter;stroke-opacity:1"
     id="path3755" />
</svg>
