<?xml version="1.0" encoding="UTF-8" standalone="no"?>
<!-- Generator: Adobe Illustrator 13.0.2, SVG Export Plug-In . SVG Version: 6.00 Build 14948)  -->
<svg
   xmlns:dc="http://purl.org/dc/elements/1.1/"
   xmlns:cc="http://creativecommons.org/ns#"
   xmlns:rdf="http://www.w3.org/1999/02/22-rdf-syntax-ns#"
   xmlns:svg="http://www.w3.org/2000/svg"
   xmlns="http://www.w3.org/2000/svg"
   xmlns:sodipodi="http://sodipodi.sourceforge.net/DTD/sodipodi-0.dtd"
   xmlns:inkscape="http://www.inkscape.org/namespaces/inkscape"
   version="1.2"
   baseProfile="tiny"
   id="Layer_1"
   x="0px"
   y="0px"
   width="73.401px"
   height="102.427px"
   viewBox="0 0 73.401 102.427"
   xml:space="preserve"
   sodipodi:version="0.32"
   inkscape:version="0.46"
   sodipodi:docname="memorial.svg"
   inkscape:output_extension="org.inkscape.output.svg.inkscape"><metadata
   id="metadata18"><rdf:RDF><cc:Work
       rdf:about=""><dc:format>image/svg+xml</dc:format><dc:type
         rdf:resource="http://purl.org/dc/dcmitype/StillImage" /><cc:license
         rdf:resource="http://creativecommons.org/licenses/publicdomain/" /></cc:Work><cc:License
       rdf:about="http://creativecommons.org/licenses/publicdomain/"><cc:permits
         rdf:resource="http://creativecommons.org/ns#Reproduction" /><cc:permits
         rdf:resource="http://creativecommons.org/ns#Distribution" /><cc:permits
         rdf:resource="http://creativecommons.org/ns#DerivativeWorks" /></cc:License></rdf:RDF></metadata><defs
   id="defs16"><inkscape:perspective
     sodipodi:type="inkscape:persp3d"
     inkscape:vp_x="0 : 51.213501 : 1"
     inkscape:vp_y="0 : 1000 : 0"
     inkscape:vp_z="73.401001 : 51.213501 : 1"
     inkscape:persp3d-origin="36.7005 : 34.142334 : 1"
     id="perspective20" /></defs><sodipodi:namedview
   inkscape:window-height="713"
   inkscape:window-width="760"
   inkscape:pageshadow="2"
   inkscape:pageopacity="0.0"
   guidetolerance="10.0"
   gridtolerance="10.0"
   objecttolerance="10.0"
   borderopacity="1.0"
   bordercolor="#666666"
   pagecolor="#ffffff"
   id="base"
   showgrid="false"
   inkscape:zoom="4.822947"
   inkscape:cx="63.465426"
   inkscape:cy="51.213501"
   inkscape:window-x="0"
   inkscape:window-y="0"
   inkscape:current-layer="Layer_1" />
<g
   id="g3">
	<g
   id="g5">
		<path
   d="M14.001,100.758l-12.4-17.274c-0.42-0.587-0.676-1.284-0.736-2l0,0L0.014,71.282c-0.132-1.611,0.718-3.151,2.158-3.89l0,0    l5.25-2.699c0.257-0.133,0.592-0.259,0.873-0.327l0,0l3.519-0.867L9.505,9.521c-0.089-2.073,1.413-3.865,3.474-4.136l0,0    l40.549-5.35c0.691-0.093,1.38-0.004,2.027,0.259l0,0l4.8,1.951c1.565,0.635,2.567,2.199,2.49,3.887l0,0L60.39,59.958l11.52,9.276    c1.032,0.831,1.583,2.111,1.479,3.432l0,0l-0.801,10.125c-0.13,1.636-1.233,3.016-2.801,3.504l0,0l-51.349,15.95    c-0.395,0.123-0.797,0.182-1.194,0.182l0,0C15.981,102.427,14.768,101.826,14.001,100.758L14.001,100.758z"
   id="path7" />
	</g>
</g>
<polygon
   fill-rule="evenodd"
   fill="#FFFFFF"
   points="56.102,65.151 19.452,74.901 17.251,11.651 58.852,5.952 "
   id="polygon9" />
<path
   fill="#FFFFFF"
   d="M16.924,89.49l0.327,8.937l51.35-15.951l0.632-7.995l-51.828,14.94  C17.245,89.468,17.084,89.484,16.924,89.49z"
   id="path11" />
<polygon
   fill="#FFFFFF"
   points="63.854,67.868 19.001,80.201 17.521,85.226 67.502,70.816 "
   id="polygon13" />
</svg>