<?xml version="1.0" encoding="UTF-8" standalone="no"?>
<!-- Generator: Adobe Illustrator 13.0.2, SVG Export Plug-In . SVG Version: 6.00 Build 14948)  -->
<svg
   xmlns:dc="http://purl.org/dc/elements/1.1/"
   xmlns:cc="http://creativecommons.org/ns#"
   xmlns:rdf="http://www.w3.org/1999/02/22-rdf-syntax-ns#"
   xmlns:svg="http://www.w3.org/2000/svg"
   xmlns="http://www.w3.org/2000/svg"
   xmlns:sodipodi="http://sodipodi.sourceforge.net/DTD/sodipodi-0.dtd"
   xmlns:inkscape="http://www.inkscape.org/namespaces/inkscape"
   version="1.2"
   baseProfile="tiny"
   id="Layer_1"
   x="0px"
   y="0px"
   width="70.148px"
   height="59.046px"
   viewBox="0 0 70.148 59.046"
   xml:space="preserve"
   sodipodi:version="0.32"
   inkscape:version="0.46"
   sodipodi:docname="burger h.svg"
   inkscape:output_extension="org.inkscape.output.svg.inkscape"><metadata
   id="metadata28"><rdf:RDF><cc:Work
       rdf:about=""><dc:format>image/svg+xml</dc:format><dc:type
         rdf:resource="http://purl.org/dc/dcmitype/StillImage" /><cc:license
         rdf:resource="http://creativecommons.org/licenses/publicdomain/" /></cc:Work><cc:License
       rdf:about="http://creativecommons.org/licenses/publicdomain/"><cc:permits
         rdf:resource="http://creativecommons.org/ns#Reproduction" /><cc:permits
         rdf:resource="http://creativecommons.org/ns#Distribution" /><cc:permits
         rdf:resource="http://creativecommons.org/ns#DerivativeWorks" /></cc:License></rdf:RDF></metadata><defs
   id="defs26"><inkscape:perspective
     sodipodi:type="inkscape:persp3d"
     inkscape:vp_x="0 : 29.523001 : 1"
     inkscape:vp_y="0 : 1000 : 0"
     inkscape:vp_z="70.148003 : 29.523001 : 1"
     inkscape:persp3d-origin="35.074001 : 19.682 : 1"
     id="perspective30" /></defs><sodipodi:namedview
   inkscape:window-height="480"
   inkscape:window-width="640"
   inkscape:pageshadow="2"
   inkscape:pageopacity="0.0"
   guidetolerance="10.0"
   gridtolerance="10.0"
   objecttolerance="10.0"
   borderopacity="1.0"
   bordercolor="#666666"
   pagecolor="#ffffff"
   id="base"
   showgrid="false" />
<g
   id="g3">
	<path
   fill="#734A08"
   d="M15.059,55.811c-5.355-1.974-9.298-4.695-10.939-7.966l0,0H4.117l-0.137-0.279   c-0.68-1.399-0.986-3.498-1.118-5.416l0,0c-0.167-0.239-0.32-0.482-0.461-0.728l0,0l-0.038-0.061   c-0.516-0.821-0.961-1.993-1.292-3.393l0,0c-0.329-1.397-0.535-3.018-0.535-4.71l0,0c0-1.021,0.075-2.069,0.246-3.109l0,0   C0.25,28.612,0,26.932,0,25.306l0,0c0.001-1.749,0.288-3.435,0.853-4.818l0,0c0.422-1.107,1.191-2.141,2.24-3.101l0,0   c2.015-5.103,6.645-9.419,12.424-12.483l0,0C21.342,1.818,28.351,0.001,35.124,0l0,0c6.916,0.001,14.083,1.801,19.983,4.919l0,0   c5.854,3.097,10.48,7.499,12.298,12.805l0,0c0.859,0.854,1.502,1.764,1.877,2.732l0,0c0.573,1.39,0.865,3.088,0.866,4.851l0,0   c-0.001,1.63-0.252,3.315-0.786,4.855l0,0c0.169,1.036,0.244,2.079,0.244,3.098l0,0c0,1.692-0.206,3.312-0.534,4.71l0,0   c-0.319,1.352-0.746,2.492-1.24,3.309l0,0c-0.04,1.035-0.136,2.18-0.312,3.265l0,0c-0.185,1.132-0.448,2.195-0.853,3.022l0,0   l-0.138,0.279h-0.003c-1.641,3.271-5.583,5.992-10.938,7.966l0,0c-5.521,2.026-12.575,3.235-20.265,3.235l0,0   C27.633,59.046,20.58,57.837,15.059,55.811L15.059,55.811z"
   id="path5" />
</g>
<path
   fill="#F1EDE7"
   d="M64.412,14.03c-1.79-2.603-4.352-4.925-7.405-6.857C50.898,3.304,42.825,0.998,35.124,1  c-5.771-0.001-11.756,1.362-16.964,3.721c-5.209,2.356-9.638,5.711-12.323,9.646c-1.792,2.625-2.812,5.498-2.813,8.534  c0.001,0.937,0.307,1.806,0.892,2.646c0.584,0.838,1.452,1.635,2.543,2.375c0.041,0.027,0.083,0.054,0.124,0.081  c0.215-0.061,0.433-0.088,0.647-0.088c0.874,0.007,1.684,0.408,2.438,0.832c0.749,0.428,1.453,0.9,1.979,1.118  c0.381,0.164,1.042,0.3,1.714,0.491c0.671,0.197,1.379,0.443,1.902,0.975c0.122,0.123,0.229,0.267,0.317,0.426  c6.673,1.865,14.466,2.746,19.243,2.744c3.225,0,7.866-0.235,12.631-0.91c2.455-0.347,4.944-0.812,7.288-1.419  c0.115-0.397,0.303-0.741,0.541-1.023c0.315-0.376,0.71-0.643,1.123-0.842c0.828-0.396,1.75-0.547,2.48-0.72  c0.86-0.201,1.458-0.464,2.099-0.736c0.638-0.271,1.321-0.55,2.262-0.721l0.016-0.003l0.018-0.002  c0.014-0.002,0.064-0.007,0.14-0.007c0.062,0,0.139,0.003,0.232,0.021c0.078,0.018,0.173,0.04,0.281,0.111  c0.998-0.743,1.802-1.561,2.357-2.453c0.604-0.967,0.931-2.016,0.932-3.195C67.223,19.513,66.202,16.635,64.412,14.03z"
   id="path7" />
<path
   fill="#F1EDE7"
   d="M35.073,52.212c-14.285,0-26.462-3.962-31.167-9.526c0.034,0.392,0.077,0.787,0.13,1.177  c0.152,1.128,0.392,2.208,0.714,2.982h0.007l0.133,0.295c1.332,2.987,5.123,5.762,10.513,7.732  c5.384,1.978,12.335,3.175,19.92,3.175s14.537-1.197,19.92-3.175c5.39-1.971,9.181-4.745,10.513-7.732l0.133-0.295h0.007  c0.322-0.774,0.562-1.854,0.715-2.982c0.085-0.625,0.145-1.266,0.184-1.884C62.553,47.911,49.957,52.212,35.073,52.212z"
   id="path9" />
<path
   fill="#F1EDE7"
   d="M67.87,32.146c-0.128,0.203-0.263,0.399-0.406,0.588h-0.002c-3.899,5.715-16.922,9.912-32.388,9.912  c-15.47,0-28.495-4.199-32.391-9.917c-0.144-0.188-0.279-0.385-0.407-0.588c2.173,6.249,12.018,11.26,24.77,12.766  c0.029-0.097,0.071-0.182,0.116-0.255c0.081-0.129,0.175-0.232,0.272-0.324c0.196-0.183,0.407-0.319,0.581-0.414  c0.454-0.246,0.926-0.328,1.374-0.327c0.278,0,0.551,0.029,0.825,0.067c1.482,0.205,2.822,0.583,4.179,0.704  c0.203,0.019,0.411,0.027,0.622,0.027c1.177,0.001,2.457-0.266,3.635-0.435c0.558-0.078,1.398-0.237,2.229-0.238  c0.686,0.004,1.398,0.098,1.96,0.555l0.212,0.177l-0.036,0.273c-0.01,0.071-0.025,0.14-0.046,0.205  C55.78,43.437,65.685,38.415,67.87,32.146z"
   id="path11" />
<g
   id="g13">
	<path
   fill="#F1EDE7"
   d="M5.834,30.029c-0.172,0.245-0.296,0.5-0.44,1.137l0,0c-0.061,0.266-0.164,0.521-0.246,0.777l0,0   c-0.084,0.253-0.143,0.5-0.141,0.673l0,0c0,0.033,0.002,0.062,0.005,0.091l0,0c0.032,0.263,0.106,0.472,0.206,0.721l0,0   C5.27,33.559,5.33,33.7,5.386,33.858l0,0c0.133-0.055,0.28-0.14,0.443-0.25l0,0c0.314-0.207,0.659-0.49,1.093-0.69l0,0   c0.814-0.37,1.672-0.627,2.583-0.666l0,0c0.309-0.014,0.621-0.021,0.934-0.021l0,0c0.788,0,1.577,0.041,2.316,0.122l0,0   c0.742,0.087,1.481,0.333,2.076,0.327l0,0c0.001,0,0.002,0,0.003,0l0,0c-0.014-0.211-0.073-0.362-0.165-0.502l0,0   c-0.105-0.158-0.269-0.302-0.489-0.432l0,0c-0.44-0.262-1.094-0.439-1.725-0.599l0,0c-0.422-0.109-0.833-0.211-1.195-0.362l0,0   c-0.673-0.286-1.375-0.77-2.085-1.171l0,0c-0.705-0.406-1.407-0.708-1.944-0.701l0,0c-0.173,0-0.33,0.026-0.48,0.084l0,0   l-0.097,0.061C6.268,29.532,5.999,29.793,5.834,30.029L5.834,30.029z"
   id="path15" />
</g>
<g
   id="g17">
	<path
   fill="#F1EDE7"
   d="M56.848,32.755c0.955,0.191,1.744,0.664,2.511,1.018l0,0c0.329,0.152,0.867,0.412,1.458,0.632l0,0   c0.588,0.221,1.232,0.393,1.703,0.39l0,0c0.209,0.001,0.377-0.032,0.494-0.084l0,0c0.119-0.055,0.191-0.116,0.258-0.229l0,0   c0.034-0.043,0.089-0.279,0.084-0.578l0,0c0-0.344-0.048-0.77-0.101-1.17l0,0c-0.052-0.403-0.109-0.771-0.121-1.067l0,0   c-0.003-0.076-0.005-0.16-0.005-0.249l0,0c0.001-0.414,0.025-0.955,0.051-1.448l0,0c0.015-0.307,0.03-0.599,0.039-0.815l0,0   c-0.729,0.152-1.264,0.371-1.843,0.617l0,0c-0.63,0.267-1.311,0.567-2.262,0.789l0,0c-0.579,0.135-1.203,0.252-1.754,0.438l0,0   c-0.553,0.186-1.014,0.436-1.312,0.793l0,0c-0.199,0.239-0.343,0.529-0.407,0.94l0,0c0,0.001,0,0.001,0,0.002l0,0   c0.146-0.008,0.366-0.031,0.622-0.032l0,0C56.441,32.701,56.638,32.713,56.848,32.755L56.848,32.755z"
   id="path19" />
</g>
<g
   id="g21">
	<path
   fill="#F1EDE7"
   d="M30.64,45.955c0.715,0.471,1.332,1.051,1.824,1.581l0,0c0.378,0.408,0.881,0.897,1.424,1.272l0,0   c0.542,0.378,1.117,0.625,1.615,0.621l0,0c0.197-0.001,0.386-0.035,0.578-0.114l0,0c0.467-0.188,0.979-0.659,1.472-1.213l0,0   c0.497-0.553,0.975-1.172,1.485-1.645l0,0c0.408-0.368,0.938-0.599,1.451-0.837l0,0c0.512-0.231,1.008-0.464,1.279-0.689l0,0   c0.034-0.028,0.065-0.056,0.092-0.082l0,0c-0.259-0.093-0.601-0.141-0.983-0.138l0,0c-0.704-0.001-1.498,0.144-2.088,0.229l0,0   c-1.132,0.159-2.455,0.442-3.775,0.444l0,0c-0.238,0-0.476-0.01-0.713-0.031l0,0c-1.479-0.137-2.831-0.52-4.225-0.71l0,0   c-0.252-0.035-0.481-0.058-0.688-0.058l0,0c-0.337,0.002-0.61,0.054-0.9,0.208l0,0c-0.08,0.043-0.193,0.115-0.289,0.191l0,0   c-0.031,0.025-0.061,0.051-0.086,0.076l0,0l0.097,0.006l0,0C29.106,45.122,29.925,45.486,30.64,45.955L30.64,45.955z"
   id="path23" />
</g>
</svg>