<?xml version="1.0" encoding="UTF-8" standalone="no"?>
<!-- Generator: Adobe Illustrator 11.0, SVG Export Plug-In . SVG Version: 6.0.0 Build 78)  -->
<!-- Created by Cary Bass http://commons.wikipedia.com/wiki/User:Bastique on January 20, 2006 -->
<svg
   xmlns:svg="http://www.w3.org/2000/svg"
   xmlns="http://www.w3.org/2000/svg"
   version="1.0"
   width="600" height="525"
   id="radioactive">
	<g id="radiation_sign">
<g>
				<path id="sign_border" d="M597.6,499.6L313.8,8c-2.9-5-8.2-8-13.9-8c-5.7,0-11,3.1-13.9,8L2.2,499.6c-2.9,5-2.9,11.1,0,16
					c2.9,5,8.2,8,13.9,8h567.6c5.7,0,11-3.1,13.9-8C600.5,510.6,600.5,504.5,597.6,499.6z"/>
				<polygon id="sign_bg" fill="#F7F619" points="43.9,491.5 299.9,48.2 555.9,491.5 "/>
			</g>
			<g>
				<circle id="inner_circle" cx="299.8" cy="343.7" r="74"/> 
				<circle id="inner_circle_cutout" fill="#F7F619" cx="299.8" cy="343.7" r="57"/> 
			</g>
			<g>
				<g id="claws">
					<g>
						<g>
							<path d="M327.1,166.9c27.4,10.9,46.7,37.6,46.7,68.8c0,40.9-33.1,74-74,74s-74-33.1-74-74c0-31.2,19.4-57.9,46.7-68.8
								c-36.4,11.6-62.7,45.6-62.7,85.8c0,49.7,40.3,90,90,90c49.7,0,90-40.3,90-90C389.8,212.5,363.5,178.5,327.1,166.9z"/>
						</g>
					</g>
					<g>
						<g>
							<path d="M439.4,455.6c-23.1,18.3-55.9,21.7-82.9,6.1c-35.4-20.4-47.5-65.7-27.1-101.1c20.4-35.4,65.7-47.5,101.1-27.1
								c27,15.6,40.5,45.7,36.2,74.9c8.2-37.3-8.1-77.1-42.9-97.2c-43-24.9-98.1-10.1-122.9,32.9c-24.9,43-10.1,98.1,32.9,122.9
								C368.5,487.1,411.2,481.3,439.4,455.6z"/>
						</g>
					</g>
					<g>
						<g>
							<path d="M133.2,408.5c-4.3-29.1,9.2-59.2,36.2-74.9c35.4-20.4,80.7-8.3,101.1,27.1c20.4,35.4,8.3,80.7-27.1,101.1
								c-27,15.6-59.8,12.2-82.9-6.1c28.2,25.7,70.8,31.5,105.7,11.4c43-24.9,57.8-79.9,32.9-122.9c-24.9-43-79.9-57.8-122.9-32.9
								C141.3,331.4,125,371.2,133.2,408.5z"/>
						</g>
					</g>
				</g>
				<g id="claw_borders">
					<g>
						<g>
							<path fill="#F7F619" d="M299.8,161.7c-40.9,0-74,33.1-74,74s33.1,74,74,74s74-33.1,74-74S340.7,161.7,299.8,161.7z
								 M299.8,297.2c-34,0-61.5-27.5-61.5-61.5c0-34,27.5-61.5,61.5-61.5s61.5,27.5,61.5,61.5C361.3,269.7,333.8,297.2,299.8,297.2
								z"/>
						</g>
					</g>
					<g>
						<g>
							<path fill="#F7F619" d="M142.3,434.7c20.4,35.4,65.7,47.5,101.1,27.1c35.4-20.4,47.5-65.7,27.1-101.1
								c-20.4-35.4-65.7-47.5-101.1-27.1C134,354.1,121.9,399.3,142.3,434.7z M259.7,367c17,29.4,6.9,67-22.5,84
								c-29.4,17-67,6.9-84-22.5c-17-29.4-6.9-67,22.5-84C205.1,327.5,242.7,337.6,259.7,367z"/>
						</g>
					</g>
					<g>
						<g>
							<path fill="#F7F619" d="M457.5,434.6c20.4-35.4,8.3-80.7-27.1-101.1c-35.4-20.4-80.7-8.3-101.1,27.1
								c-20.4,35.4-8.3,80.7,27.1,101.1C391.8,482.1,437.1,470,457.5,434.6z M340.2,366.8c17-29.4,54.6-39.5,84-22.5
								s39.5,54.6,22.5,84c-17,29.4-54.6,39.5-84,22.5S323.2,396.3,340.2,366.8z"/>
						</g>
					</g>
				</g>
				<g id="inner_joins">
					
					<rect id="rectangle_lower_left" x="271.8" y="347.1" transform="matrix(-0.5 -0.866 0.866 -0.5 105.8923 775.3241)" fill="#F7F619" width="10" height="20"/> 
					<rect id="rectangle_lower_right" x="318.1" y="347" transform="matrix(-0.5 0.866 -0.866 -0.5 793.7543 255.6409)" fill="#F7F619" width="10" height="20"/> 
					<rect id="rectangle_top" x="294.8" y="307" fill="#F7F619" width="10" height="20"/> 
					<circle id="front_circle" fill="#F7F619" cx="299.8" cy="343.7" r="19"/> 
				</g>
			</g>
		</g>
</svg>
