<?xml version="1.0" encoding="utf-8" standalone="no"?>
<!-- Generator: Adobe Illustrator 10.0, SVG Export Plug-In . SVG Version: 3.0.0 Build 76)  -->
<!DOCTYPE svg PUBLIC "-//W3C//DTD SVG 1.0//EN"    "http://www.w3.org/TR/2001/REC-SVG-20010904/DTD/svg10.dtd" [
	<!ENTITY ns_flows "http://ns.adobe.com/Flows/1.0/">
	<!ENTITY ns_svg "http://www.w3.org/2000/svg">
	<!ENTITY ns_xlink "http://www.w3.org/1999/xlink">
]>
<svg  xmlns="&ns_svg;" xmlns:xlink="&ns_xlink;" xmlns:a="http://ns.adobe.com/AdobeSVGViewerExtensions/3.0/"
	 width="400" height="120" viewBox="0 0 400 120" overflow="visible" enable-background="new 0 0 400 120"
	 xml:space="preserve">
	<symbol  id="Sharp" viewBox="-10 -26.3 20 52.6">
		<g>
			<g>
				<path d="M-5-26.3h1.5v50H-5V-26.3z"/>
				<path d="M3.5-23.7H5v50H3.5V-23.7z"/>
				<path d="M10-10.5l-20-6v6l20,6V-10.5z"/>
				<path d="M10,10.1l-20-6v6l20,6V10.1z"/>
			</g>
		</g>
	</symbol>
	<symbol  id="Treble_clef" viewBox="-25.9 -76.3 51.8 152.6">
		<g>
			<path d="M22-12.5c-4.4,5-9.8,9.6-16.7,9.3C4.2,2.9,2.6,8.4,1.1,14.6c0,0,9.6,11.9,14.3,20.4c4.7,8.6,0,30.4-8.6,41.2
				C2.3,72.8-1,68.6-3.6,63.6c-6.3-12.2,0.1-41.9,0.1-41.9S-21,1.1-22.2-1.8c-2.1-4.4-5.1-8.1-3.1-19.6C-23.3-33-16.8-38.6-9-43
				c5.5-2.7,8.9-3.5,17.5-2.6C9-55.9,8.2-69.9-3.2-73.8c-5.5-1.6-12.5,1.9-12.9,8c3.3-1.7,6.9,0,8.6,2.9c0.9,2.2,1,4.5,0.4,6.8
				c-2,5.1-8.8,6.2-12.8,3.1c-4.9-4.3-3.8-11.6-0.3-16.7c3.6-4.4,8.8-7.2,14.5-6.6c18.6,2,17.1,27.9,17.1,31.2
				c4.2,1.8,9.7,4.6,12.7,12.3C27.3-25.2,26.4-17.5,22-12.5z M-3.3,38.5c0,12,5.4,19.4,13.4,25.4c6.2-8.4,1.5-20-1.7-25.8
				c-3.1-5.8-9.7-13.9-9.7-13.9S-3.3,29.6-3.3,38.5z M-20.1-22.5C-20.2-6.2-1.2,11.7-1.2,11.7c1-2.5,4-15.2,4-15.2
				C-5-3.9-9.5-9.8-10.8-12.7c-1.3-3-2-6.4-1.4-10c0.9-5.2,6.8-10.8,9.6-11.9c1.1-0.4,1.7,1.7,1.3,2.3c-1.7,1-4.3,2.4-5.8,7.2
				c-2.5,7.9,4.1,13.2,11.7,13C5-15.7,8.5-35.3,8.6-42.5C-6.4-43.9-20-36.2-20.1-22.5z M11.4-42.1c-0.2,8.3-2.7,23-3.8,29.9
				c6.5-0.4,12.6-8.4,13.1-13.8C21.3-33.1,20.1-38.4,11.4-42.1z"/>
		</g>
	</symbol>
	<symbol  id="half_note" viewBox="-13.5 -39.5 27 79.1">
		<g>
			<g>
				<path d="M12,39.5h1.5v-66H12V39.5z"/>
				<path d="M-12.2-36.2c-3.2,4.1-0.4,10.6,6.4,14.3c6.7,3.8,14.8,3.4,18-0.7c3.2-4.1,0.4-10.6-6.4-14.3C-0.9-40.7-9-40.4-12.2-36.2
					z"/>
				<path fill="#FFFFFF" d="M10.6-23.3c-1.1,2-6.7,0.9-12.5-2.5c-0.1,0-0.1-0.1-0.2-0.1S-2.3-26-2.3-26c-5.7-3.4-9.4-7.7-8.2-9.6
					c1.1-2,6.7-0.9,12.5,2.5c0.1,0,0.1,0.1,0.2,0.1l0.1,0.1C8-29.6,11.7-25.3,10.6-23.3z"/>
			</g>
		</g>
	</symbol>
	<symbol  id="quarter_note" viewBox="-13.5 -39.5 27 79">
		<g>
			<g>
				<path d="M12,39.5h1.5v-66H12V39.5z"/>
				<g>
					<path d="M-12.2-36.2c-3.2,4.1-0.4,10.6,6.4,14.3c6.7,3.8,14.8,3.4,18-0.7c3.2-4.1,0.4-10.6-6.4-14.3
						C-0.9-40.6-9-40.3-12.2-36.2z"/>
				</g>
			</g>
		</g>
	</symbol>
	<symbol  id="quarter_rest" viewBox="-9.6 -28 19.3 55.9">
		<g>
			<path d="M-5.6,26.6c1.5-1.6,13-15.7,13-15.7S1.1,4.8,1.1-1.6c0-7.5,8.6-14.3,8.6-14.3L8.8-17c-3.3,1.9-8.9,2.1-11.4-0.8
				c-3.1-3.6,3.9-9.1,3.9-9.1L0.4-28C-2-26.2-12.1-16.6-7.8-11.9C-5.2-9-2-8.1,2.5-10.5L-9.6,2c7,8.6,8.2,11.1,8.2,13.4
				c0,4.8-3.4,8.2-5.1,10.4c-0.6,0.9-1.7,1.6-1,2.2C-6.9,28.6-6.5,27.7-5.6,26.6z"/>
		</g>
	</symbol>
	<g id="Background">
		<path fill="#FFFFFF" d="M400,120H0V0h400V120z"/>
	</g>
	<g id="Music">
		<path id="line_1" d="M400,85.6H0V85h400V85.6z"/>
		<path id="line_2" d="M400,79H0v-0.7h400V79z"/>
		<path id="line_3" d="M400,72.3H0v-0.7h400V72.3z"/>
		<path id="line_4" d="M400,65.6H0V65h400V65.6z"/>
		<path id="line_5" d="M400,59H0v-0.7h400V59z"/>
		<g>
			<path d="M46.9,84.8v-0.4h0.9v-2.7h-4.3v-0.9l5.7-7.9h1.5v7.3h1.2v1.4h-1.2v2.7h0.9v0.4H46.9z M47.8,80.3v-4.8l-3.4,4.8H47.8z"/>
		</g>
		<g>
			<path d="M46,65v-0.4h0.3c0.4,0,0.8,0,1.1-0.1c0.3-0.1,0.5-0.1,0.7-0.3c0.2-0.1,0.3-0.3,0.4-0.6s0.1-0.9,0.1-1.7v-0.5
				c0-0.7-0.1-1.2-0.3-1.5s-0.5-0.4-1-0.4c-0.4,0-0.7,0-0.9,0.1c-0.2,0.1-0.3,0.2-0.3,0.4c0,0.1,0.1,0.2,0.3,0.3c0,0,0,0,0,0
				c0.3,0.2,0.4,0.3,0.5,0.5c0.1,0.2,0.1,0.4,0.1,0.6c0,0.4-0.1,0.7-0.3,0.9s-0.5,0.3-0.9,0.3c-0.4,0-0.7-0.1-1-0.4s-0.4-0.6-0.4-1
				c0-0.6,0.3-1.1,0.9-1.5c0.6-0.4,1.3-0.7,2.1-0.7c1.3,0,2.3,0.3,3.1,0.8c0.7,0.5,1.1,1.3,1.1,2.3c0,0.8-0.3,1.4-0.8,1.8
				c-0.5,0.5-1.3,0.8-2.4,0.9c1.2,0.2,2.1,0.5,2.7,1c0.6,0.5,0.9,1.2,0.9,2.2c0,1-0.4,1.8-1.3,2.4c-0.8,0.6-1.9,0.9-3.3,0.9
				c-1,0-1.8-0.2-2.4-0.7c-0.6-0.4-0.9-1-0.9-1.6c0-0.4,0.1-0.8,0.4-1s0.6-0.4,1-0.4c0.4,0,0.7,0.1,0.9,0.4s0.3,0.6,0.3,1
				c0,0.2,0,0.4-0.1,0.6c-0.1,0.2-0.2,0.3-0.4,0.4c-0.1,0-0.1,0.1-0.2,0.1c-0.2,0.1-0.3,0.2-0.3,0.3c0,0.2,0.1,0.3,0.4,0.4
				s0.6,0.2,1,0.2c0.3,0,0.5-0.1,0.7-0.2c0.2-0.1,0.4-0.3,0.5-0.5s0.2-0.5,0.3-0.8c0.1-0.3,0.1-0.8,0.1-1.5v-0.8
				c0-0.9-0.2-1.5-0.5-1.8c-0.3-0.3-0.9-0.5-1.9-0.5H46z"/>
		</g>
		<path d="M87.2,85.2h-0.7V58.6h0.7V85.2z"/>
		<path d="M176,85.2h-0.7V58.6h0.7V85.2z"/>
		<path d="M264.7,85.2H264V58.6h0.7V85.2z"/>
		<path d="M353.3,85.2h-0.7V58.6h0.7V85.2z"/>
		
			<use xlink:href="#quarter_note"  width="27" height="79" x="-13.5" y="-39.5" transform="matrix(0.3333 0 0 -0.3333 68.6665 78.7998)"/>
		
			<use xlink:href="#quarter_note"  width="27" height="79" x="-13.5" y="-39.5" transform="matrix(0.1977 0 0 -0.1977 44.8335 33.1582)"/>
		
			<use xlink:href="#quarter_note"  width="27" height="79" x="-13.5" y="-39.5" transform="matrix(0.3333 0 0 -0.3333 101.3335 78.7998)"/>
		
			<use xlink:href="#quarter_note"  width="27" height="79" x="-13.5" y="-39.5" transform="matrix(0.3333 0 0 -0.3333 127.3335 72.1338)"/>
		
			<use xlink:href="#quarter_note"  width="27" height="79" x="-13.5" y="-39.5" transform="matrix(0.3333 0 0 -0.3333 153.3335 65.4668)"/>
		<path d="M156.3,82c-0.1-0.2-0.4-0.1-0.5,0c-5,8.2-30.5,26.6-54.1,12.9c-0.1-0.1-0.4,0.2-0.3,0.3C125.3,110.2,150.9,92.4,156.3,82z
			"/>
		<use xlink:href="#Sharp"  width="20" height="52.6" x="-10" y="-26.3" transform="matrix(0.3333 0 0 -0.3333 27.0337 58.6572)"/>
		<use xlink:href="#Sharp"  width="20" height="52.6" x="-10" y="-26.3" transform="matrix(0.3333 0 0 -0.3333 36.0332 68.1572)"/>
		
			<use xlink:href="#half_note"  width="27" height="79.1" x="-13.5" y="-39.5" transform="matrix(0.3333 0 0 -0.3333 194 65.4668)"/>
		
			<use xlink:href="#quarter_note"  width="27" height="79" x="-13.5" y="-39.5" transform="matrix(-0.3333 0 0 0.3333 240 62.1318)"/>
		
			<use xlink:href="#quarter_note"  width="27" height="79" x="-13.5" y="-39.5" transform="matrix(-0.3333 0 0 0.3333 240 68.7988)"/>
		<path d="M246.7,52.3h-13.3v-0.7h13.3V52.3z"/>
		<path id="Stacatto" d="M241,45.3c0,0.6-0.4,1-1,1s-1-0.4-1-1c0-0.6,0.4-1,1-1S241,44.7,241,45.3z"/>
		
			<use xlink:href="#quarter_note"  width="27" height="79" x="-13.5" y="-39.5" transform="matrix(-0.3333 0 0 0.3333 280 62.1318)"/>
		
			<use xlink:href="#quarter_note"  width="27" height="79" x="-13.5" y="-39.5" transform="matrix(-0.3333 0 0 0.3333 280 68.7988)"/>
		<path d="M286.7,52.3h-13.3v-0.7h13.3V52.3z"/>
		<path id="Stacatto_1_" d="M281,45.3c0,0.6-0.4,1-1,1s-1-0.4-1-1c0-0.6,0.4-1,1-1S281,44.7,281,45.3z"/>
		
			<use xlink:href="#quarter_note"  width="27" height="79" x="-13.5" y="-39.5" transform="matrix(-0.3333 0 0 0.3333 333.333 68.7988)"/>
		
			<use xlink:href="#quarter_note"  width="27" height="79" x="-13.5" y="-39.5" transform="matrix(-0.3333 0 0 0.3333 333.333 75.4658)"/>
		<g id="decrescendo">
			<path d="M370.7,107.7l-137.3-4.3v-0.7l137.3,4.3V107.7z"/>
			<path d="M233.3,112l137.3-4.3V107l-137.3,4.3V112z"/>
		</g>
		<path id="Stacatto_2_" d="M334.3,52c0,0.6-0.4,1-1,1c-0.6,0-1-0.4-1-1c0-0.6,0.4-1,1-1C333.9,51,334.3,51.4,334.3,52z"/>
		
			<use xlink:href="#quarter_note"  width="27" height="79" x="-13.5" y="-39.5" transform="matrix(-0.3333 0 0 0.3333 366.667 68.7988)"/>
		
			<use xlink:href="#quarter_note"  width="27" height="79" x="-13.5" y="-39.5" transform="matrix(-0.3333 0 0 0.3333 366.667 75.4658)"/>
		<path id="Stacatto_3_" d="M367.7,52c0,0.6-0.4,1-1,1c-0.6,0-1-0.4-1-1c0-0.6,0.4-1,1-1C367.2,51,367.7,51.4,367.7,52z"/>
		<g id="mezzoforte">
			<path id="mezzo" d="M71.9,108.5c0,0-0.2-0.2-0.2-0.2l0,0l0,0c-0.1-0.1-0.3,0-0.4,0.1c-0.3,0.5-0.9,1.2-1.1,1.2c0,0,0,0,0,0
				c0,0,0,0,0-0.1c0-0.2,0.2-0.6,0.4-1.2l0.3-0.8c0.4-1.3,0.9-2.7,0.9-3.3c0-0.4-0.4-1.2-1.2-1.2c-1.6,0-2.7,1.8-3.6,3.3
				c0,0,0,0,0,0c0.3-1,0.7-1.9,0.7-2.3c0-0.5-0.6-1.1-1.3-1.1c-1.4,0-2.5,1.7-3.3,3c0.4-0.9,0.7-1.8,0.7-2.1c0-0.6-0.4-0.9-1.1-0.9
				c-1.5,0-2.8,1.6-3,2.1c-0.1,0.1-0.1,0.3,0.1,0.4c0,0,0.2,0.2,0.2,0.2c0.1,0.1,0.2,0.1,0.2,0.1c0.1,0,0.2,0,0.2-0.1
				c0.2-0.3,0.9-1,1-1c0,0,0,0,0,0c0,0,0,0,0,0.1c0,0.2-0.2,0.9-0.5,1.6l-0.3,1c0,0-1.1,3.4-1.1,3.4c-0.1,0.2,0,0.3,0,0.3
				c0.1,0.1,0.2,0.1,0.3,0.1h1.4c0.1,0,0.3,0,0.4-0.2c0,0,0.6-1.6,0.6-1.6c0.2-0.6,0.5-1.1,0.7-1.5c1-1.6,2.1-2.9,2.3-2.9
				c0.1,0,0.1,0,0.1,0.2c0,0.3-0.6,2-0.8,2.6l-1,3c0,0.1,0,0.2,0,0.3c0.1,0.1,0.2,0.1,0.3,0.1h1.5c0.1,0,0.3,0,0.4-0.2
				c0,0,0.5-1.6,0.5-1.6c0.1-0.4,0.3-0.9,0.6-1.2c1.2-1.8,2.2-3.1,2.4-3.2c0,0,0.1,0,0.1,0.2c0,0.3-0.1,0.8-0.7,2.3
				c-0.7,1.9-1,2.8-0.9,3.2c0,0.4,0.3,0.8,1,0.8c1.9,0,3.2-2,3.3-2.3C72,108.8,72.1,108.6,71.9,108.5z"/>
			<path id="forte" d="M79.1,98.3c-1.1,0-2.4,0.8-2.8,1.4c-1,1.2-1.3,2.1-1.6,3c-0.1,0.3-0.2,0.6-0.3,0.9h-1.3
				c-0.2,0-0.3,0.1-0.4,0.3c0,0-0.1,0.5-0.1,0.5c0,0.1,0,0.2,0.1,0.3c0.1,0.1,0.1,0.1,0.2,0.1h1.2l-1.3,6c-0.4,2-1.1,4.6-2.1,4.6
				c-0.2,0-0.2-0.1-0.2-0.2c-0.1-0.7-0.5-1.2-1.1-1.2c-0.6,0-1,0.5-1,1.1c0,0.8,0.7,1.3,1.8,1.3c2.7,0,4.3-4.1,4.7-5.4
				c0.4-1.4,0.9-3.3,1.3-4.9l0.3-1.4h1.7c0.3,0,0.3-0.2,0.4-0.3c0,0,0.1-0.4,0.1-0.4c0-0.1,0-0.2-0.1-0.3c0,0-0.1-0.1-0.2-0.1h-1.6
				l0.1-0.4c0.4-1.7,0.9-3.8,1.8-3.8c0.3,0,0.4,0.2,0.4,0.4c0.1,0.5,0.3,1.1,1.2,1.1c0.6,0,1-0.6,1-1.1
				C81.3,99.1,80.7,98.3,79.1,98.3z"/>
		</g>
		<text transform="matrix(0.9529 0 0 1 42.0273 22.6328)"><tspan x="0" y="0" style="font-family:serif; font-weight:bold;" font-size="18.0504">Tempo di valse</tspan></text>
		<text transform="matrix(0.9529 0 0 1 49.5542 40.6328)"><tspan x="0" y="0" style="font-family:serif; font-weight:bold;" font-size="16">=142</tspan></text>
		
			<use xlink:href="#Treble_clef"  width="51.8" height="152.6" x="-25.9" y="-76.3" transform="matrix(0.3333 0 0 -0.3333 11.6665 70.6328)"/>
		
			<use xlink:href="#quarter_rest"  width="19.3" height="55.9" x="-9.6" y="-28" transform="matrix(0.3333 0 0 -0.3333 301.6665 71.1328)"/>
		
			<use xlink:href="#quarter_rest"  width="19.3" height="55.9" x="-9.6" y="-28" transform="matrix(0.3333 0 0 -0.3333 385.333 71.1328)"/>
	</g>
	<g id="Notations">
		<text transform="matrix(0.9529 0 0 1 36.5132 28.1943)"><tspan x="0" y="0" fill="#FB0F0C" style="font-family:Courier; font-weight:bold;" font-size="16" letter-spacing="-1.6">1</tspan></text>
		<text transform="matrix(0.9529 0 0 1 0.4258 53.9658)"><tspan x="0" y="0" fill="#FB0F0C" style="font-family:Courier; font-weight:bold;" font-size="16" letter-spacing="-1.6">4</tspan></text>
		<text transform="matrix(0.9529 0 0 1 33.4258 56.6328)"><tspan x="0" y="0" fill="#FB0F0C" style="font-family:Courier; font-weight:bold;" font-size="16" letter-spacing="-1.6">5</tspan></text>
		<text transform="matrix(0.9529 0 0 1 39.0923 97.2998)"><tspan x="0" y="0" fill="#FB0F0C" style="font-family:Courier; font-weight:bold;" font-size="16" letter-spacing="-1.6">2</tspan></text>
		<text transform="matrix(0.9529 0 0 1 83.0923 57.2998)"><tspan x="0" y="0" fill="#FB0F0C" style="font-family:Courier; font-weight:bold;" font-size="16" letter-spacing="-1.6">3</tspan></text>
		<text transform="matrix(0.9529 0 0 1 73.0923 97.6328)"><tspan x="0" y="0" fill="#FB0F0C" style="font-family:Courier; font-weight:bold;" font-size="16" letter-spacing="-1.6">6</tspan></text>
		<text transform="matrix(0.9529 0 0 1 93.4258 107.667)"><tspan x="0" y="0" fill="#FB0F0C" style="font-family:Courier; font-weight:bold;" font-size="16" letter-spacing="-1.6">7</tspan></text>
		<text transform="matrix(0.9529 0 0 1 141.4258 104.2998)"><tspan x="0" y="0" fill="#FB0F0C" style="font-family:Courier; font-weight:bold;" font-size="16" letter-spacing="-1.6">8</tspan></text>
		<text transform="matrix(0.9529 0 0 1 188.4258 99.6328)"><tspan x="0" y="0" fill="#FB0F0C" style="font-family:Courier; font-weight:bold;" font-size="16" letter-spacing="-1.6">9</tspan></text>
		<text transform="matrix(0.9529 0 0 1 229.6143 37.9658)"><tspan x="0" y="0" fill="#FB0F0C" style="font-family:Courier; font-weight:bold;" font-size="16" letter-spacing="-1.6">10</tspan></text>
		<text transform="matrix(0.9529 0 0 1 294.9478 56.9658)"><tspan x="0" y="0" fill="#FB0F0C" style="font-family:Courier; font-weight:bold;" font-size="16" letter-spacing="-1.6">11</tspan></text>
		<text transform="matrix(0.9529 0 0 1 225.9478 101.6328)"><tspan x="0" y="0" fill="#FB0F0C" style="font-family:Courier; font-weight:bold;" font-size="16" letter-spacing="-1.6">12</tspan></text>
	</g>
</svg>
