<?xml version="1.0" encoding="UTF-8" standalone="no"?>
<!-- Humans from the Pioneer 11 plaque, GFDL-1.2 SVG rendition derived from PD NASA image. Copyright 2005, Gregory Maxwell -->
<svg
   xmlns:svg="http://www.w3.org/2000/svg"
   xmlns="http://www.w3.org/2000/svg"
   version="1.0"
   x="0.00000000"
   y="0.00000000"
   width="687.00000"
   height="863.00000"
   id="svg3553">
  <defs
     id="defs3" />
  <g
     id="layer1">
    <g
       id="humans">
      <path
         d="M 640.26159,827.96893 C 635.09409,824.76283 627.73479,816.56823 623.90759,809.75863 C 620.08039,802.94893 615.12979,797.37746 612.90639,797.37746 C 605.68959,797.37746 601.10969,788.34182 600.62779,773.15249 C 600.16299,758.50586 587.55359,729.33812 562.02239,683.85196 C 555.12259,671.55934 552.71439,663.29592 552.71439,651.91237 C 552.71439,640.67335 550.33169,632.32939 543.82799,620.79344 C 538.94049,612.12416 531.13199,591.87461 526.47589,575.79446 C 521.81969,559.71430 513.48549,536.26633 507.95549,523.68786 L 497.90099,500.81791 L 496.02819,517.53278 C 493.81819,537.25718 495.56599,613.30295 498.53439,626.57390 C 499.67009,631.65184 499.38949,657.96482 497.91079,685.04719 C 495.81599,723.41151 496.12609,737.34681 499.31459,748.13679 C 505.94559,770.57558 504.92669,774.96834 491.50329,781.81645 C 483.82869,785.73173 478.38579,791.21351 476.33679,797.09131 C 471.95149,809.67093 450.34449,820.94093 439.81219,816.14213 C 433.55249,813.28993 432.55289,810.86833 433.18859,800.09513 C 433.77339,790.18278 435.86349,785.98307 442.74279,780.89694 C 454.08729,772.50963 463.46569,757.25530 463.46569,747.19051 C 463.46569,742.83800 459.15159,722.22807 453.87869,701.39063 C 446.84979,673.61369 443.95609,654.23706 443.03399,628.77348 C 441.92619,598.18044 440.31089,589.75942 429.47669,558.09284 C 422.64539,538.12652 413.92429,518.67667 409.86099,514.34645 C 405.83729,510.05826 399.70119,501.15687 396.22519,494.56555 C 390.21669,483.17197 390.15809,482.11028 395.03589,473.02276 C 399.33139,465.02010 400.03119,455.38844 399.33539,413.85142 C 398.58619,369.12615 399.18219,362.30466 405.38569,344.60673 C 410.50319,330.00737 412.71539,314.97949 414.01549,285.98317 C 415.60269,250.58485 416.42999,246.28252 422.99229,239.29811 C 426.96789,235.06674 434.08829,230.00273 438.81519,228.04476 C 452.37339,222.42879 456.63759,202.76489 449.78619,177.45374 C 443.06279,152.61553 445.56069,126.18738 455.94339,112.30897 C 463.54099,102.15335 492.04779,86.465342 502.90409,86.465342 C 512.73379,86.465342 529.03759,102.53568 539.91769,122.94886 C 548.56679,139.17619 549.64499,144.01662 549.71029,166.91221 C 549.81279,202.81942 553.24339,215.07805 566.34069,226.33803 C 580.24649,238.29308 586.56259,253.91320 586.58559,276.40469 C 586.59549,286.19179 588.67289,307.92767 591.20189,324.70667 C 597.08949,363.76911 597.03499,392.02125 591.03309,412.23193 C 585.22289,431.79681 584.65099,448.69279 587.57969,514.24363 C 590.16549,572.12123 597.08299,617.89655 605.93659,635.71890 C 614.78009,653.52076 616.79209,661.94608 623.51689,709.33819 C 630.13029,755.94485 635.21789,768.43493 655.55019,787.97917 C 665.07609,797.13590 666.58349,800.52063 666.58349,812.75343 C 666.58349,834.52183 658.42499,839.23783 640.26159,827.96893 z M 658.51529,829.04003 C 659.72009,827.83543 657.65449,824.54823 653.92529,821.73533 L 647.14499,816.62093 L 653.99629,806.99913 C 660.14749,798.36055 660.10269,796.08095 653.79779,796.91505 C 652.68999,797.06161 645.88529,787.41961 638.67639,775.48838 C 625.62829,753.89299 617.90809,725.91928 617.50469,698.77333 C 617.33379,687.27339 610.36999,657.11779 604.51499,642.52329 C 601.96819,636.17527 600.34759,634.93859 598.46529,637.90697 C 596.58839,640.86695 595.86879,640.29989 595.79999,635.80652 C 595.72189,630.70103 595.19699,630.43864 592.72249,634.26775 C 590.15149,638.24606 589.73269,638.16481 589.69209,633.68000 C 589.66619,630.81776 590.81779,627.75109 592.25119,626.86515 C 593.68469,625.97922 593.58919,618.62679 592.03909,610.52642 C 590.48889,602.42606 588.07069,576.40997 586.66509,552.71290 C 585.25959,529.01583 583.97019,508.98719 583.79979,508.20478 C 583.62929,507.42241 579.66749,511.36086 574.99569,516.95694 C 566.63279,526.97428 566.41729,527.03863 561.05929,521.11802 C 556.68659,516.28625 556.23909,513.46846 558.78209,506.77982 C 560.52279,502.20130 561.87439,496.12183 561.78569,493.26987 C 561.65559,489.09291 560.68489,489.43110 556.79399,495.00899 C 554.13729,498.81745 550.74769,501.93346 549.26149,501.93346 C 544.69879,501.93346 546.26869,465.49882 551.35429,453.36333 C 553.99149,447.07028 556.88939,429.79838 557.79409,414.98137 C 559.33759,389.70032 558.86729,386.81986 550.15639,368.20514 C 550.15639,368.20514 543.02712,358.13862 542.11605,348.52418 C 541.20497,338.90974 546.51209,329.74738 546.51209,329.74738 C 552.42909,310.20471 551.87919,308.46178 542.12419,315.84006 C 538.83859,318.32521 533.29899,320.35334 529.81409,320.34700 C 522.63619,320.33398 501.88389,308.61239 504.46639,306.02981 C 505.39419,305.10206 509.32079,306.56158 513.19219,309.27320 C 522.88759,316.06414 538.24309,315.53738 544.89629,308.18563 C 550.25229,302.26742 550.28989,298.90823 545.30289,271.90046 C 543.91239,264.36992 548.80899,258.97377 551.07729,265.53708 C 551.84549,267.76018 553.83369,282.30449 555.49529,297.85777 C 557.15689,313.41105 559.78998,329.52062 564.25192,333.54611 C 565.60846,338.50322 567.14673,340.90574 567.22185,349.74738 C 564.96793,359.36536 565.72886,368.99724 565.85102,389.89980 C 566.00459,416.17862 559.74739,444.38343 557.34319,451.15402 C 552.17649,465.70403 549.35184,497.66790 552.43549,491.16207 C 556.45900,488.41568 554.48777,478.50265 555.72787,473.42471 C 557.86517,464.67310 561.76219,469.30831 562.43829,481.92944 C 564.36754,493.45406 564.21159,500.77655 563.23049,505.00469 C 562.24939,509.23284 564.34701,511.35842 565.59431,510.11109 C 566.84171,508.86376 568.00028,504.57383 567.94679,496.58174 C 568.04994,484.04700 571.05879,485.13091 576.70049,485.74008 C 584.49799,486.58204 585.48849,480.01573 580.35289,461.52676 C 577.85429,452.53172 578.75579,444.14215 584.98229,418.44117 C 593.97079,381.34027 594.35339,371.21171 588.10619,335.74621 C 585.57179,321.35871 583.48869,299.89285 583.47689,288.04432 C 583.46509,276.19578 582.02479,261.35001 580.27619,255.05371 C 576.02939,239.76258 557.83609,220.40397 550.47639,223.34517 C 547.47569,224.54434 537.56440,227.95194 527.40850,228.57128 C 527.40850,228.57128 509.17560,229.41403 508.94330,226.92440 C 508.69129,224.22338 526.24559,224.88065 526.24559,224.88065 C 536.23119,223.28732 545.07429,221.31052 545.89709,220.48775 C 546.71989,219.66499 542.79179,216.52501 537.16809,213.51003 C 521.78859,205.26481 512.70639,195.34927 512.70639,186.80377 L 512.70639,179.14846 L 499.62679,186.62681 C 492.43309,190.73990 484.12369,194.12184 481.16159,194.14223 C 478.19949,194.16262 475.77589,195.64593 475.77589,197.43847 C 475.77589,199.23101 477.16079,199.84173 478.85339,198.79561 C 480.54609,197.74950 481.93099,198.24695 481.93099,199.90105 C 481.93099,201.55516 482.77159,205.09912 483.79899,207.77653 C 484.82639,210.45394 484.13399,212.64455 482.26019,212.64455 C 480.38649,212.64455 478.75609,210.22099 478.63709,207.25885 C 478.43579,202.24528 478.27629,202.23665 476.32899,207.13403 C 475.17849,210.02751 469.57869,215.83100 463.88509,220.03067 L 453.53309,227.66643 L 467.81590,228.03067 C 473.38985,227.77885 484.39883,232.91813 461.06799,230.97881 C 429.63160,229.25279 417.76819,242.94874 417.47629,293.50689 C 417.35019,315.34254 415.61519,328.39083 411.14749,341.10212 C 405.96249,355.85432 404.99239,366.50360 404.99239,408.66887 C 404.99239,446.97131 403.85819,461.55812 400.16129,470.79739 C 395.60859,482.17580 395.69469,483.58587 401.65609,495.27120 C 407.90429,507.51846 414.22509,514.24507 414.22509,508.64699 C 414.22509,507.06172 412.23679,504.11451 409.80659,502.09765 C 405.11019,498.20000 400.20319,481.07650 402.98539,478.29434 C 403.89629,477.38345 406.04889,481.29094 407.76899,486.97766 C 410.71659,496.72248 410.80139,496.51890 409.24459,483.43787 C 408.30569,475.54930 409.68829,460.52280 412.44769,448.62453 C 415.11789,437.11083 417.30259,419.75993 417.30259,410.06697 C 417.30259,398.15285 419.38159,388.49377 423.71989,380.25190 C 431.27919,365.89086 434.95529,354.91822 438.87799,335.00779 C 441.31159,322.65524 440.81699,318.83583 435.64929,310.07739 C 430.01119,300.52135 429.85789,298.36479 433.63479,281.73431 C 435.88329,271.83429 438.68889,265.29726 439.86949,267.20759 C 441.05019,269.11793 440.34709,276.92144 438.30709,284.54876 C 431.49719,310.01003 447.64469,325.58479 466.44289,311.68670 C 471.19339,308.17452 475.94029,306.16107 476.99159,307.21236 C 479.50999,309.73080 463.33959,320.31222 456.93279,320.33823 C 453.19549,320.35340 451.56819,324.21368 450.46669,335.67694 C 449.38669,346.91784 445.67529,355.93895 436.52409,369.56732 C 426.44209,384.58188 423.68679,391.81644 422.13959,407.33648 C 421.08709,417.89494 418.67709,436.95357 416.78399,449.68896 C 412.21379,480.43391 414.99549,498.74094 431.50289,546.55781 C 439.09939,568.56224 446.09049,591.41298 447.03879,597.33725 C 447.98709,603.26152 451.25649,610.87843 454.30419,614.26373 C 458.78869,619.24495 459.08949,621.10775 455.88149,624.03120 C 452.84759,626.79603 451.02379,626.79603 448.10819,624.03120 C 442.26249,618.48759 446.65549,649.56190 459.06769,701.55373 C 470.81589,750.76396 472.03829,763.52450 465.00449,763.52450 C 462.46549,763.52450 460.38819,765.04622 460.38819,766.90607 C 460.38819,768.76592 456.21239,774.18839 451.10869,778.95600 L 441.82919,787.62436 L 450.27249,794.26585 L 458.71579,800.90733 L 451.08869,806.76783 C 441.22379,814.34783 449.28349,814.80793 461.51979,807.36333 C 466.95309,804.05753 472.30949,796.67085 475.45589,788.14483 C 479.74649,776.51843 481.89239,774.27321 488.82759,774.15451 C 499.76189,773.96737 501.57869,771.65358 498.87439,761.35966 C 496.82039,753.54104 496.39919,753.31660 494.27359,758.90819 C 492.98669,762.29348 492.53469,766.10194 493.26909,767.37142 C 494.00349,768.64091 492.94879,769.67958 490.92529,769.67958 C 488.18619,769.67958 487.73509,761.61898 489.15989,738.13478 C 494.41449,651.52159 494.96109,625.78149 491.66619,620.10709 C 488.52309,614.69406 488.26629,614.81901 488.17969,621.80371 C 488.11339,627.14463 487.12859,628.38626 484.80329,626.06090 C 482.47789,623.73554 482.83129,617.94619 486.01479,606.21076 C 489.09809,594.84503 490.57359,572.86187 490.71429,536.19376 L 490.91939,482.74416 L 478.06419,466.94908 C 470.99379,458.26179 461.10289,446.67386 456.08439,441.19812 C 451.06599,435.72237 447.81179,430.39034 448.85299,429.34915 C 452.04729,426.15491 456.84249,430.79836 469.31209,449.16070 C 487.04219,475.26933 489.25719,476.49182 496.82409,464.34495 C 503.41619,453.76280 515.78389,444.13745 515.78389,449.58919 C 515.78389,451.29618 514.74529,452.70224 513.47579,452.71381 C 512.20629,452.72539 507.89229,457.54457 503.88899,463.42314 C 494.89469,476.63087 496.00329,484.45967 512.23199,522.33824 C 518.66439,537.35166 527.08859,560.71451 530.95249,574.25569 C 534.81639,587.79687 543.50589,609.09749 550.26269,621.59037 C 559.10779,637.94464 561.50969,644.94617 558.84079,646.59564 C 552.58559,650.46159 558.30889,667.55743 577.44279,702.16053 C 587.32719,720.03610 598.84049,743.57929 603.02799,754.47874 C 616.92139,790.64099 631.11729,815.66253 642.16829,823.46673 C 653.85559,831.72023 655.33179,832.22363 658.51529,829.04003 z M 569.81539,627.42788 C 564.28229,619.52830 563.73319,615.80250 568.10219,615.80250 C 569.79479,615.80250 571.17969,617.42458 571.17969,619.40710 C 571.17969,621.38962 573.47169,625.54430 576.27299,628.63973 C 579.07429,631.73515 579.84529,634.26775 577.98629,634.26775 C 576.12729,634.26775 572.45039,631.18981 569.81539,627.42788 z M 460.38819,628.36912 C 460.38819,626.53543 461.92319,625.03513 463.79939,625.03513 C 465.90119,625.03513 466.46929,622.08192 465.27949,617.34127 C 464.11059,612.68387 464.66309,609.64742 466.67959,609.64742 C 471.28759,609.64742 469.02809,628.86685 464.23509,630.44027 C 462.11929,631.13484 460.38819,630.20284 460.38819,628.36912 z M 525.33079,420.37861 C 525.59129,413.60783 530.20389,405.55154 532.08089,408.58870 C 533.16499,410.34281 532.06309,414.40556 529.63219,417.61707 C 527.20129,420.82858 525.26559,422.07126 525.33079,420.37861 z M 439.58569,409.64898 C 435.10119,402.46824 434.82259,400.37459 438.35139,400.37459 C 439.77239,400.37459 442.51239,403.83682 444.44049,408.06844 C 448.60869,417.21665 445.03779,418.37919 439.58569,409.64898 z M 475.77589,392.68073 C 475.77589,389.85964 477.50699,388.12853 479.62279,388.83381 C 483.97959,390.28607 483.50069,395.23503 478.85339,396.78411 C 477.16079,397.34835 475.77589,395.50182 475.77589,392.68073 z M 525.01659,355.95058 C 525.01659,351.81615 531.59759,338.22382 532.94629,339.57255 C 535.37399,342.00030 530.89879,357.28901 527.76049,357.28901 C 526.25129,357.28901 525.01659,356.68670 525.01659,355.95058 z M 441.97009,305.74018 C 442.08179,300.26902 447.34529,295.14030 449.41369,298.48716 C 450.57149,300.36052 450.66289,303.27815 449.61679,304.97080 C 447.39819,308.56050 441.90119,309.11360 441.97009,305.74018 z M 531.17169,302.27007 C 531.17169,300.78470 533.24899,297.84534 535.78799,295.73817 C 539.64469,292.53731 540.40429,292.98168 540.40429,298.43890 C 540.40429,302.19335 538.44139,304.97080 535.78799,304.97080 C 533.24899,304.97080 531.17169,303.75548 531.17169,302.27007 z M 488.08609,231.46874 C 488.08609,229.97351 490.85589,228.02582 494.24109,227.14054 C 501.50899,225.23996 502.59449,229.60773 495.52819,232.31931 C 489.06779,234.79841 488.08609,234.68620 488.08609,231.46874 z M 488.08609,222.13364 C 488.08609,220.29993 489.21439,218.79963 490.59359,218.79963 C 491.97279,218.79963 495.49439,213.78105 498.41939,207.64722 C 501.34439,201.51339 504.45199,197.20920 505.32509,198.08234 C 507.74149,200.49873 496.31599,222.79794 491.93299,224.21973 C 489.81719,224.90608 488.08609,223.96734 488.08609,222.13364 z M 610.00619,782.56679 C 605.70229,778.26294 605.03269,778.22074 605.03269,782.25352 C 605.03269,788.57636 612.23389,795.77766 613.81459,791.03553 C 614.45539,789.11315 612.74159,785.30223 610.00619,782.56679 z M 560.46149,361.13593 C 556.74169,331.94308 555.43049,326.37375 552.67819,328.07480 C 546.03839,332.17836 546.09399,350.05155 552.78639,362.89121 C 556.47389,369.96589 560.12849,375.75426 560.90759,375.75426 C 561.68669,375.75426 561.48599,369.17601 560.46149,361.13593 z M 446.34169,340.36253 C 447.74389,334.40182 447.46069,332.22055 445.54249,334.20744 C 443.90839,335.90009 441.67279,342.13211 440.57449,348.05638 C 438.18959,360.92124 443.02209,354.47429 446.34169,340.36253 z M 470.32119,200.03520 C 471.20609,194.00579 469.31879,187.55703 464.66459,180.70787 C 457.28599,169.84926 456.05829,163.85910 456.83199,142.49059 C 457.17439,133.03365 459.43249,127.14930 464.76569,121.81607 C 468.86599,117.71578 473.17999,111.33901 474.35219,107.64547 L 476.48359,100.92996 L 467.30359,107.46674 C 451.37129,118.81156 445.39149,147.08901 453.29719,173.70042 C 456.31749,183.86701 457.39799,195.49498 456.30629,206.08281 L 454.60299,222.60264 L 461.79799,215.84320 C 465.75539,212.12551 469.59079,205.01191 470.32119,200.03520 z M 546.73069,177.25282 C 544.48279,137.06559 540.29339,124.76653 521.60129,103.47739 C 510.29399,90.599072 495.13299,88.651012 485.00849,98.775512 C 473.76559,110.01841 477.85829,120.47011 495.11939,124.59621 C 500.43329,125.86647 504.84579,129.68149 506.72859,134.63347 C 508.39899,139.02696 513.19709,145.32082 517.39109,148.61982 C 524.28149,154.03977 525.01659,156.81724 525.01659,177.43138 L 525.01659,200.24477 L 536.55729,207.62217 C 542.90479,211.67973 548.25529,214.81590 548.44729,214.59144 C 548.63939,214.36697 547.86689,197.56460 546.73069,177.25282 z M 521.93899,183.22628 C 521.93899,175.50947 520.83469,169.87821 519.48499,170.71237 C 517.35379,172.02952 517.02149,179.42090 518.46459,193.40992 C 519.46219,203.07965 521.93899,195.81980 521.93899,183.22628 z M 500.39619,182.16751 C 505.25499,178.64433 508.24859,173.30884 508.52029,167.68807 C 508.75689,162.79280 509.94379,156.36401 511.15769,153.40187 C 512.37879,150.42245 512.00959,148.01618 510.33149,148.01618 C 508.66309,148.01618 505.57709,143.86150 503.47379,138.78355 C 501.29219,133.51676 497.34429,129.55093 494.28279,129.55093 C 491.33109,129.55093 485.46019,126.83253 481.23639,123.51005 C 473.56089,117.47249 473.55309,117.47302 466.97239,124.47779 C 460.01699,131.88153 458.12999,141.86109 463.68559,141.86109 C 464.96714,141.86109 473.09681,142.09055 472.94612,145.39286 C 472.81710,148.22020 463.08877,146.72205 462.67237,148.51469 C 461.88751,151.89354 473.87467,149.71349 474.60765,151.33203 C 475.34063,152.95057 475.77589,154.59581 475.77589,156.10571 C 475.77589,160.34588 473.47074,160.31383 472.80125,156.78663 C 466.92295,153.61866 456.44439,159.25270 463.86119,173.60822 C 473.54809,192.35766 483.21869,194.62325 500.39619,182.16751 z M 469.62079,175.09608 C 469.62079,173.74332 474.46789,172.63651 480.39219,172.63651 C 486.31649,172.63651 491.16359,173.17744 491.16359,173.83858 C 491.16359,174.49972 486.31649,175.60652 480.39219,176.29815 C 474.46789,176.98977 469.62079,176.44884 469.62079,175.09608 z M 469.23089,166.24045 C 466.19069,164.36151 466.71639,163.74974 471.19839,163.95102 C 474.56229,164.10209 479.96539,163.11299 483.20519,161.75302 C 487.06859,160.13128 488.40899,160.39158 487.10009,162.50941 C 484.24369,167.13122 474.09939,169.24932 469.23089,166.24045 z M 483.46979,151.09372 C 484.51589,149.40107 488.14159,148.01618 491.52679,148.01618 C 494.91209,148.01618 496.82599,149.40107 495.77989,151.09372 C 494.73379,152.78637 491.10809,154.17126 487.72279,154.17126 C 484.33749,154.17126 482.42359,152.78637 483.46979,151.09372 z M 486.37509,141.15749 C 489.88459,139.19351 492.80459,139.19351 494.76859,141.15749 C 496.73249,143.12148 494.86029,144.16925 489.38679,144.16925 C 482.29889,144.16925 481.83049,143.70078 486.37509,141.15749 z M 521.93899,161.68349 C 521.93899,160.93706 520.55409,160.32634 518.86149,160.32634 C 517.16879,160.32634 515.78389,161.79297 515.78389,163.58551 C 515.78389,165.37805 517.16879,165.98877 518.86149,164.94266 C 520.55409,163.89654 521.93899,162.42992 521.93899,161.68349 z "
         style="fill:#000000;fill-opacity:1.0000000;fill-rule:nonzero"
         id="woman" />
      <path
         d="M 261.11729,826.18663 C 259.00149,825.29333 257.27039,823.29293 257.27039,821.74133 C 257.27039,820.18973 254.50059,816.15043 251.11529,812.76513 C 247.72999,809.37983 244.96019,803.36243 244.96019,799.39323 C 244.96019,795.42392 242.30789,789.77602 239.06619,786.84229 C 233.83659,782.10953 233.34349,778.32621 234.69259,753.28173 C 236.15909,726.05789 230.78109,685.25821 220.22169,643.50037 C 218.29559,635.88346 217.45889,622.14162 218.36229,612.96298 C 219.27679,603.67166 218.16069,587.98432 215.84429,577.57125 C 213.55589,567.28444 210.75169,545.98268 209.61259,530.23401 C 208.47349,514.48531 205.07579,494.40435 202.06209,485.60966 L 196.58269,469.61927 L 194.33209,488.66513 C 193.09429,499.14035 193.03799,517.91870 194.20709,530.39478 C 195.44769,543.63323 195.01189,557.86258 193.16049,564.56771 C 190.67829,573.55761 191.03249,578.53873 194.78899,587.46644 C 198.76939,596.92606 199.14759,604.92465 197.00219,634.26775 C 193.63269,680.35095 193.56209,716.01329 196.77889,747.02380 L 199.37689,772.06988 L 183.62269,777.30259 C 170.65449,781.60995 166.78249,784.66401 161.72739,794.57271 C 158.34987,801.19323 153.53722,806.78323 151.03265,806.99473 C 142.38977,807.72493 140.82832,808.15723 138.52857,810.45703 C 134.50171,814.48393 119.68594,812.94743 115.65003,808.08443 C 105.89309,796.32808 112.04343,775.11541 126.24223,771.55174 C 130.16772,770.56650 138.40419,764.19866 144.54550,757.40096 C 157.87026,742.65206 158.50915,734.56828 149.41260,695.81858 C 139.57188,653.89883 137.07431,637.28208 136.92327,612.72496 C 136.83861,598.96130 133.70478,577.21952 129.16038,558.86798 C 122.21704,530.82884 119.21110,507.71952 113.71401,440.11778 C 112.57610,426.12419 113.16805,412.56230 115.19160,406.26482 C 117.04842,400.48621 118.75807,387.44891 118.99082,377.29303 C 119.22357,367.13714 121.53132,350.86501 124.11914,341.13271 C 126.94744,330.49605 128.03027,318.83377 126.83375,311.89607 C 119.24528,267.89642 116.72993,257.73459 114.37166,261.55035 C 109.71009,269.09291 66.909702,286.50555 53.031572,286.50555 C 33.410806,286.50555 30.302336,282.54454 26.464986,252.65259 C 23.786266,231.78608 24.047936,219.40983 27.758296,191.48189 C 30.937476,167.55213 31.442116,154.66224 29.352616,150.75798 C 25.132466,142.87256 17.260486,97.446652 21.765836,87.197732 C 24.051916,81.997282 25.026846,80.419052 29.634816,81.881562 C 33.809766,83.206652 34.754006,81.909412 34.754006,78.737582 C 34.754006,71.924142 52.712962,66.221792 59.230042,68.382772 C 62.604352,69.501642 64.821992,68.538662 66.462802,71.077632 C 68.103612,73.616602 69.467292,85.041982 69.493212,96.467352 C 69.519132,107.89273 70.232792,117.24076 71.079112,117.24076 C 71.925432,117.24076 75.387672,114.47097 78.772962,111.08568 C 90.235932,99.622712 103.37684,107.42232 92.631092,119.31096 C 89.835422,122.40397 83.179472,131.79418 77.840082,140.17810 C 69.962962,152.54681 67.909422,159.36277 66.951282,176.31960 C 66.301812,187.81351 66.664412,201.98290 67.757042,207.80714 L 69.743652,218.39668 L 78.608602,213.30889 C 83.484322,210.51061 89.709592,204.43580 92.442532,199.80930 C 98.915612,188.85125 111.21386,180.26212 126.50308,176.02133 C 133.25815,174.14767 145.36328,168.46236 153.40335,163.38731 C 166.63229,155.03694 168.02169,153.05560 168.02169,142.54021 C 168.02169,136.14935 166.23949,128.18876 164.06139,124.85000 C 161.88319,121.51124 156.98496,111.01263 153.17646,101.51976 C 147.47689,87.313312 146.75488,82.021432 149.09510,71.605862 C 152.06919,58.369162 166.39949,40.302222 173.92449,40.302222 C 176.33559,40.302222 180.58569,38.241322 183.36899,35.722462 C 186.15229,33.203592 192.49339,30.350032 197.46029,29.381232 C 210.02859,26.929752 229.64849,41.950572 240.17589,62.083932 C 249.20549,79.352582 248.67929,83.673832 233.66709,115.53686 C 229.72239,123.90928 226.49499,133.92951 226.49499,137.80404 C 226.49499,147.04526 257.13499,171.35741 272.33479,174.17686 C 299.52439,179.22034 305.37929,194.27830 312.42109,277.27292 C 313.78539,293.35308 316.69849,315.04698 318.89459,325.48160 C 322.57719,342.97899 322.24409,347.64362 314.60939,385.49366 C 310.05649,408.06567 305.16469,437.04402 303.73869,449.88996 C 301.34329,471.46986 295.57869,486.00137 286.14519,494.23961 C 284.20699,495.93225 281.73509,505.42592 280.65219,515.33665 C 279.56939,525.24735 277.32769,535.88924 275.67079,538.98528 C 270.97809,547.75362 272.12439,583.78280 277.70719,602.98672 C 283.66739,623.48918 281.92369,678.99683 274.35599,709.66752 C 267.04549,739.29557 268.24559,749.86901 282.21319,778.89279 L 294.79279,805.03243 L 289.39589,815.05393 C 286.42769,820.56573 282.48599,825.09423 280.63669,825.11733 C 278.78749,825.14043 274.50459,825.75593 271.11929,826.48513 C 267.73399,827.21423 263.23309,827.07993 261.11729,826.18663 z M 278.43159,800.74283 L 285.58529,795.34677 L 276.14659,776.64867 C 270.95529,766.36473 264.93059,757.35261 262.75849,756.62169 C 259.68419,755.58724 259.62019,754.30957 262.46959,750.85484 C 264.48279,748.41395 266.04539,742.30294 265.94199,737.27482 C 265.83859,732.24670 268.78959,710.35427 272.49969,688.62498 C 279.72909,646.28475 279.14649,618.22123 270.60539,597.37800 C 267.78699,590.50003 266.93379,582.35245 268.22919,574.68501 C 269.63739,566.35028 269.03519,561.97171 266.24349,560.24632 C 262.95569,558.21437 262.96309,556.21175 266.28499,549.08635 C 269.84229,541.45580 278.40459,510.53667 278.70359,504.24162 C 278.76389,502.97213 275.30749,501.93346 271.02279,501.93346 C 260.61749,501.93346 258.64909,495.27637 264.63259,480.32213 C 272.12269,461.60249 271.41559,458.68988 260.39089,462.85124 C 253.41029,465.48614 250.30809,465.42674 247.48549,462.60420 C 244.58289,459.70156 245.58369,456.99517 252.05889,450.23652 C 256.61789,445.47796 260.34789,440.11602 260.34789,438.32111 C 260.34789,436.52619 262.87069,431.75483 265.95419,427.71811 C 271.12989,420.94223 271.24989,418.48798 267.51719,395.75828 C 259.59989,347.54729 258.70289,328.88105 262.08439,282.70934 L 264.05289,255.83159 L 254.36719,259.20805 C 248.59469,261.22035 236.34499,261.80389 224.04749,260.65238 C 212.69869,259.58971 200.64359,258.88939 197.25829,259.09612 C 193.87299,259.30285 178.43569,259.66874 162.95299,259.90922 C 138.75976,260.28499 133.84073,259.48125 127.95855,254.19136 L 121.11431,248.03628 L 123.19539,264.96276 C 124.33999,274.27232 127.35745,290.60693 129.90086,301.26190 C 134.06380,318.70150 134.03596,322.31758 129.62180,337.50174 C 126.39086,348.61579 125.69060,356.10621 127.56878,359.46233 C 129.52513,362.95814 129.02616,365.94875 125.97796,368.99696 C 123.25765,371.71726 122.19562,376.57002 123.23715,381.52068 C 124.17238,385.96606 122.88213,397.22011 120.36993,406.52967 C 116.32208,421.52998 116.33429,428.70930 120.47717,469.61927 C 126.50217,529.11465 129.76347,544.69279 138.11854,553.88627 C 143.61195,559.93093 143.89152,561.01561 139.55442,559.45736 C 132.75346,557.01392 132.81073,558.57364 140.32380,580.41077 C 147.25104,600.54516 147.84454,604.69962 143.40134,601.95356 C 138.28969,598.79437 139.91602,627.36122 146.64267,658.88808 C 163.77299,739.17536 163.54879,737.24669 157.34781,750.99807 C 154.24106,757.88761 150.62063,763.52450 149.30243,763.52450 C 143.79693,763.52450 125.27318,777.66205 126.41121,780.99536 C 127.09132,782.98739 125.59406,786.32169 123.08396,788.40491 C 119.91771,791.03264 119.50252,793.17489 121.72812,795.40050 C 123.95372,797.62609 126.11413,797.42171 128.78302,794.73308 C 131.86748,791.62581 131.56249,791.26410 127.24425,792.90806 C 119.68301,795.78667 120.51757,792.15659 128.38502,787.94608 C 132.97202,785.49119 134.28988,785.45900 132.81971,787.83778 C 131.66922,789.69930 132.54077,791.26613 134.75648,791.31962 C 136.97218,791.37311 134.97657,794.76893 130.32179,798.86593 C 125.66701,802.96283 121.85855,807.07373 121.85855,808.00123 C 121.85855,810.98743 133.73976,809.79393 135.70749,806.61013 C 136.75360,804.91743 140.31037,803.53253 143.61142,803.53253 C 147.48376,803.53253 152.90761,798.17866 158.89785,788.44326 C 168.59729,772.67963 174.10349,768.66365 181.90979,771.65924 C 190.60539,774.99603 195.82549,766.94552 193.90309,753.16315 C 191.01149,732.43197 188.47289,730.22224 186.36089,746.59802 L 184.37639,761.98573 L 183.89289,744.28986 C 183.62699,734.55714 184.58039,726.59400 186.01169,726.59400 C 187.44289,726.59400 188.48159,713.78373 188.31979,698.12674 C 188.15809,682.46975 189.29979,660.65767 190.85709,649.65546 C 194.57109,623.41572 194.19659,596.43627 190.01849,589.24476 C 187.11049,584.23936 186.66189,584.79328 186.58049,593.49032 C 186.52909,598.99143 185.10209,603.49233 183.40939,603.49233 C 179.23549,603.49233 179.52509,598.12039 184.96299,574.67270 C 187.94919,561.79632 189.38939,541.77978 189.01789,518.31660 C 188.70099,498.30365 189.47979,478.81451 190.74849,475.00737 C 192.61229,469.41471 191.61859,467.53904 185.57449,465.24110 C 176.73019,461.87849 174.17679,456.33248 174.17679,440.48486 C 174.17679,431.51162 172.44549,427.64598 166.75759,423.91910 C 162.67699,421.24543 157.67778,413.81544 155.64820,407.40806 C 153.61863,401.00068 149.38706,391.25737 146.24472,385.75627 C 143.10238,380.25516 141.94619,375.75426 143.67540,375.75426 C 145.40460,375.75426 150.38972,383.71739 154.75343,393.45012 C 159.11719,403.18284 166.84739,415.56259 171.93179,420.96066 C 179.46739,428.96119 180.82919,432.51037 179.29889,440.16166 C 176.94379,451.93701 179.49859,458.91955 186.04679,458.60491 C 189.23989,458.45149 189.68559,457.78991 187.25629,456.80968 C 182.57879,454.92226 181.98439,428.07246 186.62009,428.07246 C 188.42719,428.07246 189.43629,432.97600 188.92829,439.28896 C 188.33859,446.61724 189.47179,451.01101 192.19729,451.96382 C 195.38899,453.07961 195.87979,451.19563 194.28669,443.94239 C 193.14159,438.72854 193.64579,431.98617 195.40729,428.95941 C 197.93519,424.61561 198.62969,426.73056 198.70349,438.99774 C 198.75499,447.54561 197.06599,456.37430 194.95019,458.61706 C 191.84559,461.90797 191.99399,462.42543 195.71959,461.29883 C 198.91659,460.33202 200.62659,454.77334 201.28159,443.21828 C 201.80169,434.04175 203.28729,425.46354 204.58289,424.15561 C 208.32849,420.37436 208.23299,456.43355 204.48549,460.94904 C 201.99509,463.94970 202.77669,471.27662 207.46289,488.86130 C 210.95769,501.97525 215.09939,527.95734 216.66669,546.59924 C 219.07479,575.24238 221.03769,583.50746 229.33629,599.94688 C 234.73729,610.64617 238.65439,621.70670 238.04099,624.52579 C 237.32079,627.83553 234.62479,624.74510 230.43089,615.80250 L 223.93609,601.95356 L 223.67679,620.98785 C 223.53409,631.45672 224.92969,643.92077 226.77799,648.68572 C 228.62639,653.45071 231.33709,665.63901 232.80189,675.77083 C 234.26679,685.90268 236.90919,694.67368 238.67399,695.26195 C 240.61019,695.90734 241.92589,708.74007 241.99179,727.61984 C 242.06599,748.92603 243.50399,761.36280 246.49899,766.60204 C 248.91799,770.83366 250.94629,781.44893 251.00629,790.19155 C 251.08869,802.20173 252.80789,808.00033 258.03979,813.91383 L 264.96429,821.74053 L 269.38106,807.94893 C 269.38106,807.94893 271.28249,806.13543 278.43159,800.74283 z M 236.22029,605.83151 C 234.25669,603.86792 232.65009,599.15780 232.65009,595.36461 C 232.65009,591.57142 231.26519,587.61197 229.57249,586.56586 C 225.95419,584.32959 225.39079,572.71692 228.90069,572.71692 C 230.22379,572.71692 233.22029,579.29516 235.55949,587.33524 C 237.89879,595.37532 241.11879,602.81912 242.71499,603.87703 C 244.53109,605.08056 244.52689,606.47444 242.70389,607.60110 C 241.10149,608.59145 238.18389,607.79514 236.22029,605.83151 z M 254.23999,604.44336 C 254.21409,600.73480 255.57779,596.84460 257.27039,595.79848 C 261.18869,593.37685 261.18869,600.50675 257.27039,606.56988 C 254.84499,610.32288 254.27829,609.92517 254.23999,604.44336 z M 151.65153,574.64924 C 148.80657,568.09510 146.47889,562.27371 146.47889,561.71283 C 146.47889,561.15195 150.62481,563.05218 155.69205,565.93559 C 164.70429,571.06385 167.77539,575.79446 162.09229,575.79446 C 160.52369,575.79446 158.69673,578.21802 158.03227,581.18016 C 157.17887,584.98461 155.30550,583.06715 151.65153,574.64924 z M 256.18829,582.68837 C 253.84999,578.90499 257.35339,566.56183 260.76549,566.56183 C 262.29299,566.56183 262.62909,570.37029 261.51239,575.02507 C 259.05589,585.26482 258.38099,586.23625 256.18829,582.68837 z M 211.10729,423.04776 C 211.10729,421.97681 213.88289,418.69332 217.27529,415.75109 C 220.66769,412.80890 227.60589,401.22110 232.69359,390.00041 C 244.23039,364.55647 250.50379,362.81596 239.60129,388.08393 C 230.28109,409.68440 211.10729,433.21186 211.10729,423.04776 z M 185.24529,357.76981 C 184.18029,356.04663 184.80859,353.70995 186.64149,352.57717 C 191.37319,349.65286 194.42599,353.65846 190.47609,357.60845 C 188.26579,359.81868 186.54439,359.87177 185.24529,357.76981 z M 155.71151,327.09885 C 155.71151,325.60898 158.40280,321.95443 161.69219,318.97761 C 164.98149,316.00077 168.61059,309.20790 169.75669,303.88230 C 172.97149,288.94435 179.45389,278.22038 186.36059,276.41423 C 189.81199,275.51168 193.32019,275.88037 194.15649,277.23356 C 194.99279,278.58673 192.33799,280.53192 188.25689,281.55622 C 182.38409,283.03020 179.44619,287.59728 174.16779,303.45893 C 170.31579,315.03433 165.00939,324.83165 161.60519,326.65349 C 158.36365,328.38830 155.71151,328.58871 155.71151,327.09885 z M 220.30619,316.51158 C 216.95209,311.01047 214.20269,304.97172 214.19629,303.09211 C 214.18999,301.21250 210.67529,294.50309 206.38589,288.18229 C 202.09649,281.86151 200.36539,277.21448 202.53899,277.85559 C 204.71259,278.49668 210.66159,287.43607 215.75909,297.72091 C 220.85659,308.00575 226.91199,318.69153 229.21549,321.46710 C 232.00929,324.83347 232.23859,326.51359 229.90409,326.51359 C 227.97929,326.51359 223.66029,322.01268 220.30619,316.51158 z M 244.96019,779.16392 C 244.96019,777.60970 244.07509,774.03135 242.99319,771.21201 C 241.52729,767.39207 240.42369,767.06078 238.66159,769.91184 C 237.36109,772.01608 237.00959,775.59443 237.88039,777.86375 C 239.66739,782.52065 244.96019,783.49266 244.96019,779.16392 z M 43.344246,107.81468 C 42.305936,104.35827 42.533566,94.386382 42.060806,86.468772 C 41.609746,78.914432 39.907626,75.768812 37.252826,79.376872 C 35.384666,81.915852 34.488216,91.994012 34.880436,99.491182 C 35.325316,107.99486 35.590296,112.65681 33.262966,113.43259 C 30.740706,114.27334 30.621236,108.68006 30.621236,100.06114 C 30.621236,91.568132 27.513636,88.356322 25.256796,89.751122 C 23.215186,91.012912 22.508896,97.319542 23.715136,103.12253 C 24.815956,108.41835 27.224176,118.96269 27.791366,126.70943 C 28.358566,134.45617 31.010146,145.02461 33.683786,150.19484 C 37.150016,156.89780 37.798096,162.19933 35.942276,168.67020 C 28.964986,192.99860 28.426936,265.71036 35.145736,276.31350 C 36.289966,278.11925 42.792426,280.52647 49.595656,281.66288 C 60.608092,283.50242 64.113152,282.34077 81.544062,271.07463 C 92.525242,263.97716 100.33885,260.46360 99.337332,263.07350 C 96.111402,271.48016 105.99742,264.91650 112.56365,254.29213 C 120.07998,242.13044 121.04829,219.47650 114.16470,216.83501 C 108.27905,214.57648 108.15386,209.56701 113.98307,209.56701 C 119.98875,209.56701 122.06395,213.60357 123.50497,228.08844 C 124.17603,234.83383 126.17374,243.05964 127.94434,246.36802 C 134.26963,258.18693 169.74189,262.66131 188.08989,253.95461 C 195.83349,250.28004 199.82079,249.90637 204.50979,252.41584 C 207.91589,254.23870 220.27329,255.73013 231.97079,255.73013 C 256.72039,255.73013 260.22569,253.17137 267.80699,229.57103 L 272.74999,214.18332 L 270.66189,228.03226 C 265.17439,264.42713 272.39969,313.60041 284.89679,324.91010 C 291.23509,330.64617 293.46279,341.90130 288.25989,341.90130 C 286.68489,341.90130 284.84039,338.78529 284.16099,334.97683 C 283.48149,331.16837 283.02769,348.26141 283.15259,372.96132 L 283.37959,417.87032 L 274.17189,429.01333 C 259.79119,446.41673 251.11529,458.11567 251.11529,460.10401 C 251.11529,464.13540 257.41099,461.50121 265.34129,454.15167 C 269.95469,449.87611 274.84579,447.49437 276.21029,448.85892 C 277.57489,450.22347 275.28569,460.99234 271.12329,472.78976 C 266.96089,484.58717 263.55689,494.93205 263.55879,495.77838 C 263.56919,500.32338 275.79279,480.64355 277.39549,473.50150 C 278.43569,468.86611 280.71349,464.19178 282.45719,463.11409 C 284.48359,461.86175 284.90039,463.79253 283.61229,468.46449 C 281.90729,474.64841 282.11709,474.94478 284.97429,470.38866 C 289.72079,462.81969 295.27539,463.63927 293.19329,471.60136 C 292.03129,476.04469 292.48309,477.18436 294.57659,475.09087 C 297.88209,471.78537 298.85289,466.18224 301.71339,433.89653 C 302.70429,422.71228 306.38049,400.55398 309.88259,384.65586 C 314.30969,364.55893 315.72629,350.12313 314.53119,337.28499 C 313.58569,327.12910 311.48199,303.58590 309.85629,284.96678 C 308.23049,266.34765 306.79159,250.42137 306.65859,249.57505 C 306.52559,248.72873 304.95989,250.11362 303.17929,252.65259 C 300.85209,255.97085 300.49629,251.47631 301.91409,236.66840 C 303.45159,220.60974 302.73769,213.64710 298.67599,205.08783 C 291.32299,189.59254 277.46439,178.79159 264.93549,178.79159 C 257.81329,178.79159 254.06809,177.11992 252.86939,173.40589 C 251.91339,170.44376 246.62669,165.28403 241.12119,161.93983 C 227.43599,153.62693 225.28869,152.80724 227.78699,156.84955 C 228.96879,158.76179 228.46919,160.32634 226.67659,160.32634 C 224.88409,160.32634 223.41739,154.52767 223.41739,147.44040 L 223.41739,134.55445 L 214.03489,143.54350 C 208.87449,148.48747 206.11319,153.01948 207.89859,153.61463 C 212.15579,155.03368 201.86329,172.63651 196.77639,172.63651 C 194.70229,172.63651 192.03829,171.07195 190.85649,169.15971 C 189.55099,167.04736 190.38549,166.24755 192.98299,167.12167 C 196.98759,168.46934 204.63669,161.61221 204.85429,156.47942 C 204.90809,155.20993 200.20399,154.17126 194.40059,154.17126 C 188.59729,154.17126 181.83769,152.15987 179.37929,149.70150 C 174.31939,144.64164 171.09919,146.48089 171.09919,154.43072 C 171.09919,157.57456 166.36129,162.16862 159.72609,165.45858 C 141.01997,174.73360 142.46657,180.00211 163.01439,177.43482 C 175.06639,175.92902 180.33189,176.32313 180.33189,178.73100 C 180.33189,181.11142 171.38639,181.90063 151.65927,181.26061 C 124.62803,180.38361 122.23869,180.82463 109.91976,188.96478 C 101.66222,194.42124 97.216642,199.48832 97.841292,202.73187 C 98.496192,206.13244 94.666632,209.96926 86.493202,214.10146 C 73.285802,220.77867 73.025002,221.65383 76.609442,247.26689 C 77.854152,256.16112 77.473202,261.88522 75.636552,261.88522 C 73.976282,261.88522 72.617882,258.37286 72.617882,254.07999 C 72.617882,249.78712 69.679772,234.56015 66.088752,220.24229 C 60.400442,197.56232 59.977522,191.39413 62.804702,172.34578 C 64.953212,157.87004 68.719482,146.62939 73.950152,139.08153 C 78.295352,132.81141 81.850512,126.47991 81.850512,125.01152 C 81.850512,123.54313 84.142492,119.80912 86.943802,116.71370 C 93.537682,109.42754 86.837912,109.21116 79.440822,116.47137 C 76.422842,119.43351 68.805922,125.73601 62.514342,130.47693 C 56.222752,135.21785 51.075096,141.38063 51.075096,144.17199 C 51.075096,148.25510 50.323096,148.48679 47.228166,145.35725 C 44.142696,142.23727 45.665626,139.36597 54.922012,130.85138 C 66.325622,120.36165 66.457762,119.97075 66.039022,97.964712 C 66.039022,97.964712 65.966722,73.453272 61.966362,72.653202 C 58.925622,72.045052 58.621472,107.35675 58.621472,107.35675 C 56.393882,107.95857 54.474152,108.10293 54.493252,105.90125 C 54.631042,88.894032 56.925082,71.717512 51.061156,71.760112 C 46.753226,71.791412 46.023516,96.346342 47.467176,107.15503 M 140.32380,249.57505 C 140.32380,247.88240 142.40114,246.49751 144.94011,246.49751 C 147.47909,246.49751 149.55643,247.88240 149.55643,249.57505 C 149.55643,251.26770 147.47909,252.65259 144.94011,252.65259 C 142.40114,252.65259 140.32380,251.26770 140.32380,249.57505 z M 244.01809,250.68456 C 240.74109,247.40756 244.84819,243.57017 249.65739,245.41563 C 252.13249,246.36539 253.39129,248.38224 252.45479,249.89753 C 250.45989,253.12529 246.80019,253.46670 244.01809,250.68456 z M 105.23928,239.11282 C 107.22594,233.93567 115.70347,229.93584 115.70347,234.17565 C 115.70347,235.75562 112.96485,238.51399 109.61764,240.30536 C 104.73583,242.91802 103.86962,242.68209 105.23928,239.11282 z M 198.79709,228.21389 C 198.79709,226.42134 200.18199,224.95472 201.87469,224.95472 C 203.56729,224.95472 204.95219,225.56543 204.95219,226.31186 C 204.95219,227.05829 203.56729,228.52491 201.87469,229.57103 C 200.18199,230.61714 198.79709,230.00643 198.79709,228.21389 z M 198.79709,214.36495 C 198.79709,211.72608 200.18199,209.56701 201.87469,209.56701 C 203.56729,209.56701 204.95219,210.87017 204.95219,212.46292 C 204.95219,214.05568 203.56729,216.21475 201.87469,217.26086 C 200.18199,218.30698 198.79709,217.00381 198.79709,214.36495 z M 140.38552,189.48862 C 142.52663,186.90874 144.91222,185.43171 145.68684,186.20632 C 147.82111,188.34059 143.48472,194.17930 139.76534,194.17930 C 137.72465,194.17930 137.95812,192.41346 140.38552,189.48862 z M 252.17729,189.43026 C 249.40749,182.21226 252.39729,181.36474 256.64359,188.16418 C 259.02119,191.97132 259.22539,194.17930 257.19989,194.17930 C 255.43979,194.17930 253.17959,192.04223 252.17729,189.43026 z M 192.64199,181.86913 C 192.64199,180.17649 194.71939,178.79159 197.25829,178.79159 C 199.79729,178.79159 201.87469,180.17649 201.87469,181.86913 C 201.87469,183.56178 199.79729,184.94668 197.25829,184.94668 C 194.71939,184.94668 192.64199,183.56178 192.64199,181.86913 z M 214.18479,178.73992 C 208.85479,176.99715 212.87309,176.38225 227.26359,176.73853 C 238.68849,177.02139 248.03649,178.29149 248.03699,179.56098 C 248.03799,182.56425 224.10579,181.98379 214.18479,178.73992 z M 281.36219,480.34386 C 280.67859,478.29299 278.34199,480.58055 276.16989,485.42731 C 272.47279,493.67660 272.55219,493.91483 277.41279,489.15615 C 280.26859,486.36027 282.04579,482.39473 281.36219,480.34386 z M 277.64579,368.82979 C 276.49209,343.01691 273.67669,316.45945 271.38939,309.81319 L 267.23069,297.72913 L 265.21589,306.90251 C 264.10779,311.94786 264.80719,330.54218 266.77009,348.22321 C 268.73299,365.90428 270.98379,388.33371 271.77189,398.06643 C 272.55999,407.79916 274.67599,415.76230 276.47409,415.76230 C 278.73029,415.76230 279.09339,401.21814 277.64579,368.82979 z M 213.41539,137.96695 C 223.07119,128.67665 227.84899,114.14645 219.57049,119.24826 C 217.45469,120.55218 218.14719,117.91285 221.10929,113.38308 C 228.20359,102.53432 227.92879,93.604332 220.37619,89.562332 C 217.01089,87.761282 213.47669,83.176562 212.52229,79.374072 C 211.04709,73.496452 208.80739,72.497672 197.57579,72.708772 C 188.85389,72.872712 181.39739,75.291042 175.63279,79.825472 C 170.83039,83.603092 165.07589,85.993462 162.84509,85.137422 C 158.12831,83.327432 157.31495,88.268582 161.86659,91.081662 C 163.55929,92.127772 164.94419,96.443372 164.94419,100.67188 C 164.94419,115.18963 171.60029,134.77046 179.39149,143.17302 C 189.01869,153.55546 198.76339,152.06440 213.41539,137.96695 z M 187.32039,140.00174 C 188.34309,138.97910 190.99749,138.86977 193.21909,139.75878 C 195.67409,140.74121 194.94489,141.47046 191.35969,141.61813 C 188.11549,141.75176 186.29779,141.02439 187.32039,140.00174 z M 177.25429,133.14825 C 177.25429,132.37922 178.87002,131.68010 181.47311,131.17324 C 184.07622,130.66638 186.46542,131.35284 190.41492,131.35284 C 194.36442,131.35284 198.91937,130.58855 201.14098,130.97003 C 203.36259,131.35150 204.45214,131.87767 203.87339,132.45646 C 202.25104,134.07877 195.59627,135.04179 189.34708,135.20419 C 183.09789,135.36660 177.25429,134.72839 177.25429,133.14825 z M 178.92449,120.53095 C 177.95069,118.95526 178.56139,116.79619 180.28169,115.73301 C 182.00189,114.66984 183.40939,115.26659 183.40939,117.05913 C 183.40939,118.85167 186.87159,120.31830 191.10329,120.31830 C 195.33489,120.31830 198.79709,118.85167 198.79709,117.05913 C 198.79709,115.26659 200.18199,114.65587 201.87469,115.70199 C 203.56729,116.74810 204.95219,118.90718 204.95219,120.49993 C 204.95219,124.25838 181.24569,124.28663 178.92449,120.53095 z M 186.70319,111.85506 C 186.53989,106.62438 184.64939,104.93059 178.97469,104.93059 C 168.28399,104.93059 165.78936,99.247552 176.30329,98.468742 C 181.70899,98.068322 182.10229,99.662422 183.30356,96.058622 L 176.05302,95.757182 C 168.32561,95.811332 169.29509,92.307112 178.46109,93.155162 C 188.62814,92.001092 193.29829,102.68548 189.35909,112.62445 C 187.04709,118.45768 186.90819,118.41745 186.70319,111.85506 z M 200.33589,101.85305 C 201.38199,100.16040 204.92599,98.775512 208.21139,98.775512 C 211.49679,98.775512 214.18479,100.16040 214.18479,101.85305 C 214.18479,103.54570 210.64089,104.93059 206.30929,104.93059 C 201.84269,104.93059 199.25709,103.59850 200.33589,101.85305 z M 202.64399,93.576542 C 205.60619,92.802452 210.45329,92.802452 213.41539,93.576542 C 216.37759,94.350632 213.95399,94.983972 208.02969,94.983972 C 202.10549,94.983972 199.68189,94.350632 202.64399,93.576542 z M 235.72759,103.39182 C 237.93589,100.73100 238.23499,98.775512 236.43369,98.775512 C 234.71489,98.775512 232.51139,100.85285 231.53719,103.39182 C 230.56289,105.93079 230.24509,108.00814 230.83109,108.00814 C 231.41699,108.00814 233.62049,105.93079 235.72759,103.39182 z M 235.70639,77.232712 C 237.16249,77.232712 238.98719,79.656272 239.76129,82.618412 C 240.61699,85.893122 241.30859,84.648992 241.52569,79.444282 C 241.73549,74.413732 239.97939,70.154072 237.26639,69.113002 C 234.72739,68.138722 232.65009,64.304482 232.65009,60.592492 C 232.65009,49.215012 220.71069,40.972862 219.97579,51.843002 C 219.77549,54.805142 218.72849,53.104442 217.64909,48.063672 C 214.91999,35.318642 201.83859,30.750312 189.06489,38.081382 C 183.98739,40.995492 178.45389,43.379762 176.76819,43.379762 C 171.76599,43.379762 155.71151,60.951922 155.71151,66.426912 C 155.71151,69.207362 154.42325,73.889412 152.84870,76.831472 C 151.11188,80.076752 151.09335,83.931122 152.80158,86.631172 C 154.96921,90.057342 155.62811,89.411152 155.66438,83.823562 C 155.70379,77.754252 156.89329,76.862062 162.92669,78.376342 C 168.15139,79.687672 172.11989,78.081702 177.31209,72.554892 C 184.99329,64.378692 192.41229,62.846282 197.87379,68.307852 C 200.33589,70.769872 203.02169,69.930542 207.72199,65.230312 C 216.25869,56.693642 217.44939,57.062962 215.34319,67.594132 C 213.93609,74.629152 215.35729,78.078902 222.34459,84.589722 L 231.11129,92.758662 L 232.08509,84.995692 C 232.62069,80.726052 234.25029,77.232712 235.70639,77.232712 z "
         style="fill:#000000;fill-opacity:1.0000000;fill-rule:nonzero"
         id="man" />
    </g>
  </g>
</svg>
