<?xml version="1.0" encoding="UTF-8" standalone="no"?>
<!-- Generator: Adobe Illustrator 12.0.1, SVG Export Plug-In  -->
<svg
   xmlns:dc="http://purl.org/dc/elements/1.1/"
   xmlns:cc="http://web.resource.org/cc/"
   xmlns:rdf="http://www.w3.org/1999/02/22-rdf-syntax-ns#"
   xmlns:svg="http://www.w3.org/2000/svg"
   xmlns="http://www.w3.org/2000/svg"
   xmlns:sodipodi="http://inkscape.sourceforge.net/DTD/sodipodi-0.dtd"
   xmlns:inkscape="http://www.inkscape.org/namespaces/inkscape"
   version="1.0"
   width="331"
   height="314"
   viewBox="0.001 0 331 314"
   enable-background="new 0.001 0 331 314"
   xml:space="preserve"
   id="svg2"
   sodipodi:version="0.32"
   inkscape:version="0.43"
   sodipodi:docname="International Biohazard Warning Symbol.svg"
   sodipodi:docbase="C:\Documents and Settings\940753\Työpöytä"><metadata
   id="metadata9"><rdf:RDF><cc:Work
       rdf:about=""><dc:format>image/svg+xml</dc:format><dc:type
         rdf:resource="http://purl.org/dc/dcmitype/StillImage" /></cc:Work></rdf:RDF></metadata><sodipodi:namedview
   inkscape:window-height="823"
   inkscape:window-width="968"
   inkscape:pageshadow="2"
   inkscape:pageopacity="0.0"
   borderopacity="1.0"
   bordercolor="#666666"
   pagecolor="#ffffff"
   id="base"
   inkscape:zoom="1.2006369"
   inkscape:cx="165.5"
   inkscape:cy="157"
   inkscape:window-x="271"
   inkscape:window-y="182"
   inkscape:current-layer="svg2" />
<defs
   id="defs4">
</defs>
<path
   d="M75.33,165.564c-2.168,20.533,2.768,41.485,13.996,58.82c5.106,7.884,11.44,14.964,18.705,20.918  c3.639,2.983,7.51,5.684,11.567,8.067c2.039,1.197,4.126,2.315,6.253,3.351c1.067,0.52,2.146,1.018,3.232,1.494  c1.901,0.834,2.512-1.824,3.352-3.393c2.804-5.229,4.835-10.865,6.014-16.681c0.338-1.663,1.146-2.615-0.557-3.404  c-1.068-0.494-2.123-1.019-3.162-1.569c-2.07-1.1-4.082-2.309-6.023-3.621c-8.059-5.452-14.875-12.695-19.822-21.074  c-4.867-8.245-7.878-17.539-8.773-27.071c-0.24-2.562-0.336-5.14-0.271-7.713c0.037-1.484,0.129-2.97,0.262-4.45  c-1.475-0.546-2.971-1.034-4.484-1.465C89.041,165.905,82.153,165.155,75.33,165.564 M127.14,121.929  c16.854-12.137,39.013-15.574,58.752-9.084c4.676,1.537,9.174,3.607,13.387,6.152c1.816,1.098,3.76,3.531,5.512,2.034  c2.127-1.815,4.129-3.778,5.984-5.869c3.417-3.849,6.344-8.131,8.686-12.712c-4.326-3.219-8.938-6.052-13.768-8.451  c-18.846-9.365-40.801-11.83-61.271-6.97c-9.726,2.311-19.047,6.254-27.486,11.61c-1.892,1.201-3.739,2.473-5.537,3.812  c1.279,2.504,2.734,4.92,4.348,7.223C118.957,114.256,122.801,118.393,127.14,121.929 M192.411,234.988  c0.947,5.853,2.756,11.562,5.346,16.893c0.888,1.822,2.666,6.938,4.75,6.002c2.17-0.976,4.303-2.035,6.39-3.178  c8.623-4.725,16.463-10.858,23.133-18.083c13.326-14.438,21.706-33.086,23.589-52.648c0.52-5.402,0.557-10.851,0.109-16.261  c-0.163-1.972,0.479-2.944-1.782-3.003c-1.487-0.04-2.978-0.024-4.465,0.045c-2.961,0.139-5.912,0.495-8.819,1.063  c-2.904,0.567-5.769,1.347-8.559,2.33c-2.156,0.761-1.251,1.722-1.146,3.755c0.075,1.518,0.1,3.034,0.069,4.553  c-0.101,5.342-0.849,10.67-2.237,15.829C223.724,211.08,210.143,226.975,192.411,234.988 M22.373,193.256  c20.755-36.501,72-43.867,102.368-14.938c0.932,0.889,9.705,10.924,9.387,11.107c2.159-1.247,4.317-2.493,6.478-3.739  c2.422-1.397,4.844-2.797,7.267-4.194c1.337-0.772,0.2-1.872-0.046-3.272c-0.511-2.897-0.279-5.917,0.655-8.706  c1.417-4.226,4.439-7.83,8.343-9.977c0.475-0.262,5.283-2.027,5.283-1.95c0-0.958,0-1.916,0-2.873c0-3.146,0-6.289,0-9.435  c0-1.172,0-2.343,0-3.515c0-1.714-2.77-0.993-4.146-1.149c-36.082-4.091-62.223-37.891-57.689-73.736  c2.045-16.158,10.346-31.236,22.774-41.737c7.614-6.433,16.677-11.097,26.347-13.521c2.467-0.619,1.486-3.208,1.486-5.585  c0-2.012,0-4.023,0-6.034c-37.878,5.568-69.961,33.562-80.666,70.313c-2.775,9.531-4.09,19.473-3.93,29.396  c0.102,6.34,0.807,12.669,2.111,18.875c0.486,2.315-0.51,1.773-2.471,2.473c-1.402,0.499-2.793,1.03-4.172,1.591  c-3.261,1.329-6.451,2.832-9.553,4.498c-17.467,9.385-31.898,23.946-41.045,41.544c-13.151,25.309-14.797,55.735-4.275,82.264  c2.786-1.608,5.572-3.218,8.359-4.825c2.018-1.164,1.217-1.211,0.559-3.744c-1.136-4.368-1.816-8.854-2.027-13.36  C13,216.695,16.254,203.943,22.373,193.256 M287.431,280.387c-17.186,10.461-37.741,13.489-56.965,6.84  c-19.219-6.618-34.516-22.153-40.912-41.436c-3.588-10.826-4.314-22.571-2.053-33.75c1.187-5.856,3.185-11.543,5.91-16.859  c-0.472-1.141-4.748-2.742-5.789-3.343c-2.529-1.462-5.062-2.923-7.591-4.384c-1.169-0.675-0.813-0.817-1.922,0.304  c-2.078,2.099-4.67,3.673-7.496,4.532c-5.016,1.524-10.574,0.728-14.957-2.15c-0.577-0.379-3.689-3.344-3.945-3.197  c-0.977,0.564-1.953,1.129-2.93,1.692c-2.729,1.575-5.459,3.151-8.188,4.728c-0.903,0.521-1.807,1.043-2.71,1.564  c-0.925,0.533,1.213,3.481,1.594,4.34c4.96,11.161,6.69,23.633,4.986,35.726c-2.544,18.052-12.729,34.733-27.818,45.018  c-16.273,11.091-36.85,14.462-55.789,8.896c-9.525-2.809-18.373-7.759-25.713-14.45c-0.619-0.564-3.664-4.103-4.207-3.788  c-0.974,0.562-1.947,1.124-2.92,1.686c-2.195,1.269-4.392,2.534-6.588,3.802c25.053,31.647,68.307,45.056,106.871,33.14  c10.344-3.196,20.155-8.105,28.931-14.445c2.317-1.674,4.563-3.447,6.727-5.314c1.469-1.268,1.532-2.373,3.196-0.932  c1.09,0.944,2.201,1.866,3.332,2.764c4.822,3.825,10.002,7.2,15.445,10.076c17.799,9.404,38.291,13.182,58.271,10.728  c25.688-3.154,49.598-16.482,65.67-36.785c-2.787-1.608-5.572-3.217-8.359-4.825c-2.215-1.278-2.521,0.453-4.338,2.18  C294.179,275.589,290.911,278.152,287.431,280.387 M281.776,127.865c-3.984-2.3-8.128-4.325-12.393-6.055  c-2.322-0.941-4.682-1.796-7.068-2.56c0.532-2.449,0.973-4.919,1.318-7.401c1.182-8.485,1.264-17.124,0.248-25.631  c-1.719-14.396-6.639-28.347-14.328-40.638C234.267,21.145,208.513,4.195,179.978,0c0,2.276,0,4.554,0,6.831c0,1.27,0,2.54,0,3.81  c0,1.375,4.59,1.825,5.869,2.242c9.807,3.203,18.822,8.755,26.1,16.069c14.012,14.083,21.026,34.102,18.76,53.846  c-2.037,17.953-11.636,34.498-26.125,45.283c-8.875,6.605-19.385,10.904-30.352,12.377c-0.693,0.093-5.48,0.346-5.48,0.715  c0,0.905,0,1.809,0,2.713c0,3.384,0,6.768,0,10.152c0,1.045,0,2.091,0,3.136c0,1.008,2.401,1.07,3.266,1.412  c4.492,1.781,8.146,5.397,9.972,9.874c0.869,2.132,1.313,4.428,1.313,6.729c0,0.762-1.012,5.897-0.832,6.002  c2.348,1.354,4.695,2.71,7.043,4.065c2.273,1.313,4.547,2.626,6.82,3.938c0.446,0.259,7.553-8.975,8.75-10.19  c7.268-7.391,16.326-13.038,26.184-16.254c37.057-12.094,77.027,11.165,85.025,49.311c2.082,10.247,1.686,20.957-1.182,31.017  c-0.688,2.406,1.336,2.499,3.398,3.69c1.973,1.139,3.943,2.277,5.916,3.416C342.317,205.065,323.774,152.112,281.776,127.865"
   id="path6" />
</svg>