<?xml version="1.0" encoding="UTF-8" standalone="no"?>
<!-- Created with Inkscape (http://www.inkscape.org/) -->
<svg
   xmlns:dc="http://purl.org/dc/elements/1.1/"
   xmlns:cc="http://web.resource.org/cc/"
   xmlns:rdf="http://www.w3.org/1999/02/22-rdf-syntax-ns#"
   xmlns:svg="http://www.w3.org/2000/svg"
   xmlns="http://www.w3.org/2000/svg"
   xmlns:sodipodi="http://inkscape.sourceforge.net/DTD/sodipodi-0.dtd"
   xmlns:inkscape="http://www.inkscape.org/namespaces/inkscape"
   id="svg1340"
   sodipodi:version="0.32"
   inkscape:version="0.43"
   width="387"
   height="1221"
   sodipodi:docbase="/home/adam"
   sodipodi:docname="Line-drawing of a human man.svg"
   version="1.0">
  <metadata
     id="metadata1345">
    <rdf:RDF>
      <cc:Work
         rdf:about="">
        <dc:format>image/svg+xml</dc:format>
        <dc:type
           rdf:resource="http://purl.org/dc/dcmitype/StillImage" />
        <dc:title>Line drawing of a human male</dc:title>
        <cc:license
           rdf:resource="http://web.resource.org/cc/PublicDomain" />
        <dc:date>2006-02-02</dc:date>
        <dc:creator>
          <cc:Agent>
            <dc:title>http://en.wikipedia.org/wiki/User:OldakQuill</dc:title>
          </cc:Agent>
        </dc:creator>
        <dc:publisher>
          <cc:Agent>
            <dc:title>Wikimedia Foundation</dc:title>
          </cc:Agent>
        </dc:publisher>
      </cc:Work>
      <cc:License
         rdf:about="http://web.resource.org/cc/PublicDomain">
        <cc:permits
           rdf:resource="http://web.resource.org/cc/Reproduction" />
        <cc:permits
           rdf:resource="http://web.resource.org/cc/Distribution" />
        <cc:permits
           rdf:resource="http://web.resource.org/cc/DerivativeWorks" />
      </cc:License>
    </rdf:RDF>
  </metadata>
  <defs
     id="defs1343" />
  <sodipodi:namedview
     inkscape:window-height="742"
     inkscape:window-width="1016"
     inkscape:pageshadow="2"
     inkscape:pageopacity="0.0"
     borderopacity="1.0"
     bordercolor="#666666"
     pagecolor="#ffffff"
     id="base"
     inkscape:zoom="0.5"
     inkscape:cx="473.45188"
     inkscape:cy="530.05882"
     inkscape:window-x="0"
     inkscape:window-y="0"
     inkscape:current-layer="svg1340" />
  <path
     style="fill:#000000"
     d="M 78.258201,1220.7931 C 76.243041,1220.4449 73.446371,1219.4079 72.043381,1218.4886 C 70.640391,1217.5693 67.973961,1216.8172 66.117981,1216.8172 C 63.548531,1216.8172 61.999631,1215.9998 59.625521,1213.3908 C 57.910651,1211.5063 55.925841,1209.5938 55.214841,1209.1408 C 53.074581,1207.7772 49.818781,1202.5683 48.449701,1198.3172 C 47.741181,1196.1172 46.699141,1193.7356 46.134061,1193.0247 C 44.068051,1190.4256 45.170411,1183.2907 48.829241,1175.5805 C 50.805321,1171.4163 52.422121,1167.6019 52.422121,1167.1043 C 52.422121,1166.6066 54.043781,1163.5259 56.025811,1160.2583 C 58.007841,1156.9906 61.865181,1149.1421 64.597691,1142.8171 C 70.053401,1130.1885 76.094711,1117.7708 78.764901,1113.6966 C 79.709471,1112.2555 80.487471,1109.7804 80.493801,1108.1966 C 80.601771,1081.1639 79.727621,1067.8198 77.193501,1057.8171 C 72.133421,1037.8438 67.250421,1012.2274 65.375051,995.8171 C 64.777941,990.5921 63.403011,980.9171 62.319661,974.3171 C 59.826681,959.12935 58.429841,936.97396 59.514041,929.8171 C 59.972311,926.7921 61.037771,917.5671 61.881731,909.3171 C 62.725701,901.0671 64.137921,890.7171 65.020011,886.3171 C 66.871671,877.08073 71.852451,860.91749 74.418741,855.8171 C 75.970681,852.73268 76.059531,851.1891 75.167021,842.8171 C 74.610001,837.5921 74.094821,823.35178 74.022171,811.17194 C 73.893071,789.52818 73.830371,788.89423 71.253041,783.17194 C 68.475751,777.00571 67.244141,772.84586 65.522611,763.8171 C 64.945831,760.7921 63.547051,753.84773 62.414201,748.38516 C 61.281351,742.92259 60.076201,733.58974 59.736101,727.64549 L 59.117721,716.83776 L 52.217861,710.70552 C 46.428691,705.56041 44.527931,702.99889 40.409881,694.79271 C 37.710411,689.41339 34.152651,682.8848 32.503731,680.28474 C 30.854821,677.68468 29.267681,673.7033 28.976751,671.43723 C 26.246891,650.17424 25.422121,641.23335 25.422121,632.9035 C 25.422121,626.99787 24.842541,621.43287 23.947581,618.74524 C 22.602241,614.70512 19.495761,597.57316 15.884971,574.28075 C 15.114531,569.31075 13.864891,563.46075 13.108011,561.28075 C 12.351131,559.10074 10.742231,552.1421 9.5326912,545.8171 C 8.3231512,539.4921 6.4721612,530.4921 5.4194012,525.8171 C 0.42059117,503.61899 0.067981165,500.65723 0.0023811652,480.3171 C -0.063338835,459.93764 1.2217612,449.28275 5.0496912,438.46945 C 9.5423712,425.77831 10.676791,416.90301 10.565341,395.3171 C 10.396271,362.57223 13.662521,335.37916 19.262211,322.91152 C 21.041831,318.94922 21.187921,316.98718 20.714211,303.41152 C 20.076261,285.12913 21.567911,276.51742 27.451911,264.51312 C 29.635521,260.05818 31.422121,256.00281 31.422121,255.50119 C 31.422121,253.06263 41.152501,239.43277 46.688341,234.11698 C 56.106601,225.0731 60.090201,223.36436 75.422121,221.79181 C 90.054001,220.29105 90.519261,220.14914 105.03677,212.75874 C 112.53655,208.94084 119.64122,205.8171 120.82492,205.8171 C 122.00862,205.8171 123.86474,205.20919 124.94961,204.46619 C 126.03449,203.72318 129.39712,202.34254 132.42212,201.39809 C 140.69595,198.81488 150.54694,193.53002 152.86359,190.43164 C 154.63897,188.05719 154.96627,185.93427 155.24312,174.99781 C 155.54976,162.88446 155.42503,161.94036 152.45538,153.89654 C 150.5951,148.85763 147.97782,143.96085 145.93819,141.70321 C 144.06354,139.6282 142.00818,135.99246 141.37073,133.62378 C 140.73328,131.25511 139.17728,127.51711 137.91296,125.31711 C 136.64863,123.11711 135.2917,119.29211 134.89755,116.81711 C 134.50341,114.34211 133.11019,110.29569 131.80152,107.82507 C 130.49285,105.35444 129.42212,102.36264 129.42212,101.17661 C 129.42212,99.990585 128.07212,96.453801 126.42212,93.317101 C 122.59676,86.044982 122.57293,81.430036 126.30504,70.646779 C 128.61659,63.967976 129.09922,61.127956 128.74019,56.317106 C 128.19883,49.063036 131.05879,42.495966 136.14017,39.325176 C 137.91009,38.220736 140.78713,36.417106 142.53358,35.317096 C 144.5277,34.061106 147.06293,30.713096 149.34868,26.317096 C 152.39287,20.462456 153.71929,18.955696 157.45527,17.108316 C 160.31067,15.696376 163.83981,14.884666 167.23786,14.858316 C 173.11159,14.812776 175.03036,14.030906 180.92212,9.2822165 C 186.58266,4.7198865 192.00904,2.1957465 199.19655,0.7816965 C 211.55322,-1.6493335 221.84017,1.8714065 231.41334,11.807986 C 234.59748,15.112996 238.03956,17.826986 239.0624,17.839066 C 245.77145,17.918286 253.52753,25.162866 257.05274,34.642956 C 258.0087,37.213736 259.97977,41.117106 261.4329,43.317106 C 266.73636,51.346366 273.41016,64.673596 274.8005,70.011462 C 276.61126,76.963456 275.67123,82.376352 270.94764,92.197111 C 268.1206,98.074761 267.42212,100.71488 267.42212,105.52282 C 267.42212,113.89705 265.92702,117.62441 260.48512,122.81711 C 257.38231,125.77784 255.17399,129.02741 254.02917,132.31711 C 253.07217,135.06711 251.59474,138.66711 250.74599,140.31711 C 247.84167,145.96322 246.42212,153.90967 246.42212,164.52151 C 246.42212,174.29474 246.6186,175.38592 248.92212,178.406 C 250.29712,180.20872 251.42212,182.12198 251.42212,182.65771 C 251.42212,184.14421 261.33987,192.73449 265.51555,194.86477 C 267.5494,195.90236 269.84809,197.38593 270.62375,198.16159 C 271.39941,198.93725 274.09828,200.86456 276.62124,202.44449 C 279.1442,204.02443 284.25047,208.0171 287.96851,211.3171 C 291.68655,214.6171 295.44713,217.8097 296.32535,218.41177 C 298.7264,220.05783 306.72908,221.8171 311.81572,221.8171 C 318.4488,221.8171 326.36278,223.69436 331.02897,226.37464 C 336.7362,229.65289 349.38323,243.49196 352.57359,249.94995 C 359.68807,264.35118 364.28435,274.60049 364.84633,277.3171 C 366.47206,285.17589 367.22531,301.82714 366.29812,309.41019 C 365.37211,316.98351 365.4659,317.85908 367.75858,323.04322 C 373.21307,335.3768 376.49123,360.82578 376.42433,390.3171 C 376.36894,414.73355 376.79828,419.77411 379.87396,430.8171 C 386.37476,454.15767 386.91281,457.90493 386.90958,479.8171 C 386.90648,500.80053 386.44407,504.92204 381.91691,524.3171 C 380.63311,529.8171 378.82657,538.56951 377.90236,543.76689 C 376.97816,548.96428 375.17592,557.06428 373.89738,561.76689 C 372.61884,566.46951 370.17606,579.3171 368.46897,590.3171 C 366.76188,601.3171 364.47798,613.74623 363.39365,617.93739 C 362.14946,622.74638 361.42212,628.84402 361.42212,634.4656 C 361.42212,639.36495 360.5284,650.49805 359.43608,659.20582 C 357.83414,671.97614 356.9719,675.83872 354.97779,679.17762 C 353.61806,681.45433 350.12674,687.99677 347.21931,693.71636 C 342.73262,702.54274 340.85851,705.08117 334.82849,710.49943 L 327.72391,716.88323 L 327.10307,727.73408 C 326.51106,738.081 321.14721,767.92499 318.04804,778.11549 C 317.24542,780.7546 315.77346,784.1296 314.77701,785.61549 C 313.17145,788.00968 312.9608,790.7636 312.92575,809.8171 C 312.904,821.6421 312.49552,835.81955 312.018,841.32254 C 311.15625,851.25366 311.17633,851.40223 314.72191,861.32254 C 321.09922,879.16585 322.41414,885.7801 326.35068,919.8171 C 327.94908,933.63756 328.10797,938.66916 327.32905,950.80058 C 326.81758,958.76649 325.7581,968.89149 324.97465,973.30058 C 324.1912,977.70966 323.02274,985.3671 322.37808,990.3171 C 318.88861,1017.1107 315.65319,1034.4972 309.72403,1058.3171 C 307.54371,1067.0763 307.19179,1070.9847 306.88765,1089.8171 C 306.54407,1111.0912 306.56543,1111.3538 308.92192,1114.8171 C 311.51231,1118.624 317.96973,1132.0937 324.02327,1146.3171 C 326.13,1151.2671 328.86814,1156.8939 330.10802,1158.8211 C 331.34789,1160.7483 333.47888,1165.073 334.84355,1168.4315 C 336.20823,1171.79 338.21368,1176.0632 339.30012,1177.9275 C 342.67146,1183.7127 342.82056,1187.5649 339.96578,1195.126 C 337.39115,1201.9451 334.02906,1207.6101 331.65747,1209.1251 C 330.96191,1209.5694 329.83691,1210.6142 329.15747,1211.4468 C 325.54189,1215.8773 324.18107,1216.8172 321.38228,1216.8172 C 319.71037,1216.8172 316.57291,1217.7199 314.41015,1218.8233 C 309.82644,1221.1617 304.58967,1221.538 298.80267,1219.9446 C 292.7539,1218.2792 290.10029,1215.7069 287.06607,1208.5677 C 284.69524,1202.9893 283.77916,1201.9034 279.82275,1199.9812 C 272.94016,1196.6374 270.85822,1191.3763 271.17825,1178.1366 L 271.42433,1167.9559 L 266.67323,1163.4583 C 264.06012,1160.9846 260.02576,1157.5873 257.708,1155.9086 C 249.91207,1150.2624 249.01979,1145.7384 252.56194,1129.8171 C 254.09379,1122.9316 254.90033,1114.5375 255.49246,1099.3171 C 255.9418,1087.767 256.58948,1074.8101 256.93174,1070.5237 C 257.38633,1064.8306 257.14273,1061.4619 256.02782,1058.0237 C 255.1884,1055.4351 253.78765,1049.0421 252.91504,1043.8171 C 252.04243,1038.5921 250.47253,1030.9421 249.42637,1026.8171 C 246.64805,1015.8621 244.60303,1001.8983 243.86125,988.8171 C 243.34994,979.80029 242.56657,975.4817 240.23335,968.8171 C 238.59668,964.1421 235.73542,954.22619 233.875,946.78176 C 227.98274,923.20397 227.0968,907.12211 230.48895,885.3171 C 233.97339,862.91885 233.98718,864.19684 230.17057,855.8171 C 228.29181,851.6921 226.1937,845.3921 225.50811,841.8171 C 224.82251,838.2421 223.84861,833.16173 223.34389,830.52739 C 221.81394,822.54212 217.55035,774.60558 216.47077,753.25148 C 215.74818,738.95864 214.7519,729.89625 213.00778,721.75148 C 210.25682,708.90495 198.04016,671.16806 195.84492,668.73595 C 195.05998,667.86632 194.75624,666.78167 195.16994,666.32562 C 196.2593,665.12475 193.22732,666.85948 191.20589,668.59363 C 189.02978,670.46047 176.14238,710.09641 173.43806,723.23961 C 172.1815,729.3466 171.00218,740.86339 170.36653,753.23495 C 169.16749,776.57173 164.97238,821.72252 162.92583,833.3171 C 160.51715,846.96328 160.19971,848.10946 156.69431,855.8171 C 152.84323,864.28484 152.84966,863.7941 156.30124,885.8171 C 157.46493,893.2421 158.41039,902.4671 158.40225,906.3171 C 158.3655,923.71168 154.47027,944.85624 147.44122,965.8171 C 144.33399,975.08299 143.46576,979.35694 142.97204,987.8171 C 142.1777,1001.4287 139.69271,1018.7346 137.44375,1026.3171 C 136.46497,1029.6171 134.90337,1037.0421 133.97353,1042.8171 C 133.04369,1048.5921 131.63484,1055.3589 130.84275,1057.8545 C 129.92536,1060.7449 129.55861,1064.9193 129.83241,1069.3545 C 130.06881,1073.1839 130.56927,1085.3171 130.94453,1096.3171 C 131.45069,1111.1537 132.24582,1119.4475 134.02448,1128.4426 C 135.34318,1135.1118 136.42212,1141.9967 136.42212,1143.7424 C 136.42212,1148.1344 134.03287,1152.33 129.95306,1155.1023 C 128.05702,1156.3907 123.95063,1159.8229 120.82777,1162.7294 L 115.14983,1168.014 L 115.69225,1175.9278 C 116.24859,1184.0447 115.00683,1191.3068 112.32948,1195.5939 C 111.56297,1196.8213 109.08246,1198.6967 106.81724,1199.7615 C 102.83282,1201.6344 100.18717,1205.4661 97.993431,1212.5412 C 96.473691,1217.4426 85.477421,1222.0404 78.258201,1220.7931 z M 91.261751,1213.0475 C 92.548551,1212.0958 94.822041,1208.4345 96.313941,1204.9112 C 98.689021,1199.3021 99.579851,1198.2445 103.4743,1196.41 C 110.34522,1193.1735 111.7519,1189.6044 110.80225,1177.8172 C 108.57953,1150.2281 110.90001,1136.4039 119.97074,1123.1964 C 121.90499,1120.3799 123.92284,1116.5579 124.45484,1114.7029 C 125.86687,1109.7795 125.64113,1095.7472 123.82098,1075.3022 C 121.76658,1052.2257 122.27152,1024.5391 124.79276,1022.0179 C 126.21028,1020.6004 126.76565,1020.5505 128.5723,1021.6788 C 131.89445,1023.7535 132.27988,1022.8505 134.88403,1006.8909 C 136.62692,996.2096 136.92078,982.24332 135.42212,981.3171 C 134.87212,980.97718 134.42212,979.9296 134.42212,978.98915 C 134.42212,977.03408 139.99493,963.40385 142.12416,960.15114 C 143.70368,957.7382 148.77244,937.86793 150.37234,927.8171 C 151.66472,919.69815 151.73525,896.52272 150.48708,890.11632 C 149.9728,887.47675 149.27741,883.6296 148.94176,881.5671 C 148.60612,879.5046 147.9064,877.8171 147.38684,877.8171 C 145.89158,877.8171 137.89963,894.56572 135.45758,902.8171 C 132.28751,913.5284 130.32734,917.25955 127.67212,917.63665 C 125.79145,917.90375 125.42556,917.49338 125.4431,915.13665 C 125.45464,913.5859 126.56958,908.54982 127.92074,903.94536 C 131.40183,892.0826 135.02378,883.9497 149.05188,856.49649 C 152.65811,849.43903 153.951,845.44122 155.51987,836.49649 C 158.20068,821.21221 161.20512,790.3062 162.92544,760.3171 C 164.81234,727.42425 166.51994,717.43122 173.94716,695.8171 C 178.41536,682.8141 181.36761,672.11158 181.39858,668.80414 C 181.41888,666.63746 180.72031,666.08627 176.32899,664.80414 C 171.75485,663.46863 170.86322,662.71285 167.57899,657.38726 L 163.92212,651.45742 L 164.19379,634.88726 C 164.35519,625.0432 163.98977,615.95708 163.29356,612.50305 C 162.3072,607.60956 162.35482,606.45582 163.59434,605.21631 C 165.66512,603.14553 168.13841,604.42742 169.39016,608.22026 C 171.12643,613.4812 172.15908,624.8053 171.30457,629.2138 C 170.03081,635.78527 170.30299,646.59622 171.83447,650.26157 C 174.18603,655.88965 176.81255,657.8171 182.13033,657.8171 L 186.83854,657.8171 L 182.74602,653.5671 C 176.80189,647.39423 174.59006,638.77376 176.63654,629.75583 C 177.31538,626.76453 177.88233,620.7171 177.89645,616.3171 C 177.92,608.97696 178.0943,608.2925 180.00963,608.01884 C 183.50032,607.5201 184.89176,610.41848 184.89873,618.20286 C 184.90224,622.11569 184.43932,627.7921 183.87003,630.8171 C 181.96227,640.95428 184.9859,649.24264 190.36256,648.61443 C 194.84602,648.09058 195.90252,644.04896 194.47799,632.87084 C 193.80559,627.59464 193.25819,621.2616 193.26153,618.79742 C 193.27165,611.34026 196.69971,604.8171 200.60849,604.8171 C 203.42059,604.8171 203.81326,607.22605 201.84238,612.38672 C 200.22097,616.63232 200.17989,618.13365 201.3512,630.3394 C 202.71964,644.59956 202.23454,648.33637 198.28331,653.97147 C 195.85851,657.42964 195.92745,657.8171 198.96757,657.8171 C 205.03531,657.8171 208.22637,650.03867 207.0285,638.16806 C 206.70377,634.95003 206.15931,627.46817 205.8186,621.54169 C 205.23219,611.3413 205.32515,610.57951 207.56063,607.26623 C 209.90784,603.78734 213.34439,602.03299 215.36528,603.28197 C 216.99001,604.28611 216.62831,606.71879 214.38612,609.86766 C 211.91954,613.33165 211.48036,622.72292 213.40898,630.76232 C 215.01052,637.43831 214.28443,652.25521 212.15506,656.35004 C 211.30646,657.98192 209.44439,660.40804 208.01713,661.74141 C 203.76034,665.71819 204.36482,669.84205 212.93868,695.3171 C 220.31978,717.24818 222.88266,731.94797 223.92261,758.3171 C 225.00977,785.88328 229.05156,825.28053 232.54023,842.3171 C 233.10336,845.0671 237.32598,854.9671 241.92383,864.3171 C 253.16936,887.18554 256.24812,894.1376 258.53095,901.8171 C 259.59367,905.3921 260.98201,910.02295 261.61616,912.10787 C 262.56837,915.23851 262.50864,916.15915 261.27318,917.39461 C 257.98213,920.68566 255.8348,917.50858 251.42049,902.8171 C 248.97498,894.67807 240.9481,877.8171 239.51893,877.8171 C 236.63204,877.8171 234.33421,912.78273 236.36051,925.87825 C 239.30584,944.9133 243.99754,959.7363 251.95043,975.13327 C 253.24011,977.63012 253.22085,978.30562 251.78057,981.09082 C 250.45581,983.65263 250.27772,985.99278 250.81527,993.7747 C 251.17781,999.02304 251.93596,1006.2421 252.50004,1009.8171 C 254.46731,1022.2851 255.0892,1023.6008 258.2225,1021.9239 C 261.55773,1020.139 263.12657,1021.5315 263.84006,1026.91 C 264.81129,1034.2315 264.55811,1059.6858 263.38842,1072.3171 C 261.6207,1091.4063 261.21534,1107.6256 262.37127,1113.0156 C 262.98435,1115.8742 265.35775,1121.0098 267.77769,1124.7142 C 274.72822,1135.3535 276.50767,1141.687 276.73109,1156.5815 C 276.83615,1163.5861 276.52684,1172.9467 276.04373,1177.3827 C 275.26534,1184.53 275.40036,1185.9796 277.22976,1190.1152 C 278.87832,1193.8421 280.10086,1195.105 283.2987,1196.3845 C 287.71308,1198.1508 289.1662,1199.9775 291.82966,1207.1087 C 292.81394,1209.7441 294.60136,1212.5438 295.8017,1213.3303 C 298.67562,1215.2133 309.54854,1215.7718 310.14869,1214.0672 C 310.45277,1213.2035 309.36466,1212.8172 306.6279,1212.8172 C 300.91929,1212.8172 299.94541,1211.1504 301.99418,1204.8867 C 302.99305,1201.8328 303.41339,1198.5236 303.03973,1196.6553 C 302.43996,1193.6564 303.65161,1190.8172 305.53114,1190.8172 C 306.00642,1190.8172 307.04087,1192.3623 307.82992,1194.2508 C 308.62527,1196.1543 310.59716,1198.3735 312.25505,1199.2308 C 315.85268,1201.0912 319.42212,1205.4053 319.42212,1207.893 C 319.42212,1210.2155 321.27508,1211.3642 322.70876,1209.9306 C 324.26099,1208.3783 320.84307,1201.7332 315.02179,1194.9855 C 310.50962,1189.7553 309.36114,1186.591 311.49615,1185.2714 C 312.08686,1184.9064 313.57837,1185.5548 314.8106,1186.7124 C 317.85629,1189.5737 318.38304,1189.3711 317.7879,1185.5672 C 317.23661,1182.0436 319.36634,1178.0467 321.19348,1179.1759 C 321.7846,1179.5412 322.58441,1181.2796 322.97082,1183.0389 C 323.63247,1186.0514 331.04579,1195.8156 332.67212,1195.8167 C 333.08462,1195.817 333.42212,1194.63 333.42212,1193.179 C 333.42212,1191.4911 331.98139,1188.9779 329.42212,1186.2014 C 325.13766,1181.5533 324.45823,1178.862 327.03033,1176.7274 C 328.72627,1175.3199 328.99655,1175.5218 332.05484,1180.4806 C 334.21185,1183.978 334.64223,1180.9031 332.59526,1176.6194 C 331.46457,1174.2532 330.22496,1170.9672 329.84057,1169.3172 C 329.45617,1167.6671 327.96685,1164.5171 326.53096,1162.3171 C 323.91014,1158.3016 322.2132,1154.7161 316.35553,1140.8171 C 311.50892,1129.3171 305.60518,1118.3376 302.90329,1115.7993 C 301.56257,1114.5399 298.77317,1113.2341 296.70463,1112.898 C 291.58787,1112.0662 291.19836,1109.4716 295.78409,1106.7659 C 300.27934,1104.1137 300.64756,1102.3282 300.82193,1082.3367 C 300.94233,1068.5333 301.34715,1064.7262 303.74818,1054.8171 C 309.40531,1031.4701 312.92439,1012.1261 315.9369,987.8171 C 316.85705,980.3921 317.99779,972.50173 318.47187,970.28295 C 320.61562,960.24993 321.76097,938.9275 320.60326,930.60407 C 319.96931,926.04624 318.78072,915.52759 317.96196,907.22929 C 315.68082,884.1095 310.4796,863.80584 305.70364,859.37732 C 303.20164,857.05734 303.19174,856.98154 304.30504,848.67894 C 304.92173,844.07993 305.88014,834.75388 306.43485,827.95438 C 306.98956,821.15489 307.66684,815.23015 307.93992,814.7883 C 308.213,814.34645 307.96221,812.73764 307.38261,811.21318 L 306.32879,808.44143 L 304.39015,811.62927 C 302.32585,815.02375 301.73309,815.29992 299.51956,813.89848 C 298.44067,813.21542 298.26638,811.58126 298.7643,806.81738 C 299.26408,802.03577 300.78242,797.89455 305.4262,788.64729 C 311.31552,776.91974 312.51653,773.11459 317.3664,750.8171 C 319.93688,738.9992 321.69097,725.23952 320.93191,722.84795 C 320.42187,721.24095 319.44675,721.09927 312.06563,721.55976 C 305.4138,721.97476 302.99555,721.72137 299.84727,720.27948 C 290.83872,716.15365 290.41137,713.22097 296.93188,700.27257 C 303.48225,687.26485 306.95971,677.56485 308.87199,666.96683 C 311.3366,653.3078 310.43318,652.20215 302.53761,659.21453 C 297.54731,663.64662 288.48036,667.8171 283.83495,667.8171 C 278.17868,667.8171 272.34579,662.83713 272.20507,657.88781 C 272.07283,653.237 273.96174,650.54611 280.25639,646.41811 C 287.2343,641.84203 292.11957,634.86892 296.5249,623.19685 C 299.08329,616.4183 300.99928,613.22758 305.30219,608.57992 L 310.80667,602.63443 L 309.55631,591.97577 C 308.86862,586.1135 307.85806,574.3421 307.31064,565.8171 C 305.41743,536.33411 302.45922,524.07486 296.40284,520.61361 C 292.73906,518.51975 292.65381,516.41204 296.03181,511.44086 C 297.46714,509.32858 298.87191,505.88256 299.15351,503.78304 C 300.11767,496.59469 297.074,473.08926 292.87775,455.3171 C 290.64835,445.87506 291.36751,438.07542 295.86862,422.87936 C 297.89487,416.0386 299.91215,409.7386 300.35146,408.87936 C 301.03501,407.54243 302.80194,381.2441 302.70723,373.8171 C 302.63052,367.80183 300.24281,348.24139 299.49358,347.49044 C 299.03995,347.03578 296.0258,347.99212 292.79546,349.61564 C 289.56512,351.23916 283.77212,353.10725 279.92212,353.76696 C 271.30358,355.24377 225.82529,354.69906 219.92212,353.04832 C 203.30867,348.40259 200.71736,347.42348 197.87451,344.71773 C 196.19833,343.12238 194.2167,341.8171 193.4709,341.8171 C 192.7251,341.8171 190.49652,343.56968 188.51851,345.71172 C 182.3127,352.43214 168.48418,354.80979 135.55539,354.81807 C 109.39617,354.82466 101.87514,353.8213 93.365131,349.18957 C 90.312331,347.52803 88.010481,346.82947 87.447411,347.3937 C 86.635801,348.20697 84.254611,367.10505 84.118021,373.8171 C 84.090041,375.1921 84.414781,383.0671 84.839661,391.3171 C 85.432481,402.82778 86.154651,407.94545 87.944151,413.3171 C 91.779651,424.83036 95.423511,439.95616 95.401281,444.27193 C 95.389821,446.49677 94.727661,451.2421 93.929821,454.8171 C 90.228751,471.401 88.277311,485.16302 88.106451,495.88471 C 87.929091,507.01477 88.026141,507.60309 90.672121,511.43846 C 94.187771,516.53442 94.138331,518.50081 90.441401,520.61361 C 84.439581,524.04367 81.512111,536.03083 79.524021,565.3171 C 78.963981,573.5671 77.954721,585.51955 77.281241,591.8781 L 76.056721,603.4391 L 80.718951,607.73659 C 85.259111,611.92156 88.393851,617.35193 91.891081,627.09023 C 94.747991,635.04556 100.75388,642.95508 106.78194,646.70095 C 112.78781,650.43302 114.49887,652.81165 114.63554,657.61864 C 114.74295,661.3962 112.27052,664.5226 107.61944,666.49055 C 101.74243,668.9772 92.083751,665.88094 84.063151,658.93916 C 76.468441,652.36599 75.784151,653.18766 77.900411,666.33903 C 79.548491,676.58091 83.700041,688.53961 89.001811,698.3171 C 96.148611,711.49717 95.871491,716.17083 87.725671,719.83957 C 83.665271,721.66831 81.650671,721.9287 74.703761,721.52269 C 67.413271,721.0966 66.420701,721.24622 65.912331,722.84795 C 65.201421,725.08784 66.853071,738.81386 69.037201,748.8171 C 74.968111,775.98047 76.342901,779.92997 86.547911,799.12199 C 87.075751,800.11467 87.781861,803.86367 88.117051,807.45309 L 88.726481,813.97931 L 85.847471,813.64821 C 83.989861,813.43457 82.536011,812.44516 81.749521,810.85938 L 80.530571,808.40165 L 79.469191,811.19329 C 78.885431,812.72869 78.603901,814.30221 78.843561,814.68999 C 79.083231,815.07777 79.763251,821.00251 80.354721,827.85608 C 80.946201,834.70964 81.931951,844.07993 82.545291,848.67894 C 83.652211,856.97899 83.641821,857.05806 81.139721,859.37813 C 75.500721,864.60691 70.271901,887.26655 67.308501,919.3171 C 64.898231,945.38545 64.895221,945.32143 70.404041,985.3171 C 74.937141,1018.2288 77.841341,1034.2403 83.191511,1055.8171 C 85.417791,1064.7955 85.824871,1068.7983 86.000631,1083.4392 C 86.113671,1092.8564 86.499711,1101.4862 86.858491,1102.6165 C 87.217261,1103.7469 89.098101,1105.6083 91.038141,1106.753 C 95.654121,1109.4765 95.316161,1112.1988 90.309901,1112.6188 C 83.736721,1113.1701 78.443791,1121.2234 67.833511,1146.8171 C 65.211361,1153.1421 62.077671,1159.6671 60.869751,1161.3171 C 59.661831,1162.9671 57.883111,1166.7921 56.917041,1169.8172 C 55.950981,1172.8422 54.455571,1176.5409 53.593911,1178.0364 C 51.852831,1181.0584 52.994051,1183.3916 54.789401,1180.4806 C 57.877471,1175.4735 58.104321,1175.3086 59.878191,1176.7807 C 62.214411,1178.7196 61.080871,1182.4981 56.854641,1186.8594 C 53.641241,1190.1754 52.032061,1195.8172 54.299641,1195.8172 C 56.012691,1195.8172 64.422121,1184.5554 64.422121,1182.2613 C 64.422121,1180.982 64.940391,1179.6149 65.573821,1179.2234 C 67.465491,1178.0543 69.618231,1181.9758 69.056341,1185.5672 C 68.472801,1189.297 69.336861,1189.6739 71.922121,1186.8172 C 72.917611,1185.7172 74.337351,1184.8172 75.077111,1184.8172 C 77.796811,1184.8172 76.294021,1189.1946 71.510521,1195.2061 C 65.342091,1202.9581 62.616091,1208.4112 64.145001,1209.9401 C 65.708051,1211.5031 67.159571,1210.2891 67.931901,1206.7727 C 68.387051,1204.7004 70.266001,1202.4898 73.912291,1199.7369 C 76.843161,1197.524 79.505271,1194.622 79.844621,1193.2699 C 81.053521,1188.4533 84.679531,1192.0198 83.713171,1197.075 C 83.425461,1198.5801 83.939401,1202.1025 84.855271,1204.9026 C 86.890881,1211.1261 85.917511,1212.8172 80.299681,1212.8172 C 76.581811,1212.8172 75.565261,1213.6081 77.172121,1215.2504 C 78.413931,1216.5197 88.752531,1214.9032 91.261751,1213.0475 z M 118.86325,884.37567 C 117.31277,883.22433 117.14392,882.57026 118.02425,881.12567 C 118.63042,880.13096 120.20542,879.16357 121.52425,878.97592 C 126.08549,878.32694 127.14543,876.31034 127.6136,867.3905 C 128.01964,859.65451 128.37227,858.51978 132.48672,851.70966 C 136.41525,845.20726 136.92449,843.6808 136.94282,838.3524 C 136.95989,833.39258 137.27552,832.27643 138.74086,831.99423 C 142.46713,831.27662 143.6933,833.78293 143.17308,841.05374 C 142.76788,846.7169 142.04475,848.88706 138.83158,854.08289 C 135.30459,859.78618 134.92961,861.08356 134.42843,869.3171 C 134.12712,874.2671 133.32395,879.30652 132.64362,880.51582 C 129.83946,885.50019 122.9691,887.42457 118.86325,884.37567 z M 257.65236,884.26582 C 254.01973,881.72142 252.99235,878.78857 252.41581,869.3171 C 251.91244,861.04768 251.54875,859.80089 247.93548,853.95786 C 244.67213,848.68068 243.93332,846.50444 243.59353,841.16812 C 243.26792,836.05442 243.54138,834.3428 244.92896,832.80954 C 246.19471,831.41091 247.14407,831.13311 248.38623,831.79789 C 249.70464,832.50348 250.11183,834.11949 250.15613,838.82196 C 250.2057,844.08507 250.6999,845.66194 253.73015,850.22582 C 258.00538,856.66478 259.40921,861.40142 259.41654,869.41211 C 259.4228,876.24486 261.13678,878.8171 265.68347,878.8171 C 269.09069,878.8171 270.51611,882.54398 267.85354,884.4909 C 265.40966,886.27792 260.36616,886.16663 257.65236,884.26582 z M 284.49913,884.4099 C 282.65657,882.18974 285.02924,870.53307 287.96947,867.36051 C 290.57546,864.54859 294.17346,864.00554 295.05075,866.29172 C 295.36198,867.10275 294.69284,869.26103 293.56378,871.08789 C 292.43472,872.91475 291.20361,876.33137 290.82799,878.68039 C 289.85391,884.77198 286.96795,887.38463 284.49913,884.4099 z M 97.681081,883.5671 C 97.138831,882.8796 96.393721,880.344 96.025291,877.93243 C 95.656861,875.52086 94.470421,872.42267 93.388771,871.04757 C 90.895821,867.8783 90.894461,866.11935 93.384351,865.32909 C 95.900651,864.53045 98.683151,866.03068 100.17367,868.98967 C 101.64258,871.90578 103.58439,882.74553 102.85056,883.93289 C 102.04515,885.23607 98.817321,885.00767 97.681081,883.5671 z M 287.78502,847.2482 C 286.30012,844.98196 286.24477,843.89215 287.31526,837.9982 C 287.98266,834.32359 289.03391,829.60306 289.65138,827.50811 C 290.96795,823.04122 293.94774,820.90827 295.99198,822.96948 C 297.10767,824.09442 297.01002,825.7216 295.40099,832.8171 C 294.34085,837.4921 293.46191,842.6896 293.44779,844.3671 C 293.42337,847.26845 291.92569,849.8171 290.24517,849.8171 C 289.81785,849.8171 288.71078,848.66109 287.78502,847.2482 z M 92.936981,840.0671 C 89.713701,823.88759 89.829301,820.88491 93.619451,822.33933 C 95.765661,823.16291 96.959121,826.19276 98.915401,835.78418 C 100.77461,844.89965 100.0704,848.8171 96.572571,848.8171 C 94.993001,848.8171 94.391971,847.37055 92.936981,840.0671 z M 222.62212,602.6171 C 221.96212,601.9571 221.42212,600.90184 221.42212,600.27209 C 221.42212,598.62862 224.78506,595.8171 226.75086,595.8171 C 227.67005,595.8171 228.42212,595.13205 228.42212,594.29476 C 228.42212,593.45747 230.16265,590.86997 232.28996,588.54476 C 241.61446,578.3528 250.16799,563.20998 255.89623,546.75315 C 261.51527,530.61008 268.99448,518.85403 272.84125,520.11847 C 275.1109,520.86451 274.53907,525.12636 271.62478,529.18482 C 268.495,533.54339 265.12775,541.0375 261.45568,551.8171 C 255.08747,570.51133 237.61762,596.8171 231.57085,596.8171 C 230.35452,596.8171 229.08007,597.6046 228.73874,598.5671 C 228.0157,600.60591 225.40295,603.8171 224.46713,603.8171 C 224.11238,603.8171 223.28212,603.2771 222.62212,602.6171 z M 159.62212,601.6171 C 158.96212,600.9571 158.42212,599.6071 158.42212,598.6171 C 158.42212,597.37896 157.6657,596.8171 155.99885,596.8171 C 152.45196,596.8171 148.40934,592.94145 141.664,583.07433 C 134.26773,572.25502 129.28263,562.3219 124.72865,549.32965 C 120.81863,538.17457 119.42297,535.19143 115.28149,529.13692 C 111.7089,523.91408 111.51024,520.8171 114.74781,520.8171 C 119.30009,520.8171 125.49184,530.70042 130.79918,546.43841 C 136.11443,562.19985 144.46716,577.17133 153.82168,587.70401 C 156.35192,590.55293 158.42212,593.54384 158.42212,594.35048 C 158.42212,595.15712 159.25238,595.8171 160.26713,595.8171 C 162.71438,595.8171 165.81785,599.34346 165.07479,601.27985 C 164.37198,603.11134 161.30599,603.30097 159.62212,601.6171 z M 179.02638,501.66249 C 177.35562,499.27715 178.42611,495.8171 180.83486,495.8171 C 181.57316,495.8171 182.73743,495.1421 183.42212,494.3171 C 184.91751,492.51527 188.55961,492.35459 190.22212,494.0171 C 192.21117,496.00615 191.64811,500.5454 189.19961,502.2604 C 185.9181,504.55886 180.84629,504.26078 179.02638,501.66249 z M 133.78291,455.31493 C 133.41497,454.35608 135.14437,451.90275 138.5643,448.53205 C 141.64173,445.49891 145.27822,440.49882 147.1083,436.78422 C 150.81252,429.26562 155.87692,417.42079 156.92818,413.8171 C 158.59304,408.11 168.19908,390.2173 171.78662,386.14101 C 175.88364,381.48585 180.06639,378.8171 183.26547,378.8171 C 187.39282,378.8171 186.29949,381.76008 179.62443,388.61794 C 174.63406,393.74496 171.74317,397.90649 168.30651,404.91044 C 165.76793,410.0841 163.35288,415.4421 162.93972,416.8171 C 159.21189,429.22367 146.92316,451.95189 142.12644,455.31165 C 139.35215,457.25484 134.52805,457.25673 133.78291,455.31493 z M 244.64225,455.25873 C 239.49322,451.65221 230.3957,434.9896 224.47272,418.3171 C 220.19534,406.27677 213.95929,395.54204 207.21981,388.61798 C 203.28563,384.57603 200.73625,381.16207 201.04713,380.35192 C 201.89029,378.15469 204.33091,377.71685 207.23547,379.24176 C 214.42299,383.01523 222.58361,395.4066 229.60754,413.21229 C 237.23212,432.54063 243.16409,443.68248 248.60993,448.90389 C 251.90293,452.06119 253.45746,454.28263 253.0737,455.28268 C 252.3078,457.27859 247.50653,457.26495 244.64225,455.25873 z M 63.386941,1196.8829 C 64.691551,1194.4452 64.706101,1193.5237 63.427501,1194.3139 C 61.821511,1195.3064 60.203271,1198.8172 61.351751,1198.8172 C 61.901751,1198.8172 62.817591,1197.9468 63.386941,1196.8829 z M 325.45193,1196.8729 C 324.37776,1194.8658 322.42212,1193.2205 322.42212,1194.3239 C 322.42212,1195.6978 324.55369,1198.8172 325.49249,1198.8172 C 326.14525,1198.8172 326.13116,1198.1421 325.45193,1196.8729 z M 122.2901,1152.7617 C 124.28771,1151.0812 126.9842,1148.8211 128.28229,1147.7392 C 130.37589,1145.9943 130.56517,1145.2382 129.95814,1141.0446 C 128.76375,1132.7934 127.22633,1127.8171 125.8715,1127.8171 C 122.44823,1127.8171 116.42212,1142.3908 116.42212,1150.6698 C 116.42212,1156.7035 117.25254,1156.9995 122.2901,1152.7617 z M 270.42212,1150.4207 C 270.42212,1144.401 265.89296,1131.8434 262.49698,1128.4475 C 260.51258,1126.4631 260.50676,1126.4642 259.52696,1129.0412 C 257.90125,1133.3173 256.27576,1143.7806 256.92124,1145.8143 C 257.25352,1146.8612 258.99425,1148.6256 260.78954,1149.7352 C 262.58483,1150.8447 264.88134,1152.6671 265.8929,1153.7848 C 269.11174,1157.3416 270.42212,1156.3683 270.42212,1150.4207 z M 87.422121,709.81996 C 87.422121,708.72154 85.889081,704.55904 84.015371,700.56996 C 76.840491,685.29485 73.504531,674.99837 71.945791,663.3171 C 70.841391,655.0407 70.366801,653.98201 66.823971,651.89169 C 62.672921,649.44251 62.343501,646.17904 65.909191,642.82925 C 68.196461,640.68047 68.716021,640.58858 72.376921,641.68541 C 74.748551,642.39597 79.907471,645.9113 85.139851,650.3822 C 89.970101,654.50949 94.473161,658.32781 95.146661,658.86737 C 95.820151,659.40692 98.312601,660.11448 100.68543,660.43971 C 103.91298,660.8821 105.32557,660.63836 106.29351,659.47206 C 108.12926,657.26013 106.80095,654.06436 103.29151,652.24956 C 95.110391,648.01894 90.142761,641.09675 83.963721,625.3171 C 81.093591,617.98755 77.249451,613.12828 71.501721,609.56426 C 69.620511,608.39777 65.641201,605.17228 62.658811,602.39651 C 57.821671,597.89448 57.291971,597.00652 57.752101,594.17107 C 58.035801,592.42285 57.659971,576.45769 56.916931,558.69295 C 56.173881,540.92821 55.743411,526.10625 55.960331,525.75528 C 56.177241,525.4043 57.269891,519.22968 58.388421,512.0339 C 60.711761,497.08735 61.358171,460.51365 59.321251,459.25476 C 56.927051,457.77506 54.283921,462.42641 53.366321,469.7342 C 52.321101,478.05835 51.988281,478.8171 49.382161,478.8171 C 46.822841,478.8171 45.993661,475.1905 46.796581,467.50852 C 47.572911,460.081 51.584381,452.95243 58.890811,446.01646 C 63.114581,442.00686 64.362011,439.93099 66.662841,433.0829 C 68.170241,428.59634 70.107241,420.84792 70.967291,415.86419 C 71.906581,410.42133 73.750551,404.34487 75.584961,400.64761 C 78.565221,394.64085 78.623301,394.24904 77.992741,384.40474 C 77.547251,377.44972 77.944171,368.21928 79.270901,354.68092 C 81.288161,334.09617 81.158751,331.56689 77.575201,321.53871 C 76.439511,318.3606 74.331621,310.96159 72.890991,305.09646 C 69.815851,292.57684 70.099891,287.8171 73.922121,287.8171 C 75.939381,287.8171 76.423251,288.42739 76.895321,291.5671 C 79.921701,311.69534 89.573971,337.64498 95.879381,342.60482 C 101.10893,346.71838 110.18471,347.91563 137.71193,348.12321 C 151.85298,348.22985 163.53525,348.06398 163.67252,347.75462 C 163.8098,347.44525 167.70702,346.45523 172.33301,345.55458 C 180.31891,343.99977 180.98728,343.66185 185.56054,338.86706 C 190.12628,334.08016 193.551,332.59857 194.92212,334.8171 C 195.26204,335.3671 196.43508,335.8171 197.52889,335.8171 C 198.62269,335.8171 200.54304,336.92355 201.79633,338.27587 C 204.54341,341.24002 206.63475,342.07567 219.41108,345.3143 C 228.50686,347.61996 231.06637,347.8171 251.90593,347.8171 C 276.3441,347.8171 285.95969,346.54189 290.91546,342.64368 C 296.46577,338.2778 305.90796,314.49212 308.88818,297.36887 C 310.431,288.50433 311.47995,286.51832 314.09007,287.51992 C 317.71969,288.91274 316.11486,301.35578 309.90585,319.9621 C 305.89739,331.97414 305.77706,334.3917 308.02783,357.69349 C 309.04275,368.20079 309.40786,377.99639 309.02016,384.3171 C 308.42563,394.0099 308.50106,394.51582 311.47544,400.78585 C 313.1632,404.34366 315.18612,410.93622 315.97081,415.43598 C 316.7555,419.93573 318.59849,427.37479 320.06635,431.96722 C 322.37904,439.20288 323.55899,441.19631 328.90884,446.90584 C 336.99214,455.5326 340.42212,462.39235 340.42212,469.93166 C 340.42212,476.90283 339.76547,478.8171 337.37415,478.8171 C 334.86316,478.8171 334.51712,478.01039 333.47792,469.7342 C 332.83024,464.57605 331.97227,461.92427 330.46436,460.42004 C 328.64055,458.60068 328.21761,458.51938 327.32797,459.8171 C 325.68312,462.21647 326.95636,503.45973 329.02591,514.8171 C 331.10804,526.24351 331.15258,528.4445 329.94673,560.3171 C 329.42652,574.0671 328.98316,588.08995 328.9615,591.479 C 328.91542,598.68877 328.04875,599.88975 316.74185,608.41226 C 307.60795,615.29688 306.40544,616.88471 302.01171,627.86237 C 296.46249,641.727 295.51492,642.98234 282.53775,653.66138 C 279.47783,656.17942 279.27176,656.66764 280.3883,658.7539 C 281.48191,660.79734 282.12957,660.99198 286.04814,660.45488 C 288.48184,660.12131 291.02409,659.40857 291.69758,658.87101 C 292.37108,658.33346 296.2213,655.06392 300.25364,651.60537 C 313.02199,640.65391 317.4958,638.83307 321.38316,643.00566 C 324.49966,646.35083 324.00512,649.54057 320.00395,651.90132 C 316.86362,653.75416 316.4895,654.50327 315.40114,661.11759 C 312.75249,677.21441 306.93916,694.96531 301.25352,704.3171 C 299.04463,707.95029 298.85369,711.8171 300.88316,711.8171 C 302.85465,711.8171 305.71468,708.67252 311.34256,700.3171 C 316.52543,692.62235 319.3867,686.10175 322.44253,675.02109 C 325.46897,664.04703 331.22636,656.53742 333.02329,661.22015 C 333.31941,661.99182 332.67162,664.36787 331.58377,666.50024 C 330.49591,668.63262 328.84928,673.06375 327.92458,676.3472 C 325.27244,685.76452 321.51982,694.75024 317.16961,702.10016 C 314.96152,705.83084 313.40001,709.12833 313.69959,709.4279 C 314.39098,710.1193 321.87416,703.39538 324.46917,699.75102 C 325.54952,698.23381 327.52815,692.7905 328.86611,687.65477 C 333.09588,671.41897 336.67809,665.24684 340.48975,667.62726 C 341.53763,668.28167 343.27453,668.8171 344.34953,668.8171 C 347.60744,668.8171 347.64568,670.47149 344.55132,677.54547 C 341.6371,684.20763 339.63188,691.8171 340.79051,691.8171 C 341.11554,691.8171 342.32826,689.96123 343.48545,687.69295 C 344.64264,685.42467 346.83728,681.84622 348.36241,679.74082 C 349.88755,677.63543 351.61789,673.9788 352.20761,671.61497 C 355.24012,659.45942 356.75179,633.87513 355.39484,617.67267 C 355.00896,613.06515 355.27695,611.63605 356.85366,609.89333 C 358.01806,608.60633 359.2604,604.89061 359.98165,600.53775 C 363.97781,576.42056 365.01209,570.97215 367.99649,558.3171 C 369.81236,550.6171 371.80234,541.3921 372.41867,537.8171 C 373.035,534.2421 373.96378,529.5171 374.48264,527.3171 C 379.82507,504.6646 382.00593,486.03756 381.09767,470.8171 C 380.47545,460.38994 379.29434,454.28438 373.84338,433.3171 L 370.20373,419.3171 L 369.91955,392.8171 C 369.63429,366.21729 367.59673,341.8804 365.29486,337.57932 C 364.19505,335.5243 364.11524,335.51629 362.79048,337.32801 C 362.03788,338.35725 361.42212,340.63325 361.42212,342.38578 C 361.42212,346.46436 359.11092,348.63364 356.80472,346.71967 C 354.89719,345.13656 355.28117,336.52401 357.84809,323.3171 C 360.23477,311.03755 360.91819,294.43429 359.43059,284.87153 C 356.49374,265.99265 337.35525,240.56858 318.80027,230.89719 C 315.06783,228.95173 314.08537,228.8887 301.94091,229.81567 C 290.95101,230.6545 288.70332,230.57614 286.73354,229.28549 C 283.8163,227.37405 283.79617,225.48704 286.67212,223.5298 L 288.92212,221.99856 L 283.92212,216.83727 C 281.17212,213.99856 274.56194,208.95218 269.23283,205.62309 C 263.90372,202.29399 256.96933,197.39362 253.82308,194.73336 C 250.67683,192.0731 247.72375,190.13068 247.26069,190.41687 C 246.79763,190.70305 246.70539,193.37595 247.05571,196.35663 C 247.5919,200.91872 247.4217,201.88003 245.97985,202.43332 C 241.63196,204.10176 239.42212,195.84567 239.42212,177.93331 C 239.42212,170.40023 239.00426,164.67689 238.42828,164.32091 C 237.53241,163.76724 231.67649,168.82051 216.85193,182.93988 C 214.06333,185.59584 210.23833,188.39926 208.35193,189.16972 C 203.14286,191.29725 189.36553,192.15413 182.66475,190.76735 C 177.47049,189.69235 176.28632,188.91672 170.26397,182.64486 C 166.24,178.4542 163.33667,176.14636 162.92552,176.81161 C 162.55136,177.41701 162.50532,183.51858 162.8232,190.37066 C 163.29082,200.45022 163.09603,203.5916 161.80307,206.82304 C 160.92411,209.01977 159.85631,210.8171 159.43017,210.8171 C 159.00404,210.8171 158.41072,211.7527 158.11168,212.89621 C 157.72079,214.391 156.91514,214.88265 155.24505,214.6456 C 153.25435,214.36304 152.96299,213.81743 153.2079,210.83071 C 153.36508,208.91386 153.92758,206.91164 154.4579,206.38132 C 155.68163,205.15759 155.72284,200.8171 154.51073,200.8171 C 154.00947,200.8171 149.84697,202.43157 145.26073,204.40481 C 140.6745,206.37805 131.71927,209.7149 125.36023,211.82003 C 119.0012,213.92517 112.43627,216.4732 110.77151,217.48232 C 102.92026,222.24151 99.399411,224.97134 99.954341,225.86924 C 100.28763,226.4085 100.97922,226.59083 101.49122,226.27439 C 102.00321,225.95796 102.42212,226.3566 102.42212,227.16026 C 102.42212,229.94436 97.260011,230.64801 84.009261,229.67013 C 71.770251,228.76692 71.158481,228.81515 67.609071,230.96311 C 48.497661,242.52858 31.506381,264.5737 27.743021,282.6868 C 25.847961,291.80779 26.453131,311.64861 29.012811,324.3171 C 29.901831,328.7171 30.858561,335.61441 31.138871,339.64445 L 31.648531,346.97179 L 28.785331,346.64445 C 26.240941,346.35355 25.858671,345.84165 25.352251,342.04723 C 24.652461,336.8039 23.028211,334.8009 21.632221,337.45974 C 18.878161,342.70518 17.189751,362.87735 16.915111,393.8171 L 16.688751,419.3171 L 12.934251,433.3171 C 9.2745512,446.96356 8.6223912,449.89017 6.4719712,462.3171 C 3.8902712,477.23637 5.9981212,500.52197 12.355881,527.3171 C 12.877881,529.5171 13.809241,534.2421 14.425571,537.8171 C 15.041901,541.3921 17.028571,550.6171 18.840401,558.3171 C 21.947671,571.52258 24.464331,585.01551 26.580861,599.8171 C 27.124461,603.61872 28.398511,607.54503 29.649861,609.27499 C 31.968111,612.47995 32.004641,613.06589 30.885261,629.08818 C 30.324921,637.1085 30.571531,643.36541 31.850881,653.58818 C 34.026181,670.97011 35.048151,675.00077 38.481831,679.74082 C 40.006961,681.84622 42.263491,685.53717 43.496321,687.94295 C 44.729151,690.34873 45.919561,691.78382 46.141661,691.13204 C 46.678021,689.55808 42.629821,676.0635 41.391761,675.29834 C 40.858461,674.96874 40.422121,673.37562 40.422121,671.75808 C 40.422121,669.3559 40.843491,668.8171 42.722121,668.8171 C 43.987121,668.8171 45.531871,668.30735 46.154901,667.68432 C 46.777931,667.06129 48.019351,666.8323 48.913601,667.17546 C 50.965001,667.96265 56.088581,679.15423 57.563481,686.06961 C 59.271941,694.08005 62.729061,700.9426 67.031051,704.86319 C 74.852531,711.99122 75.215561,711.21993 68.956921,700.77149 C 66.501071,696.67158 63.074171,688.8171 61.341611,683.3171 C 59.609041,677.8171 57.073081,670.6849 55.706151,667.46776 C 54.167401,663.84626 53.576321,661.2629 54.154241,660.68498 C 56.863851,657.97537 61.760831,664.91155 64.386641,675.17837 C 67.808631,688.55822 74.324531,701.01034 82.381461,709.5671 C 85.005091,712.3535 87.422121,712.47475 87.422121,709.81996 z M 108.02782,341.89306 C 104.73128,341.23706 101.04187,336.93675 101.91461,334.7676 C 102.23559,333.96983 104.24199,332.51122 106.37329,331.52624 C 110.76001,329.49894 114.3493,329.97416 117.03092,332.93732 C 120.90044,337.2131 114.83414,343.24749 108.02782,341.89306 z M 272.70697,341.31663 C 268.06314,339.33255 267.22474,335.24379 270.82646,332.14572 C 274.06486,329.36017 276.1548,329.23632 280.59032,331.5671 C 286.06834,334.44569 286.45369,335.57929 283.17212,339.16215 C 280.28216,342.31744 276.75092,343.04442 272.70697,341.31663 z M 201.62212,307.6171 C 199.79237,305.78735 200.1613,304.03713 203.17212,300.2637 C 206.10925,296.58264 208.82556,295.82012 209.81513,298.39889 C 210.98112,301.43741 210.40367,303.92646 207.96757,306.36255 C 205.25681,309.07332 203.43794,309.43292 201.62212,307.6171 z M 202.43946,287.33799 C 201.52528,286.23648 201.48325,285.08049 202.27482,282.80981 C 202.85942,281.13283 203.12178,279.19801 202.85786,278.51023 C 202.59393,277.82245 203.03656,276.37262 203.84149,275.28841 C 207.04295,270.97608 211.40565,278.23974 209.36134,284.47867 C 207.96184,288.74972 204.72185,290.08811 202.43946,287.33799 z M 91.088791,252.15043 C 89.458141,250.51979 90.740171,248.14429 94.369161,246.07216 C 97.702771,244.16868 98.348041,243.25605 98.611451,240.07216 C 98.852181,237.16249 99.387841,236.25051 100.99074,236.02132 C 103.15533,235.71181 105.42212,239.14316 105.42212,242.72929 C 105.42212,247.92889 94.226201,255.28785 91.088791,252.15043 z M 285.46423,248.97194 C 282.51561,246.16698 281.42212,244.32502 281.42212,242.16307 C 281.42212,235.56315 287.62024,233.21014 288.23557,239.57646 C 288.43977,241.68919 289.43141,243.42895 291.08083,244.56827 C 298.19769,249.48417 298.91544,252.8171 292.85724,252.8171 C 290.33782,252.8171 288.50334,251.86297 285.46423,248.97194 z M 193.47909,236.87407 C 191.21472,234.6097 190.71702,230.2188 192.65163,229.57393 C 193.32787,229.34852 195.11703,229.63059 196.62756,230.20075 C 199.01031,231.10013 199.74856,230.87854 202.20277,228.52725 C 208.15596,222.82373 210.92135,226.34786 206.12464,233.52517 C 203.38679,237.62181 202.38628,238.36164 199.22909,238.62407 C 196.54927,238.84682 194.97171,238.36669 193.47909,236.87407 z M 115.42212,233.88725 C 110.31692,232.86643 107.24981,230.94071 107.63755,228.99963 C 107.93413,227.5149 109.32655,227.35837 119.48148,227.66816 C 126.82212,227.8921 134.05514,227.47554 139.45572,226.51782 C 164.9884,221.98991 168.71457,221.86019 169.23042,225.48121 C 169.61121,228.15421 169.41799,228.21581 152.44945,230.83082 C 145.03948,231.97277 137.16448,233.32584 134.94945,233.83765 C 130.36022,234.89804 120.60114,234.92283 115.42212,233.88725 z M 248.42212,233.40142 C 245.39712,232.67081 237.68365,231.28481 231.28107,230.32142 C 218.32241,228.37155 217.06464,227.90072 217.59233,225.19727 C 218.17131,222.23107 227.66107,222.69135 251.42212,226.83812 C 255.48562,227.54728 261.95172,227.71498 268.67212,227.2855 C 279.11906,226.61788 279.42212,226.65725 279.42212,228.68212 C 279.42212,230.00771 278.2766,231.35811 276.27342,232.394 C 272.0409,234.58272 255.75252,235.17189 248.42212,233.40142 z M 196.42212,220.50479 C 189.55036,217.24018 184.9242,212.27823 186.04039,209.3695 C 187.00819,206.84743 190.58809,207.58563 194.15496,211.04278 C 198.46624,215.22144 199.16376,214.76809 207.48991,202.37578 C 214.18935,192.4046 216.43278,190.22348 218.98286,191.20203 C 221.63036,192.21798 220.32909,195.2337 211.59777,208.3171 C 202.55665,221.86473 201.34052,222.84142 196.42212,220.50479 z M 62.422121,709.89383 C 62.422121,708.60458 57.442511,702.8171 56.333231,702.8171 C 54.744361,702.8171 55.340641,704.56682 58.011011,707.74037 C 60.569901,710.78143 62.422121,711.68567 62.422121,709.89383 z M 328.83323,707.74037 C 331.5036,704.56682 332.09988,702.8171 330.51101,702.8171 C 329.40173,702.8171 324.42212,708.60458 324.42212,709.89383 C 324.42212,711.68567 326.27434,710.78143 328.83323,707.74037 z M 69.811061,594.24592 C 70.717301,591.88429 73.465471,568.69627 72.939911,567.84589 C 72.486421,567.11213 73.513271,555.84364 75.468951,540.09245 C 76.030601,535.5689 78.018691,527.64508 79.886941,522.48397 C 83.096551,513.61727 83.207311,512.88568 81.896831,509.20862 C 81.134021,507.06828 80.492671,503.5171 80.471611,501.3171 C 80.418301,495.74817 83.931101,469.86361 85.967881,460.8171 C 89.111471,446.85463 89.008391,441.37519 85.353771,428.17322 C 83.548641,421.65235 81.645461,415.7546 81.124481,415.0671 C 79.624161,413.08726 78.510231,413.5958 77.838821,416.5671 C 75.882421,425.22503 71.033531,440.87411 69.240431,444.3171 C 67.309511,448.02474 67.134471,450.25402 66.845641,474.8171 C 66.609901,494.86562 66.057461,504.40685 64.576441,514.0085 C 62.883211,524.98603 62.681321,530.32016 63.081411,553.5085 C 63.520171,578.93771 64.219461,586.75751 66.618951,593.0671 C 67.795371,596.16053 68.917361,596.57488 69.811061,594.24592 z M 320.22529,593.0671 C 322.62083,586.7679 323.32877,578.96055 323.78431,553.8171 C 324.2015,530.79051 324.00165,525.54763 322.25959,513.8171 C 320.74221,503.5995 320.18628,493.99544 319.97315,474.3171 C 319.71212,450.21683 319.53917,448.02483 317.60608,444.3171 C 315.81136,440.87474 310.96406,425.23496 309.00542,416.5671 C 308.33401,413.5958 307.22008,413.08726 305.71976,415.0671 C 305.19878,415.7546 303.2956,421.65235 301.49047,428.17322 C 297.83585,441.37519 297.73277,446.85463 300.87636,460.8171 C 302.91314,469.86361 306.42594,495.74817 306.37263,501.3171 C 306.35157,503.5171 305.71022,507.06828 304.94741,509.20862 C 303.64019,512.87652 303.74922,513.62353 306.84483,522.20862 C 308.65122,527.21828 310.41277,532.8921 310.7594,534.8171 C 311.92759,541.30456 314.39171,567.05728 313.91767,567.8243 C 313.38266,568.68996 316.11349,591.84926 317.03318,594.24592 C 317.92688,596.57488 319.04887,596.16053 320.22529,593.0671 z M 201.24684,183.65254 C 207.15579,182.53365 213.24186,177.85024 228.87631,162.39082 C 235.39656,155.94356 237.57044,153.03663 239.27139,148.49042 C 242.74676,139.20167 241.99802,135.68633 237.02667,137.95143 C 235.0609,138.84709 234.13981,138.8277 232.98134,137.86626 C 231.65808,136.76805 231.71345,136.19104 233.45127,132.96924 C 234.53473,130.96057 236.75223,127.74211 238.37903,125.81711 C 241.7131,121.87191 244.42212,112.84643 244.42212,105.68374 C 244.42212,99.930135 242.07047,96.807971 232.70064,90.121804 C 225.63412,85.079238 223.49356,81.509475 220.91918,70.474081 C 219.26735,63.393336 218.93788,63.003716 216.12664,64.806616 C 206.33525,71.086051 199.62434,71.278538 185.6668,65.680286 L 182.41147,64.374606 L 174.6668,71.946373 C 166.06901,80.352204 162.55739,82.956503 157.51413,84.667205 C 155.63974,85.303009 153.47672,86.721838 152.70743,87.820157 C 151.93813,88.918476 150.20923,89.817101 148.86542,89.817101 C 146.83055,89.817101 146.42212,89.327548 146.42212,86.88853 C 146.42212,85.277815 145.65338,83.19122 144.71381,82.251651 C 143.10274,80.640576 142.96029,80.707656 142.21111,83.430223 C 140.77753,88.639909 143.35514,95.947511 145.88557,93.847441 C 149.94431,90.478981 154.41091,105.18034 151.05487,110.86167 C 148.83908,114.6127 148.99148,116.85423 151.93833,123.85562 C 153.32224,127.14365 154.71252,132.64259 155.02784,136.07549 C 155.62326,142.5578 157.66176,150.13381 160.03381,154.67995 C 160.7906,156.13039 161.41257,158.31614 161.41596,159.53717 C 161.4196,160.85013 162.67454,162.68319 164.48732,164.02343 C 166.17317,165.26984 168.26251,167.78584 169.13028,169.61453 C 172.11816,175.91103 178.49884,181.82125 184.42212,183.77889 C 189.8927,185.58691 191.07831,185.57801 201.24684,183.65254 z M 186.42212,170.56447 C 183.1959,168.87854 183.0225,165.28855 186.17212,165.38854 C 187.40962,165.42782 191.12212,165.54032 194.42212,165.63854 C 200.48778,165.81906 202.11639,167.17769 199.17212,169.60108 C 196.99601,171.3922 189.14177,171.98567 186.42212,170.56447 z M 171.58068,160.21561 C 169.30899,158.62446 168.75578,156.34696 170.39492,155.33392 C 172.98228,153.73484 186.64288,151.29247 192.42212,151.39568 C 201.48793,151.55759 209.18833,152.83048 210.47407,154.3797 C 212.08318,156.31856 210.00489,159.53293 206.68044,160.24708 C 205.16336,160.57298 197.13097,161.0394 188.83068,161.28358 C 176.46036,161.64748 173.35003,161.45492 171.58068,160.21561 z M 176.24994,144.69555 C 172.73182,143.3879 171.32959,139.30121 173.00849,135.24865 C 175.88445,128.30664 179.91799,128.32761 178.87554,135.27915 L 178.23301,139.56386 L 184.86284,140.27386 C 190.68563,140.89743 195.36499,140.37208 203.18798,138.2165 C 204.08324,137.96982 204.2654,136.68922 203.81017,133.84241 C 203.224,130.1767 203.36114,129.81711 205.34534,129.81711 C 206.90215,129.81711 207.95402,130.84588 209.02985,133.4207 C 210.81631,137.6963 210.13405,141.89141 207.37168,143.61653 C 204.83297,145.20199 179.93492,146.06522 176.24994,144.69555 z M 184.67268,135.11406 C 183.73876,134.7678 183.58449,132.55296 184.06178,126.34359 C 184.67015,118.42892 184.59381,117.97937 182.44638,116.83009 C 181.15667,116.13986 178.85123,115.8965 177.05728,116.26123 C 172.11158,117.26673 171.22684,117.19354 165.92212,115.34001 C 157.36688,112.35072 155.94177,111.42187 155.61398,108.62141 C 155.32301,106.13549 157.37828,104.41897 160.06856,104.90101 C 160.53802,104.98513 165.19712,104.98635 170.42212,104.90373 C 179.00698,104.76797 179.73513,104.61207 177.98099,103.28531 C 176.64441,102.27437 173.51166,101.81711 167.92212,101.81711 C 159.20355,101.81711 155.59562,100.41331 156.72826,97.461711 C 157.25558,96.087521 159.00103,95.817101 167.34368,95.817101 C 172.83506,95.817101 178.36169,96.301771 179.62507,96.894151 C 180.88845,97.486531 183.47244,100.05913 185.36729,102.61102 C 189.66606,108.40043 190.97587,116.08564 189.40759,126.31711 C 188.32168,133.40162 186.94625,135.95702 184.67268,135.11406 z M 208.17212,115.10732 C 204.02583,114.75834 203.42212,114.42053 203.42212,112.44941 C 203.42212,111.20745 204.65998,109.00535 206.17291,107.55587 C 209.9696,103.91841 215.57145,103.19436 223.24943,105.34869 C 228.43199,106.80285 229.42212,107.43567 229.42212,109.2939 C 229.42212,110.51118 228.63462,112.19899 227.67212,113.04459 C 225.76223,114.7225 215.94202,115.7613 208.17212,115.10732 z M 223.80213,102.31937 C 220.63157,101.31894 217.67421,101.25341 210.96886,102.03497 C 201.90402,103.09156 199.81537,102.56185 200.98883,99.503855 C 201.89433,97.144171 207.67002,95.829101 217.15634,95.822681 C 224.90387,95.817431 225.5836,95.993531 228.65634,98.802085 C 231.39364,101.30403 231.67939,101.94885 230.42212,102.78678 C 228.67288,103.9526 229.06619,103.98037 223.80213,102.31937 z M 260.42611,112.80748 C 261.65128,109.84967 261.0064,105.81711 259.30822,105.81711 C 258.7697,105.81711 257.56253,107.21628 256.62561,108.92639 C 255.68869,110.63649 253.69281,113.89899 252.19032,116.17639 C 250.68783,118.45378 249.45033,121.1314 249.44032,122.12664 C 249.41491,124.6534 258.82628,116.66981 260.42611,112.80748 z M 254.44687,97.252001 C 254.98326,95.841201 255.42212,91.370491 255.42212,87.317101 C 255.42212,78.496075 256.59211,74.817101 259.39737,74.817101 C 260.51098,74.817101 261.46444,75.154601 261.51617,75.567101 C 261.5679,75.979601 261.75272,79.389414 261.92687,83.144464 C 262.10102,86.899514 262.49783,90.226139 262.80865,90.536965 C 263.97011,91.698427 266.36653,88.500539 267.98403,83.630708 C 270.2189,76.902141 269.5024,70.04791 266.01298,64.775036 C 263.62434,61.165566 262.97059,60.757366 260.4612,61.308516 C 256.39434,62.201756 254.42212,59.021266 254.42212,51.569616 C 254.42212,41.736536 249.1804,29.877676 243.29828,26.403016 C 240.82328,24.940996 240.44316,24.938916 239.00256,26.379516 C 238.00678,27.375296 237.42212,29.712496 237.42212,32.697396 C 237.42212,38.138826 235.65645,41.210726 232.85602,40.641466 C 231.12353,40.289296 230.95,39.477996 231.18986,32.851486 C 231.33711,28.783206 230.96956,23.975856 230.37307,22.168476 C 228.85878,17.580146 220.43036,10.338026 213.65408,7.8026965 C 208.75257,5.9688065 207.21178,5.8165965 202.30264,6.6813265 C 195.88078,7.8125165 188.36729,11.333576 183.92212,15.295026 C 178.45254,20.169406 176.68253,20.912376 169.27158,21.444606 C 165.22937,21.734906 160.93196,22.451556 159.72176,23.037176 C 158.51156,23.622786 156.33458,26.625336 154.88402,29.709516 C 151.59648,36.699466 149.42584,39.059726 142.89568,42.745116 C 136.62332,46.285016 135.43422,48.796106 135.01529,59.386616 C 134.80212,64.775566 133.85503,69.684279 132.06005,74.703537 C 129.83369,80.929016 129.57709,82.678918 130.42749,85.837049 C 130.98243,87.89794 132.04219,90.086824 132.78251,90.701234 C 133.88271,91.61432 134.24511,90.43938 134.76678,84.26795 C 135.50259,75.563361 136.46392,73.256204 139.64181,72.568068 C 140.89598,72.296492 142.65295,71.765028 143.54618,71.387037 C 144.61991,70.932663 146.3142,71.748688 148.54618,73.795198 C 155.3758,80.057307 158.82422,78.795632 171.92212,65.242656 C 182.07717,54.734766 186.02422,52.842106 194.42212,54.453586 C 198.59059,55.253486 198.91625,55.538116 198.84247,58.317106 C 198.68692,64.176056 203.43828,64.344536 211.97481,58.782766 C 215.38049,56.563886 220.05115,52.513886 222.35406,49.782766 C 229.29909,41.546376 233.1773,43.580706 229.60604,53.586816 C 226.4761,62.356436 226.14087,66.186736 227.9437,72.580826 C 229.91485,79.57193 230.3858,80.191698 237.92212,85.7123 C 246.01902,91.643545 249.45416,94.881721 250.49801,97.567101 C 251.65489,100.54328 253.24374,100.41649 254.44687,97.252001 z "
     id="path1349" />
</svg>
