<?xml version="1.0" encoding="UTF-8" standalone="no"?>
<!-- Created with Inkscape (http://www.inkscape.org/) -->
<svg
   xmlns:dc="http://purl.org/dc/elements/1.1/"
   xmlns:cc="http://web.resource.org/cc/"
   xmlns:rdf="http://www.w3.org/1999/02/22-rdf-syntax-ns#"
   xmlns:svg="http://www.w3.org/2000/svg"
   xmlns="http://www.w3.org/2000/svg"
   xmlns:sodipodi="http://inkscape.sourceforge.net/DTD/sodipodi-0.dtd"
   xmlns:inkscape="http://www.inkscape.org/namespaces/inkscape"
   width="708.66138"
   height="708.66138"
   id="svg1395"
   sodipodi:version="0.32"
   inkscape:version="0.43+devel"
   sodipodi:docbase="/home/yug/Desktop"
   sodipodi:docname="No Shoes.svg"
   inkscape:export-filename="/home/yug/Desktop/No Shoes.png"
   inkscape:export-xdpi="76.834999"
   inkscape:export-ydpi="76.834999"
   version="1.0"
   inkscape:r_cx="true"
   inkscape:r_cy="true">
  <defs
     id="defs1397" />
  <sodipodi:namedview
     pagecolor="#ffffff"
     bordercolor="#666666"
     borderopacity="1.0"
     inkscape:pageopacity="0.0"
     inkscape:pageshadow="2"
     inkscape:zoom="0.88"
     inkscape:cx="214.375"
     inkscape:cy="192.47129"
     inkscape:document-units="pt"
     inkscape:current-layer="g5798"
     id="namedview1399"
     inkscape:window-width="1018"
     inkscape:window-height="736"
     inkscape:window-x="0"
     inkscape:window-y="0"
     width="20cm"
     height="20cm"
     units="cm" />
  <metadata
     id="metadata1401">
    <rdf:RDF>
      <cc:Work
         rdf:about="">
        <dc:format>image/svg+xml</dc:format>
        <dc:type
           rdf:resource="http://purl.org/dc/dcmitype/StillImage" />
      </cc:Work>
    </rdf:RDF>
  </metadata>
  <g
     inkscape:label="Layer 1"
     inkscape:groupmode="layer"
     id="layer1"
     inkscape:r_cx="true"
     inkscape:r_cy="true">
    <g
       id="g5798"
       transform="matrix(0.993312,0,0,0.993312,19.48268,14.56237)"
       inkscape:r_cx="true"
       inkscape:r_cy="true">
      <path
         transform="matrix(-1.048534,-1.048534,1.048534,-1.048534,356.7624,981.7171)"
         inkscape:r_cy="true"
         inkscape:r_cx="true"
         d="M 518.75 308.125 A 191.875 191.875 0 1 1  135,308.125 A 191.875 191.875 0 1 1  518.75 308.125 z"
         sodipodi:ry="191.875"
         sodipodi:rx="191.875"
         sodipodi:cy="308.125"
         sodipodi:cx="326.875"
         id="path1404"
         style="fill:#ffffff;fill-opacity:1;fill-rule:evenodd;stroke:#ff0000;stroke-width:36.25;stroke-linejoin:miter;stroke-miterlimit:4;stroke-dasharray:none;stroke-dashoffset:0;stroke-opacity:1"
         sodipodi:type="arc" />
      <path
         inkscape:r_cy="true"
         inkscape:r_cx="true"
         id="rect4033"
         d="M 269.47004,88.156203 C 258.79963,87.269724 249.1449,89.247434 242.03049,95.303592 C 219.8197,114.21056 230.17342,160.76921 243.98682,189.93223 C 258.36333,220.28413 322.2879,263.49825 322.28792,263.49825 L 388.17989,206.67086 C 388.17989,206.67086 361.73164,143.76747 336.7732,120.8093 C 319.37393,104.80452 292.11214,90.037272 269.47004,88.156203 z M 410.36933,231.00388 L 346.41078,290.00068 C 346.41078,290.00068 394.57434,357.82109 432.79425,324.28182 C 470.1684,291.48474 410.36933,231.00388 410.36933,231.00388 z "
         style="fill:#000000;fill-opacity:1;fill-rule:evenodd;stroke:none;stroke-width:36.25;stroke-linejoin:miter;stroke-miterlimit:4;stroke-dashoffset:0;stroke-opacity:1" />
      <path
         inkscape:r_cy="true"
         inkscape:r_cx="true"
         id="path4917"
         d="M 230.24239,352.27338 C 219.95058,355.22683 211.6238,360.49843 207.11813,368.68317 C 193.05151,394.23559 219.23668,434.10093 242.49057,456.47383 C 266.69248,479.75883 341.78441,497.50745 341.78441,497.50745 L 383.2541,421.01323 C 383.2541,421.01323 336.22573,371.56951 304.7499,358.94916 C 282.80722,350.15115 252.08102,346.00632 230.24239,352.27338 z M 412.62804,435.90066 L 373.73521,513.73811 C 373.73521,513.73811 442.81177,560.0821 466.66124,515.17275 C 489.98293,471.25721 412.62804,435.90066 412.62804,435.90066 z "
         style="fill:#000000;fill-opacity:1;fill-rule:evenodd;stroke:none;stroke-width:36.25;stroke-linejoin:miter;stroke-miterlimit:4;stroke-dashoffset:0;stroke-opacity:1" />
      <text
         inkscape:r_cy="true"
         inkscape:r_cx="true"
         sodipodi:linespacing="100%"
         id="text5792"
         y="681.22736"
         x="200.10074"
         style="font-size:35.58840561px;font-style:normal;font-variant:normal;font-weight:normal;font-stretch:normal;text-align:start;line-height:100%;writing-mode:lr-tb;text-anchor:start;fill:#000000;fill-opacity:1;stroke:none;stroke-width:1px;stroke-linecap:butt;stroke-linejoin:miter;stroke-opacity:1;font-family:San GunguSue Medium"
         xml:space="preserve"><tspan
           style="font-size:53.38261414px;font-style:normal;font-variant:normal;font-weight:normal;font-stretch:normal;text-align:start;line-height:100%;writing-mode:lr-tb;text-anchor:start;font-family:San GunguSue Medium"
           y="681.22736"
           x="200.10074"
           inkscape:r_cy="true"
           inkscape:r_cx="true"
           id="tspan5794"
           sodipodi:role="line">~ No Shoes ~</tspan></text>
      <rect
         transform="matrix(-0.707107,-0.707107,0.707107,-0.707107,0,0)"
         inkscape:r_cy="true"
         inkscape:r_cx="true"
         y="-267.17841"
         x="-489.97473"
         height="567.1911"
         width="59.314095"
         id="rect3154"
         style="fill:#ff0000;fill-opacity:1;fill-rule:evenodd;stroke:none;stroke-width:29;stroke-linejoin:miter;stroke-miterlimit:4;stroke-dasharray:none;stroke-dashoffset:0;stroke-opacity:1" />
    </g>
  </g>
</svg>
