<?xml version="1.0" encoding="UTF-8" standalone="no"?>
<!-- Created with Inkscape (http://www.inkscape.org/) -->
<svg
   xmlns:dc="http://purl.org/dc/elements/1.1/"
   xmlns:cc="http://web.resource.org/cc/"
   xmlns:rdf="http://www.w3.org/1999/02/22-rdf-syntax-ns#"
   xmlns:svg="http://www.w3.org/2000/svg"
   xmlns="http://www.w3.org/2000/svg"
   xmlns:sodipodi="http://sodipodi.sourceforge.net/DTD/sodipodi-0.dtd"
   xmlns:inkscape="http://www.inkscape.org/namespaces/inkscape"
   width="221.65112"
   height="143.03746"
   id="svg4199"
   sodipodi:version="0.32"
   inkscape:version="0.45"
   sodipodi:docbase="/home/simon/svg"
   sodipodi:docname="Pictgram_bicycle_man.svg"
   inkscape:output_extension="org.inkscape.output.svg.inkscape"
   version="1.0"
   sodipodi:modified="true">
  <defs
     id="defs4201" />
  <sodipodi:namedview
     id="base"
     pagecolor="#ffffff"
     bordercolor="#666666"
     borderopacity="1.0"
     inkscape:pageopacity="0.0"
     inkscape:pageshadow="2"
     inkscape:zoom="2.8"
     inkscape:cx="144.96685"
     inkscape:cy="61.177645"
     inkscape:document-units="px"
     inkscape:current-layer="layer2"
     inkscape:window-width="1672"
     inkscape:window-height="997"
     inkscape:window-x="0"
     inkscape:window-y="0" />
  <metadata
     id="metadata4204">
    <rdf:RDF>
      <cc:Work
         rdf:about="">
        <dc:format>image/svg+xml</dc:format>
        <dc:type
           rdf:resource="http://purl.org/dc/dcmitype/StillImage" />
      </cc:Work>
    </rdf:RDF>
  </metadata>
  <g
     inkscape:label="Ebene 1"
     inkscape:groupmode="layer"
     id="layer1"
     transform="translate(-144.28725,-385.40901)">
    <path
       style="fill:none;fill-rule:evenodd;stroke:#000000;stroke-width:3;stroke-linecap:butt;stroke-linejoin:miter;stroke-miterlimit:4;stroke-dasharray:none;stroke-opacity:1"
       d="M 164.0296,451.77174 C 206.43712,414.54457 254.20554,465.74537 207.3311,507.05314 C 160.59014,548.24324 121.48801,489.11649 164.0296,451.77174 z "
       id="path4209"
       sodipodi:nodetypes="czz" />
    <path
       sodipodi:nodetypes="czz"
       id="path4211"
       d="M 300.78962,456.35735 C 343.19714,419.13018 392.22825,471.84621 345.35381,513.15398 C 298.61285,554.34408 258.24803,493.7021 300.78962,456.35735 z "
       style="fill:none;fill-rule:evenodd;stroke:#000000;stroke-width:3;stroke-linecap:butt;stroke-linejoin:miter;stroke-miterlimit:4;stroke-dasharray:none;stroke-opacity:1" />
    <path
       style="fill:none;fill-rule:evenodd;stroke:#000000;stroke-width:3;stroke-linecap:butt;stroke-linejoin:miter;stroke-miterlimit:4;stroke-dasharray:none;stroke-opacity:1"
       d="M 319.9736,488.06089 C 337.23716,457.57986 343.26268,426.83713 336.07767,426.41005 C 259.20072,421.82435 187.98837,473.88495 183.94229,477.12181"
       id="path4251"
       sodipodi:nodetypes="csc" />
    <path
       style="fill:none;fill-rule:evenodd;stroke:#000000;stroke-width:3;stroke-linecap:round;stroke-linejoin:round;stroke-miterlimit:4;stroke-dasharray:none;stroke-opacity:1"
       d="M 234.75924,423.37828 C 223.69973,426.34546 219.10301,422.28207 219.10301,422.28207 C 219.10301,422.28207 226.73028,439.72941 228.88816,450.51915"
       id="path4253"
       sodipodi:nodetypes="ccc" />
    <path
       style="fill:none;fill-rule:evenodd;stroke:#000000;stroke-width:3;stroke-linecap:butt;stroke-linejoin:miter;stroke-miterlimit:4;stroke-dasharray:none;stroke-opacity:1"
       d="M 184.53767,476.67165 C 236.59827,464.53316 253.13425,479.0617 253.13425,479.0617 C 253.13425,479.0617 261.23157,447.8352 253.40288,440.00652"
       id="path5230"
       sodipodi:nodetypes="ccc" />
  </g>
  <g
     inkscape:groupmode="layer"
     id="layer2"
     inkscape:label="man"
     transform="translate(-144.28725,-385.40901)">
    <path
       style="fill:none;fill-rule:evenodd;stroke:#000000;stroke-width:12;stroke-linecap:round;stroke-linejoin:miter;stroke-miterlimit:4;stroke-dasharray:none;stroke-opacity:1"
       d="M 308.12757,395.11972 C 236.64554,392.15254 229.79868,411.84382 232.22641,412.38336 C 234.65406,412.92281 287.2541,432.61409 283.74739,438.54845 C 280.24076,444.48282 267.98796,471.90457 267.98796,471.90457"
       id="path5240"
       sodipodi:nodetypes="cssc" />
    <path
       style="fill:none;fill-rule:evenodd;stroke:#000000;stroke-width:12;stroke-linecap:round;stroke-linejoin:miter;stroke-miterlimit:4;stroke-dasharray:none;stroke-opacity:1"
       d="M 302.82485,407.0229 C 294.73252,427.79317 290.6692,432.2639 300.1102,432.2639 C 309.55127,432.2639 337.96595,423.1731 337.96595,423.1731"
       id="path5242"
       sodipodi:nodetypes="csc" />
    <path
       style="fill:none;fill-rule:evenodd;stroke:#000000;stroke-width:12;stroke-linecap:round;stroke-linejoin:miter;stroke-miterlimit:4;stroke-dasharray:none;stroke-opacity:1"
       d="M 241.69502,429.16058 C 255.18218,449.93085 259.63141,445.79719 259.09197,454.42896 C 258.26592,467.64533 244.38446,491.51006 244.38446,491.51006"
       id="path5244"
       sodipodi:nodetypes="ccc" />
    <path
       sodipodi:type="arc"
       style="fill:#000000;fill-opacity:1;fill-rule:evenodd;stroke:none;stroke-width:1.40432269;stroke-linecap:round;stroke-linejoin:round;stroke-miterlimit:4;stroke-dasharray:none;stroke-dashoffset:0;stroke-opacity:1"
       id="path5246"
       sodipodi:cx="165.64923"
       sodipodi:cy="387.17673"
       sodipodi:rx="2.1623578"
       sodipodi:ry="1.294258"
       d="M 167.81159 387.17673 A 2.1623578 1.294258 0 1 1  163.48687,387.17673 A 2.1623578 1.294258 0 1 1  167.81159 387.17673 z"
       transform="matrix(8.5450446,0,0,8.5450446,-1082.2347,-2911.9739)" />
  </g>
</svg>
