<?xml version="1.0" encoding="UTF-8" standalone="no"?>
<!-- Created with Inkscape (http://www.inkscape.org/) -->
<svg
   xmlns:dc="http://purl.org/dc/elements/1.1/"
   xmlns:cc="http://web.resource.org/cc/"
   xmlns:rdf="http://www.w3.org/1999/02/22-rdf-syntax-ns#"
   xmlns:svg="http://www.w3.org/2000/svg"
   xmlns="http://www.w3.org/2000/svg"
   xmlns:sodipodi="http://sodipodi.sourceforge.net/DTD/sodipodi-0.dtd"
   xmlns:inkscape="http://www.inkscape.org/namespaces/inkscape"
   width="142.42755"
   height="185.99261"
   id="svg13892"
   sodipodi:version="0.32"
   inkscape:version="0.45"
   sodipodi:modified="true"
   version="1.0">
  <defs
     id="defs13894" />
  <sodipodi:namedview
     id="base"
     pagecolor="#ffffff"
     bordercolor="#666666"
     borderopacity="1.0"
     inkscape:pageopacity="0.0"
     inkscape:pageshadow="2"
     inkscape:zoom="1.979899"
     inkscape:cx="134.67647"
     inkscape:cy="59.168808"
     inkscape:document-units="px"
     inkscape:current-layer="layer1"
     inkscape:window-width="1672"
     inkscape:window-height="997"
     inkscape:window-x="0"
     inkscape:window-y="0" />
  <metadata
     id="metadata13897">
    <rdf:RDF>
      <cc:Work
         rdf:about="">
        <dc:format>image/svg+xml</dc:format>
        <dc:type
           rdf:resource="http://purl.org/dc/dcmitype/StillImage" />
      </cc:Work>
    </rdf:RDF>
  </metadata>
  <g
     inkscape:label="Ebene 1"
     inkscape:groupmode="layer"
     id="layer1"
     transform="translate(-3.1205269,-11.775331)">
    <path
       style="fill:#000000"
       d="M 28.499639,191.12195 C 26.859619,187.46665 25.517779,184.34895 25.517779,184.19373 C 25.517779,184.03852 30.396409,181.17949 36.359189,177.84033 C 55.237729,167.26835 70.101979,154.77138 74.335209,145.91238 C 76.112729,142.19251 76.409839,142.13297 83.086279,144.15859 C 91.181439,146.61464 91.220159,146.69129 87.579769,153.05403 C 83.405699,160.34955 75.860919,168.54656 66.517779,175.9368 C 59.881089,181.18628 53.486499,185.22421 36.249639,195.04992 L 31.481499,197.76795 L 28.499639,191.12195 z M 115.64477,175.88356 L 110.27177,171.12679 L 116.00453,163.14459 C 123.19359,153.13464 129.37981,140.94809 130.15944,135.26013 C 130.66107,131.60032 130.39574,130.54034 128.50464,128.64924 C 126.43417,126.57877 125.59736,126.43967 118.1351,126.92553 C 113.43362,127.23164 103.28483,129.2135 94.017779,131.63516 C 75.837679,136.38597 70.054589,136.5978 64.790289,132.70573 C 53.622079,124.44872 60.726309,106.89381 87.880069,75.649739 L 96.742349,65.452479 L 102.13007,70.773269 C 105.09331,73.699709 107.51778,76.395319 107.51778,76.763529 C 107.51778,77.131739 103.7947,81.647119 99.244279,86.797689 C 84.326049,103.68348 76.517779,114.18331 76.517779,117.35816 C 76.517779,119.28267 79.783649,118.95829 87.925739,116.22508 C 102.46364,111.34487 119.17611,109.53791 129.432,111.7374 C 147.01901,115.50914 150.54559,132.83629 138.36354,155.62077 C 134.49713,162.85225 122.52904,180.62344 121.51778,180.63473 C 121.24278,180.6378 118.59993,178.49977 115.64477,175.88356 z M 6.0437619,88.008269 C 4.0398679,84.362639 2.7642479,81.042739 3.2090499,80.630719 C 7.1102149,77.017089 35.808219,62.140689 50.355939,56.190839 C 91.334229,39.431179 118.12334,41.845179 128.5775,63.239469 C 130.58265,67.342979 131.04592,70.047859 131.36081,79.490209 L 131.73857,90.818039 L 127.36196,90.161719 C 124.95482,89.800749 121.50948,89.203229 119.70566,88.833899 L 116.42599,88.162379 L 116.21435,80.162379 C 115.95216,70.251779 113.87671,66.127809 107.53301,62.912379 C 93.625569,55.863119 60.736479,65.906709 16.852492,90.604159 L 9.6872039,94.636699 L 6.0437619,88.008269 z M 110.17671,43.608729 C 103.91511,38.683359 104.47429,26.036919 111.2871,18.495959 C 117.25733,11.887619 121.98118,10.299299 127.37275,13.087389 C 137.1065,18.120899 132.10837,40.084819 120.20268,44.595769 C 116.00646,46.185669 113.08742,45.898299 110.17671,43.608729 z "
       id="path13945" />
  </g>
</svg>
