<?xml version="1.0" encoding="UTF-8" standalone="no"?>
<!-- Created with Inkscape (http://www.inkscape.org/) -->
<svg
   xmlns:dc="http://purl.org/dc/elements/1.1/"
   xmlns:cc="http://web.resource.org/cc/"
   xmlns:rdf="http://www.w3.org/1999/02/22-rdf-syntax-ns#"
   xmlns:svg="http://www.w3.org/2000/svg"
   xmlns="http://www.w3.org/2000/svg"
   xmlns:sodipodi="http://inkscape.sourceforge.net/DTD/sodipodi-0.dtd"
   xmlns:inkscape="http://www.inkscape.org/namespaces/inkscape"
   id="svg1306"
   sodipodi:version="0.32"
   inkscape:version="0.43"
   width="762.89001pt"
   height="301.28pt"
   sodipodi:docbase="C:\Dokumente und Einstellungen\User\Eigene Dateien\Eigene Bilder\0-wiki\Uploader"
   sodipodi:docname="WRDK.svg"
   version="1.0">
  <metadata
     id="metadata1311">
    <rdf:RDF>
      <cc:Work
         rdf:about="">
        <dc:format>image/svg+xml</dc:format>
        <dc:type
           rdf:resource="http://purl.org/dc/dcmitype/StillImage" />
      </cc:Work>
    </rdf:RDF>
  </metadata>
  <defs
     id="defs1309" />
  <sodipodi:namedview
     inkscape:window-height="975"
     inkscape:window-width="1280"
     inkscape:pageshadow="2"
     inkscape:pageopacity="0.0"
     borderopacity="1.0"
     bordercolor="#666666"
     pagecolor="#ffffff"
     id="base"
     inkscape:zoom="0.50259871"
     inkscape:cx="947.45281"
     inkscape:cy="489.02236"
     inkscape:window-x="-4"
     inkscape:window-y="-4"
     inkscape:current-layer="svg1306" />
  <path
     style="fill:none;fill-opacity:0.75;fill-rule:evenodd;stroke:#000000;stroke-width:4;stroke-linecap:butt;stroke-linejoin:miter;stroke-miterlimit:4;stroke-dasharray:none;stroke-opacity:1"
     d="M 58.12786,188.97903 C 58.12786,188.97903 60.225972,173.20375 67.272732,170.68932 C 80.274562,166.04997 116.2513,161.06617 155.90751,157.32375 C 232.83395,150.06408 420.40495,154.50995 420.40495,154.50995 C 420.40495,154.50995 467.53197,127.50397 471.75685,126.37192 C 488.94162,121.76727 479.67067,121.97535 498.48798,123.55812 C 517.30528,125.14088 497.4328,121.79949 547.02607,132.70298 C 596.61934,143.60646 696.86106,167.17206 696.86106,167.17206 C 696.86106,167.17206 708.81972,167.87551 717.96458,158.0272 C 752.82827,120.4817 843.1788,23.668131 843.1788,23.668131 C 843.1788,23.668131 858.30298,12.061201 871.31682,11.006021 C 884.33066,9.9508411 892.27409,15.866141 895.23415,19.447421 C 905.39167,31.736701 909.47902,40.023361 914.22731,52.509611 C 926.17212,83.920031 930.09703,127.1857 932.51703,155.2134 C 935.7631,192.80831 937.44119,205.86185 937.44119,205.86185 L 940.95844,205.86185 L 940.95844,262.84135 C 940.95844,262.84135 883.80308,276.7345 829.10979,286.05522 C 774.4165,295.37594 770.37166,294.14491 722.18529,298.01389 C 673.99892,301.88287 714.09561,299.94838 636.36431,301.53114 C 558.63301,303.1139 523.8122,304.16908 411.26009,304.34494 C 298.70798,304.5208 258.57049,301.27567 186.15588,302.23459 C 166.08155,302.50042 142.01435,296.43112 110.18321,286.75867 C 78.352072,277.08622 58.83132,263.5448 58.83132,263.5448 L 58.83132,247.36544 L 53.90716,244.55163 L 52.50026,365.54515 L 48.27956,245.25509 C 48.27956,245.25509 31.220878,238.74816 21.54843,231.18607 C 11.875982,223.62397 10.056363,221.08906 9.5897686,215.00671 C 9.0280966,207.68496 9.1406466,207.80152 13.713077,202.87736 C 18.285506,197.95321 19.062003,198.43295 27.879486,195.31009 C 36.696969,192.18723 48.98301,190.38593 48.98301,190.38593 L 52.50026,67.985521 L 54.61061,191.08938 L 58.12786,188.97903 z "
     id="path1315"
     sodipodi:nodetypes="csscssscscsssscccsssssscccccsssscccc" />
  <path
     style="fill:none;fill-opacity:0.75;fill-rule:evenodd;stroke:#c4b200;stroke-width:4;stroke-linecap:butt;stroke-linejoin:miter;stroke-miterlimit:4;stroke-dasharray:none;stroke-opacity:1"
     d="M 197.41109,166.46861 L 197.41109,174.91002 L 165.75582,174.91002 L 166.45927,179.13072 L 139.02469,179.83417 L 138.32124,184.05488 L 91.893502,184.05488 C 91.893502,184.05488 77.824482,188.27558 77.121032,196.71699 C 76.417582,205.1584 90.486592,217.82051 90.486592,217.82051 L 90.486592,259.3241 L 130.58328,275.50346 L 262.83201,276.91037 L 308.5563,262.84135 L 314.88735,222.74466 L 327.54947,220.63431 L 327.54947,204.45495 L 314.1839,204.45495 L 313.48045,179.13072 L 249.46644,179.13072 L 246.65264,165.76516 L 197.41109,166.46861 z "
     id="path2190"
     sodipodi:nodetypes="cccccccsccccccccccccc" />
  <path
     style="fill:none;fill-opacity:0.75;fill-rule:evenodd;stroke:#006383;stroke-width:4;stroke-linecap:butt;stroke-linejoin:miter;stroke-miterlimit:4;stroke-dasharray:none;stroke-opacity:1"
     d="M 58.12786,247.36544 C 58.12786,247.36544 133.38084,277.16501 145.35575,282.53797 C 155.28397,286.99261 276.90102,286.05522 276.90102,286.05522 C 276.90102,286.05522 331.89731,288.00106 370.45996,279.02072 C 408.97388,270.05172 447.13608,256.51029 447.13608,256.51029 L 475.2741,255.80685 L 475.97756,263.5448 L 460.50164,264.9517 C 460.50164,264.9517 444.7158,264.76911 445.02572,278.31726 C 445.33752,291.94779 459.79819,293.79318 459.79819,293.79318 L 474.57065,294.49663 L 474.57065,303.64149 L 449.24643,302.93804 L 430.95671,290.27593 C 430.95671,290.27593 384.52897,298.54148 365.5358,299.42079 C 300.84726,302.41563 231.25309,297.41898 172.08687,299.42078 C 164.86136,299.66525 128.47293,288.86902 128.47293,288.86902 L 94.707302,276.91036 L 58.12786,256.5103 L 58.12786,256.5103 L 58.12786,256.5103"
     id="path2192"
     sodipodi:nodetypes="cscsccccscccccssccccc" />
  <path
     style="fill:none;fill-opacity:0.75;fill-rule:evenodd;stroke:#008f00;stroke-width:4;stroke-linecap:butt;stroke-linejoin:miter;stroke-miterlimit:4;stroke-dasharray:none;stroke-opacity:1"
     d="M 478.79136,255.10339 L 478.79136,267.06206 L 454.87404,268.46896 C 454.87404,268.46896 447.13608,272.86553 447.13608,278.31727 C 447.13608,283.76901 454.87404,290.27593 454.87404,290.27593 L 476.68101,290.97938 L 477.38446,302.93804 L 495.67417,302.93804 L 495.67417,295.90353 L 523.8122,295.20008 L 547.72952,280.42762 L 524.51565,266.35861 L 499.19143,266.3586 L 499.19143,255.80684 L 478.79136,255.10339 z "
     id="path2194"
     sodipodi:nodetypes="cccsccccccccccc" />
  <path
     style="fill:none;fill-opacity:0.75;fill-rule:evenodd;stroke:#008c00;stroke-width:4;stroke-linecap:butt;stroke-linejoin:miter;stroke-miterlimit:4;stroke-dasharray:none;stroke-opacity:1"
     d="M 310.66665,246.66199 L 498.48798,248.06889 L 499.19143,252.99304 L 309.9632,253.69649"
     id="path2196" />
  <g
     id="g2236"
     style="stroke:#ff8000;stroke-opacity:1"
     transform="translate(-53.72079,-149.2245)">
    <path
       id="path2198"
       d="M 555.72602,404.32781 L 622.55383,404.32781 L 622.55383,364.23113 L 722.44383,362.82423 L 721.74037,362.82423"
       style="fill:none;fill-opacity:0.75;fill-rule:evenodd;stroke:#ff8000;stroke-width:4;stroke-linecap:butt;stroke-linejoin:miter;stroke-miterlimit:4;stroke-dasharray:none;stroke-opacity:1" />
    <path
       id="path2200"
       d="M 552.20877,450.75556 L 705.56101,447.94176 L 705.56101,415.58303 L 723.14728,415.58303 L 723.14728,415.58303"
       style="fill:none;fill-opacity:0.75;fill-rule:evenodd;stroke:#ff8000;stroke-width:4;stroke-linecap:butt;stroke-linejoin:miter;stroke-miterlimit:4;stroke-dasharray:none;stroke-opacity:1" />
  </g>
  <path
     style="fill:none;fill-opacity:0.75;fill-rule:evenodd;stroke:#000000;stroke-width:1px;stroke-linecap:butt;stroke-linejoin:miter;stroke-opacity:1"
     d="M 617.37114,222.74466 L 607.52283,235.40678"
     id="path2202" />
  <path
     id="path2204"
     d="M 617.37114,222.74466 L 607.52283,235.40678"
     style="fill:none;fill-opacity:0.75;fill-rule:evenodd;stroke:#000000;stroke-width:1px;stroke-linecap:butt;stroke-linejoin:miter;stroke-opacity:1" />
  <g
     id="g2214"
     transform="translate(-53.72079,-149.2245)">
    <path
       id="path2206"
       d="M 671.09193,371.96908 L 661.24362,384.6312"
       style="fill:none;fill-opacity:0.75;fill-rule:evenodd;stroke:#000000;stroke-width:1px;stroke-linecap:butt;stroke-linejoin:miter;stroke-opacity:1" />
    <path
       style="fill:none;fill-opacity:0.75;fill-rule:evenodd;stroke:#000000;stroke-width:1px;stroke-linecap:butt;stroke-linejoin:miter;stroke-opacity:1"
       d="M 676.01609,380.41049 L 666.16778,393.07261"
       id="path2208" />
    <path
       id="path2210"
       d="M 681.6437,388.14845 L 671.79539,400.81057"
       style="fill:none;fill-opacity:0.75;fill-rule:evenodd;stroke:#000000;stroke-width:1px;stroke-linecap:butt;stroke-linejoin:miter;stroke-opacity:1" />
    <path
       style="fill:none;fill-opacity:0.75;fill-rule:evenodd;stroke:#000000;stroke-width:1px;stroke-linecap:butt;stroke-linejoin:miter;stroke-opacity:1"
       d="M 687.27131,396.58986 L 677.423,409.25198"
       id="path2212" />
  </g>
  <g
     id="g2220"
     transform="translate(-64.976,-112.645)">
    <path
       style="fill:none;fill-opacity:0.75;fill-rule:evenodd;stroke:#000000;stroke-width:1px;stroke-linecap:butt;stroke-linejoin:miter;stroke-opacity:1"
       d="M 671.09193,371.96908 L 661.24362,384.6312"
       id="path2222" />
    <path
       id="path2224"
       d="M 676.01609,380.41049 L 666.16778,393.07261"
       style="fill:none;fill-opacity:0.75;fill-rule:evenodd;stroke:#000000;stroke-width:1px;stroke-linecap:butt;stroke-linejoin:miter;stroke-opacity:1" />
    <path
       style="fill:none;fill-opacity:0.75;fill-rule:evenodd;stroke:#000000;stroke-width:1px;stroke-linecap:butt;stroke-linejoin:miter;stroke-opacity:1"
       d="M 681.6437,388.14845 L 671.79539,400.81057"
       id="path2226" />
    <path
       id="path2228"
       d="M 687.27131,396.58986 L 677.423,409.25198"
       style="fill:none;fill-opacity:0.75;fill-rule:evenodd;stroke:#000000;stroke-width:1px;stroke-linecap:butt;stroke-linejoin:miter;stroke-opacity:1" />
  </g>
  <path
     style="fill:none;fill-opacity:0.75;fill-rule:evenodd;stroke:#dc0000;stroke-width:4;stroke-linecap:butt;stroke-linejoin:miter;stroke-miterlimit:4;stroke-dasharray:none;stroke-opacity:1"
     d="M 939.55154,220.63431 L 924.07562,220.63431 L 829.81324,200.93769 L 700.37831,214.30326 C 700.37831,214.30326 692.64035,201.46528 687.01275,201.64114 C 681.38514,201.817 677.86789,215.00671 677.86789,215.00671 L 668.72304,215.00671 L 668.72304,223.44812 L 651.13677,223.44812 L 651.13677,235.40678 L 670.12994,234.70333 L 684.9024,241.73783 L 668.01958,249.47579 L 651.84022,250.17924 L 651.84022,260.02755 L 669.42649,260.02755 L 669.42649,266.35861 L 678.57134,265.65515 C 678.57134,265.65515 684.90239,280.0759 690.53,279.72417 C 696.15761,279.37245 701.08177,264.24825 701.08177,264.24825 L 831.92359,273.39311 L 924.07562,254.39994 L 939.55154,253.69649"
     id="path2230"
     sodipodi:nodetypes="ccccscccccccccccccscccc" />
  <path
     style="fill:none;fill-opacity:0.75;fill-rule:evenodd;stroke:#000000;stroke-width:1px;stroke-linecap:butt;stroke-linejoin:miter;stroke-opacity:1"
     d="M 669.42649,225.55847 L 669.42649,235.40678"
     id="path2232" />
  <path
     style="fill:#5b5b5b;fill-opacity:1;fill-rule:evenodd;stroke:#000000;stroke-width:1px;stroke-linecap:butt;stroke-linejoin:miter;stroke-opacity:1"
     d="M 668.01958,248.77234 L 669.42649,261.43445"
     id="path2234" />
  <path
     style="fill:none;fill-opacity:0.75;fill-rule:evenodd;stroke:#000000;stroke-width:1px;stroke-linecap:butt;stroke-linejoin:miter;stroke-opacity:1"
     d="M 425.68083,157.32375 L 469.6465,133.40643 L 470.34995,165.76516 L 464.72234,167.87551 L 425.68083,157.32375 z "
     id="path2240" />
  <path
     style="fill:none;fill-opacity:0.75;fill-rule:evenodd;stroke:#000000;stroke-width:1px;stroke-linecap:butt;stroke-linejoin:miter;stroke-opacity:1"
     d="M 480.54998,138.33059 L 480.19826,163.65481 L 530.49498,163.65481 L 530.49499,138.33059 L 480.54998,138.33059 z "
     id="path2242"
     sodipodi:nodetypes="ccccc" />
  <path
     style="fill:none;fill-opacity:0.75;fill-rule:evenodd;stroke:#000000;stroke-width:1px;stroke-linecap:butt;stroke-linejoin:miter;stroke-opacity:1"
     d="M 479.84653,127.77883 L 494.97072,126.72365 L 531.90188,131.29608 L 480.19826,131.99953 L 479.84653,127.77883 z "
     id="path2244" />
  <path
     style="fill:none;fill-opacity:0.75;fill-rule:evenodd;stroke:#000000;stroke-width:1px;stroke-linecap:butt;stroke-linejoin:miter;stroke-opacity:1"
     d="M 536.12259,137.97886 L 536.12259,164.35826 L 565.31579,144.30992 L 536.12259,137.97886 z "
     id="path2246" />
  <path
     style="fill:none;fill-opacity:0.75;fill-rule:evenodd;stroke:#000000;stroke-width:1px;stroke-linecap:butt;stroke-linejoin:miter;stroke-opacity:1"
     d="M 415.4808,156.26858 L 415.4808,160.13756 L 467.88787,174.91002 L 475.2741,170.33759 L 532.60533,171.04104 L 576.92272,138.68231"
     id="path2248" />
  <path
     style="fill:none;fill-opacity:0.75;fill-rule:evenodd;stroke:#000000;stroke-width:1px;stroke-linecap:butt;stroke-linejoin:miter;stroke-opacity:1"
     d="M 873.42718,12.412921 L 873.7789,192.84801 L 936.03429,193.55146 L 936.03429,193.55146 L 936.73774,193.90319"
     id="path2250" />
  <path
     style="fill:none;fill-opacity:0.75;fill-rule:evenodd;stroke:#000000;stroke-width:1px;stroke-linecap:butt;stroke-linejoin:miter;stroke-opacity:1"
     d="M 931.46186,146.06854 L 924.42735,146.42027 L 924.77908,193.55146"
     id="path2252" />
</svg>
