<?xml version="1.0" encoding="UTF-8" standalone="no"?>
<!-- Generator: Adobe Illustrator 12.0.1, SVG Export Plug-In . SVG Version: 6.00 Build 51448)  -->
<svg
   xmlns:dc="http://purl.org/dc/elements/1.1/"
   xmlns:cc="http://web.resource.org/cc/"
   xmlns:rdf="http://www.w3.org/1999/02/22-rdf-syntax-ns#"
   xmlns:svg="http://www.w3.org/2000/svg"
   xmlns="http://www.w3.org/2000/svg"
   xmlns:sodipodi="http://sodipodi.sourceforge.net/DTD/sodipodi-0.dtd"
   xmlns:inkscape="http://www.inkscape.org/namespaces/inkscape"
   version="1.1"
   id="Layer_1"
   width="74"
   height="74"
   viewBox="0 0 74 74"
   overflow="visible"
   enable-background="new 0 0 74 74"
   xml:space="preserve"
   sodipodi:version="0.32"
   inkscape:version="0.45.1"
   sodipodi:docname="buddhism.svg"
   inkscape:output_extension="org.inkscape.output.svg.inkscape"
   sodipodi:docbase="C:\Dokumente und Einstellungen\ulfl\Eigene Dateien\svn.openstreetmap.org\applications\share\map-icons\svg\religion\church"><metadata
   id="metadata14"><rdf:RDF><cc:Work
       rdf:about=""><dc:format>image/svg+xml</dc:format><dc:type
         rdf:resource="http://purl.org/dc/dcmitype/StillImage" /><cc:license
         rdf:resource="http://web.resource.org/cc/PublicDomain" /></cc:Work><cc:License
       rdf:about="http://web.resource.org/cc/PublicDomain"><cc:permits
         rdf:resource="http://web.resource.org/cc/Reproduction" /><cc:permits
         rdf:resource="http://web.resource.org/cc/Distribution" /><cc:permits
         rdf:resource="http://web.resource.org/cc/DerivativeWorks" /></cc:License></rdf:RDF></metadata><defs
   id="defs12" /><sodipodi:namedview
   inkscape:window-height="573"
   inkscape:window-width="797"
   inkscape:pageshadow="2"
   inkscape:pageopacity="0.0"
   guidetolerance="10.0"
   gridtolerance="10.0"
   objecttolerance="10.0"
   borderopacity="1.0"
   bordercolor="#666666"
   pagecolor="#ffffff"
   id="base"
   inkscape:zoom="5.0945946"
   inkscape:cx="37"
   inkscape:cy="37"
   inkscape:window-x="132"
   inkscape:window-y="174"
   inkscape:current-layer="Layer_1" />
<g
   transform="translate(0,532) scale(0.454369,-0.454369)"
   id="g3">
	<path
   d="M79.028,1126.463c-0.7-0.348-1.4-1.341-1.574-2.51c-0.233-1.167-0.935-2.16-1.812-2.626c-1.575-0.877-2.86-4.03-2.509-6.13   c0.175-0.877,0-1.517-0.586-1.752c-0.642-0.234-0.759-1.053-0.465-4.264c0.584-5.547,0.818-6.072,2.393-5.837   c0.761,0.116,1.46-0.06,1.575-0.35c0.234-0.585-0.35-0.935-5.196-3.037c-4.496-1.926-4.963-2.452-5.489-6.306   c-0.232-1.636-0.875-6.014-1.4-9.693c-0.524-3.677-0.818-7.123-0.701-7.591c0.175-0.641-0.935-1.752-3.387-3.443   c-5.603-3.738-7.88-6.192-7.88-8.466c0-2.338,1.693-4.264,4.203-4.73c1.052-0.174,13.02-0.292,26.566-0.174   c23.939,0.174,24.639,0.234,26.277,1.401c1.926,1.459,2.39,4.028,1.105,6.538c-0.464,0.933-2.919,3.037-5.601,4.789   c-3.912,2.568-4.673,3.327-4.44,4.32c0.236,0.991-0.701,8.466-2.392,18.92c-0.35,2.276-1.636,3.211-7.004,5.079   c-2.16,0.759-4.032,1.694-4.206,2.102c-0.118,0.408,0.234,0.527,0.995,0.292c1.691-0.585,2.39,0.993,2.859,6.364   c0.234,3.095,0.176,4.378-0.348,4.378c-0.352,0-0.645,1.051-0.645,2.629c0,2.276-0.288,2.979-2.042,4.728   c-1.111,1.109-2.044,2.51-2.044,3.153C85.276,1126.521,81.772,1127.807,79.028,1126.463z M83.64,1123.078   c0.585-1.111,1.81-2.919,2.861-3.97c1.462-1.58,1.694-2.278,1.401-3.505c-0.524-2.042-0.582-2.1-2.042-1.283   c-1.169,0.643-7.827,0.585-9.925,0c-0.644-0.234-0.935,0.234-1.052,1.578c-0.175,1.81,0.175,2.392,3.036,4.728   c0.528,0.408,0.934,1.401,0.934,2.16c0,1.459,1.459,2.684,2.921,2.452C82.241,1125.18,83.116,1124.187,83.64,1123.078z    M85.86,1111.984c1.341-1.341,2.102-1.457,2.508-0.408c0.466,1.053,0.466-2.042,0.058-4.144c-0.232-1.227-0.64-1.694-1.165-1.459   c-1.345,0.466-2.571-0.993-2.571-3.037c0-1.52,0.292-2.044,1.633-2.51c6.596-2.452,8.468-3.385,9.225-4.496   c0.469-0.701,1.113-3.385,1.401-5.898c0.292-2.568,0.817-6.132,1.169-8.002c0.757-3.91,0.464-5.253-1.341-6.362   c-1.58-0.993-7.069-3.155-9.403-3.675c-1.575-0.357-1.636-0.297-0.935,0.58c0.645,0.756,0.645,1.225,0.118,2.102   c-0.759,1.225-0.292,1.399,1.808,0.585c1.227-0.469,1.754-0.176,4.148,2.218l2.684,2.747l-1.517,4.492   c-0.993,2.979-1.81,4.498-2.392,4.498c-0.585,0-0.761-0.292-0.469-0.995c0.232-0.582,0.759-2.334,1.169-3.912   c0.464-1.52,0.933-2.977,1.169-3.153c0.172-0.174-0.529-1.167-1.522-2.218c-1.694-1.752-2.044-1.87-4.668-1.578   c-2.454,0.292-2.923,0.176-4.264-1.169c-0.818-0.815-1.517-1.283-1.517-0.989c0,0.292-0.643,0.989-1.517,1.517   c-1.167,0.817-1.87,0.873-3.386,0.406c-1.752-0.524-2.161-0.406-4.087,1.225l-2.16,1.812l1.226,3.445   c1.341,4.028,1.458,5.021,0.407,5.021c-0.644,0-1.343-1.87-3.096-8.176c-0.116-0.522,0.877-2.042,2.395-3.501   c2.452-2.452,2.745-2.573,4.379-1.928c1.81,0.703,2.277,0.353,1.05-0.877c-0.465-0.464-0.465-0.877,0.117-1.578   c1.575-1.868-2.16-0.873-9.226,2.452c-2.745,1.285-3.095,2.394-2.16,6.072c0.466,1.754,0.877,4.148,0.877,5.317   c0,1.225,0.232,3.327,0.584,4.67c0.291,1.401,0.701,3.153,0.818,3.97c0.233,1.109,1.166,1.87,3.561,3.095   c1.752,0.877,3.619,1.578,4.087,1.578c1.284,0,2.627,1.692,2.627,3.445c0,1.868-1.285,3.269-2.627,2.745   c-0.701-0.234-0.876,0.114-0.876,1.633c0,1.109-0.175,2.452-0.35,2.921c-0.233,0.643-0.116,0.875,0.466,0.643   c0.466-0.176,1.343,0.174,1.928,0.875C77.745,1113.677,84.167,1113.677,85.86,1111.984z M70.094,1071.754   c2.51-1.167,4.029-1.459,7.007-1.399c2.103,0,5.897,0.058,8.523,0.058c4.148,0.058,5.199,0.29,8.586,1.928l3.796,1.926l4.668-3.095   c5.782-3.735,6.658-4.728,6.424-6.83c-0.35-3.095-0.935-3.151-27.618-3.151c-26.39,0-27.325,0.116-27.558,2.919   c-0.176,1.81,0.524,2.742,4.087,5.313c1.518,1.049,3.619,2.571,4.612,3.327C64.664,1074.206,65.074,1074.148,70.094,1071.754z"
   id="path5" />
</g>
<g
   transform="translate(0,461) scale(0.156000,-0.156000)"
   id="g7">
	<path
   d="M245.84,2488.625c4.72,4.445,15.35,11.788,23.613,16.564c17.879,10.066,31.018,22.53,34.405,32.947   c1.171,4.107,2.855,7.7,3.7,8.207c0.676,0.507,6.417-1.196,12.658-3.587c12.814-5.296,20.063-5.127,42.506,1.021   c7.074,1.878,19.556,4.445,27.989,5.465l15.168,2.053l1.014,13.653c0.501,7.518,3.042,21.353,5.571,30.743   c5.227,19.293,5.064,29.366-0.501,41.829c-1.865,4.269-3.549,8.708-3.549,9.734c0,1.196,3.549,3.08,7.925,4.276   c10.629,2.554,23.945,16.038,35.075,35.519c4.557,7.856,11.644,18.091,15.506,22.705l7.443,8.194l-7.093,8.031   c-3.887,4.438-10.968,14.843-16.019,23.391c-4.889,8.37-11.806,18.605-15.356,22.37c-6.391,6.996-18.204,14.339-23.275,14.339   c-4.038,0-4.877,4.952-1.84,11.271c6.404,14.007,6.241,26.295-0.845,50.709c-1.853,6.323-3.881,17.425-4.557,24.765l-1.171,13.143   l-12.664,1.205c-6.911,0.848-20.232,3.24-29.51,5.634c-19.225,4.773-32.371,5.293-42.149,1.531   c-13.835-5.468-15.012-5.293-17.547,3.587c-3.199,10.755-13.991,21.35-34.906,33.983c-9.108,5.631-20.239,12.974-24.452,16.727   l-7.931,6.495l-8.924-7.343c-5.061-4.104-16.533-11.953-25.638-17.422c-18.22-11.09-28.834-21.516-31.87-31.926   c-2.369-8.37-5.067-9.556-12.482-5.806c-14.67,6.999-25.801,6.83-51.777-0.848c-6.241-1.89-17.203-3.931-24.452-4.617   l-12.986-1.199l-1.011-12.795c-0.504-7.014-3.03-21.181-5.731-31.422c-5.23-21.35-5.061-31.936,0.839-43.711   c2.028-3.938,3.205-8.038,2.87-9.061c-0.341-1.193-4.219-3.071-8.432-4.257c-11.468-3.421-20.07-12.132-32.211-32.455   c-6.069-10.072-14.001-21.847-17.713-26.123c-6.407-7.515-6.579-8.025-3.881-11.096c6.241-7.002,13.662-17.581,21.926-31.416   c12.986-21.347,19.566-27.663,36.258-33.986c5.568-2.21,5.568-3.756,1.011-13.328c-3.033-6.31-3.368-9.553-2.692-21.503   c0.498-7.675,2.36-19.807,4.379-26.818c2.025-6.986,4.222-18.267,4.723-24.746c0.507-6.667,1.856-12.47,2.87-13.159   c1.008-0.67,6.069-1.365,11.127-1.365c5.061,0,18.379-2.385,29.513-5.121c23.782-5.978,28.846-6.147,41.329-1.54   c5.046,1.872,10.445,3.768,11.8,4.275c2.019,0.682,3.706-1.709,6.573-8.545c5.227-12.977,12.986-20.501,35.579-34.155   c10.633-6.473,22.098-14.167,25.303-17.409l5.906-5.465L245.84,2488.625z M224.093,2501.434c-5.734,4.1-14.163,9.221-18.886,11.606   c-4.554,2.216-12.648,8.37-17.879,13.659c-8.263,8.031-9.781,10.761-10.789,17.753c-1.352,9.058,1.352,25.115,4.889,28.013   c1.518,1.365,5.9,0.845,15.512-1.709c8.601-2.385,20.577-3.925,33.56-4.445c19.559-0.851,28.154,0.338,57.67,7.518   c3.036,0.682,4.225-0.338,6.241-5.459c3.712-9.046,3.543-25.103-0.676-33.122c-4.219-8.364-10.285-13.678-28.001-23.582   c-7.919-4.432-16.683-10.235-19.719-12.795c-3.036-2.567-6.748-4.62-8.432-4.77   C235.896,2494.097,229.827,2497.333,224.093,2501.434z M323.921,2549.585c-4.038,1.54-9.609,4.77-12.144,7.337   c-6.235,5.803-11.8,16.745-10.617,20.501c0.501,1.534,6.398,5.972,12.983,9.728c21.071,11.95,49.917,42.693,59.019,62.838   c2.542,5.465,6.078,5.815,14.842,1.365c12.645-6.661,20.408-19.632,20.408-34.487c0-3.418-2.191-15.206-5.058-25.948   c-2.867-10.936-5.058-22.042-5.058-24.94c0-6.316-1.703-7.349-13.497-9.058c-5.058-0.676-16.188-3.061-24.452-5.459   C342.301,2546.499,333.875,2546.161,323.921,2549.585z M112.458,2551.464c-9.28,2.397-21.087,4.945-26.148,5.628   c-8.266,0.858-9.274,1.54-9.778,5.29c-0.338,2.404-2.87,13.841-5.737,25.453c-8.936,37.059-5.562,52.597,13.832,62.5   c4.548,2.398,9.108,4.263,9.947,4.263c0.842,0,5.903-6.655,11.299-14.855c15.522-24.414,36.255-43.539,62.237-57.88   c5.058-2.905,4.889-8.032-0.682-17.077C156.466,2546.85,142.638,2543.607,112.458,2551.464z M206.393,2577.073   c-14.342,2.911-34.411,11.105-48.744,19.807c-28.336,17.24-51.777,49.348-61.389,84.185c-5.396,19.469-5.396,55.326,0,74.96   c18.383,66.766,78.084,110.133,146.719,106.383c38.274-2.047,70.663-16.558,97.481-43.886   c37.598-38.077,50.581-95.613,33.222-147.53c-15.863-47.294-55.489-82.132-106.927-94.088   C253.434,2573.831,221.896,2573.831,206.393,2577.073z M388.85,2659.893c-8.77,2.229-8.77,1.527-3.368,24.596   c4.87,20.833,5.227,43.701,1.014,62.318c-6.072,26.474-6.072,26.981-0.851,29.034c2.692,1.021,9.115,2.219,14.335,2.895   c8.1,0.854,11.13,0.347,18.88-3.24c10.291-4.78,13.997-9.058,25.816-29.544c4.388-7.515,10.11-16.22,12.814-19.635   c2.692-3.246,4.889-6.83,4.889-7.856c0-1.027-2.354-4.958-5.24-8.539c-2.855-3.756-9.265-13.666-14.317-22.361   c-9.115-15.719-19.744-26.981-26.649-28.358C408.757,2657.671,396.099,2658.015,388.85,2659.893z M48.03,2664.169   c-3.54,2.723-9.446,9.903-13.159,15.7c-3.709,5.809-9.778,15.368-13.487,21.171c-3.715,5.816-7.756,12.138-9.105,14.176   c-2.191,3.418-2.025,4.272,2.529,10.254c2.695,3.581,9.781,14.508,15.853,24.414c16.188,26.636,26.47,32.439,49.241,27.315   l10.623-2.216l-0.166-5.985c-0.169-3.233-1.69-10.927-3.377-17.062c-4.044-15.202-4.044-50.897,0-66.604   c5.568-20.483,5.568-21.86-0.839-24.752c-3.884-1.721-9.95-2.391-18.724-2.229C55.952,2658.86,53.933,2659.38,48.03,2664.169z    M368.781,2793.601c-12.482,21.681-37.266,45.933-58.343,57.367c-8.1,4.269-9.966,6.154-9.966,9.562   c0,8.711,10.968,22.367,20.746,26.129c7.938,3.071,24.796,2.047,41.667-2.219c8.764-2.229,19.901-4.62,24.621-5.299l8.77-1.192   l1.189-9.562c0.651-5.293,2.517-14.173,4.207-19.976c6.573-21.344,7.255-38.252,2.185-47.814   c-2.523-4.617-10.448-11.788-16.526-15.027C378.227,2780.621,375.704,2781.644,368.781,2793.601z M82.939,2786.424   c-17.875,9.556-22.427,28.514-14.166,57.373c1.518,5.293,3.709,15.021,4.723,21.519l2.019,12.119l7.587,1.362   c4.053,0.861,15.35,3.415,24.965,5.816c32.377,7.847,48.23,4.269,59.361-13.666c6.241-10.241,5.396-13.656-4.889-18.955   c-20.236-10.417-41.82-31.081-56.666-54.465C95.415,2780.956,94.066,2780.446,82.939,2786.424z M272.489,2866.508   c-18.054,4.948-51.601,5.293-69.818,0.848c-22.592-5.628-22.93-5.628-24.956,1.03c-5.396,17.074-3.712,29.197,5.565,40.136   c3.036,3.584,11.465,9.903,18.721,13.991c7.415,4.276,17.203,10.592,22.092,14.179c4.895,3.578,9.781,6.479,11.13,6.479   c1.34,0,5.227-2.21,8.601-4.942c3.537-2.914,12.814-8.88,20.908-13.331c29.679-16.727,36.759-30.386,28.84-56.512   C291.376,2861.898,290.192,2861.729,272.489,2866.508z"
   id="path9" />
</g>
</svg>