<?xml version="1.0" encoding="UTF-8" standalone="no"?>
<!-- Created with Inkscape (http://www.inkscape.org/) -->
<svg
   xmlns:dc="http://purl.org/dc/elements/1.1/"
   xmlns:cc="http://web.resource.org/cc/"
   xmlns:rdf="http://www.w3.org/1999/02/22-rdf-syntax-ns#"
   xmlns:svg="http://www.w3.org/2000/svg"
   xmlns="http://www.w3.org/2000/svg"
   xmlns:sodipodi="http://sodipodi.sourceforge.net/DTD/sodipodi-0.dtd"
   xmlns:inkscape="http://www.inkscape.org/namespaces/inkscape"
   width="65"
   height="65"
   id="svg2"
   sodipodi:version="0.32"
   inkscape:version="0.45.1"
   version="1.0"
   sodipodi:docbase="C:\Dokumente und Einstellungen\ulfl\Eigene Dateien\svn.openstreetmap.org\applications\share\map-icons\svg\religion\church"
   sodipodi:docname="taoism.svg"
   inkscape:output_extension="org.inkscape.output.svg.inkscape">
  <defs
     id="defs4" />
  <sodipodi:namedview
     id="base"
     pagecolor="#ffffff"
     bordercolor="#666666"
     borderopacity="1.0"
     gridtolerance="10000"
     guidetolerance="10"
     objecttolerance="10"
     inkscape:pageopacity="0.0"
     inkscape:pageshadow="2"
     inkscape:zoom="5.6"
     inkscape:cx="53.67981"
     inkscape:cy="22.994743"
     inkscape:document-units="px"
     inkscape:current-layer="layer1"
     width="65px"
     height="65px"
     inkscape:window-width="1272"
     inkscape:window-height="946"
     inkscape:window-x="88"
     inkscape:window-y="70" />
  <metadata
     id="metadata7">
    <rdf:RDF>
      <cc:Work
         rdf:about="">
        <dc:format>image/svg+xml</dc:format>
        <dc:type
           rdf:resource="http://purl.org/dc/dcmitype/StillImage" />
        <cc:license
           rdf:resource="http://web.resource.org/cc/PublicDomain" />
      </cc:Work>
      <cc:License
         rdf:about="http://web.resource.org/cc/PublicDomain">
        <cc:permits
           rdf:resource="http://web.resource.org/cc/Reproduction" />
        <cc:permits
           rdf:resource="http://web.resource.org/cc/Distribution" />
        <cc:permits
           rdf:resource="http://web.resource.org/cc/DerivativeWorks" />
      </cc:License>
    </rdf:RDF>
  </metadata>
  <g
     inkscape:label="Layer 1"
     inkscape:groupmode="layer"
     id="layer1"
     transform="translate(-113.59,-193.9343)">
    <path
       d="M 142.47303,203.64409 C 142.07717,202.9983 142.04592,202.51914 142.37928,202.20659 C 142.50425,202.08164 142.6605,202.02955 142.84803,202.05034 C 143.49383,202.17539 144.58758,202.64414 146.12928,203.45659 C 147.08758,203.91497 147.76466,204.48788 148.16053,205.17534 C 148.78549,206.50872 148.77508,207.44621 148.12928,207.98784 C 147.87924,208.19621 147.59799,208.28996 147.28553,208.26909 C 146.2855,208.14413 144.68133,206.60247 142.47303,203.64409 M 156.81678,199.17534 C 156.6084,198.63372 156.75423,198.33164 157.25428,198.26909 C 157.77507,198.14414 158.50423,198.30039 159.44178,198.73784 C 161.19173,199.50872 162.07715,200.27955 162.09803,201.05034 C 162.09798,201.44622 161.84798,201.77955 161.34803,202.05034 C 160.74381,202.38372 159.72298,203.14414 158.28553,204.33159 C 156.53549,205.78997 154.66049,207.1858 152.66053,208.51909 C 152.18132,208.6858 151.96257,208.59205 152.00428,208.23784 C 152.00424,208.13371 152.04591,207.98788 152.12928,207.80034 C 154.4834,204.57122 155.90007,202.44622 156.37928,201.42534 C 156.7959,200.50872 156.94173,199.75872 156.81678,199.17534 M 144.84803,239.98784 C 144.63966,241.27951 144.27508,241.94618 143.75428,241.98784 C 143.52508,242.00868 143.29591,241.88368 143.06678,241.61284 C 142.37925,240.84201 141.98342,239.88368 141.87928,238.73784 C 141.75425,237.46702 141.86883,235.73785 142.22303,233.55034 C 142.723,226.88369 142.5355,222.65453 141.66053,220.86284 C 141.348,220.4462 141.19175,220.0087 141.19178,219.55034 C 141.17092,219.3212 141.23342,219.16495 141.37928,219.08159 C 141.98342,218.81079 142.77508,218.97745 143.75428,219.58159 C 144.00425,219.74829 144.20216,219.90454 144.34803,220.05034 C 144.76466,219.9462 145.40008,219.85245 146.25428,219.76909 C 147.71258,216.08162 148.44174,214.01912 148.44178,213.58159 C 147.12924,213.81079 144.92091,214.32121 141.81678,215.11284 C 140.31675,215.48787 139.23342,215.55037 138.56678,215.30034 C 138.10842,215.13371 137.61884,214.81079 137.09803,214.33159 C 136.51467,213.70662 136.59801,213.36288 137.34803,213.30034 C 149.70216,211.30038 158.53548,209.6858 163.84803,208.45659 C 165.07714,208.14413 166.72297,208.63371 168.78553,209.92534 C 169.43131,210.44621 169.66047,210.91496 169.47303,211.33159 C 169.20214,211.70663 167.95214,211.89413 165.72303,211.89409 C 159.61882,212.08163 154.63965,212.50871 150.78553,213.17534 C 152.32716,214.50871 152.62924,215.51912 151.69178,216.20659 C 151.27507,216.56079 150.72299,217.1337 150.03553,217.92534 C 149.70216,218.30037 149.29591,218.72745 148.81678,219.20659 C 148.77508,219.20662 148.75424,219.22745 148.75428,219.26909 C 151.85841,218.58162 154.52507,217.76912 156.75428,216.83159 C 157.7959,216.35246 159.30632,216.78995 161.28553,218.14409 C 162.07715,218.66495 162.6084,219.10245 162.87928,219.45659 C 163.21256,219.76912 163.2334,220.17537 162.94178,220.67534 C 162.46256,221.52953 162.18131,222.11287 162.09803,222.42534 C 161.97298,222.8837 161.9209,223.36287 161.94178,223.86284 C 162.19173,229.19619 162.4834,233.74827 162.81678,237.51909 C 162.96256,239.8316 162.55631,241.81076 161.59803,243.45659 C 161.07715,244.33159 160.56673,244.77951 160.06678,244.80034 C 159.7334,244.82118 159.40007,244.60243 159.06678,244.14409 L 156.84803,240.86284 C 156.41049,240.23785 155.93132,239.59202 155.41053,238.92534 C 148.76466,239.19618 145.24383,239.55035 144.84803,239.98784 M 155.41053,236.55034 C 156.34799,237.15452 156.90007,237.6441 157.06678,238.01909 C 157.83757,238.3941 158.30632,238.18577 158.47303,237.39409 C 158.70215,236.68577 158.78548,235.24827 158.72303,233.08159 C 158.84798,225.01911 158.53548,220.67537 157.78553,220.05034 C 157.30632,219.71704 156.55632,219.62329 155.53553,219.76909 C 149.01466,221.14412 145.61883,221.83162 145.34803,221.83159 C 145.223,223.10245 145.1605,224.34203 145.16053,225.55034 C 146.11883,225.5087 148.00424,225.23786 150.81678,224.73784 C 152.96257,224.34203 154.34799,224.34203 154.97303,224.73784 C 155.22299,224.8837 155.41049,225.09203 155.53553,225.36284 C 155.68132,225.61286 155.61882,225.86286 155.34803,226.11284 C 153.16049,226.77953 150.63966,227.13369 147.78553,227.17534 C 146.55633,227.19619 145.6605,227.12328 145.09803,226.95659 C 145.05633,228.41494 145.0355,229.80036 145.03553,231.11284 C 145.86883,230.94619 146.84799,230.86286 147.97303,230.86284 C 151.16049,230.21702 153.17091,229.97744 154.00428,230.14409 C 154.94174,230.49827 155.53549,230.88369 155.78553,231.30034 C 155.86882,231.57119 155.76465,231.85244 155.47303,232.14409 C 155.30632,232.22744 154.7959,232.33161 153.94178,232.45659 C 151.58757,232.72744 149.71258,232.95661 148.31678,233.14409 C 147.12924,233.37327 146.10841,233.35244 145.25428,233.08159 C 145.15008,233.03994 145.07716,233.03994 145.03553,233.08159 L 145.03553,237.89409 C 146.4105,237.68577 148.78549,237.22743 152.16053,236.51909 C 153.59799,236.2066 154.6084,236.18577 155.19178,236.45659 C 155.27507,236.47744 155.34799,236.50869 155.41053,236.55034 M 124.44178,206.20659 C 124.35843,205.66497 124.44177,205.30038 124.69178,205.11284 C 125.17093,204.88372 126.29593,205.08163 128.06678,205.70659 C 130.40009,206.4983 131.83759,207.38371 132.37928,208.36284 C 132.44176,208.44621 132.48343,208.53996 132.50428,208.64409 C 132.79593,210.01913 132.85843,211.01913 132.69178,211.64409 C 132.37926,212.24829 132.01468,212.55038 131.59803,212.55034 C 130.82718,212.55038 130.16051,212.26913 129.59803,211.70659 C 128.49385,210.45663 127.10843,209.08163 125.44178,207.58159 C 124.85843,207.0608 124.5251,206.60247 124.44178,206.20659 M 128.25428,240.83159 C 128.9626,239.03993 128.16051,236.31077 125.84803,232.64409 C 125.07718,231.53994 124.8376,230.53994 125.12928,229.64409 C 125.37927,229.10244 125.92093,228.22744 126.75428,227.01909 C 127.29593,226.22745 127.47301,225.58161 127.28553,225.08159 C 127.22301,224.89411 127.09801,224.68578 126.91053,224.45659 C 126.51468,224.10245 126.18135,224.01911 125.91053,224.20659 C 123.26469,225.35245 121.17094,225.53995 119.62928,224.76909 C 119.27511,224.53995 119.12927,224.35245 119.19178,224.20659 C 119.31677,223.97745 119.52511,223.86286 119.81678,223.86284 C 120.56677,223.92536 122.42094,223.18578 125.37928,221.64409 C 126.9626,220.31078 128.20218,219.96704 129.09803,220.61284 C 130.57718,221.3212 131.73343,222.02953 132.56678,222.73784 C 133.33759,223.42537 133.25426,224.14411 132.31678,224.89409 C 128.50426,227.95661 127.32718,230.45661 128.78553,232.39409 C 131.20218,235.22744 131.90009,237.5816 130.87928,239.45659 C 130.56676,240.06077 130.07718,240.56076 129.41053,240.95659 C 130.84801,240.74826 133.69176,241.47743 137.94178,243.14409 C 147.94174,246.72743 159.93132,248.17534 173.91053,247.48784 C 174.66047,247.50867 175.06672,247.61284 175.12928,247.80034 C 175.19172,248.07117 175.07713,248.26909 174.78553,248.39409 C 171.2438,250.35242 167.53547,252.03992 163.66053,253.45659 C 161.59798,254.26908 159.70215,254.41492 157.97303,253.89409 C 156.51465,253.39409 153.8584,252.2795 150.00428,250.55034 C 144.44175,248.00867 138.71259,245.78993 132.81678,243.89409 C 129.81676,242.87326 127.04593,242.84201 124.50428,243.80034 C 123.87927,244.02951 123.43135,244.25868 123.16053,244.48784 C 121.76469,245.19618 120.6501,245.30034 119.81678,244.80034 C 118.04594,243.50868 117.15011,242.65451 117.12928,242.23784 C 117.08761,241.71701 117.38969,241.48785 118.03553,241.55034 C 119.13969,241.57118 120.60844,241.42535 122.44178,241.11284 C 124.23343,240.77951 126.17093,240.68576 128.25428,240.83159"
       id="flowRoot1876" />
  </g>
</svg>
