<?xml version="1.0" encoding="UTF-8" standalone="no"?>
<!-- Created with Inkscape (http://www.inkscape.org/) -->
<svg
   xmlns:dc="http://purl.org/dc/elements/1.1/"
   xmlns:cc="http://creativecommons.org/ns#"
   xmlns:rdf="http://www.w3.org/1999/02/22-rdf-syntax-ns#"
   xmlns:svg="http://www.w3.org/2000/svg"
   xmlns="http://www.w3.org/2000/svg"
   xmlns:sodipodi="http://sodipodi.sourceforge.net/DTD/sodipodi-0.dtd"
   xmlns:inkscape="http://www.inkscape.org/namespaces/inkscape"
   version="1.0"
   width="580"
   height="580"
   id="svg2"
   sodipodi:version="0.32"
   inkscape:version="0.46"
   sodipodi:docname="mine.svg"
   inkscape:output_extension="org.inkscape.output.svg.inkscape">
  <metadata
     id="metadata10">
    <rdf:RDF>
      <cc:Work
         rdf:about="">
        <dc:format>image/svg+xml</dc:format>
        <dc:type
           rdf:resource="http://purl.org/dc/dcmitype/StillImage" />
			  <cc:license
           rdf:resource="http://web.resource.org/cc/PublicDomain" />
        <dc:language>en</dc:language>
      </cc:Work>
    </rdf:RDF>
  </metadata>
  <sodipodi:namedview
     inkscape:window-height="1003"
     inkscape:window-width="1400"
     inkscape:pageshadow="2"
     inkscape:pageopacity="0.0"
     guidetolerance="10.0"
     gridtolerance="10.0"
     objecttolerance="10.0"
     borderopacity="1.0"
     bordercolor="#666666"
     pagecolor="#ffffff"
     id="base"
     showgrid="false"
     inkscape:zoom="0.35355339"
     inkscape:cx="1259.5915"
     inkscape:cy="195.50635"
     inkscape:window-x="0"
     inkscape:window-y="20"
     inkscape:current-layer="svg2" />
  <defs
     id="defs4">
    <inkscape:perspective
       sodipodi:type="inkscape:persp3d"
       inkscape:vp_x="0 : 290 : 1"
       inkscape:vp_y="0 : 1000 : 0"
       inkscape:vp_z="580 : 290 : 1"
       inkscape:persp3d-origin="290 : 193.33333 : 1"
       id="perspective12" />
    <style
       type="text/css"
       id="style6">
   
    .fil0 {fill:#EF7900}
   
  </style>
    <inkscape:perspective
       id="perspective6807"
       inkscape:persp3d-origin="29.116032 : 19.410688 : 1"
       inkscape:vp_z="58.232063 : 29.116032 : 1"
       inkscape:vp_y="0 : 1000 : 0"
       inkscape:vp_x="0 : 29.116032 : 1"
       sodipodi:type="inkscape:persp3d" />
    <inkscape:perspective
       id="perspective6954"
       inkscape:persp3d-origin="290 : 193.33333 : 1"
       inkscape:vp_z="580 : 290 : 1"
       inkscape:vp_y="0 : 1000 : 0"
       inkscape:vp_x="0 : 290 : 1"
       sodipodi:type="inkscape:persp3d" />
    <inkscape:perspective
       id="perspective2541"
       inkscape:persp3d-origin="240 : 160 : 1"
       inkscape:vp_z="480 : 240 : 1"
       inkscape:vp_y="0 : 1000 : 0"
       inkscape:vp_x="0 : 240 : 1"
       sodipodi:type="inkscape:persp3d" />
    <inkscape:perspective
       id="perspective2750"
       inkscape:persp3d-origin="215 : 143.33333 : 1"
       inkscape:vp_z="430 : 215 : 1"
       inkscape:vp_y="0 : 1000 : 0"
       inkscape:vp_x="0 : 215 : 1"
       sodipodi:type="inkscape:persp3d" />
  </defs>
  <g
     id="g1327">
    <path
       d="M 66.275,1.768 C 24.94,1.768 1.704,23.139 1.704,66.804 L 1.704,516.927 C 1.704,557.771 22.598,579.156 63.896,579.156 L 515.92,579.156 C 557.227,579.156 578.149,558.84 578.149,516.927 L 578.149,66.804 C 578.149,24.203 557.227,1.768 514.627,1.768 C 514.624,1.768 66.133,1.625 66.275,1.768 z"
       style="fill:#111111;stroke:#eeeeee;stroke-width:3.40799999"
       id="path1329" />
  </g>
  <path
     id="path1935"
     style="fill:#ffffff;fill-opacity:1"
     d="M 128.90702,516.30457 C 109.31082,509.58605 107.13883,507.67897 102.95357,493.51658 C 99.02816,480.2335 99.03001,478.38009 102.96949,477.56604 C 105.22567,477.09982 128.52813,453.52811 174.07765,405.63621 C 211.3414,366.45621 246.59948,329.52528 252.42898,323.56747 C 260.37294,315.44865 262.73992,312.22805 261.87783,310.711 C 259.43993,306.421 157.79551,199.63548 155.203,198.64063 C 154.19621,198.25429 151.54266,199.88121 149.30621,202.25602 C 144.15581,207.72508 118.90978,241.40106 103.64544,263.16348 C 97.2246,272.31769 91.240897,279.74038 90.348298,279.65837 C 89.455713,279.57635 76.036434,269.39022 60.527678,257.02252 L 32.329956,234.53578 L 36.111635,231.20698 C 38.191564,229.37614 45.820525,219.19001 53.06489,208.57113 C 74.15329,177.65951 97.32932,147.50158 108.88058,135.94066 C 124.50616,120.30203 212.22744,55.446237 217.75403,55.446237 C 219.1758,55.446237 227.10078,64.612519 238.39737,79.322935 C 250.92758,95.63979 257.9304,103.64126 260.51479,104.59443 C 262.59477,105.36157 264.09273,106.55737 263.84359,107.25177 C 263.59447,107.94617 249.90898,118.66595 233.43141,131.0735 C 216.95384,143.48104 199.15994,157.63187 193.88941,162.51979 C 180.05613,175.34883 179.41583,173.81192 212.39544,206.93988 C 245.5038,240.19716 328.0328,320.20041 409.85791,398.35911 C 443.54539,430.53714 475.34752,460.91701 480.52932,465.86995 C 486.58224,471.65552 491.04723,474.87529 493.01743,474.87529 C 495.94539,474.87529 496.04231,475.19016 495.16049,481.83773 C 493.68693,492.94591 489.09,502.95608 483.84097,506.48684 C 478.90447,509.80738 469.401,512.8466 459.73549,514.19579 L 453.6892,515.03977 L 374.62961,430.34163 C 331.14684,383.75764 295.1585,345.80998 294.65552,346.0135 C 294.15254,346.21701 261.22771,383.23337 221.48924,428.27206 C 181.75077,473.31075 147.05986,512.36471 144.39834,515.05861 L 139.55919,519.95665 L 128.90702,516.30457 z M 308.74492,296.05868 L 292.84927,281.02109 L 340.81238,230.70477 C 381.29652,188.23436 388.7755,179.78595 388.7755,176.52465 C 388.7755,173.191 384.23958,168.43676 355.71738,141.8754 C 337.53543,124.94341 322.99064,110.55381 323.39563,109.89851 C 323.80063,109.24322 325.35244,108.70707 326.84411,108.70707 C 328.53485,108.70707 338.50067,100.18239 353.3067,86.071215 C 366.36947,73.621496 377.69806,63.435362 378.48136,63.435362 C 379.26465,63.435362 393.43808,76.617418 409.97784,92.728819 C 441.34726,123.2858 443.54351,124.80517 448.47201,119.35924 C 449.79753,117.89456 451.83774,116.70408 453.00583,116.7137 C 454.17391,116.72333 459.31694,120.29113 464.43478,124.64214 C 470.37339,129.69093 475.16608,132.69545 477.68177,132.94663 L 481.62362,133.3402 L 477.18412,138.38162 C 474.74239,141.15441 472.54009,145.17953 472.29014,147.32634 C 471.88927,150.76921 473.11167,152.33407 482.65378,160.59332 C 488.60373,165.74336 494.13223,169.96283 494.93932,169.96993 C 496.26902,169.98163 555.67149,284.53632 554.88688,285.57579 C 554.70329,285.81901 531.88322,273.92426 504.17559,259.14302 L 453.7981,232.26803 L 438.46561,217.09078 C 430.03274,208.74329 422.75495,201.91352 422.29274,201.91352 C 421.83053,201.91352 399.75729,226.48008 373.24109,256.50588 C 346.72489,286.53167 324.94225,311.09779 324.83521,311.09724 C 324.72815,311.09671 317.48753,304.32935 308.74492,296.05868 z" />
</svg>
