<?xml version="1.0" encoding="UTF-8" standalone="no"?>
<!-- Created with Inkscape (http://www.inkscape.org/) -->
<svg
   xmlns:dc="http://purl.org/dc/elements/1.1/"
   xmlns:cc="http://web.resource.org/cc/"
   xmlns:rdf="http://www.w3.org/1999/02/22-rdf-syntax-ns#"
   xmlns:svg="http://www.w3.org/2000/svg"
   xmlns="http://www.w3.org/2000/svg"
   xmlns:sodipodi="http://sodipodi.sourceforge.net/DTD/sodipodi-0.dtd"
   xmlns:inkscape="http://www.inkscape.org/namespaces/inkscape"
   width="32"
   height="32"
   id="svg2170"
   sodipodi:version="0.32"
   inkscape:version="0.45.1"
   version="1.0"
   sodipodi:docbase="/home/tweety/svn.openstreetmap.org/applications/share/map-icons/svg/transport/bridge"
   sodipodi:docname="drawbridge.svg"
   inkscape:output_extension="org.inkscape.output.svg.inkscape">
  <defs
     id="defs2172" />
  <sodipodi:namedview
     id="base"
     pagecolor="#ffffff"
     bordercolor="#666666"
     borderopacity="1.0"
     gridtolerance="10000"
     guidetolerance="10"
     objecttolerance="10"
     inkscape:pageopacity="0.0"
     inkscape:pageshadow="2"
     inkscape:zoom="5.6"
     inkscape:cx="37.896548"
     inkscape:cy="16.586709"
     inkscape:document-units="px"
     inkscape:current-layer="layer1"
     inkscape:window-width="906"
     inkscape:window-height="596"
     inkscape:window-x="485"
     inkscape:window-y="197"
     width="32px"
     height="32px" />
  <metadata
     id="metadata2175">
    <rdf:RDF>
      <cc:Work
         rdf:about="">
        <dc:format>image/svg+xml</dc:format>
        <dc:type
           rdf:resource="http://purl.org/dc/dcmitype/StillImage" />
        <cc:license
           rdf:resource="http://web.resource.org/cc/PublicDomain" />
      </cc:Work>
      <cc:License
         rdf:about="http://web.resource.org/cc/PublicDomain">
        <cc:permits
           rdf:resource="http://web.resource.org/cc/Reproduction" />
        <cc:permits
           rdf:resource="http://web.resource.org/cc/Distribution" />
        <cc:permits
           rdf:resource="http://web.resource.org/cc/DerivativeWorks" />
      </cc:License>
    </rdf:RDF>
  </metadata>
  <g
     inkscape:label="Layer 1"
     inkscape:groupmode="layer"
     id="layer1"
     transform="translate(-248.20068,-550.15906)">
    <path
       style="font-size:12px;fill-rule:evenodd;stroke:#000000;stroke-width:0.04732872pt"
       id="path637"
       d="M 252.21738,573.21894 L 255.13981,573.29678 L 255.13981,581.62491 L 248.63889,581.62491 L 252.21738,573.21894 z " />
    <path
       style="font-size:12px;fill-rule:evenodd;stroke:#000000;stroke-width:0.04732872pt"
       id="path620"
       d="M 275.63977,573.21894 L 272.71734,573.29678 L 272.71734,581.62491 L 279.21826,581.62491 L 275.63977,573.21894 z " />
    <path
       style="font-size:12px;fill:#0000ff;fill-rule:evenodd;stroke-width:10.30560017"
       sodipodi:nodetypes="ccccccccccccccccccc"
       id="path624"
       d="M 265.45935,580.58812 C 264.62447,581.95729 262.6851,581.97787 261.94037,580.62029 C 261.53608,579.88259 260.43806,579.85249 259.98062,580.53344 C 259.26199,581.923 257.27824,581.94405 256.53285,580.57846 C 256.1115,579.81674 254.95652,579.80834 254.53806,580.58812 C 254.30173,580.37472 254.06541,580.16132 253.82909,579.94792 C 254.19713,579.27583 254.88049,578.946 255.53545,578.95061 C 256.19229,578.94853 256.89305,579.2752 257.24991,579.96399 C 257.66098,580.70087 258.76944,580.72341 259.21235,580.0026 C 259.93814,578.63231 261.92453,578.65774 262.66011,580.0026 C 263.07706,580.75748 264.18646,580.7551 264.69187,579.99294 C 265.11844,579.27583 265.8018,578.946 266.45675,578.95061 C 267.1136,578.94853 267.81437,579.2752 268.1712,579.96399 C 268.58228,580.70087 269.69074,580.72341 270.13366,580.0026 C 270.85945,578.63231 272.84584,578.65774 273.58141,580.0026 C 273.99837,580.75748 273.6064,581.97787 272.86166,580.62029 C 272.45738,579.88259 271.35937,579.85249 270.90193,580.53344 C 270.1833,581.923 268.19953,581.94405 267.45416,580.57846 C 267.03279,579.81674 265.87781,579.80834 265.45935,580.58812 z " />
    <path
       style="font-size:12px;fill:#0000ff;fill-rule:evenodd;stroke-width:10.30560017"
       sodipodi:nodetypes="ccccccccccccccccccc"
       id="path625"
       d="M 265.45935,578.05568 C 264.62447,579.42487 262.6851,579.44545 261.94037,578.08786 C 261.53608,577.35017 260.43806,577.32006 259.98062,578.00099 C 259.26199,579.39056 257.27824,579.41161 256.53285,578.04604 C 256.1115,577.2843 254.95652,577.27591 254.53806,578.05568 C 254.30173,577.84228 254.06541,577.62888 253.82909,577.41547 C 254.19713,576.74342 254.88049,576.41357 255.53545,576.41818 C 256.19229,576.4161 256.89305,576.74275 257.24991,577.43158 C 257.66098,578.16844 258.76944,578.19098 259.21235,577.47018 C 259.93814,576.09988 261.92453,576.12532 262.66011,577.47018 C 263.07706,578.22504 264.18646,578.22268 264.69187,577.46052 C 265.11844,576.74342 265.8018,576.41357 266.45675,576.41818 C 267.1136,576.4161 267.81437,576.74275 268.1712,577.43158 C 268.58228,578.16844 269.69074,578.19098 270.13366,577.47018 C 270.85945,576.09988 272.84584,576.12532 273.58141,577.47018 C 273.99837,578.22504 273.6064,579.44545 272.86166,578.08786 C 272.45738,577.35017 271.35937,577.32006 270.90193,578.00099 C 270.1833,579.39056 268.19953,579.41161 267.45416,578.04604 C 267.03279,577.2843 265.87781,577.27591 265.45935,578.05568 z " />
    <rect
       y="568.77563"
       x="-169.62271"
       width="22.66062"
       transform="matrix(0.6344658,-0.7729509,0.6344658,0.7729509,0,0)"
       style="font-size:12px;fill:#000000;fill-opacity:0.75;fill-rule:evenodd;stroke:#000000;stroke-width:0.30847383pt"
       id="rect626"
       height="3.2447085" />
  </g>
</svg>
