<?xml version="1.0" encoding="UTF-8" standalone="no"?>
<!-- Created with Inkscape (http://www.inkscape.org/) -->
<svg
   xmlns:dc="http://purl.org/dc/elements/1.1/"
   xmlns:cc="http://web.resource.org/cc/"
   xmlns:rdf="http://www.w3.org/1999/02/22-rdf-syntax-ns#"
   xmlns:svg="http://www.w3.org/2000/svg"
   xmlns="http://www.w3.org/2000/svg"
   xmlns:sodipodi="http://sodipodi.sourceforge.net/DTD/sodipodi-0.dtd"
   xmlns:inkscape="http://www.inkscape.org/namespaces/inkscape"
   version="1.0"
   width="577.13098"
   height="517.51099"
   viewBox="0 0 577.131 517.511"
   id="svg2947"
   xml:space="preserve"
   sodipodi:version="0.32"
   inkscape:version="0.45.1"
   sodipodi:docname="mormon.svg"
   inkscape:output_extension="org.inkscape.output.svg.inkscape"
   sodipodi:docbase="C:\Dokumente und Einstellungen\ulfl\Eigene Dateien\svn.openstreetmap.org\applications\share\map-icons\svg\religion\church"><metadata
   id="metadata9"><rdf:RDF><cc:Work
       rdf:about=""><dc:format>image/svg+xml</dc:format><dc:type
         rdf:resource="http://purl.org/dc/dcmitype/StillImage" /><cc:license
         rdf:resource="http://web.resource.org/cc/PublicDomain" /></cc:Work><cc:License
       rdf:about="http://web.resource.org/cc/PublicDomain"><cc:permits
         rdf:resource="http://web.resource.org/cc/Reproduction" /><cc:permits
         rdf:resource="http://web.resource.org/cc/Distribution" /><cc:permits
         rdf:resource="http://web.resource.org/cc/DerivativeWorks" /></cc:License></rdf:RDF></metadata><sodipodi:namedview
   inkscape:window-height="573"
   inkscape:window-width="797"
   inkscape:pageshadow="2"
   inkscape:pageopacity="0.0"
   guidetolerance="10.0"
   gridtolerance="10.0"
   objecttolerance="10.0"
   borderopacity="1.0"
   bordercolor="#666666"
   pagecolor="#ffffff"
   id="base"
   inkscape:zoom="0.72848695"
   inkscape:cx="288.56549"
   inkscape:cy="258.75549"
   inkscape:window-x="132"
   inkscape:window-y="174"
   inkscape:current-layer="svg2947" /><defs
   id="defs2959" />
	
		<g
   id="Layer_1">
			<ellipse
   cx="288.565"
   cy="286.336"
   rx="288.065"
   ry="230.67599"
   style="stroke:#000000"
   id="ellipse2952" /> 
			<ellipse
   cx="283.06601"
   cy="286.336"
   rx="257.66699"
   ry="206.33299"
   style="fill:#ffffff;stroke:#ffffff"
   id="ellipse2954" /> 
			<path
   d="M 506.233,398 C 493.914,343.372 414.232,310.667 414.232,310.667 C 414.232,310.667 407.566,304.001 410.9,300.667 C 414.234,297.333 442.9,284.001 442.9,274.667 C 442.9,265.333 456.667,247.856 442.9,200.667 C 437.954,183.71 427.231,171.716 414.547,163.225 L 414.547,163.225 L 414.546,163.225 C 391.209,147.602 361.232,143.85 348.304,142.952 L 348.304,142.952 L 348.304,142.952 C 344.279,142.672 341.9,142.667 341.9,142.667 L 335.4,150.238 C 329.754,170.667 316.36,182.823 315.9,182.917 C 295.165,187.152 290.908,186.995 288.817,188.084 C 282.9,191.167 281.468,195.902 285.135,199.568 C 285.199,199.632 285.046,199.478 285.135,199.568 C 279.186,199.913 273.083,199.85 271.567,198.334 C 270.657,197.423 264.866,192.433 257.083,185.787 L 257.083,185.787 L 230.206,161.78 C 229.776,158.063 228.849,154.168 227.401,150.167 C 218.901,126.667 188.901,111.667 188.901,111.667 C 183.079,108.261 183.202,111.165 175.337,112.771 L 103.567,48.667 L 96.234,0 C 96.234,0 43.567,30 28.234,75.333 C 19.234,84.333 77.567,77.333 77.567,77.333 L 155.971,142.197 C 156.418,144.569 156.868,146.827 157.222,148.854 C 149.285,161.667 135.957,183.184 113.567,219.333 C 58.233,308.667 73.234,321 73.234,321 L 134.705,364.929 C 140.567,399 140.113,415.173 150.234,426.667 C 159.993,439.855 169.567,462 213.567,471.334 C 235.9,481.22 219.234,487 222.234,490 C 224.332,492.098 265.338,493.484 295.037,495.732 L 294.9,497.334 C 294.9,497.334 296.889,496.926 300.47,496.141 C 310.311,496.874 311.232,503.003 311.232,503.003 L 344.899,504.004 C 399.333,491.011 519.237,455.665 506.233,398 z M 160.43,286.752 C 157.349,283.837 156.743,279.357 160.234,272.666 C 176.234,241.999 182.282,189.157 182.282,189.157 L 182.285,189.153 C 187.41,191.923 193.294,193.666 199.901,193.666 C 205.554,193.666 210.407,192.779 214.487,191.177 C 217.398,193.4 220.425,195.712 223.507,198.069 L 223.512,198.073 L 223.512,198.073 C 240.895,211.365 259.967,226.014 269.281,233.389 C 266.494,237.855 263.568,243.207 263.568,246 C 263.568,250.468 278.08,273.181 300.035,288.667 L 280.235,288.667 C 280.234,288.667 192.981,287.135 160.43,286.752 z M 113.567,219.333 C 58.233,308.667 71.567,311 73.234,321 C 74.901,331 134.705,364.929 134.705,364.929"
   id="path2956" />
		</g>
	</svg>