<?xml version="1.0" encoding="UTF-8" standalone="no"?>
<!-- Created with Inkscape (http://www.inkscape.org/) -->
<svg
   xmlns:dc="http://purl.org/dc/elements/1.1/"
   xmlns:cc="http://web.resource.org/cc/"
   xmlns:rdf="http://www.w3.org/1999/02/22-rdf-syntax-ns#"
   xmlns:svg="http://www.w3.org/2000/svg"
   xmlns="http://www.w3.org/2000/svg"
   xmlns:sodipodi="http://sodipodi.sourceforge.net/DTD/sodipodi-0.dtd"
   xmlns:inkscape="http://www.inkscape.org/namespaces/inkscape"
   width="32"
   height="32"
   id="svg2167"
   sodipodi:version="0.32"
   inkscape:version="0.45.1"
   sodipodi:docbase="/home/src/apps/gpsdrive/gpsdrive-work/data/map-icons/svg/public"
   sodipodi:docname="firebrigade.svg"
   inkscape:output_extension="org.inkscape.output.svg.inkscape"
   version="1.0">
  <defs
     id="defs2169" />
  <sodipodi:namedview
     id="base"
     pagecolor="#ffffff"
     bordercolor="#666666"
     borderopacity="1.0"
     gridtolerance="10000"
     guidetolerance="10"
     objecttolerance="10"
     inkscape:pageopacity="0.0"
     inkscape:pageshadow="2"
     inkscape:zoom="5.6"
     inkscape:cx="45.405612"
     inkscape:cy="39.452871"
     inkscape:document-units="px"
     inkscape:current-layer="layer1"
     inkscape:window-width="974"
     inkscape:window-height="835"
     inkscape:window-x="2017"
     inkscape:window-y="0"
     width="32px"
     height="32px" />
  <metadata
     id="metadata2172">
    <rdf:RDF>
      <cc:Work
         rdf:about="">
        <dc:format>image/svg+xml</dc:format>
        <dc:type
           rdf:resource="http://purl.org/dc/dcmitype/StillImage" />
      </cc:Work>
    </rdf:RDF>
  </metadata>
  <g
     inkscape:label="Layer 1"
     inkscape:groupmode="layer"
     id="layer1"
     transform="translate(-54.457718,-496.22758)">
    <path
       d="M 62.527146,500.47996 C 62.552556,500.50327 62.688084,500.47996 62.721965,500.47996 C 62.899844,501.40649 62.840551,502.67679 63.111604,503.4984 C 63.141245,503.59163 63.46312,504.55892 63.598646,504.90856 C 63.640999,505.01929 63.801937,505.19991 63.844288,505.31064 C 63.873942,505.39222 64.115342,505.97493 64.136525,506.05067 C 64.170406,506.17887 64.432989,506.56347 64.479569,506.7208 C 64.496511,506.79072 64.678632,507.04127 64.720983,507.12287 C 64.780276,507.23358 64.814158,507.52493 64.869209,507.65896 L 65.013207,507.59486 C 64.966626,507.09373 64.970854,506.68584 64.869209,506.24879 C 64.805688,505.98075 64.716742,505.70688 64.674388,505.31064 C 64.725211,505.33977 64.814158,505.28149 64.869209,505.31064 C 64.898862,505.32811 65.09791,505.52623 65.161446,505.57868 C 65.191085,505.602 65.360452,505.73602 65.407075,505.78262 C 65.512921,505.88752 65.783976,506.33621 65.796712,506.38282 C 65.813655,506.45276 65.894156,506.58677 65.894156,506.58677 C 65.894156,506.58677 66.228773,507.24524 66.232973,507.25689 C 66.385439,507.67644 66.614076,508.81855 66.626812,508.87099 C 66.698779,509.3022 66.8217,510.14714 66.8217,510.14714 C 66.931751,511.21932 66.8217,512.04094 66.8217,513.16558 C 66.863986,513.11896 66.914806,513.20054 66.96563,513.16558 C 66.99531,513.14226 67.18166,512.89169 67.21134,512.8276 C 67.240887,512.75768 67.30865,512.55955 67.30865,512.55955 C 67.494997,511.89526 67.452714,510.91631 67.452714,510.00728 C 67.524677,510.08886 67.74071,510.19376 67.795731,510.28114 C 67.816874,510.31612 67.95674,510.62495 67.990618,510.68323 C 68.054045,510.78229 68.358981,511.45822 68.38026,511.55145 C 68.414137,511.70297 68.477565,512.2274 68.477565,512.2274 C 68.651312,513.39866 68.409801,514.92536 68.236195,515.85186 C 68.278613,515.83438 68.329435,515.94509 68.431079,515.91596 C 68.452221,515.91014 68.841862,515.51389 68.918029,515.44981 C 68.956247,515.79942 68.926566,516.16652 68.968853,516.58607 C 69.04095,517.41352 69.261183,518.41001 69.16374,519.47622 C 69.053556,520.61833 68.668252,522.27323 68.236195,522.96671 C 68.172631,523.06572 68.007557,523.31633 67.990618,523.36873 C 67.990618,523.36873 67.799933,523.63687 67.749111,523.70679 C 67.5755,523.90482 66.99531,524.44689 66.919009,524.51083 C 66.813163,524.59829 66.402383,524.92462 66.330416,524.97702 C 66.203292,525.07621 65.800916,525.3326 65.745893,525.38499 C 66.042423,525.41409 66.919009,525.33838 67.113897,525.58303 C 67.113897,525.58303 67.092753,526.02012 67.113897,526.38726 C 64.280522,526.38726 61.451404,526.38726 58.622283,526.38726 C 58.622283,525.80455 58.584159,525.26268 58.867926,525.11108 C 58.901807,525.09356 58.986511,525.14614 59.011922,525.11108 C 59.054274,525.05868 59.024621,524.83138 59.062744,524.77899 C 58.95263,524.55168 58.850984,524.31282 58.673106,524.17297 L 58.283467,523.63687 C 58.249585,523.57273 58.186049,523.36873 58.186049,523.36873 C 58.15641,523.29302 58.054766,523.07169 58.037825,523.03085 C 57.927708,522.79199 57.635473,522.00529 57.597363,521.75467 C 57.588892,521.68475 57.453366,517.03477 57.453366,516.11991 C 57.453366,516.11991 57.461836,515.98006 57.453366,515.91596 L 57.258545,515.24584 C 57.220422,515.19922 57.13996,515.04772 57.110307,514.9778 C 57.110307,514.9778 57.034073,514.8496 57.012904,514.77386 C 57.012904,514.76802 56.750321,514.29019 56.720668,514.23776 C 56.623264,514.06877 56.33527,513.8998 56.280206,513.70167 C 56.259037,513.62591 56.314088,513.56763 56.280206,513.50355 C 56.940898,513.2355 57.466064,513.52102 57.940408,513.90561 C 57.98276,513.94057 58.317349,514.19696 58.478287,514.30769 C 58.588401,513.61425 58.706988,512.54207 58.57569,511.68549 C 58.520638,511.35334 58.380869,510.93379 58.283467,510.5492 C 58.219931,510.3103 57.643943,509.44205 57.597363,509.27308 C 57.56771,509.15652 57.627002,509.05164 57.597363,508.93509 C 57.673596,508.90595 57.686295,508.99919 57.694766,508.87099 C 57.970061,508.94091 58.20299,508.88849 58.478287,509.00502 C 58.550278,509.03415 58.931446,509.3022 59.011922,509.33716 C 59.011922,509.33716 59.710725,510.07137 59.939427,510.34526 C 59.973308,510.38604 60.193539,510.62495 60.282485,510.68323 C 60.477304,509.76255 60.405299,507.43752 60.185069,506.7208 C 60.17237,506.69166 60.104606,506.49936 60.087665,506.45276 C 60.074952,506.45276 59.939427,506.15557 59.892846,506.11477 C 59.892846,506.11477 59.791201,505.78262 59.744607,505.57868 C 59.689557,505.33395 59.507435,504.86778 59.40579,504.64051 C 59.566729,504.58808 59.706496,504.51816 59.842023,504.57059 C 59.98602,504.62304 60.498473,504.98431 60.62553,505.11251 C 60.646713,505.12999 60.862701,505.49127 60.866944,505.51458 C 60.866944,505.51458 61.027881,505.70104 61.112585,505.78262 C 61.294694,505.95744 61.353986,506.28375 61.502224,506.51685 C 61.561518,506.61591 61.675861,506.63922 61.747867,506.7208 C 62.129036,505.97493 61.917276,505.63112 61.794448,504.77454 C 61.629282,503.6266 61.523395,501.8202 62.040089,500.94612 C 62.154447,500.74801 62.374678,500.62565 62.527146,500.47996 z M 64.039107,515.91596 C 63.742644,517.04643 63.480061,518.15939 63.162428,519.20827 C 63.120074,519.34235 63.137015,519.42962 63.111604,519.6103 C 62.963364,519.6336 62.946424,519.60452 62.87019,519.54038 C 62.823609,519.5055 62.544087,519.1266 62.527146,519.07421 C 62.505962,518.9985 62.400089,518.85286 62.378906,518.80625 C 62.349266,518.73035 62.285732,518.5381 62.281504,518.5381 C 62.154447,518.26419 62.044331,517.80398 61.946915,517.5126 C 61.904563,517.54759 61.819858,517.86216 61.794448,517.86216 C 61.64198,519.73262 62.040089,520.72332 62.332327,522.09273 C 61.972326,522.06346 61.485284,521.76045 61.184577,521.47498 C 61.163409,521.45744 60.676353,520.58924 60.528126,519.80852 C 60.447191,519.38225 60.447652,519.01602 60.333307,518.60226 L 60.231662,518.5381 C 60.053784,519.37721 59.884376,520.54841 60.036843,521.69053 C 60.049542,521.76641 60.214722,522.41906 60.282485,522.62882 C 60.324837,522.76271 60.934707,523.93409 60.964347,523.97475 C 61.121056,524.14966 61.451404,524.51083 61.451404,524.51083 C 61.722456,524.68575 62.671143,524.75567 63.06501,524.64492 C 63.06501,524.64492 63.67488,524.37696 63.890883,524.17297 C 63.903582,524.16121 64.360984,523.82334 64.479569,523.70679 C 64.560046,523.61935 65.152972,522.80932 65.258849,522.56468 C 65.305444,522.44814 65.673925,521.82459 65.745893,521.69053 C 65.788308,521.60904 65.894156,521.35264 65.894156,521.35264 C 66.046622,521.02633 66.097446,520.62431 66.186352,520.21631 C 65.771368,520.44362 65.669726,520.66495 65.110621,520.75241 C 65.3012,520.25137 65.911095,518.80625 65.843336,518.11855 L 65.745893,517.86216 C 65.508718,518.39247 65.25462,518.81782 64.915803,519.20827 C 64.822628,519.31307 64.68286,519.55212 64.576987,519.6103 C 64.517694,519.63938 64.365225,519.79098 64.331345,519.80852 C 64.27628,519.8376 64.23817,519.77345 64.187347,519.80852 C 64.27628,518.9694 64.504981,518.107 64.382167,517.05808 C 64.382167,517.05808 64.288993,516.37631 64.233927,516.18401 C 64.204288,516.07913 64.191575,516.11409 64.136525,515.91596 L 64.039107,515.91596 z "
       id="path11"
       style="fill:#ff9900;fill-opacity:1;stroke:none" />
    <path
       style="fill:none;fill-rule:evenodd;stroke:#0527fb;stroke-width:2.02165103;stroke-linecap:butt;stroke-linejoin:miter;stroke-miterlimit:4;stroke-dasharray:none;stroke-opacity:1"
       d="M 79.375828,516.86156 L 77.375802,513.7258"
       id="path2421"
       inkscape:transform-center-y="-0.96097153"
       inkscape:transform-center-x="-0.15511913"
       sodipodi:nodetypes="cc" />
    <path
       style="fill:none;fill-rule:evenodd;stroke:#0527fb;stroke-width:0.74129581;stroke-linecap:butt;stroke-linejoin:miter;stroke-miterlimit:4;stroke-dasharray:1.48259145, 0.74129573;stroke-dashoffset:7.41295731;stroke-opacity:1"
       d="M 77.364504,513.9225 C 77.364504,513.9225 73.114724,505.64463 63.663923,518.86529"
       id="path2423"
       sodipodi:nodetypes="cc" />
    <path
       style="fill:none;fill-rule:evenodd;stroke:#0527fb;stroke-width:0.68068051;stroke-linecap:butt;stroke-linejoin:miter;stroke-miterlimit:4;stroke-dasharray:1.36136119, 0.6806806;stroke-dashoffset:6.80680598;stroke-opacity:1"
       d="M 77.541067,513.72085 C 77.541067,513.72085 76.143142,505.22145 63.034873,515.32695"
       id="path3406"
       sodipodi:nodetypes="cc" />
    <path
       style="fill:none;fill-rule:evenodd;stroke:#0527fb;stroke-width:0.88180095;stroke-linecap:butt;stroke-linejoin:miter;stroke-miterlimit:4;stroke-dasharray:1.76360187, 0.88180093;stroke-dashoffset:8.81800935;stroke-opacity:1"
       d="M 77.042348,513.98399 C 77.042348,513.98399 72.855846,507.63122 65.55801,519.3746"
       id="path3408"
       sodipodi:nodetypes="cc" />
    <path
       style="fill:none;fill-rule:evenodd;stroke:#0605f1;stroke-width:1.11941195;stroke-linecap:butt;stroke-linejoin:miter;stroke-miterlimit:4;stroke-dasharray:none;stroke-opacity:1"
       d="M 79.188733,516.47675 C 84.056406,522.14583 70.338417,525.62459 85.826472,525.62459"
       id="path3428"
       sodipodi:nodetypes="cc" />
  </g>
</svg>
