<?xml version="1.0" encoding="UTF-8" standalone="no"?>
<!-- Created with Inkscape (http://www.inkscape.org/) -->
<svg
   xmlns:dc="http://purl.org/dc/elements/1.1/"
   xmlns:cc="http://web.resource.org/cc/"
   xmlns:rdf="http://www.w3.org/1999/02/22-rdf-syntax-ns#"
   xmlns:svg="http://www.w3.org/2000/svg"
   xmlns="http://www.w3.org/2000/svg"
   xmlns:sodipodi="http://sodipodi.sourceforge.net/DTD/sodipodi-0.dtd"
   xmlns:inkscape="http://www.inkscape.org/namespaces/inkscape"
   width="75.415855"
   height="45.636299"
   id="svg2299"
   sodipodi:version="0.32"
   inkscape:version="0.45.1"
   sodipodi:docbase="/home/src/apps/gpsdrive/gpsdrive-work/data/map-icons/svg/public"
   sodipodi:docname="firebrigade.svg"
   inkscape:output_extension="org.inkscape.output.svg.inkscape"
   version="1.0">
  <defs
     id="defs2301">
    <marker
       viewBox="0 0 10 10"
       refY="5"
       refX="10"
       orient="auto"
       markerWidth="4"
       markerUnits="strokeWidth"
       markerHeight="3"
       id="ArrowStart">
      <path
         id="path6"
         d="M 10,0 L 0,5 L 10,10 L 10,0 z " />
    </marker>
    <marker
       viewBox="0 0 10 10"
       refY="5"
       refX="0"
       orient="auto"
       markerWidth="4"
       markerUnits="strokeWidth"
       markerHeight="3"
       id="ArrowEnd">
      <path
         id="path4"
         d="M 0,0 L 10,5 L 0,10 L 0,0 z " />
    </marker>
  </defs>
  <sodipodi:namedview
     id="base"
     pagecolor="#ffffff"
     bordercolor="#666666"
     borderopacity="1.0"
     gridtolerance="10000"
     guidetolerance="10"
     objecttolerance="10"
     inkscape:pageopacity="0.0"
     inkscape:pageshadow="2"
     inkscape:zoom="5.6"
     inkscape:cx="88.407651"
     inkscape:cy="12.867937"
     inkscape:document-units="px"
     inkscape:current-layer="layer1"
     inkscape:window-width="1426"
     inkscape:window-height="1085"
     inkscape:window-x="1690"
     inkscape:window-y="0" />
  <metadata
     id="metadata2304">
    <rdf:RDF>
      <cc:Work
         rdf:about="">
        <dc:format>image/svg+xml</dc:format>
        <dc:type
           rdf:resource="http://purl.org/dc/dcmitype/StillImage" />
      </cc:Work>
    </rdf:RDF>
  </metadata>
  <g
     inkscape:label="Layer 1"
     inkscape:groupmode="layer"
     id="layer1"
     transform="translate(-7.2841424,-114.15909)">
    <path
       d="M 22.604125,114.15909 C 22.666394,114.20014 22.998493,114.15909 23.081518,114.15909 C 23.517399,115.79118 23.372105,118.02885 24.036304,119.47614 C 24.108935,119.64037 24.897671,121.34429 25.229771,121.96017 C 25.333552,122.15521 25.72792,122.4734 25.831701,122.66844 C 25.904365,122.81214 26.4959,123.8386 26.547808,123.97202 C 26.630832,124.19785 27.274275,124.87531 27.388418,125.15247 C 27.429931,125.27564 27.876206,125.717 27.979987,125.86071 C 28.125281,126.05575 28.208306,126.56898 28.343204,126.80505 L 28.69606,126.69215 C 28.581918,125.8094 28.592279,125.09088 28.343204,124.32102 C 28.187549,123.84885 27.969592,123.36643 27.865811,122.66844 C 27.990349,122.71975 28.208306,122.6171 28.343204,122.66844 C 28.415868,122.69922 28.903622,123.04821 29.059311,123.14061 C 29.131941,123.18167 29.546966,123.41774 29.661208,123.49985 C 29.920578,123.68462 30.584777,124.47501 30.615994,124.55712 C 30.657507,124.6803 30.854774,124.91637 30.854774,124.91637 C 30.854774,124.91637 31.674728,126.07628 31.685023,126.09681 C 32.058635,126.83586 32.618887,128.84771 32.650104,128.94008 C 32.826449,129.69966 33.127664,131.18804 33.127664,131.18804 C 33.397328,133.07672 33.127664,134.52401 33.127664,136.50508 C 33.231279,136.42297 33.355816,136.56667 33.480353,136.50508 C 33.553083,136.46403 34.00972,136.02263 34.08245,135.90974 C 34.154848,135.78656 34.320897,135.43757 34.320897,135.43757 C 34.777534,134.26741 34.673919,132.54296 34.673919,130.94169 C 34.850264,131.08539 35.379631,131.27015 35.514463,131.4241 C 35.566271,131.48569 35.908998,132.02973 35.992022,132.13238 C 36.147445,132.30686 36.894669,133.49755 36.946809,133.66178 C 37.029834,133.92866 37.185256,134.85247 37.185256,134.85247 C 37.611008,136.91567 37.019206,139.60499 36.593787,141.23704 C 36.697734,141.20626 36.822271,141.40127 37.071346,141.34996 C 37.123154,141.33968 38.077942,140.64169 38.264582,140.5288 C 38.358234,141.14467 38.285504,141.79132 38.389119,142.53037 C 38.565796,143.98794 39.105458,145.74327 38.866678,147.62144 C 38.596681,149.63329 37.65252,152.54843 36.593787,153.77 C 36.438032,153.94441 36.033535,154.38587 35.992022,154.47817 C 35.992022,154.47817 35.524758,154.95051 35.400221,155.07368 C 34.974801,155.42251 33.553083,156.37737 33.366111,156.49003 C 33.106741,156.64408 32.100147,157.2189 31.923803,157.31119 C 31.612293,157.48594 30.626289,157.93758 30.491457,158.02988 C 31.218091,158.08112 33.366111,157.94776 33.84367,158.37871 C 33.84367,158.37871 33.791863,159.14864 33.84367,159.79539 C 26.900663,159.79539 19.968085,159.79539 13.035506,159.79539 C 13.035506,158.76893 12.942086,157.81441 13.637436,157.54736 C 13.720461,157.51649 13.928023,157.60911 13.990292,157.54736 C 14.094073,157.45506 14.02141,157.05466 14.114829,156.96236 C 13.844998,156.56196 13.595924,156.1412 13.160043,155.89485 L 12.205257,154.95051 C 12.122232,154.83751 11.966543,154.47817 11.966543,154.47817 C 11.893913,154.34482 11.644839,153.95493 11.603326,153.88299 C 11.333495,153.46223 10.617389,152.07643 10.524002,151.63497 C 10.503246,151.51179 10.171147,143.32076 10.171147,141.70921 C 10.171147,141.70921 10.191903,141.46286 10.171147,141.34996 L 9.6937535,140.16952 C 9.6003339,140.0874 9.4031664,139.82053 9.330503,139.69735 C 9.330503,139.69735 9.143697,139.47153 9.091823,139.33811 C 9.091823,139.32783 8.4483801,138.48613 8.3757167,138.39377 C 8.1370369,138.09608 7.4313253,137.79842 7.2963932,137.44943 C 7.2445192,137.31597 7.3794181,137.21332 7.2963932,137.10043 C 8.9153785,136.62826 10.202264,137.13121 11.364613,137.80867 C 11.468394,137.87026 12.288282,138.3219 12.68265,138.51694 C 12.952481,137.29544 13.243068,135.40676 12.92133,133.89788 C 12.786431,133.31279 12.443937,132.57374 12.205257,131.89628 C 12.049568,131.47544 10.638145,129.94601 10.524002,129.64835 C 10.451339,129.44306 10.596633,129.2583 10.524002,129.053 C 10.710809,129.00167 10.741926,129.1659 10.762682,128.94008 C 11.437276,129.06325 12.008056,128.97089 12.68265,129.17618 C 12.859061,129.22749 13.793091,129.69966 13.990292,129.76124 C 13.990292,129.76124 15.702664,131.05458 16.263082,131.53703 C 16.346107,131.60887 16.885769,132.02973 17.103726,132.13238 C 17.581119,130.51057 17.404674,126.41499 16.865012,125.15247 C 16.833895,125.10113 16.667845,124.76241 16.626332,124.6803 C 16.595181,124.6803 16.263082,124.15679 16.148939,124.08495 C 16.148939,124.08495 15.899865,123.49985 15.785689,123.14061 C 15.65079,122.7095 15.204514,121.88833 14.95544,121.488 C 15.349808,121.39563 15.692302,121.27246 16.024402,121.36482 C 16.377258,121.45722 17.632993,122.09362 17.944336,122.31944 C 17.996243,122.35022 18.52551,122.98663 18.535905,123.02768 C 18.535905,123.02768 18.930273,123.35615 19.137836,123.49985 C 19.584078,123.80779 19.729371,124.38261 20.092622,124.79319 C 20.237915,124.9677 20.518108,125.00876 20.694552,125.15247 C 21.628582,123.8386 21.109677,123.23298 20.808695,121.7241 C 20.403965,119.70196 20.144496,116.51994 21.410625,114.98026 C 21.690851,114.63126 22.230513,114.41572 22.604125,114.15909 z M 26.309094,141.34996 C 25.582627,143.34129 24.939184,145.30181 24.160842,147.14943 C 24.057061,147.3856 24.098573,147.53932 24.036304,147.85761 C 23.673054,147.89866 23.631541,147.84742 23.444735,147.73443 C 23.330593,147.67301 22.645637,147.00556 22.604125,146.91326 C 22.552218,146.77991 22.292782,146.52337 22.240874,146.44126 C 22.168244,146.30757 22.012556,145.96892 22.002194,145.96892 C 21.690851,145.48641 21.42102,144.67575 21.182307,144.16246 C 21.078526,144.22411 20.870964,144.77823 20.808695,144.77823 C 20.435083,148.07308 21.410625,149.81822 22.126732,152.23048 C 21.244576,152.17891 20.051109,151.64515 19.314247,151.14227 C 19.262373,151.11139 18.068873,149.58205 17.705656,148.20676 C 17.507326,147.45589 17.508455,146.81078 17.228263,146.08192 L 16.979188,145.96892 C 16.543308,147.44702 16.128183,149.51012 16.501795,151.52198 C 16.532913,151.65566 16.937676,152.80529 17.103726,153.17482 C 17.207507,153.41066 18.701955,155.47408 18.774585,155.54569 C 19.158592,155.85379 19.968085,156.49003 19.968085,156.49003 C 20.632284,156.79813 22.956981,156.92131 23.922129,156.7262 C 23.922129,156.7262 25.416577,156.25419 25.945877,155.89485 C 25.976995,155.87415 27.097831,155.27897 27.388418,155.07368 C 27.585619,154.91963 29.038555,153.49277 29.297991,153.06183 C 29.412167,152.85653 30.315112,151.75814 30.491457,151.52198 C 30.595404,151.37844 30.854774,150.92679 30.854774,150.92679 C 31.228386,150.35198 31.352923,149.64381 31.570781,148.92512 C 30.553892,149.32552 30.304817,149.71541 28.934773,149.86946 C 29.401772,148.98687 30.896286,146.44126 30.730237,145.22987 L 30.491457,144.77823 C 29.910283,145.71239 29.287629,146.46162 28.45738,147.14943 C 28.229062,147.33403 27.886567,147.75512 27.627131,147.85761 C 27.481838,147.90885 27.108226,148.17589 27.025201,148.20676 C 26.890269,148.25801 26.796882,148.14501 26.672345,148.20676 C 26.890269,146.72867 27.450687,145.20951 27.149738,143.36182 C 27.149738,143.36182 26.92142,142.16085 26.786488,141.82213 C 26.713857,141.63737 26.682706,141.69896 26.547808,141.34996 L 26.309094,141.34996 z "
       id="path11"
       style="fill:#ff9900;fill-opacity:1;stroke:none" />
    <path
       style="fill:none;fill-rule:evenodd;stroke:#0527fb;stroke-width:5.23738194;stroke-linecap:butt;stroke-linejoin:miter;stroke-miterlimit:4;stroke-dasharray:none;stroke-opacity:1"
       d="M 65.631569,133.07172 L 60.789063,124.37961"
       id="path2421"
       inkscape:transform-center-y="-2.6637374"
       inkscape:transform-center-x="-0.37557878"
       sodipodi:nodetypes="cc" />
    <path
       style="fill:none;fill-rule:evenodd;stroke:#0527fb;stroke-width:1.92043495;stroke-linecap:butt;stroke-linejoin:miter;stroke-miterlimit:4;stroke-dasharray:3.84086977, 1.92043489;stroke-dashoffset:19.20434887;stroke-opacity:1"
       d="M 60.761708,124.92485 C 60.761708,124.92485 50.472049,101.9792 27.589576,138.62587"
       id="path2423"
       sodipodi:nodetypes="cc" />
    <path
       style="fill:none;fill-rule:evenodd;stroke:#0527fb;stroke-width:1.76340246;stroke-linecap:butt;stroke-linejoin:miter;stroke-miterlimit:4;stroke-dasharray:3.52680506, 1.76340253;stroke-dashoffset:17.63402531;stroke-opacity:1"
       d="M 61.189203,124.36589 C 61.189203,124.36589 57.804525,100.80616 26.066507,128.81789"
       id="path3406"
       sodipodi:nodetypes="cc" />
    <path
       style="fill:none;fill-rule:evenodd;stroke:#0527fb;stroke-width:2.28443432;stroke-linecap:butt;stroke-linejoin:miter;stroke-miterlimit:4;stroke-dasharray:4.56886829, 2.28443414;stroke-dashoffset:22.84434142;stroke-opacity:1"
       d="M 59.981703,125.09529 C 59.981703,125.09529 49.845255,107.48589 32.175581,140.03766"
       id="path3408"
       sodipodi:nodetypes="cc" />
    <path
       style="fill:none;fill-rule:evenodd;stroke:#0605f1;stroke-width:2.9000001;stroke-linecap:butt;stroke-linejoin:miter;stroke-miterlimit:4;stroke-dasharray:none;stroke-opacity:1"
       d="M 65.178571,132.00504 C 76.964286,147.71932 43.75,157.36219 81.25,157.36218"
       id="path3428"
       sodipodi:nodetypes="cc" />
  </g>
</svg>
