<?xml version="1.0" encoding="UTF-8" standalone="no"?>
<!-- Created with Inkscape (http://www.inkscape.org/) -->
<svg
   xmlns:dc="http://purl.org/dc/elements/1.1/"
   xmlns:cc="http://web.resource.org/cc/"
   xmlns:rdf="http://www.w3.org/1999/02/22-rdf-syntax-ns#"
   xmlns:svg="http://www.w3.org/2000/svg"
   xmlns="http://www.w3.org/2000/svg"
   xmlns:sodipodi="http://sodipodi.sourceforge.net/DTD/sodipodi-0.dtd"
   xmlns:inkscape="http://www.inkscape.org/namespaces/inkscape"
   width="32"
   height="32"
   id="svg2167"
   sodipodi:version="0.32"
   inkscape:version="0.45.1"
   sodipodi:docbase="/home/tweety/svn.openstreetmap.org/applications/share/map-icons/svg/public"
   sodipodi:docname="firebrigade.svg"
   inkscape:output_extension="org.inkscape.output.svg.inkscape"
   version="1.0">
  <defs
     id="defs2169" />
  <sodipodi:namedview
     id="base"
     pagecolor="#ffffff"
     bordercolor="#666666"
     borderopacity="1.0"
     gridtolerance="10000"
     guidetolerance="10"
     objecttolerance="10"
     inkscape:pageopacity="0.0"
     inkscape:pageshadow="2"
     inkscape:zoom="11.2"
     inkscape:cx="38.001264"
     inkscape:cy="13.605357"
     inkscape:document-units="px"
     inkscape:current-layer="layer1"
     inkscape:window-width="974"
     inkscape:window-height="835"
     inkscape:window-x="418"
     inkscape:window-y="136"
     width="32px"
     height="32px" />
  <metadata
     id="metadata2172">
    <rdf:RDF>
      <cc:Work
         rdf:about="">
        <dc:format>image/svg+xml</dc:format>
        <dc:type
           rdf:resource="http://purl.org/dc/dcmitype/StillImage" />
        <cc:license
           rdf:resource="http://web.resource.org/cc/PublicDomain" />
      </cc:Work>
      <cc:License
         rdf:about="http://web.resource.org/cc/PublicDomain">
        <cc:permits
           rdf:resource="http://web.resource.org/cc/Reproduction" />
        <cc:permits
           rdf:resource="http://web.resource.org/cc/Distribution" />
        <cc:permits
           rdf:resource="http://web.resource.org/cc/DerivativeWorks" />
      </cc:License>
    </rdf:RDF>
  </metadata>
  <g
     inkscape:label="Layer 1"
     inkscape:groupmode="layer"
     id="layer1"
     transform="translate(-54.457718,-496.22758)">
    <path
       d="M 62.547077,497.22945 C 62.572429,497.25572 62.707651,497.22945 62.741455,497.22945 C 62.918931,498.27352 62.859772,499.70498 63.130212,500.63083 C 63.159786,500.73588 63.480932,501.82589 63.616151,502.21989 C 63.658408,502.34466 63.818982,502.5482 63.861237,502.67298 C 63.890824,502.76491 64.131677,503.42154 64.152812,503.50689 C 64.186617,503.65135 64.448605,504.08475 64.49508,504.26204 C 64.511983,504.34083 64.693692,504.62316 64.735947,504.71511 C 64.795106,504.83987 64.828911,505.16818 64.883838,505.31922 L 65.02751,505.24698 C 64.981034,504.68228 64.985252,504.22264 64.883838,503.73014 C 64.82046,503.4281 64.731716,503.11948 64.689458,502.67298 C 64.740166,502.7058 64.828911,502.64013 64.883838,502.67298 C 64.913423,502.69266 65.112021,502.91592 65.175413,502.97502 C 65.204985,503.0013 65.373968,503.15232 65.420486,503.20483 C 65.526092,503.32304 65.796534,503.82865 65.809241,503.88118 C 65.826145,503.95999 65.906464,504.111 65.906464,504.111 C 65.906464,504.111 66.240324,504.85301 66.244514,504.86614 C 66.396635,505.33891 66.624754,506.62592 66.637461,506.68501 C 66.709265,507.17093 66.831908,508.12306 66.831908,508.12306 C 66.94171,509.33126 66.831908,510.25712 66.831908,511.52443 C 66.874098,511.4719 66.924803,511.56383 66.975512,511.52443 C 67.005125,511.49815 67.191053,511.2158 67.220666,511.14358 C 67.250146,511.06479 67.317756,510.84152 67.317756,510.84152 C 67.503681,510.09295 67.461494,508.98981 67.461494,507.96546 C 67.533294,508.05738 67.748838,508.17559 67.803734,508.27406 C 67.824829,508.31348 67.964379,508.66149 67.99818,508.72716 C 68.061463,508.83879 68.365709,509.60047 68.38694,509.70553 C 68.42074,509.87627 68.484024,510.46723 68.484024,510.46723 C 68.657378,511.78708 68.416414,513.50747 68.243201,514.55151 C 68.285523,514.53181 68.33623,514.65657 68.437644,514.62374 C 68.458738,514.61718 68.847497,514.17066 68.923491,514.09845 C 68.961623,514.49242 68.932009,514.90609 68.9742,515.37886 C 69.046134,516.31129 69.265868,517.4342 69.168646,518.63567 C 69.058711,519.92268 68.67428,521.78753 68.243201,522.56899 C 68.179781,522.68056 68.01508,522.96296 67.99818,523.02201 C 67.99818,523.02201 67.807927,523.32417 67.75722,523.40296 C 67.584002,523.62611 67.005125,524.23695 66.928997,524.309 C 66.823391,524.40756 66.413541,524.77529 66.341736,524.83433 C 66.2149,524.94611 65.813435,525.23502 65.758537,525.29406 C 66.054395,525.32685 66.928997,525.24154 67.123444,525.51722 C 67.123444,525.51722 67.102348,526.00977 67.123444,526.42348 C 64.296483,526.42348 61.47377,526.42348 58.651054,526.42348 C 58.651054,525.76685 58.613017,525.15623 58.896141,524.9854 C 58.929946,524.96566 59.014458,525.02491 59.039811,524.9854 C 59.082067,524.92635 59.052481,524.67022 59.090518,524.61118 C 58.980653,524.35503 58.879238,524.08587 58.701762,523.92828 L 58.313005,523.32417 C 58.2792,523.25189 58.215808,523.02201 58.215808,523.02201 C 58.186236,522.93669 58.084822,522.68728 58.06792,522.64126 C 57.958052,522.3721 57.666478,521.48559 57.628455,521.20318 C 57.620003,521.12439 57.484784,515.88449 57.484784,514.85356 C 57.484784,514.85356 57.493235,514.69597 57.484784,514.62374 L 57.290404,513.86861 C 57.252367,513.81607 57.172087,513.64535 57.142501,513.56656 C 57.142501,513.56656 57.06644,513.4221 57.045319,513.33675 C 57.045319,513.33017 56.78333,512.79172 56.753745,512.73264 C 56.656561,512.54221 56.369219,512.3518 56.31428,512.12853 C 56.293159,512.04316 56.348085,511.97749 56.31428,511.90528 C 56.973476,511.60322 57.497453,511.92497 57.970723,512.35835 C 58.012979,512.39774 58.346811,512.68666 58.507384,512.81144 C 58.617249,512.03002 58.735568,510.82182 58.604567,509.85657 C 58.549639,509.48228 58.410187,509.00951 58.313005,508.57613 C 58.249613,508.30692 57.674929,507.32852 57.628455,507.13811 C 57.598869,507.00676 57.658027,506.88858 57.628455,506.75724 C 57.704515,506.7244 57.717185,506.82947 57.725637,506.68501 C 58.000309,506.7638 58.232711,506.70473 58.507384,506.83604 C 58.579212,506.86887 58.959517,507.17093 59.039811,507.21032 C 59.039811,507.21032 59.737032,508.03768 59.965216,508.34631 C 59.999021,508.39227 60.218753,508.66149 60.307498,508.72716 C 60.501876,507.68968 60.430034,505.06968 60.210302,504.26204 C 60.197632,504.2292 60.130021,504.0125 60.113119,503.95999 C 60.100435,503.95999 59.965216,503.6251 59.918741,503.57912 C 59.918741,503.57912 59.817326,503.20483 59.770837,502.97502 C 59.715912,502.69924 59.534202,502.17393 59.432788,501.91783 C 59.593362,501.85875 59.732813,501.77996 59.868033,501.83904 C 60.011704,501.89814 60.522997,502.30525 60.649766,502.44971 C 60.670901,502.46941 60.8864,502.87652 60.890634,502.90279 C 60.890634,502.90279 61.051206,503.1129 61.135718,503.20483 C 61.317415,503.40183 61.376573,503.76954 61.524475,504.03221 C 61.583635,504.14384 61.697719,504.17011 61.769562,504.26204 C 62.149868,503.42154 61.938588,503.03411 61.816038,502.06886 C 61.651246,500.77529 61.545598,498.73972 62.061123,497.75475 C 62.175222,497.53151 62.394954,497.39362 62.547077,497.22945 z M 64.055615,514.62374 C 63.759823,515.89763 63.497835,517.15178 63.180921,518.33373 C 63.138663,518.48482 63.155565,518.58316 63.130212,518.78676 C 62.982307,518.81302 62.965406,518.78025 62.889344,518.70797 C 62.842869,518.66867 62.56398,518.2417 62.547077,518.18266 C 62.525941,518.09735 62.420308,517.93323 62.399173,517.88071 C 62.3696,517.79518 62.306209,517.57854 62.301991,517.57854 C 62.175222,517.26988 62.065355,516.75128 61.96816,516.42294 C 61.925903,516.46237 61.84139,516.81685 61.816038,516.81685 C 61.663915,518.9246 62.061123,520.04099 62.352699,521.58413 C 61.993513,521.55114 61.507574,521.20969 61.207547,520.88801 C 61.186427,520.86824 60.700474,519.8899 60.552583,519.01013 C 60.471831,518.52978 60.472291,518.11709 60.358205,517.65084 L 60.25679,517.57854 C 60.079315,518.5241 59.91029,519.84389 60.062412,521.1309 C 60.075082,521.21641 60.239888,521.95186 60.307498,522.18823 C 60.349754,522.3391 60.958243,523.65909 60.987816,523.70491 C 61.14417,523.90201 61.47377,524.309 61.47377,524.309 C 61.744209,524.50611 62.690748,524.5849 63.083723,524.4601 C 63.083723,524.4601 63.692212,524.15815 63.907726,523.92828 C 63.920397,523.91503 64.376763,523.53429 64.49508,523.40296 C 64.575374,523.30442 65.166958,522.39163 65.272595,522.11595 C 65.319085,521.98463 65.686732,521.28197 65.758537,521.1309 C 65.800856,521.03907 65.906464,520.75015 65.906464,520.75015 C 66.058585,520.38244 66.109294,519.92942 66.197999,519.46966 C 65.783954,519.7258 65.682542,519.97521 65.124703,520.07377 C 65.314851,519.50916 65.923365,517.88071 65.855759,517.10576 L 65.758537,516.81685 C 65.521899,517.41443 65.268376,517.89375 64.930326,518.33373 C 64.837362,518.45183 64.69791,518.7212 64.592277,518.78676 C 64.533118,518.81953 64.380995,518.99037 64.347191,519.01013 C 64.292251,519.0429 64.254227,518.97061 64.203519,519.01013 C 64.292251,518.06456 64.520434,517.09275 64.397898,515.91076 C 64.397898,515.91076 64.304935,515.14249 64.249994,514.9258 C 64.220422,514.80761 64.207738,514.84701 64.152812,514.62374 L 64.055615,514.62374 z "
       id="path11"
       style="fill:#ff9900;fill-opacity:1;stroke:none" />
    <path
       style="fill:none;fill-rule:evenodd;stroke:#05163e;stroke-width:2.53206968;stroke-linecap:butt;stroke-linejoin:miter;stroke-miterlimit:4;stroke-dasharray:none;stroke-opacity:1"
       d="M 79.75932,511.6353 L 78.764489,509.1589"
       id="path2421"
       inkscape:transform-center-y="-1.525048"
       inkscape:transform-center-x="-0.15333103"
       sodipodi:nodetypes="cc" />
    <path
       style="fill:none;fill-rule:evenodd;stroke:#05163e;stroke-width:1.40203679;stroke-linecap:butt;stroke-linejoin:miter;stroke-miterlimit:4;stroke-dasharray:none;stroke-opacity:1"
       d="M 79.485097,510.93534 C 84.296665,519.93209 70.736788,525.45285 86.04633,525.45285"
       id="path3428"
       sodipodi:nodetypes="cc" />
    <path
       style="fill:none;fill-rule:evenodd;stroke:#007bb8;stroke-width:1;stroke-linecap:butt;stroke-linejoin:miter;stroke-opacity:1;stroke-miterlimit:3;stroke-dasharray:4,1;stroke-dashoffset:0"
       d="M 11.517857,21.732143 C 11.517857,21.732143 19.642858,3.1607143 24.464286,12.892857"
       id="path2165"
       transform="translate(54.457718,496.22758)"
       sodipodi:nodetypes="cc" />
    <path
       style="fill:none;fill-rule:evenodd;stroke:#007bb8;stroke-width:1;stroke-linecap:butt;stroke-linejoin:miter;stroke-miterlimit:3;stroke-dasharray:4, 1;stroke-dashoffset:0;stroke-opacity:1"
       d="M 58.118432,521.51414 C 58.118432,521.51414 66.689861,501.69271 72.225575,515.17485"
       id="path4107"
       sodipodi:nodetypes="cc"
       transform="translate(54.457718,496.22758)" />
    <path
       style="fill:none;fill-rule:evenodd;stroke:#007bb8;stroke-width:1;stroke-linecap:butt;stroke-linejoin:miter;stroke-miterlimit:3;stroke-dasharray:4, 1;stroke-dashoffset:0;stroke-opacity:1"
       d="M 64.011289,513.92486 C 64.011289,513.92486 73.118434,497.04986 78.832719,509.01414"
       id="path4109"
       sodipodi:nodetypes="cc" />
    <path
       style="fill:none;fill-rule:evenodd;stroke:#007bb8;stroke-width:1;stroke-linecap:butt;stroke-linejoin:miter;stroke-miterlimit:3;stroke-dasharray:4, 1;stroke-dashoffset:0;stroke-opacity:1"
       d="M 63.475575,509.99629 C 63.475575,509.99629 74.904147,494.63914 78.832718,509.01414"
       id="path4111"
       sodipodi:nodetypes="cc" />
  </g>
</svg>
