<?xml version="1.0" encoding="utf-8"?>
<svg xmlns="http://www.w3.org/2000/svg">
    <defs>
        <symbol id="symbol-recycling" viewBox="40 40 80 80">
            <g stroke='none' fill='#00ba00'>
                <path d="M 55.0,37.3 L 72.1,27.0 L 79.8,41.9 C 81.6,50.0 71.5,52.9 63.3,52.4 L 55.0,37.3 z" />
                <path d="M 51.1,47.9 L 42.1,63.8 L 51.1,80.0 L 51.3,73.5 L 59.5,73.5 C 62.5,73.8 66.4,71.8 67.9,69.0 L 78.4,49.5 C 75.0,53.0 70.5,53.9 65.3,53.9 L 51.4,53.9 L 51.1,47.9 z " />
                <path d="M 31.0,28.2 L 13.7,18.2 L 22.9,4.2 C 29.0,-1.3 36.6,6.1 40.1,13.5 L 30.9,28.2 z " />
                <path d="M 42.1,26.5 L 60.4,26.6 L 70.1,10.9 L 64.3,13.8 L 60.3,6.6 C 59.1,3.9 55.5,1.4 52.3,1.5 L 30.2,1.7 C 34.9,3.1 37.9,6.6 40.4,11.1 L 47.2,23.3 L 42.1,26.5 z " />
                <path d="M 0.4,27.4 L 5.8,31.5 L 0.8,40.5 C -1.8,45.3 2.6,49.6 5.3,51.0 C 8.0,52.5 12.2,52.7 16.2,52.7 L 23.3,41.3 L 28.6,44.1 L 19.3,27.2 L 0.4,27.4 z " />
                <path d="M 1.2,49.3 L 12.7,70.1 C 15.0,73.0 19.4,73.7 23.9,73.6 L 36.0,73.6 L 36.0,53.9 L 13.0,53.7 C 9.5,53.9 4.8,53.2 1.2,49.3 z " />
            </g>
        </symbol>
    </defs>
</svg>
