<?xml version="1.0" encoding="utf-8"?>
<svg xmlns="http://www.w3.org/2000/svg">
    <defs>
        <!-- This image is in the public domain. Slightly changed from http://commons.wikimedia.org/wiki/Image:RWBA_Fernsprecher.svg -->
        <symbol id="symbol-telephone" viewBox="75 75 150 150">
            <path fill="black" fill-rule="evenodd" stroke="none" d="M55 44.7375L54.9999307530208 12.2539679065969A35 35 0 0 0 29.0045287463415 43.0858554215078L29.0045821324043 43.0858440614508A100 100 0 0 0 71.3337340951943 133.685197779405L71.333831933318 133.685229222792A35 35 0 0 0 111.661764248632 133.530024865785L86.7468 112.687L83.349415196279 114.274335371795A10 10 0 0 1 70.0565646282046 109.447315196279L46.7754646282046 59.617715196279A10 10 0 0 1 51.602484803721 46.3248646282046L55 44.7375Z M60 46.5801L60 10.1567L70 14.8288L70 41.908L60 46.5801Z M88.5418 107.6697L116.4786 131.0408L119.3115 120.3729L98.5418 102.9976L88.5418 107.6697Z" />
        </symbol>
    </defs>
</svg>
