<?xml version="1.0" encoding="UTF-8" standalone="no"?>
<!-- Created with Inkscape (http://www.inkscape.org/) -->
<svg
   xmlns:dc="http://purl.org/dc/elements/1.1/"
   xmlns:cc="http://web.resource.org/cc/"
   xmlns:rdf="http://www.w3.org/1999/02/22-rdf-syntax-ns#"
   xmlns:svg="http://www.w3.org/2000/svg"
   xmlns="http://www.w3.org/2000/svg"
   xmlns:sodipodi="http://sodipodi.sourceforge.net/DTD/sodipodi-0.dtd"
   xmlns:inkscape="http://www.inkscape.org/namespaces/inkscape"
   version="1.0"
   width="200"
   height="200"
   id="svg2"
   sodipodi:version="0.32"
   inkscape:version="0.45.1"
   sodipodi:docname="toilets.svg"
   inkscape:output_extension="org.inkscape.output.svg.inkscape"
   sodipodi:docbase="C:\Dokumente und Einstellungen\ulfl\Eigene Dateien\svn.openstreetmap.org\applications\share\map-icons\svg\public">
  <metadata
     id="metadata12">
    <rdf:RDF>
      <cc:Work
         rdf:about="">
        <dc:format>image/svg+xml</dc:format>
        <dc:type
           rdf:resource="http://purl.org/dc/dcmitype/StillImage" />
        <cc:license
           rdf:resource="http://web.resource.org/cc/PublicDomain" />
        <dc:creator>
          <cc:Agent>
            <dc:title>Bone Killian &lt;vitki@bonius.com&gt;</dc:title>
          </cc:Agent>
        </dc:creator>
      </cc:Work>
      <cc:License
         rdf:about="http://web.resource.org/cc/PublicDomain">
        <cc:permits
           rdf:resource="http://web.resource.org/cc/Reproduction" />
        <cc:permits
           rdf:resource="http://web.resource.org/cc/Distribution" />
        <cc:permits
           rdf:resource="http://web.resource.org/cc/DerivativeWorks" />
      </cc:License>
    </rdf:RDF>
  </metadata>
  <sodipodi:namedview
     inkscape:window-height="780"
     inkscape:window-width="906"
     inkscape:pageshadow="2"
     inkscape:pageopacity="0.0"
     guidetolerance="10.0"
     gridtolerance="10.0"
     objecttolerance="10.0"
     borderopacity="1.0"
     bordercolor="#666666"
     pagecolor="#ffffff"
     id="base"
     inkscape:zoom="1.89"
     inkscape:cx="101.99768"
     inkscape:cy="82.015215"
     inkscape:window-x="44"
     inkscape:window-y="58"
     inkscape:current-layer="svg2" />
  <defs
     id="defs4" />
  <rect
     id="divider"
     style="fill:#000000;stroke:#000000;stroke-width:5px;stroke-linejoin:round;stroke-opacity:1"
     y="30.489416"
     x="100.1455"
     height="141.07143"
     width="11.428572" />
  <path
     id="manhead"
     style="fill:#000000;stroke:#000000;stroke-opacity:1"
     d="M 162.85978,41.739417 C 162.85978,48.366834 157.4872,53.739417 150.85978,53.739417 C 144.23236,53.739417 138.85978,48.366834 138.85978,41.739417 C 138.85978,35.112 144.23236,29.739417 150.85978,29.739417 C 157.4872,29.739417 162.85978,35.112 162.85978,41.739417 L 162.85978,41.739417 z " />
  <path
     id="womanhead"
     style="fill:#000000;stroke:#000000;stroke-linejoin:round;stroke-opacity:1"
     d="M 69.645503,42.989417 C 69.645503,49.616834 64.27292,54.989417 57.645503,54.989417 C 51.018086,54.989417 45.645503,49.616834 45.645503,42.989417 C 45.645503,36.362 51.018086,30.989417 57.645503,30.989417 C 64.27292,30.989417 69.645503,36.362 69.645503,42.989417 z " />
  <path
     id="womanbody"
     style="fill:#000000;fill-rule:evenodd;stroke:#000000;stroke-width:1px;stroke-linecap:butt;stroke-linejoin:round;stroke-opacity:1"
     d="M 54.920897,128.44734 L 59.466584,128.44734 L 60.224198,168.6009 L 67.547804,168.6009 L 68.305419,128.1948 L 80.427249,127.94226 L 67.295266,79.707479 L 70.8308,77.687174 L 81.437402,112.53743 L 89.266084,108.24428 L 73.356181,61.777271 L 41.283838,60.767119 L 24.868859,109.25444 L 31.939927,112.03236 L 43.556681,77.687174 L 46.839677,78.19225 L 33.707694,127.43718 L 44.819372,127.68972 L 46.334601,168.85344 L 53.658207,168.85344 L 54.920897,128.44734 z " />
  <path
     id="manbody"
     style="fill:#000000;fill-rule:evenodd;stroke:#000000;stroke-width:1px;stroke-linecap:butt;stroke-linejoin:round;stroke-opacity:1;fill-opacity:1"
     d="M 133.96533,60.514581 L 164.77498,60.262042 L 174.87651,68.090725 L 176.64428,113.29505 L 167.80544,113.04251 L 166.79529,77.182098 L 162.2496,76.677021 L 162.37587,168.97971 L 153.91584,169.23224 L 152.14808,114.3052 L 147.85493,114.05266 L 146.84478,169.61105 L 139.01609,169.10598 L 138.51102,77.434636 L 133.71279,77.434636 L 134.21787,112.53743 L 125.63157,112.78997 L 124.87396,68.595801 L 133.96533,60.514581 z " />
</svg>
