<?xml version="1.0" encoding="UTF-8" standalone="no"?>
<!-- Generator: Adobe Illustrator 13.0.2, SVG Export Plug-In . SVG Version: 6.00 Build 14948)  -->
<svg
   xmlns:dc="http://purl.org/dc/elements/1.1/"
   xmlns:cc="http://creativecommons.org/ns#"
   xmlns:rdf="http://www.w3.org/1999/02/22-rdf-syntax-ns#"
   xmlns:svg="http://www.w3.org/2000/svg"
   xmlns="http://www.w3.org/2000/svg"
   xmlns:sodipodi="http://sodipodi.sourceforge.net/DTD/sodipodi-0.dtd"
   xmlns:inkscape="http://www.inkscape.org/namespaces/inkscape"
   version="1.2"
   baseProfile="tiny"
   id="butcher_a_xA0_Image_1_"
   x="0px"
   y="0px"
   width="266.926px"
   height="210.951px"
   viewBox="0 0 266.926 210.951"
   xml:space="preserve"
   sodipodi:version="0.32"
   inkscape:version="0.46"
   sodipodi:docname="butcher.svg"
   inkscape:output_extension="org.inkscape.output.svg.inkscape"><metadata
   id="metadata22"><rdf:RDF><cc:Work
       rdf:about=""><dc:format>image/svg+xml</dc:format><dc:type
         rdf:resource="http://purl.org/dc/dcmitype/StillImage" /><cc:license
         rdf:resource="http://creativecommons.org/licenses/publicdomain/" /></cc:Work><cc:License
       rdf:about="http://creativecommons.org/licenses/publicdomain/"><cc:permits
         rdf:resource="http://creativecommons.org/ns#Reproduction" /><cc:permits
         rdf:resource="http://creativecommons.org/ns#Distribution" /><cc:permits
         rdf:resource="http://creativecommons.org/ns#DerivativeWorks" /></cc:License></rdf:RDF></metadata><defs
   id="defs20"><inkscape:perspective
     sodipodi:type="inkscape:persp3d"
     inkscape:vp_x="0 : 105.4755 : 1"
     inkscape:vp_y="0 : 1000 : 0"
     inkscape:vp_z="266.92599 : 105.4755 : 1"
     inkscape:persp3d-origin="133.463 : 70.317001 : 1"
     id="perspective24" /></defs><sodipodi:namedview
   inkscape:window-height="713"
   inkscape:window-width="760"
   inkscape:pageshadow="2"
   inkscape:pageopacity="0.0"
   guidetolerance="10.0"
   gridtolerance="10.0"
   objecttolerance="10.0"
   borderopacity="1.0"
   bordercolor="#666666"
   pagecolor="#ffffff"
   id="base"
   showgrid="false"
   inkscape:zoom="2.0192863"
   inkscape:cx="163.17647"
   inkscape:cy="105.4755"
   inkscape:window-x="0"
   inkscape:window-y="0"
   inkscape:current-layer="butcher_a_xA0_Image_1_" />
<path
   d="M265.554,20.136c-1.465-2.799-3.478-4.572-5.454-5.989c-2.996-2.094-6.193-3.444-9.208-4.526  c-1.313-0.463-2.587-0.863-3.774-1.205c-0.661-1.467-1.467-2.825-2.525-4.11c-1.009-1.204-2.305-2.325-3.877-3.116  c-1.563-0.8-3.367-1.201-5.012-1.19c-2.24,0.006-4.108,0.632-5.63,1.363c-2.662,1.319-4.565,3.003-6.375,4.738  c-2.664,2.603-5.013,5.459-7.031,7.699c-0.998,1.113-1.903,2.062-2.571,2.67c-0.33,0.305-0.6,0.52-0.747,0.624  c-0.025,0.019-0.046,0.033-0.062,0.044l-12.263,5.273c-0.434-0.007-0.865-0.015-1.306-0.015c-16.779,0.023-31.787,4.898-45.964,9.35  c-15.629,4.95-30.537,10.829-45.606,13.747c-6.92,1.36-14.733,1.745-22.885,2.386c-8.147,0.66-16.677,1.57-25.058,4.51  c-7.453,2.614-13.757,5.584-20.524,9.817c-2.964,1.872-5.572,4.098-8.064,5.941c-2.423,1.855-4.761,3.182-5.633,3.37L23.5,72.217  l-1.361,1.858l-0.601,0.188L7.057,86.517L5.99,88.792C1.92,97.458-0.004,106.451,0,115.255c0,0.001,0,0.013,0,0.037  c0,0.002,0,0.004,0,0.006c0,0.024,0,0.06,0,0.104c0.063,13.491,4.453,26.243,11.451,37.587c7.03,11.392,16.678,21.47,27.643,29.948  l0.012,0.01c22.031,16.899,49.706,27.899,75.824,28.003c5.102-0.002,10.143-0.435,15.071-1.38c4.608-0.846,8.616-3.055,11.66-5.857  c1.914-1.758,3.482-3.731,4.747-5.806c2.215-1.003,4.328-2.389,6.032-4.18c2.515-2.608,4.166-5.489,6.067-9.034  c3.137-5.928,6.959-12.264,10-19.075c3.468-7.858,4.718-16.131,5.909-23.89c1.152-7.758,2.24-15.025,4.412-20.632  c2.213-5.803,6.06-10.693,10.846-15.882c4.748-5.184,10.385-10.533,15.211-17.456c3.757-5.454,8.181-10.294,12.052-16.359  c3.406-5.295,6.178-11.804,6.756-19.655l9.685-5.091l0.818-0.831c1.048-1.036,1.909-1.495,3.235-1.92  c1.96-0.639,5.032-0.743,8.978-1.075c3.852-0.361,9.033-1.177,13.674-4.924c1.914-1.557,3.523-3.217,4.771-5.221  c1.242-1.979,2.081-4.423,2.071-6.941C266.932,23.688,266.374,21.722,265.554,20.136z"
   id="path3" />
<path
   stroke="#000000"
   stroke-width="15"
   d="M43.681,177.005c-20.744-16.031-36.111-37.926-36.18-61.734l0,0  c-0.002-7.727,1.668-15.591,5.282-23.297l0,0l0.37-0.791l12.074-10.216l0.77-0.241c4.306-1.35,8.841-1.889,13.426-1.891l0,0  c13.664,0.027,27.934,4.72,38.82,8.834l0,0c8.845,3.362,16.126,6.466,22.785,10.801l0,0c6.661,4.327,12.582,9.867,18.618,17.747l0,0  c9.455,12.354,19.268,27.805,23.258,43.923l0,0c0.959,3.915,1.598,8.856,1.6,14.048l0,0c-0.013,5.728-0.756,11.739-3.037,16.974l0,0  c-2.208,5.186-6.489,9.856-12.877,11.044l0,0c-4.415,0.847-8.985,1.244-13.647,1.246l0,0  C90.976,203.412,64.503,193.031,43.681,177.005L43.681,177.005z"
   id="path5" />
<path
   stroke="#000000"
   stroke-width="15"
   d="M15.502,115.271c-0.069,20.131,13.486,40.326,33.064,55.399l0,0  c19.5,15.08,44.747,24.818,66.377,24.78l0,0c4.207,0,8.273-0.361,12.139-1.101l0,0c3.306-0.676,5.356-2.693,7.061-6.407l0,0  c1.631-3.667,2.375-8.771,2.363-13.755l0,0c0.002-4.514-0.583-8.953-1.369-12.138l0,0c-3.488-14.281-12.71-29.095-21.836-40.963l0,0  c-5.636-7.335-10.772-12.089-16.636-15.914l0,0c-5.862-3.819-12.569-6.728-21.26-10.024l0,0c-10.526-4.017-24.171-8.338-35.98-8.313  l0,0c-3.665,0-7.134,0.405-10.284,1.3l0,0l-9.468,8.014C16.795,102.565,15.504,108.942,15.502,115.271L15.502,115.271z"
   id="path7" />
<path
   fill="#FFFFFF"
   d="M43.681,177.005c-20.744-16.031-36.111-37.926-36.18-61.734l0,0c-0.002-7.727,1.668-15.591,5.282-23.297l0,0  l0.37-0.791l12.074-10.216l0.77-0.241c4.306-1.35,8.841-1.889,13.426-1.891l0,0c13.664,0.027,27.934,4.72,38.82,8.834l0,0  c8.845,3.362,16.126,6.466,22.785,10.801l0,0c6.661,4.327,12.582,9.867,18.618,17.747l0,0c9.455,12.354,19.268,27.805,23.258,43.923  l0,0c0.959,3.915,1.598,8.856,1.6,14.048l0,0c-0.013,5.728-0.756,11.739-3.037,16.974l0,0c-2.208,5.186-6.489,9.856-12.877,11.044  l0,0c-4.415,0.847-8.985,1.244-13.647,1.246l0,0C90.976,203.412,64.503,193.031,43.681,177.005L43.681,177.005z"
   id="path9" />
<path
   d="M15.502,115.271c-0.069,20.131,13.486,40.326,33.064,55.399l0,0c19.5,15.08,44.747,24.818,66.377,24.78l0,0  c4.207,0,8.273-0.361,12.139-1.101l0,0c3.306-0.676,5.356-2.693,7.061-6.407l0,0c1.631-3.667,2.375-8.771,2.363-13.755l0,0  c0.002-4.514-0.583-8.953-1.369-12.138l0,0c-3.488-14.281-12.71-29.095-21.836-40.963l0,0c-5.636-7.335-10.772-12.089-16.636-15.914  l0,0c-5.862-3.819-12.569-6.728-21.26-10.024l0,0c-10.526-4.017-24.171-8.338-35.98-8.313l0,0c-3.665,0-7.134,0.405-10.284,1.3l0,0  l-9.468,8.014C16.795,102.565,15.504,108.942,15.502,115.271L15.502,115.271z"
   id="path11" />
<g
   id="g13">
	<path
   fill="#FFFFFF"
   d="M44.605,133.256l-0.388-0.21l-0.324-0.302c-2.834-2.661-4.593-5.454-4.632-8.654l0,0   c-0.013-1.848,0.702-3.601,1.749-4.891l0,0c1.049-1.305,2.368-2.236,3.79-2.948l0,0c2.851-1.406,6.21-2.019,9.664-2.031l0,0   c4.645,0.033,9.513,1.099,13.194,4.174l0,0c1.41,1.215,3.132,3.087,4.678,5.401l0,0c1.503,2.324,2.917,5,2.969,8.243l0,0   c0.004,1.325-0.299,2.769-1.053,4.082l0,0c-1.016,1.787-2.661,3.004-4.296,3.633l0,0c-1.647,0.646-3.31,0.83-4.914,0.834l0,0   c-4.36-0.022-8.592-1.405-10.737-2.102l0,0l-0.297-0.099L44.605,133.256 M48.668,127.626 M65.042,133.587   c1.014,0.006,1.852-0.143,2.341-0.343l0,0c0.503-0.217,0.636-0.355,0.794-0.607l0,0c0.068-0.126,0.122-0.262,0.126-0.599l0,0   c0.052-0.812-0.644-2.689-1.8-4.374l0,0c-1.113-1.693-2.601-3.285-3.39-3.945l0,0c-1.664-1.491-5.184-2.533-8.65-2.498l0,0   c-1.914-0.005-3.791,0.286-5.246,0.768l0,0c-1.466,0.469-2.438,1.166-2.736,1.577l0,0c-0.208,0.285-0.208,0.343-0.221,0.524l0,0   c-0.037,0.247,0.242,1.428,2.096,3.24l0,0l8.461,4.616C58.791,132.602,62.379,133.61,65.042,133.587L65.042,133.587z"
   id="path15" />
</g>
<path
   fill="#FFFFFF"
   d="M241.404,14.691c-5.409-19.373-17.921,6.195-24.998,9.271l-15.505,6.667  c-2.319,3.453-3.38,6.916-4.308,11.438c2.428-0.435,5.402-1.291,7.844-2.258c0.881,3.191,1.641,6.435,2.113,9.775  c3.282-0.608,6.53-1.977,9.706-3.13c0.012,0.243,0.015,0.477,0.022,0.716l12.575-6.611c7.872-7.991,18.894-2.32,26.51-8.486  C267.739,22.055,248.564,16.301,241.404,14.691z"
   id="path17" />
</svg>