<?xml version="1.0" encoding="UTF-8" standalone="no"?>
<!DOCTYPE svg PUBLIC "-//W3C//DTD SVG 1.0//EN"
"http://www.w3.org/TR/2001/REC-SVG-20010904/DTD/svg10.dtd">
<!-- Created with Inkscape (http://www.inkscape.org/) --><svg height="128.00000pt" id="svg2276" inkscape:version="0.38cvs-040410.1009" sodipodi:docbase="C:\Documents and Settings\Emily\Desktop\andy\SVG\svgart" sodipodi:docname="recordplayer.svg" sodipodi:version="0.32" width="128.00000pt" xmlns="http://www.w3.org/2000/svg" xmlns:inkscape="http://www.inkscape.org/namespaces/inkscape" xmlns:sodipodi="http://sodipodi.sourceforge.net/DTD/sodipodi-0.dtd" xmlns:xlink="http://www.w3.org/1999/xlink">
  <metadata>
    <rdf:RDF xmlns:cc="http://web.resource.org/cc/" xmlns:dc="http://purl.org/dc/elements/1.1/" xmlns:rdf="http://www.w3.org/1999/02/22-rdf-syntax-ns#">
      <cc:Work rdf:about="">
        <dc:title>Etiquette Icons</dc:title>
        <dc:description></dc:description>
        <dc:subject>
          <rdf:Bag>
            <rdf:li></rdf:li>
            <rdf:li>music</rdf:li>
            <rdf:li>entertainment</rdf:li>
            <rdf:li>recreation</rdf:li>
          </rdf:Bag>
        </dc:subject>
        <dc:publisher>
          <cc:Agent rdf:about="http://www.openclipart.org">
            <dc:title>Andy Fitzsimon</dc:title>
          </cc:Agent>
        </dc:publisher>
        <dc:creator>
          <cc:Agent>
            <dc:title>Andy Fitzsimon</dc:title>
          </cc:Agent>
        </dc:creator>
        <dc:rights>
          <cc:Agent>
            <dc:title>Andy Fitzsimon</dc:title>
          </cc:Agent>
        </dc:rights>
        <dc:date></dc:date>
        <dc:format>image/svg+xml</dc:format>
        <dc:type rdf:resource="http://purl.org/dc/dcmitype/StillImage"/>
        <cc:license rdf:resource="http://web.resource.org/cc/PublicDomain"/>
        <dc:language>en</dc:language>
      </cc:Work>
      <cc:License rdf:about="http://web.resource.org/cc/PublicDomain">
        <cc:permits rdf:resource="http://web.resource.org/cc/Reproduction"/>
        <cc:permits rdf:resource="http://web.resource.org/cc/Distribution"/>
        <cc:permits rdf:resource="http://web.resource.org/cc/DerivativeWorks"/>
      </cc:License>
    </rdf:RDF>
  </metadata>
  <defs id="defs2278">
    <linearGradient id="linearGradient2310">
      <stop id="stop2311" offset="0.00000000" style="stop-color:#6f6234;stop-opacity:1.0000000;"/>
      <stop id="stop2312" offset="0.50000000" style="stop-color:#7f7655;stop-opacity:1.0000000;"/>
      <stop id="stop2313" offset="1.0000000" style="stop-color:#2d2711;stop-opacity:1.0000000;"/>
    </linearGradient>
    <linearGradient id="linearGradient2300">
      <stop id="stop2301" offset="0.00000000" style="stop-color:#ffffff;stop-opacity:0.00000000;"/>
      <stop id="stop2302" offset="0.49620155" style="stop-color:#ffffff;stop-opacity:0.020833334;"/>
      <stop id="stop2303" offset="1.0000000" style="stop-color:#ffffff;stop-opacity:0.53125000;"/>
    </linearGradient>
    <linearGradient id="linearGradient2288">
      <stop id="stop2289" offset="0.00000000" style="stop-color:#ede1b9;stop-opacity:1.0000000;"/>
      <stop id="stop2291" offset="0.50000000" style="stop-color:#7a7152;stop-opacity:1.0000000;"/>
      <stop id="stop2290" offset="1.0000000" style="stop-color:#927f39;stop-opacity:1.0000000;"/>
    </linearGradient>
    <linearGradient id="linearGradient2283">
      <stop id="stop2284" offset="0.00000000" style="stop-color:#1d1100;stop-opacity:0.66666669;"/>
      <stop id="stop2292" offset="0.52658916" style="stop-color:#4f340c;stop-opacity:0.30196080;"/>
      <stop id="stop2285" offset="1.0000000" style="stop-color:#3d3001;stop-opacity:0.00000000;"/>
    </linearGradient>
    <radialGradient cx="0.51401871" cy="0.50892860" fx="0.081521742" fy="0.61160713" id="radialGradient2286" r="0.50215912" xlink:href="#linearGradient2283"/>
    <linearGradient id="linearGradient2287" x1="-0.18023255" x2="1.0813954" xlink:href="#linearGradient2288" y1="0.73660713" y2="-0.29910713"/>
    <linearGradient id="linearGradient2293" x1="0.26162791" x2="1.8313954" xlink:href="#linearGradient2288" y1="0.15178572" y2="1.6473215"/>
    <linearGradient id="linearGradient2296" x1="0.20774648" x2="0.59507042" xlink:href="#linearGradient2288" y1="1.0904762" y2="-0.033333335"/>
    <linearGradient id="linearGradient2297" x1="0.97282606" x2="0.065217391" xlink:href="#linearGradient2300" y1="-0.34375000" y2="0.66071427"/>
    <radialGradient cx="0.51685393" cy="0.45982143" fx="0.10674157" fy="0.66517860" id="radialGradient2299" r="0.50997275" xlink:href="#linearGradient2283"/>
    <linearGradient id="linearGradient2305" x1="0.31818181" x2="0.74747473" xlink:href="#linearGradient2300" y1="-0.089285716" y2="1.0625000"/>
    <linearGradient id="linearGradient2306" x1="0.95876288" x2="0.087628864" xlink:href="#linearGradient2288" y1="0.20318726" y2="0.90836656"/>
    <linearGradient id="linearGradient2309" x1="0.54225349" x2="0.32394367" xlink:href="#linearGradient2310" y1="1.3626374" y2="0.28571430"/>
    <linearGradient id="linearGradient2316" x1="0.50000000" x2="0.54577464" xlink:href="#linearGradient2310" y1="-0.33333334" y2="1.7777778"/>
    <linearGradient id="linearGradient2318" xlink:href="#linearGradient2310"/>
    <linearGradient id="linearGradient2341" x1="-0.20161290" x2="0.51612902" xlink:href="#linearGradient2283" y1="0.78125000" y2="0.45089287"/>
    <linearGradient id="linearGradient2460" x1="0.52464789" x2="0.44014084" xlink:href="#linearGradient2310" y1="1.1181818" y2="-0.34545454"/>
    <linearGradient id="linearGradient2598" x1="-0.46830985" x2="1.3063381" xlink:href="#linearGradient2300" y1="0.86792451" y2="0.88679248"/>
  </defs>
  <sodipodi:namedview bordercolor="#666666" borderopacity="1.0" id="base" inkscape:cx="91.062225" inkscape:cy="54.760437" inkscape:pageopacity="0.0" inkscape:pageshadow="2" inkscape:window-height="500" inkscape:window-width="640" inkscape:window-x="44" inkscape:window-y="58" inkscape:zoom="2.0000000" pagecolor="#ffffff" showborder="false"/>
  <g id="g2385" style="" transform="matrix(0.559228,0.000000,0.000000,0.559228,-179.6265,-196.1480)">
    <path d="M 492.32487,361.86033 C 460.79723,362.21069 440.08312,392.99989 438.65491,422.10042 C 431.87912,437.89901 449.96539,460.18902 434.39904,470.54334 C 424.89176,478.86014 411.59166,487.65505 414.51967,502.17414 C 417.12920,511.57517 412.40529,518.80384 402.23764,516.19921 C 393.68346,515.55586 384.34502,518.19652 376.36482,515.05628 C 381.93965,504.62770 369.17993,506.72412 371.72051,516.34411 C 376.61606,524.67553 388.15465,520.36159 396.28826,522.13764 C 402.10188,522.72898 420.20446,521.15781 411.24807,528.29783 C 404.04244,529.52792 393.97800,525.63600 388.79362,530.64158 C 394.05842,535.61962 404.16553,531.77268 411.44638,532.98533 C 417.57928,537.83345 399.70447,535.34025 394.55496,536.02459 C 388.78753,536.46067 376.69872,535.41714 374.73456,536.74347 C 371.16079,535.04424 379.89900,543.42287 380.41199,549.40377 C 379.96629,560.00389 379.52058,570.60398 379.07487,581.20408 C 373.41579,585.33658 363.81543,586.78168 365.04362,595.61033 C 368.45742,601.69863 369.88922,610.80484 374.51950,615.04086 C 416.94422,614.79320 459.36891,614.54551 501.79362,614.29783 C 502.52837,604.40322 490.96429,602.28020 484.95549,596.64681 C 481.41928,591.09883 484.18909,582.16716 483.10340,575.30427 C 483.36730,564.53513 480.63171,553.18333 486.92556,543.58541 C 486.45879,538.84238 473.61412,540.01119 468.30735,537.53000 C 455.40399,533.74938 441.84311,536.30225 428.60612,535.73533 C 428.08064,529.61263 441.78504,534.60028 447.03298,532.98533 C 452.33665,533.95923 471.24547,532.83784 459.27932,528.29783 C 448.42994,528.29783 437.58052,528.29783 426.73112,528.29783 C 428.39595,517.20323 417.39887,538.60334 417.82487,522.86033 C 431.08612,517.94994 419.57211,501.50524 426.13757,492.59786 C 434.77301,491.81046 443.70026,493.26900 452.44987,493.36033 C 467.87745,523.37373 499.69156,553.60398 536.10615,545.63922 C 571.08281,536.98337 582.92170,495.90402 578.97374,463.97998 C 574.85841,424.01436 551.60331,383.51078 514.51727,365.94516 C 507.50894,363.07277 499.91057,361.54640 492.32487,361.86033 z M 417.91862,532.98533 C 431.74699,530.76464 417.71279,541.41901 417.91862,532.98533 z " id="path2367" style="fill:#000000;fill-rule:evenodd;stroke:none;stroke-opacity:1;stroke-width:1pt;stroke-linejoin:miter;stroke-linecap:butt;fill-opacity:0.082644626;"/>
    <path d="M 486.43750 360.65625 C 461.81100 364.05328 443.69366 386.40058 438.92506 409.82169 C 437.70355 419.71378 433.75519 429.65772 436.60838 439.64898 C 437.64285 449.00594 442.59752 460.57750 434.68750 468.21875 C 425.94883 476.03268 414.36426 483.36779 412.80193 496.02981 C 411.33396 501.93696 416.61839 509.47978 410.38705 513.73614 C 405.90098 516.70703 400.28285 513.59192 395.24859 514.61726 C 389.68496 514.95415 384.04248 515.24572 378.59375 513.84375 C 381.22600 510.26671 376.81948 503.96861 372.93958 507.60999 C 366.41643 511.90097 371.12379 522.81579 378.49593 522.53860 C 389.13323 524.54474 400.34378 522.56109 410.84416 525.00705 C 411.18871 527.90077 404.10737 526.71608 401.53125 526.50000 C 396.03064 526.15436 390.06737 526.50778 385.93750 530.65625 C 387.33008 533.26784 397.33407 535.05610 390.27419 534.45073 C 384.08901 534.52367 377.90413 534.64252 371.71875 534.68750 C 373.74706 541.66351 380.59035 547.31861 378.55656 555.09600 C 378.20439 563.47026 377.85219 571.84450 377.50000 580.21875 C 371.40424 583.63389 361.86658 587.48428 363.46875 596.15625 C 367.25123 602.82890 368.09224 611.92730 374.53125 616.65625 C 417.51042 616.41819 460.48956 616.16796 503.46875 615.93750 C 504.96475 605.96469 494.62689 601.17132 487.73313 596.68388 C 482.34483 591.13181 485.89971 582.69403 484.77415 575.80927 C 484.80070 565.05208 482.72010 553.22466 488.78125 543.59375 C 485.20738 536.11300 475.31339 538.95039 468.95116 535.91267 C 466.43816 535.08721 460.87623 534.52503 460.15625 534.25000 C 463.09706 533.40157 467.44027 531.39430 463.21875 528.65625 C 457.01876 524.50773 449.11022 527.69673 442.17829 526.68750 C 437.91867 526.09584 431.11415 527.87963 428.46875 525.78125 C 427.24991 520.88665 422.28926 526.12232 419.93750 526.50000 C 418.68299 522.19338 425.53060 521.02907 425.50112 516.58280 C 427.64396 509.29424 423.63745 501.19314 427.18750 494.18750 C 435.28007 494.13908 443.36336 494.38986 451.43750 494.93750 C 464.51658 518.76476 485.04367 540.89861 512.36786 547.30814 C 532.29295 551.63296 554.79600 544.02100 566.17343 526.69067 C 583.14835 503.38376 583.96600 472.07795 577.08217 444.99388 C 569.09200 413.26863 549.51474 383.48838 520.61019 367.33389 C 510.16144 361.38801 498.34490 359.41136 486.43750 360.65625 z M 421.43750 534.31250 C 419.64505 535.09277 419.84518 533.59456 421.43750 534.31250 z " id="path2371" style="fill:#000000;fill-rule:evenodd;stroke:none;stroke-opacity:1;stroke-width:1pt;stroke-linejoin:miter;stroke-linecap:butt;fill-opacity:0.082644626;"/>
    <path d="M 486.46875 358.15625 C 462.81491 361.89537 444.24823 381.72844 438.06360 404.28218 C 434.04752 418.85535 431.79941 434.41613 435.86828 449.24611 C 437.42612 456.29633 436.66069 464.83358 429.89198 468.88050 C 420.69447 477.23467 408.89941 486.93204 410.49297 500.82000 C 411.52751 505.04866 411.89482 512.64200 405.50312 512.01781 C 398.12400 512.33712 390.56819 512.16040 383.27407 512.07528 C 380.74905 510.40757 381.49156 505.06810 377.23778 504.79259 C 369.69581 502.38027 365.00525 513.48106 369.20659 519.04946 C 372.72336 526.49201 382.45327 525.05018 388.56250 525.87500 C 383.47605 526.44982 385.85045 532.95032 382.46875 532.06250 C 378.24701 533.00300 371.12682 529.67708 369.43750 535.31250 C 372.99230 543.01543 378.17990 551.00243 376.02657 559.84605 C 375.76772 566.11614 375.50886 572.38618 375.25000 578.65625 C 368.10351 582.10683 358.56166 588.67127 361.64887 597.86663 C 365.46813 605.08535 366.89752 614.84097 374.62500 619.03125 C 418.38542 618.79305 462.14581 618.54382 505.90625 618.31250 C 508.25979 607.95712 499.05025 600.28984 491.06250 595.75000 C 484.49875 590.14012 488.49157 580.72809 487.30574 573.34051 C 487.16396 563.25425 486.31451 552.35983 491.68750 543.34375 C 487.60247 538.10932 488.99435 539.65373 493.65625 542.50000 C 507.14241 549.66268 523.11895 553.21696 538.07697 548.79718 C 554.30060 544.66544 567.87717 532.56921 574.28684 517.14520 C 587.20144 491.71738 585.19837 461.31597 576.60161 434.84846 C 566.56507 404.58576 545.79471 376.55467 516.48573 362.79649 C 507.14757 358.55184 496.61527 357.60834 486.46875 358.15625 z M 450.21875 497.31250 C 458.84224 512.66938 470.27484 526.57523 484.62500 536.90625 C 478.97653 534.56886 472.17956 535.08512 466.78125 532.56250 C 467.11381 528.64713 464.99626 525.07054 460.73090 525.17373 C 451.17771 522.29615 440.90238 525.93567 431.33170 523.63583 C 426.96695 521.26741 425.19781 521.64743 428.00000 516.87500 C 429.57527 510.23091 427.23878 503.26680 429.06250 496.65625 C 436.11458 496.87500 443.16667 497.09375 450.21875 497.31250 z " id="path2375" style="fill:#000000;fill-rule:evenodd;stroke:none;stroke-opacity:1;stroke-width:1pt;stroke-linejoin:miter;stroke-linecap:butt;fill-opacity:0.082644626;"/>
    <path d="M 486.25000 355.75000 C 460.45899 360.31407 440.04996 382.55075 434.89489 407.82471 C 430.78503 423.00757 430.71248 439.11540 434.02144 454.46271 C 434.58566 465.67093 422.48082 470.49181 416.88009 478.49476 C 409.94248 485.72066 406.36706 495.93507 408.65625 505.84375 C 407.47181 512.09908 400.02535 508.77192 395.67093 509.60621 C 391.50489 508.61277 384.54481 512.17014 383.12500 506.68750 C 379.97049 500.93204 371.63875 500.68342 367.94685 505.99419 C 361.84386 513.46412 367.07622 526.21067 376.80758 527.03002 C 382.00443 526.98991 384.78339 529.78317 377.87500 529.78125 C 373.11578 528.23070 365.20892 531.73900 367.82173 537.57327 C 372.95389 546.13368 374.79794 556.23029 373.33735 566.12294 C 372.85399 571.26342 374.45215 578.04783 368.18527 580.15167 C 361.56907 583.78467 356.88453 591.55164 359.57822 599.14303 C 363.44023 607.14500 365.86788 618.47701 375.43750 621.46875 C 419.65625 621.23048 463.87498 620.98174 508.09375 620.75000 C 511.29397 609.25672 502.16666 599.12038 492.78125 593.96875 C 487.23993 586.29382 490.87392 576.29253 489.70706 567.55700 C 489.55798 559.97449 490.23855 552.16970 493.56250 545.25000 C 507.49988 551.99507 523.65252 555.48417 538.80517 550.91876 C 555.84040 546.65587 569.75740 533.62795 576.64024 517.63130 C 590.53304 488.63218 587.10233 454.06732 575.29985 424.97939 C 563.43883 396.77278 542.44249 370.54699 513.34375 359.18750 C 504.64600 355.97059 495.45004 355.35162 486.25000 355.75000 z M 433.43750 499.00000 C 438.69088 500.46397 445.11323 497.97013 449.65899 501.02883 C 456.73813 512.60900 465.11074 523.49907 475.50000 532.31250 C 470.82283 532.59985 468.77178 529.23950 466.92223 525.74686 C 459.02047 519.55470 447.99415 522.28860 438.66843 521.89972 C 435.44961 521.31230 427.51305 521.65571 430.32307 516.54408 C 431.82045 510.91954 429.42898 503.87106 432.18750 499.03125 C 432.60441 499.04002 433.02069 498.99897 433.43750 499.00000 z " id="path2384" style="fill:#000000;fill-rule:evenodd;stroke:none;stroke-opacity:1;stroke-width:1pt;stroke-linejoin:miter;stroke-linecap:butt;fill-opacity:0.082644626;"/>
  </g>
  <rect height="20.873720" id="rect2317" rx="0.13431366" ry="10.436860" style="fill:url(#linearGradient2318);fill-opacity:1;fill-rule:evenodd;stroke-width:1.0000000pt;" transform="matrix(0.559228,0.000000,0.000000,0.559228,4.811579,-9.432893)" width="4.3187008" x="85.294342" y="181.78410"/>
  <path d="M 44.788810,169.31007 L 43.261919,175.41763 C 42.529312,178.34806 45.843975,182.38642 48.860521,182.54312 L 88.050730,184.57898 C 91.766536,184.77201 96.297466,180.66390 96.194150,176.94452 L 95.685186,158.62183 C 95.627683,156.55173 97.179617,153.42877 99.247932,153.53219 L 129.78576,155.05908 L 118.07959,121.46747 L 94.158295,142.33499 C 89.811517,146.12686 85.834705,151.83846 86.014875,157.60390 L 86.523838,173.89074 C 86.572693,175.45412 85.033991,177.42827 83.470056,177.45349 L 51.914303,177.96245 C 50.313993,177.98826 47.336464,176.93601 47.842593,175.41763 L 49.878448,169.31007 L 44.788810,169.31007 z " id="path2295" sodipodi:nodetypes="czzzzzzcczzzzzzcc" style="fill:url(#linearGradient2296);fill-opacity:1;fill-rule:evenodd;stroke-width:2.2500000;stroke-linecap:round;stroke-linejoin:round;" transform="matrix(0.559228,0.000000,0.000000,0.559228,4.811579,-9.432893)"/>
  <path d="M 148.61742,26.291252 C 190.35245,11.361649 226.99784,53.775294 242.26675,90.420685 C 257.53566,128.08400 255.49981,184.40932 217.83649,203.41064 C 178.13731,222.41196 134.36643,185.08795 118.07959,141.31706 C 101.79275,98.564102 107.90032,40.202928 148.61742,26.291252 z " id="path2280" sodipodi:nodetypes="czzzz" style="fill:url(#linearGradient2293);fill-opacity:1;fill-rule:evenodd;stroke:url(#linearGradient2306);stroke-width:1.0000000pt;" transform="matrix(0.559228,0.000000,0.000000,0.559228,4.811579,-9.432893)"/>
  <path d="M 151.50348,37.499240 C 189.13870,24.036239 222.18425,62.283402 235.95323,95.328945 C 249.72220,129.29243 247.88634,180.08466 213.92286,197.21939 C 178.12351,214.35413 138.65243,180.69662 123.96552,141.22555 C 109.27861,102.67240 114.78621,50.044310 151.50348,37.499240 z " id="path2281" sodipodi:nodetypes="czzzz" style="fill:url(#linearGradient2287);fill-opacity:1;fill-rule:evenodd;stroke-width:0.90176554pt;" transform="matrix(0.559228,0.000000,0.000000,0.559228,4.811579,-9.432893)"/>
  <path d="M 139.08144,59.046762 C 122.41432,71.360999 116.96477,109.07857 131.99296,149.89103 C 146.94769,190.11694 202.99711,190.54403 218.07572,177.83300 C 233.22779,165.70852 255.86635,134.17852 223.78687,84.182538 C 191.85431,35.359638 156.25358,46.669275 139.08144,59.046762 z " id="path2282" sodipodi:nodetypes="czzzz" style="fill:url(#radialGradient2286);fill-opacity:1;fill-rule:evenodd;stroke-width:1.0000000pt;" transform="matrix(0.559228,0.000000,0.000000,0.559228,4.811579,-9.432893)"/>
  <path d="M 212.12974,166.00158 C 235.93374,135.00680 203.49940,66.387457 223.89326,96.378427 C 242.84756,126.36941 239.80084,174.89305 219.64691,190.96821 C 195.17427,212.80164 159.42503,179.21174 143.34986,162.17687 C 127.27470,145.14199 188.32573,195.97843 212.12974,166.00158 z " id="path2304" sodipodi:nodetypes="czzzz" style="fill:url(#linearGradient2305);fill-opacity:1;fill-rule:evenodd;stroke-width:1.0000000pt;" transform="matrix(0.559228,0.000000,0.000000,0.559228,4.811579,-9.432893)"/>
  <path d="M 45.346357,197.61934 L 55.423326,202.65782 L 158.71225,203.01771 L 130.64070,196.89955 L 45.346357,197.61934 z " id="path2315" sodipodi:nodetypes="ccccc" style="fill:url(#linearGradient2316);fill-opacity:1;fill-rule:evenodd;stroke-width:1.0000000pt;" transform="matrix(0.559228,0.000000,0.000000,0.559228,4.811579,-9.432893)"/>
  <path d="M 54.703542,201.57815 L 93.931740,202.29793 L 97.170765,184.66324 L 101.48947,201.93804 L 159.43203,203.01772 L 154.39355,214.89414 L 155.11333,257.00147 L 172.38814,268.87790 L 173.46781,275.71584 L 44.986465,276.43563 L 36.708956,257.00147 L 37.788631,250.16353 L 50.744733,242.60581 L 52.184300,208.41609 L 44.626574,197.61934 L 54.703542,201.57815 z " id="path2307" sodipodi:nodetypes="cccccccccccccccc" style="fill:url(#linearGradient2309);fill-opacity:1;fill-rule:evenodd;stroke-width:1.0000000pt;" transform="matrix(0.559228,0.000000,0.000000,0.559228,4.811579,-9.432893)"/>
  <path d="M 60.101918,254.48223 L 47.865599,269.23779 L 39.228198,251.60310 L 51.464516,243.32559 L 60.101918,254.48223 z " id="path2308" style="fill:url(#linearGradient2297);fill-opacity:1;fill-rule:evenodd;stroke-width:1.0000000pt;" transform="matrix(0.559228,0.000000,0.000000,0.559228,4.811579,-9.432893)"/>
  <rect height="4.6785922" id="rect2314" rx="2.3392961" ry="2.3392961" style="fill-rule:evenodd;stroke-width:1.0000000pt;" transform="matrix(0.559228,0.000000,0.000000,0.559228,4.811579,-9.432893)" width="75.217369" x="60.461809" y="189.70172"/>
  <path d="M 103.82861,214.60784 L 65.147361,215.62577 L 65.147361,254.30701 L 53.950158,272.62971 L 118.07959,271.61178 L 103.82861,214.60784 z " id="path2340" style="fill:url(#linearGradient2341);fill-opacity:1;fill-rule:evenodd;stroke-width:1.0000000pt;" transform="matrix(0.559228,0.000000,0.000000,0.559228,4.811579,-9.432893)"/>
  <path d="M 37.408835,80.991042 C 37.408835,82.510494 34.562710,85.945777 31.682993,85.945777 C 28.803276,85.945777 26.975079,82.510494 26.975079,80.991042 C 26.975079,79.471589 28.803276,80.440515 31.682993,80.440515 C 34.562710,80.440515 37.408835,79.471589 37.408835,80.991042 z " id="path2459" sodipodi:nodetypes="ccccc" style="fill:url(#linearGradient2460);fill-opacity:1;fill-rule:evenodd;stroke-width:1.0000000pt;"/>
  <path d="M 81.946504,41.965935 C 76.547308,45.955045 74.781964,58.173387 79.650241,71.394297 C 84.494721,84.425201 102.65155,84.563553 107.53616,80.445901 C 112.44456,76.518262 119.77816,66.304339 109.38623,50.108492 C 99.041909,34.292657 87.509298,37.956334 81.946504,41.965935 z " id="path2534" sodipodi:nodetypes="czzzz" style="fill:url(#radialGradient2286);fill-opacity:1;fill-rule:evenodd;stroke-width:1.0000000pt;"/>
  <text id="text1232" space="preserve" style="fill:black;fill-opacity:1;stroke:none;font-family:helvetica;font-style:normal;font-weight:normal;font-size:12px;stroke-opacity:1;stroke-width:1pt;stroke-linejoin:miter;stroke-linecap:butt;" x="-21.480872" y="-29.869111">
    <tspan id="tspan1233">Gramophone</tspan>
  </text>
  <text id="text1235" space="preserve" style="fill:black;fill-opacity:1;stroke:none;font-family:helvetica;font-style:normal;font-weight:normal;font-size:12px;stroke-opacity:1;stroke-width:1pt;stroke-linejoin:miter;stroke-linecap:butt;" transform="scale(0.246729,0.246729)" x="-68.254583" y="-99.508006">
    <tspan id="tspan1236">Created by Andrew Fitzsimon</tspan>
  </text>
  <path d="M 99.528232,143.52573 L 75.007670,142.93861 L 73.712928,133.96069 L 87.626887,134.63498 L 99.528232,143.52573 z " id="path2597" sodipodi:nodetypes="ccccc" style="fill:url(#linearGradient2598);fill-opacity:1;fill-rule:evenodd;stroke-width:1.0000000pt;"/>
</svg>
