<?xml version="1.0" encoding="UTF-8" standalone="no"?>
<!-- Created with Inkscape (http://www.inkscape.org/) -->
<svg xmlns:dc="http://purl.org/dc/elements/1.1/" xmlns:cc="http://creativecommons.org/ns#" xmlns:rdf="http://www.w3.org/1999/02/22-rdf-syntax-ns#" xmlns:svg="http://www.w3.org/2000/svg" xmlns="http://www.w3.org/2000/svg" xmlns:xlink="http://www.w3.org/1999/xlink" xmlns:sodipodi="http://sodipodi.sourceforge.net/DTD/sodipodi-0.dtd" xmlns:inkscape="http://www.inkscape.org/namespaces/inkscape" id="svg2297" sodipodi:version="0.32" inkscape:version="0.46dev+devel" width="181.40341" height="181.3219" sodipodi:docbase="/home/peterm/Foto's/afbeeldingen/svg" sodipodi:docname="PeterM_Ring.svg" inkscape:output_extension="org.inkscape.output.svg.inkscape" version="1.0">
  <metadata id="metadata2302">
    <rdf:RDF>
      <cc:Work rdf:about="">
        <dc:format>image/svg+xml</dc:format>
        <dc:type rdf:resource="http://purl.org/dc/dcmitype/StillImage"/>
      </cc:Work>
    </rdf:RDF>
  </metadata>
  <defs id="defs2300">
    <linearGradient id="linearGradient3960">
      <stop id="stop3962" offset="0" style="stop-color: rgb(255, 255, 255); stop-opacity: 1;"/>
      <stop id="stop3964" offset="1" style="stop-color: rgb(255, 255, 255); stop-opacity: 0;"/>
    </linearGradient>
    <linearGradient id="linearGradient8554">
      <stop id="stop8556" offset="0" style="stop-color: rgb(0, 3, 145); stop-opacity: 1;"/>
      <stop id="stop8558" offset="1" style="stop-color: rgb(1, 111, 219); stop-opacity: 1;"/>
    </linearGradient>
    <linearGradient id="linearGradient4142">
      <stop style="stop-color: rgb(255, 255, 255); stop-opacity: 1;" offset="0" id="stop4144"/>
      <stop style="stop-color: rgb(255, 255, 255); stop-opacity: 0;" offset="1" id="stop4146"/>
    </linearGradient>
    <linearGradient id="linearGradient8560">
      <stop style="stop-color: rgb(191, 184, 0); stop-opacity: 1;" offset="0" id="stop8562"/>
      <stop id="stop8564" offset="0.5" style="stop-color: rgb(248, 254, 5); stop-opacity: 1;"/>
      <stop style="stop-color: rgb(191, 184, 0); stop-opacity: 1;" offset="1" id="stop8566"/>
    </linearGradient>
    <linearGradient inkscape:collect="always" xlink:href="#linearGradient3960" id="linearGradient6278" x1="-29.468746" y1="-10.198757" x2="-29.468746" y2="507.53125" gradientUnits="userSpaceOnUse" gradientTransform="matrix(0.944751, 0, 0, 0.804205, 376.333, -23.4036)"/>
    <linearGradient inkscape:collect="always" xlink:href="#linearGradient8560" id="linearGradient6296" gradientUnits="userSpaceOnUse" gradientTransform="matrix(0.373423, 0, 0, 0.373423, -112.281, -15.0815)" x1="171.83858" y1="381.28146" x2="577.02722" y2="381.28146"/>
    <linearGradient inkscape:collect="always" xlink:href="#linearGradient4142" id="linearGradient6298" gradientUnits="userSpaceOnUse" x1="353.58734" y1="493.62003" x2="359.00797" y2="180.48428"/>
    <linearGradient inkscape:collect="always" xlink:href="#linearGradient4142" id="linearGradient6300" gradientUnits="userSpaceOnUse" x1="357.9162" y1="152.25885" x2="357.00049" y2="440.06088"/>
    <linearGradient inkscape:collect="always" xlink:href="#linearGradient4142" id="linearGradient6302" gradientUnits="userSpaceOnUse" x1="361.19095" y1="110.5407" x2="360.27524" y2="444.9689"/>
    <linearGradient inkscape:collect="always" xlink:href="#linearGradient4142" id="linearGradient6304" gradientUnits="userSpaceOnUse" x1="361.19095" y1="80.282722" x2="360.27524" y2="444.9689"/>
    <radialGradient inkscape:collect="always" xlink:href="#linearGradient3960" id="radialGradient6306" gradientUnits="userSpaceOnUse" gradientTransform="matrix(-0.279365, 0.654874, -0.658877, -0.0877378, 657.025, 359.295)" cx="259.8519" cy="485.57144" fx="259.8519" fy="485.57144" r="13.5"/>
    <linearGradient inkscape:collect="always" xlink:href="#linearGradient3960" id="linearGradient6326" gradientUnits="userSpaceOnUse" gradientTransform="matrix(0.944751, 0, 0, -0.804205, 376.333, 523.121)" x1="-29.468746" y1="-10.198757" x2="-29.468746" y2="507.53125"/>
    <linearGradient inkscape:collect="always" xlink:href="#linearGradient8560" id="linearGradient7303" x1="170.8125" y1="250.25" x2="526.1875" y2="250.25" gradientUnits="userSpaceOnUse"/>
    <linearGradient inkscape:collect="always" xlink:href="#linearGradient8560" id="linearGradient7332" gradientUnits="userSpaceOnUse" x1="170.8125" y1="250.25" x2="526.1875" y2="250.25"/>
    <linearGradient inkscape:collect="always" xlink:href="#linearGradient3960" id="linearGradient7334" gradientUnits="userSpaceOnUse" gradientTransform="matrix(0.944751, 0, 0, 0.804205, 376.333, -23.4036)" x1="-29.468746" y1="-10.198757" x2="-29.468746" y2="507.53125"/>
    <linearGradient inkscape:collect="always" xlink:href="#linearGradient8560" id="linearGradient7336" gradientUnits="userSpaceOnUse" gradientTransform="matrix(0.373423, 0, 0, 0.373423, -112.281, -15.0815)" x1="171.83858" y1="381.28146" x2="577.02722" y2="381.28146"/>
    <linearGradient inkscape:collect="always" xlink:href="#linearGradient4142" id="linearGradient7338" gradientUnits="userSpaceOnUse" x1="353.58734" y1="493.62003" x2="359.00797" y2="180.48428"/>
    <linearGradient inkscape:collect="always" xlink:href="#linearGradient4142" id="linearGradient7340" gradientUnits="userSpaceOnUse" x1="357.9162" y1="152.25885" x2="357.00049" y2="440.06088"/>
    <linearGradient inkscape:collect="always" xlink:href="#linearGradient4142" id="linearGradient7342" gradientUnits="userSpaceOnUse" x1="361.19095" y1="110.5407" x2="360.27524" y2="444.9689"/>
    <linearGradient inkscape:collect="always" xlink:href="#linearGradient4142" id="linearGradient7344" gradientUnits="userSpaceOnUse" x1="361.19095" y1="80.282722" x2="360.27524" y2="444.9689"/>
    <radialGradient inkscape:collect="always" xlink:href="#linearGradient3960" id="radialGradient7346" gradientUnits="userSpaceOnUse" gradientTransform="matrix(-0.279365, 0.654874, -0.658877, -0.0877378, 657.025, 359.295)" cx="259.8519" cy="485.57144" fx="259.8519" fy="485.57144" r="13.5"/>
    <linearGradient inkscape:collect="always" xlink:href="#linearGradient3960" id="linearGradient7348" gradientUnits="userSpaceOnUse" gradientTransform="matrix(0.944751, 0, 0, -0.804205, 376.333, 523.121)" x1="-29.468746" y1="-10.198757" x2="-29.468746" y2="507.53125"/>
  </defs>
  <sodipodi:namedview inkscape:window-height="732" inkscape:window-width="1280" inkscape:pageshadow="2" inkscape:pageopacity="0.0" guidetolerance="10.0" gridtolerance="10.0" objecttolerance="10.0" borderopacity="1.0" bordercolor="#666666" pagecolor="#ffffff" id="base" inkscape:zoom="1.4405687" inkscape:cx="80.301004" inkscape:cy="102.1675" inkscape:window-x="0" inkscape:window-y="0" inkscape:current-layer="svg2297"/>
  <g id="g7311" transform="matrix(0.467824, 0, 0, 0.467824, -71.8466, -14.2105)" inkscape:export-filename="/home/peterm/Foto's/afbeeldingen/svg/ring.png" inkscape:export-xdpi="198.54199" inkscape:export-ydpi="198.54199">
    <path id="path7309" d="M 348.39029,108.81705 C 256.32768,108.81705 181.61126,172.41468 181.61126,250.78159 C 181.61125,329.14852 256.32768,392.74614 348.39029,392.74615 C 440.45289,392.74616 515.16927,329.14852 515.16928,250.78159 C 515.16929,172.41467 440.45288,108.81705 348.39029,108.81705 z M 348.39029,141.28704 C 414.5126,141.28703 468.18019,186.9871 468.18019,243.27273 C 468.18019,299.55837 414.51258,345.22908 348.39029,345.22908 C 282.26799,345.22908 228.62968,299.55836 228.62968,243.27273 C 228.62967,186.9871 282.26799,141.28704 348.39029,141.28704 z" style="opacity: 1; fill: rgb(0, 0, 0); fill-opacity: 1; stroke: none; stroke-width: 4.764; stroke-miterlimit: 4; stroke-dasharray: none; stroke-opacity: 1;"/>
    <path style="opacity: 1; fill: rgb(0, 0, 0); fill-opacity: 1; stroke: none; stroke-width: 4.764; stroke-miterlimit: 4; stroke-dasharray: none; stroke-opacity: 1;" d="M 347.45643,93.10977 C 244.52932,93.109767 160.99544,164.2127 160.99544,251.82787 C 160.99543,339.44305 244.52932,410.54598 347.45643,410.54599 C 450.38355,410.546 533.91739,339.44305 533.9174,251.82787 C 533.91741,164.21269 450.38354,93.10977 347.45643,93.10977 z M 347.45643,129.41162 C 421.38199,129.41161 481.38302,180.50484 481.38302,243.43287 C 481.38302,306.3609 421.38197,357.42133 347.45643,357.42133 C 273.5309,357.42133 213.56262,306.36089 213.56262,243.43287 C 213.56261,180.50484 273.53089,129.41162 347.45643,129.41162 z" id="path7305"/>
    <g id="g7519" style="fill: rgb(0, 0, 0);" transform="matrix(0.404831, 0, 0, 0.404831, 17.761, -27.7734)">
      <path style="fill: rgb(0, 0, 0); fill-opacity: 1; stroke: none; stroke-width: 1.46061; stroke-miterlimit: 4; stroke-dasharray: none; stroke-opacity: 1;" d="M 812.27336,233.65414 C 734.68096,233.65414 667.26358,264.69073 633.3556,310.15253 L 609.67903,310.15253 L 610.43768,385.60779 C 607.84979,444.74894 706.74853,511.23807 814.25945,511.23805 C 921.77037,511.23805 1015.7355,454.67937 1014.1406,385.60779 L 1014.8677,310.15253 L 991.19112,310.15253 C 957.28135,264.69474 889.86158,233.65414 812.27336,233.65414 z" id="path7521" sodipodi:nodetypes="ccccscccc"/>
      <path transform="matrix(1.01242, 0, 0, 1.01242, 435.702, -20.7693)" sodipodi:type="arc" style="opacity: 1; fill: rgb(0, 0, 0); fill-opacity: 1; stroke: none; stroke-width: 18.867; stroke-miterlimit: 4; stroke-dasharray: none; stroke-opacity: 1;" id="path7523" sodipodi:cx="372.07529" sodipodi:cy="322.09503" sodipodi:rx="199.92105" sodipodi:ry="141.61075" d="M 571.99634,322.09503 A 199.92105,141.61075 0 1 1 172.15424,322.09503 A 199.92105,141.61075 0 1 1 571.99634,322.09503 z"/>
    </g>
    <path id="path6321" d="M 348.5,99 C 250.41589,98.999997 170.8125,166.75735 170.8125,250.25 C 170.81249,333.74265 250.41589,401.49999 348.5,401.5 C 446.58413,401.50001 526.18749,333.74265 526.1875,250.25 C 526.18751,166.75734 446.58412,99 348.5,99 z M 348.5,133.59375 C 418.94717,133.59374 476.125,182.2829 476.125,242.25 C 476.125,302.2171 418.94715,350.875 348.5,350.875 C 278.05286,350.875 220.90625,302.21709 220.90625,242.25 C 220.90624,182.2829 278.05285,133.59375 348.5,133.59375 z" style="opacity: 1; fill: url(#linearGradient7332) rgb(0, 0, 0); fill-opacity: 1; stroke: none; stroke-width: 4.764; stroke-miterlimit: 4; stroke-dasharray: none; stroke-opacity: 1;"/>
    <path id="path5298" d="M 348.49238,98.96122 C 255.8273,98.96123 180.62193,162.97869 180.62193,241.85846 C 180.62193,320.73823 255.82731,384.75569 348.49238,384.7557 C 441.15746,384.75569 516.36282,320.73824 516.36283,241.85846 C 516.36283,162.97867 441.15746,98.96122 348.49238,98.96122 z M 348.49238,121.85594 C 426.31164,121.85593 489.46695,175.61595 489.46695,241.85846 C 489.46694,308.10096 426.31164,361.86098 348.49238,361.86098 C 270.67312,361.86097 207.54734,308.10096 207.54734,241.85846 C 207.54733,175.61595 270.67312,121.85594 348.49238,121.85594 z" style="opacity: 0.669951; fill: url(#linearGradient7334) rgb(0, 0, 0); fill-opacity: 1; stroke: none; stroke-width: 4.764; stroke-miterlimit: 4; stroke-dasharray: none; stroke-opacity: 1;"/>
    <g transform="translate(320.036, -5.89023)" id="g6284">
      <path sodipodi:nodetypes="ccccscccc" id="path7525" d="M 27.54078,75.469492 C -1.4339599,75.469492 -26.60913,87.059252 -39.27113,104.0357 L -48.11249,104.0357 L -47.8292,132.21239 C -48.79557,154.29703 -11.86456,179.12556 28.28243,179.12556 C 68.42943,179.12556 103.51811,158.00527 102.92257,132.21239 L 103.19405,104.0357 L 94.35271,104.0357 C 81.69002,87.060742 56.51397,75.469492 27.54078,75.469492 z" style="fill: url(#linearGradient7336) rgb(0, 0, 0); fill-opacity: 1; stroke: none; stroke-width: 1.46061; stroke-miterlimit: 4; stroke-dasharray: none; stroke-opacity: 1;"/>
      <path sodipodi:type="arc" style="opacity: 0.187192; fill: url(#linearGradient7338) rgb(0, 0, 0); fill-opacity: 1; stroke: none; stroke-width: 2.20434; stroke-miterlimit: 4; stroke-dasharray: none; stroke-opacity: 1;" id="path7529" sodipodi:cx="372.07529" sodipodi:cy="322.09503" sodipodi:rx="199.92105" sodipodi:ry="141.61075" d="M 571.99634,322.09503 A 199.92105,141.61075 0 1 1 172.15424,322.09503 A 199.92105,141.61075 0 1 1 571.99634,322.09503 z" transform="matrix(0.274552, 0, 0, 0.209226, -73.4314, 80.2833)"/>
      <path d="M 571.99634,322.09503 A 199.92105,141.61075 0 1 1 172.15424,322.09503 A 199.92105,141.61075 0 1 1 571.99634,322.09503 z" sodipodi:ry="141.61075" sodipodi:rx="199.92105" sodipodi:cy="322.09503" sodipodi:cx="372.07529" id="path7527" style="fill: rgb(192, 185, 0); fill-opacity: 1; stroke: none; stroke-width: 18.867; stroke-miterlimit: 4; stroke-dasharray: none; stroke-opacity: 1;" sodipodi:type="arc" transform="matrix(0.378061, 0, 0, 0.378061, -113.079, -19.5379)"/>
      <path transform="matrix(0.370672, 0, 0, 0.370672, -110.443, -15.2717)" sodipodi:type="arc" style="fill: rgb(194, 188, 0); fill-opacity: 1; stroke: none; stroke-width: 18.867; stroke-miterlimit: 4; stroke-dasharray: none; stroke-opacity: 1;" id="path7531" sodipodi:cx="372.07529" sodipodi:cy="322.09503" sodipodi:rx="199.92105" sodipodi:ry="141.61075" d="M 571.99634,322.09503 A 199.92105,141.61075 0 1 1 172.15424,322.09503 A 199.92105,141.61075 0 1 1 571.99634,322.09503 z"/>
      <path sodipodi:type="arc" style="opacity: 0.340049; fill: url(#linearGradient7340) rgb(0, 0, 0); fill-opacity: 1; stroke: none; stroke-width: 2.20434; stroke-miterlimit: 4; stroke-dasharray: none; stroke-opacity: 1;" id="path7533" sodipodi:cx="372.07529" sodipodi:cy="322.09503" sodipodi:rx="199.92105" sodipodi:ry="141.61075" d="M 571.99634,322.09503 A 199.92105,141.61075 0 1 1 172.15424,322.09503 A 199.92105,141.61075 0 1 1 571.99634,322.09503 z" transform="matrix(0.335835, 0, 0, -0.298769, -96.9713, 208.929)"/>
      <path transform="matrix(0.289277, 0, 0, 0.257349, -78.325, 5.61153)" d="M 571.99634,322.09503 A 199.92105,141.61075 0 1 1 172.15424,322.09503 A 199.92105,141.61075 0 1 1 571.99634,322.09503 z" sodipodi:ry="141.61075" sodipodi:rx="199.92105" sodipodi:cy="322.09503" sodipodi:cx="372.07529" id="path7535" style="opacity: 0.630542; fill: url(#linearGradient7342) rgb(0, 0, 0); fill-opacity: 1; stroke: none; stroke-width: 2.20434; stroke-miterlimit: 4; stroke-dasharray: none; stroke-opacity: 1;" sodipodi:type="arc"/>
      <path transform="matrix(0.280548, 0, 0, 0.280548, -76.2445, 8.5938)" d="M 571.99634,322.09503 A 199.92105,141.61075 0 1 1 172.15424,322.09503 A 199.92105,141.61075 0 1 1 571.99634,322.09503 z" sodipodi:ry="141.61075" sodipodi:rx="199.92105" sodipodi:cy="322.09503" sodipodi:cx="372.07529" id="path7537" style="fill: rgb(192, 185, 0); fill-opacity: 1; stroke: none; stroke-width: 2.20434; stroke-miterlimit: 4; stroke-dasharray: none; stroke-opacity: 1;" sodipodi:type="arc"/>
      <path sodipodi:type="arc" style="fill: rgb(105, 125, 188); fill-opacity: 1; stroke: none; stroke-width: 2.20434; stroke-miterlimit: 4; stroke-dasharray: none; stroke-opacity: 1;" id="path7539" sodipodi:cx="372.07529" sodipodi:cy="322.09503" sodipodi:rx="199.92105" sodipodi:ry="141.61075" d="M 571.99634,322.09503 A 199.92105,141.61075 0 1 1 172.15424,322.09503 A 199.92105,141.61075 0 1 1 571.99634,322.09503 z" transform="matrix(0.267704, 0, 0, 0.267704, -71.2981, 13.4052)"/>
      <path sodipodi:type="arc" style="fill: url(#linearGradient7344) rgb(0, 0, 0); fill-opacity: 1; stroke: none; stroke-width: 2.20434; stroke-miterlimit: 4; stroke-dasharray: none; stroke-opacity: 1;" id="path7563" sodipodi:cx="372.07529" sodipodi:cy="322.09503" sodipodi:rx="199.92105" sodipodi:ry="141.61075" d="M 571.99634,322.09503 A 199.92105,141.61075 0 1 1 172.15424,322.09503 A 199.92105,141.61075 0 1 1 571.99634,322.09503 z" transform="matrix(0.231516, 0, 0, 0.205964, -57.3698, 26.0148)"/>
      <path transform="matrix(-0.0421347, -1.12142, 1.96207, -0.0881344, -915.908, 462.77)" d="M 278,486.86218 A 13.5,13.5 0 1 1 251,486.86218 A 13.5,13.5 0 1 1 278,486.86218 z" sodipodi:ry="13.5" sodipodi:rx="13.5" sodipodi:cy="486.86218" sodipodi:cx="264.5" id="path7565" style="opacity: 0.5; fill: url(#radialGradient7346) rgb(0, 0, 0); fill-opacity: 1; stroke: none; stroke-width: 1; stroke-linejoin: bevel; stroke-miterlimit: 4; stroke-dasharray: none; stroke-dashoffset: 0pt; stroke-opacity: 1; display: inline;" sodipodi:type="arc" inkscape:export-filename="/home/peterm/Foto's/afbeeldingen/svg/Mandriva/mcnlivelogo/mcnlivelogowithtext.png" inkscape:export-xdpi="47.93037" inkscape:export-ydpi="47.93037"/>
    </g>
    <path style="opacity: 0.669951; fill: url(#linearGradient7348) rgb(0, 0, 0); fill-opacity: 1; stroke: none; stroke-width: 4.764; stroke-miterlimit: 4; stroke-dasharray: none; stroke-opacity: 1;" d="M 348.49238,400.7557 C 255.8273,400.75569 180.62193,336.73823 180.62193,257.85846 C 180.62193,178.97869 255.82731,114.96123 348.49238,114.96122 C 441.15746,114.96123 516.36282,178.97868 516.36283,257.85846 C 516.36283,336.73825 441.15746,400.7557 348.49238,400.7557 z M 348.49238,377.86098 C 426.31164,377.86099 489.46695,324.10097 489.46695,257.85846 C 489.46694,191.61596 426.31164,137.85594 348.49238,137.85594 C 270.67312,137.85595 207.54734,191.61596 207.54734,257.85846 C 207.54733,324.10097 270.67312,377.86098 348.49238,377.86098 z" id="path6324"/>
  </g>
</svg>