<?xml version="1.0" encoding="UTF-8" standalone="no"?>
<!-- Created with Inkscape (http://www.inkscape.org/) -->
<svg
   xmlns:dc="http://purl.org/dc/elements/1.1/"
   xmlns:cc="http://creativecommons.org/ns#"
   xmlns:rdf="http://www.w3.org/1999/02/22-rdf-syntax-ns#"
   xmlns:svg="http://www.w3.org/2000/svg"
   xmlns="http://www.w3.org/2000/svg"
   xmlns:sodipodi="http://sodipodi.sourceforge.net/DTD/sodipodi-0.dtd"
   xmlns:inkscape="http://www.inkscape.org/namespaces/inkscape"
   width="32"
   height="32"
   id="svg2"
   sodipodi:version="0.32"
   inkscape:version="0.46"
   sodipodi:docname="smithy.svg"
   inkscape:output_extension="org.inkscape.output.svg.inkscape"
   version="1.0">
  <defs
     id="defs4">
    <inkscape:perspective
       sodipodi:type="inkscape:persp3d"
       inkscape:vp_x="0 : 526.18109 : 1"
       inkscape:vp_y="0 : 1000 : 0"
       inkscape:vp_z="744.09448 : 526.18109 : 1"
       inkscape:persp3d-origin="372.04724 : 350.78739 : 1"
       id="perspective10" />
  </defs>
  <sodipodi:namedview
     id="base"
     pagecolor="#ffffff"
     bordercolor="#666666"
     borderopacity="1.0"
     inkscape:pageopacity="0.0"
     inkscape:pageshadow="2"
     inkscape:zoom="7.9195959"
     inkscape:cx="25.614582"
     inkscape:cy="0.40825537"
     inkscape:document-units="px"
     inkscape:current-layer="layer1"
     showgrid="false"
     inkscape:window-width="1272"
     inkscape:window-height="996"
     inkscape:window-x="0"
     inkscape:window-y="0"
     showguides="true"
     inkscape:guide-bbox="true">
    <inkscape:grid
       type="xygrid"
       id="grid3389"
       visible="true"
       enabled="true" />
  </sodipodi:namedview>
  <metadata
     id="metadata7">
    <rdf:RDF>
      <cc:Work
         rdf:about="">
        <dc:format>image/svg+xml</dc:format>
        <dc:type
           rdf:resource="http://purl.org/dc/dcmitype/StillImage" />
        <cc:license
           rdf:resource="http://creativecommons.org/licenses/publicdomain/" />
        <dc:creator>
          <cc:Agent>
            <dc:title>malenki</dc:title>
          </cc:Agent>
        </dc:creator>
      </cc:Work>
    </rdf:RDF>
  </metadata>
  <g
     inkscape:label="Ebene 1"
     inkscape:groupmode="layer"
     id="layer1"
     transform="translate(0,-806.2849)">
    <path
       style="fill:#000000;fill-opacity:1;fill-rule:nonzero;stroke:#000000;stroke-width:0.20403489;stroke-miterlimit:4;stroke-dasharray:none;stroke-dashoffset:0;stroke-opacity:0.96330273"
       d="M 8.5535105,838.08086 C 8.6022388,838.02475 9.0560432,837.56122 9.5619595,837.0508 L 10.481806,836.12273 L 10.472176,834.32726 L 10.462536,832.53177 L 5.2822757,829.54233 L 0.10201745,826.5529 L 8.0337222,826.54353 C 12.396161,826.5384 19.548371,826.5384 23.927528,826.54353 L 31.88962,826.5529 L 26.788039,829.3723 L 21.68645,832.19167 L 21.685461,834.00924 L 21.68446,835.8268 L 22.862079,837.00484 L 24.039703,838.18288 L 16.252306,838.18288 L 8.4648987,838.18288 L 8.5535105,838.08086 z"
       id="path2437" />
    <path
       style="opacity:0.96000001;fill:#0b0800;fill-opacity:1;fill-rule:nonzero;stroke:#ffffff;stroke-width:0.33131066;stroke-linecap:square;stroke-linejoin:miter;stroke-miterlimit:4;stroke-dasharray:none;stroke-opacity:1"
       d="M 21.769004,810.39197 C 21.7203,810.30322 20.353223,808.9142 20.321719,808.92145 C 20.30344,808.92567 18.175939,811.11385 15.593943,813.78408 C 13.011943,816.4543 10.885376,818.64225 10.868238,818.64621 C 10.851101,818.65016 10.43378,818.2506 9.9408568,817.75831 L 9.0446352,816.86322 L 8.1390502,816.81291 C 7.6409792,816.78523 7.2232112,816.76395 7.2106802,816.76564 C 7.1601792,816.77243 7.3156042,818.53542 7.3742822,818.62135 C 7.4411762,818.71932 12.269417,823.57178 12.402348,823.67464 C 12.472181,823.72867 12.560146,823.65347 13.256313,822.94441 C 13.68317,822.50965 14.041074,822.14238 14.051664,822.12823 C 14.062246,822.11409 13.625265,821.64111 13.080588,821.07718 C 12.281976,820.25031 12.101768,820.04156 12.149648,819.99878 C 12.182312,819.96959 14.329251,817.84026 16.920622,815.26692 C 19.512002,812.69357 21.668176,810.55343 21.712129,810.51103 C 21.756086,810.46865 21.78168,810.41508 21.769004,810.39197 L 21.769004,810.39197 z"
       id="path3172" />
    <path
       style="opacity:0.96000001;fill:#28170b;fill-opacity:0.98165134;fill-rule:nonzero;stroke:#fdfeff;stroke-width:0.32591447;stroke-linecap:square;stroke-linejoin:miter;stroke-miterlimit:4;stroke-dasharray:none;stroke-opacity:0.96012268"
       d="M 24.203571,822.97154 C 23.824701,823.27072 23.841571,823.28222 23.558501,822.53182 C 23.368981,822.02925 23.134481,821.66582 22.953301,821.59356 C 22.893321,821.56964 22.594281,821.52336 22.288791,821.49071 L 21.733361,821.43135 L 21.724221,821.56844 C 21.719191,821.64385 21.717541,821.79293 21.720511,821.89974 C 21.736371,822.46669 21.754921,822.53648 21.956391,822.78767 C 22.068561,822.92746 22.192531,823.04798 22.232031,823.05551 C 22.297731,823.06803 22.441601,823.1196 22.646531,823.20399 C 23.546491,823.57466 23.519921,823.53319 23.082161,823.88337 L 22.719561,824.17342 L 22.346461,824.05277 C 21.861501,823.89593 21.625611,823.74621 21.290581,823.3826 C 20.952891,823.01605 20.856081,822.71349 20.825781,821.92967 L 20.803571,821.35506 L 20.198681,821.10282 C 19.309281,820.73193 18.699181,820.40239 17.840821,819.82927 C 15.365341,818.17635 12.226721,815.22909 9.0769118,811.59958 C 8.7310918,811.20111 8.3550118,810.77707 8.2412018,810.65726 C 8.1273918,810.53747 8.0375918,810.40944 8.0416018,810.37275 C 8.0514418,810.28273 8.3678218,809.79324 8.5079418,809.6513 L 8.6206718,809.53709 L 9.5358715,810.60104 C 10.957691,812.25394 12.322041,813.7163 13.985921,815.37075 C 15.614051,816.98963 17.176351,818.27778 18.712331,819.26779 C 19.328371,819.66484 20.438171,820.2147 20.474251,820.14075 C 20.511501,820.0645 20.082971,819.13458 19.704241,818.46979 C 18.881331,817.02525 17.149001,814.77483 15.603231,813.1422 C 14.383101,811.85353 12.364691,809.86796 11.144431,808.75592 C 10.707342,808.35762 10.330562,808.00921 10.307022,807.98168 C 10.263102,807.9301 10.819171,807.36169 10.950981,807.32347 C 11.065971,807.29012 13.263881,809.3361 14.876931,810.97812 C 16.566511,812.69799 17.782611,814.08658 18.968491,815.65 C 20.202721,817.27714 20.953861,818.56413 21.450871,819.90333 L 21.666041,820.483 L 22.410641,820.57574 C 23.099461,820.66153 23.176281,820.68188 23.437101,820.84742 C 23.592121,820.94584 23.821541,821.16089 23.946951,821.3253 C 24.168101,821.6152 24.562651,822.49788 24.537051,822.64537 C 24.530081,822.68545 24.380031,822.83221 24.203571,822.97154 L 24.203571,822.97154 z"
       id="path3367" />
  </g>
</svg>
