<?xml version="1.0" encoding="UTF-8" standalone="no"?>
<!-- Generator: Adobe Illustrator 12.0.0, SVG Export Plug-In . SVG Version: 6.00 Build 51448)  -->
<svg
   xmlns:dc="http://purl.org/dc/elements/1.1/"
   xmlns:cc="http://web.resource.org/cc/"
   xmlns:rdf="http://www.w3.org/1999/02/22-rdf-syntax-ns#"
   xmlns:svg="http://www.w3.org/2000/svg"
   xmlns="http://www.w3.org/2000/svg"
   xmlns:sodipodi="http://sodipodi.sourceforge.net/DTD/sodipodi-0.dtd"
   xmlns:inkscape="http://www.inkscape.org/namespaces/inkscape"
   height="355.592"
   id="Layer_1"
   inkscape:version="0.45.1"
   sodipodi:docbase="C:\Dokumente und Einstellungen\ulfl\Eigene Dateien\svn.openstreetmap.org\applications\share\map-icons\svg\misc"
   sodipodi:docname="bunny.svg"
   sodipodi:version="0.32"
   space="preserve"
   style="overflow:visible;enable-background:new 0 0 411.483 355.592;"
   version="1.1"
   viewBox="0 0 411.483 355.592"
   width="411.483"
   inkscape:output_extension="org.inkscape.output.svg.inkscape">
  <metadata
     id="metadata3">
    <rdf:RDF>
      <cc:Work
         rdf:about="">
        <dc:title>Coniglio</dc:title>
        <dc:description />
        <dc:subject>
          <rdf:Bag>
            <rdf:li>mammal</rdf:li>
            <rdf:li>animal</rdf:li>
          </rdf:Bag>
        </dc:subject>
        <dc:publisher>
          <cc:Agent
             rdf:about="http://www.openclipart.org/">
            <dc:title>Open Clip Art Library</dc:title>
          </cc:Agent>
        </dc:publisher>
        <dc:creator>
          <cc:Agent>
            <dc:title>Architetto Francesco Rollandin</dc:title>
          </cc:Agent>
        </dc:creator>
        <dc:rights>
          <cc:Agent>
            <dc:title>Architetto Francesco Rollandin</dc:title>
          </cc:Agent>
        </dc:rights>
        <dc:date />
        <dc:format>image/svg+xml</dc:format>
        <dc:type
           rdf:resource="http://purl.org/dc/dcmitype/StillImage" />
        <cc:license
           rdf:resource="http://web.resource.org/cc/PublicDomain" />
        <dc:language>en</dc:language>
      </cc:Work>
      <cc:License
         rdf:about="http://web.resource.org/cc/PublicDomain">
        <cc:permits
           rdf:resource="http://web.resource.org/cc/Reproduction" />
        <cc:permits
           rdf:resource="http://web.resource.org/cc/Distribution" />
        <cc:permits
           rdf:resource="http://web.resource.org/cc/DerivativeWorks" />
      </cc:License>
    </rdf:RDF>
  </metadata>
  <defs
     id="defs168" />
  <sodipodi:namedview
     bordercolor="#666666"
     borderopacity="1.0"
     id="base"
     inkscape:current-layer="Layer_1"
     inkscape:cx="205.7415"
     inkscape:cy="177.79601"
     inkscape:pageopacity="0.0"
     inkscape:pageshadow="2"
     inkscape:window-height="573"
     inkscape:window-width="797"
     inkscape:window-x="44"
     inkscape:window-y="58"
     inkscape:zoom="1.0123962"
     pagecolor="#ffffff" />
  <path
     d="M 126.9659,355.221 C 122.0159,353.04 115.4459,352.874 109.4539,352.946 C 101.4719,353.042 96.932902,351.47 90.122902,349.761 C 81.397902,347.572 62.057902,347.519 76.476902,335.885 C 85.119902,328.911 99.170902,333.813 108.3169,328.605 C 115.6939,324.405 124.6089,301.75 123.7819,295.393 C 122.1679,282.983 120.1069,293.583 116.9589,291.299 C 115.7369,290.413 113.0179,280.519 111.5009,278.786 C 104.5149,270.804 102.9679,262.911 96.945902,253.536 C 89.757902,242.345 81.097902,231.927 68.971902,222.598 C 61.480902,216.835 53.012902,213.496 50.322902,203.718 C 49.833902,201.94 50.759902,199.068 50.095902,197.12 C 47.648902,189.936 49.949902,192.915 42.818902,190.751 C 21.746902,184.358 -13.684098,182.361 5.5209023,148.212 C 13.419902,134.165 27.502902,120.35 35.767902,107.948 C 45.476902,93.382 55.986902,91.06 72.611902,86.795 C 89.862902,82.37 97.570902,71.879 100.8119,56.085 C 104.4149,38.529 111.2509,26.074 126.0569,13.319 C 135.8239,4.905 152.8379,-10.162 155.8489,10.134 C 156.7149,15.973 150.2349,30.947 153.1199,35.384 C 156.6379,40.792 173.6209,35.035 179.9549,34.02 C 195.5629,31.518 204.2249,37.634 197.9219,54.265 C 195.8259,59.794 191.9309,62.035 188.1429,66.094 C 182.9789,71.628 180.7739,77.595 176.5439,83.838 C 170.5859,92.63 162.2099,99.578 152.2099,103.174 C 149.0409,104.313 137.4469,105.608 137.6549,109.543 C 138.0959,117.91 166.3109,119.181 171.7679,120.462 C 176.8879,121.664 183.2319,128.331 187.9149,128.651 C 191.1389,128.872 199.8539,124.005 205.4259,123.874 C 222.6889,123.47 247.7589,125.476 264.1019,130.471 C 272.9589,133.178 281.8769,139.115 290.2549,142.073 C 298.1039,144.844 306.7739,146.344 314.3619,150.49 C 336.9659,162.838 342.9829,179.569 355.7529,200.762 C 367.4089,220.107 372.2039,248.191 375.8809,270.144 C 377.5559,280.147 374.5049,289.475 375.5389,297.897 C 376.6609,307.036 381.5209,304.06 389.8669,307.451 C 395.7569,309.844 407.9889,316.251 410.5629,323.147 C 413.3169,330.524 409.3379,325.708 406.0139,329.515 C 403.5009,332.393 402.6289,336.011 400.3269,337.934 C 397.6769,340.148 394.4989,339.637 391.2299,341.8 C 387.8949,344.007 385.4469,348.877 380.3139,349.533 C 375.6979,350.124 372.3969,349.358 367.1239,348.396 C 360.6559,347.216 354.1799,347.125 347.1089,344.301 C 336.0329,339.877 331.2889,341.408 318.5689,342.822 C 299.7729,344.911 280.2649,349.077 261.3709,348.167 C 252.0239,347.717 249.1299,347.109 239.5389,349.989 C 220.3589,355.748 198.2909,357.754 179.9529,352.717 C 159.6719,347.146 186.9059,337.96 187.9139,328.377 C 187.9479,328.048 183.3729,319.907 182.6839,319.278 C 178.4959,315.459 177.4959,316.171 173.1309,322.69 C 168.0759,330.242 166.7779,339.994 160.8509,345.893 C 153.6459,353.067 136.4589,354.57 126.9659,355.221"
     id="path3"
     style="fill-rule:evenodd" />
  <path
     d="M 127.4209,351.808 C 121.4969,349.361 113.9399,348.97 107.4089,349.306 C 109.2569,346.41 128.3699,335.216 110.1379,341.799 C 107.5899,339.969 109.9279,339.738 105.1339,339.524 C 111.3269,329.305 127.7819,335.477 134.4729,327.696 C 137.1619,324.568 136.1299,315.353 138.7929,311.089 C 142.8459,304.601 143.7219,297.702 142.2049,289.934 C 147.1839,290.477 147.2829,285.599 144.7049,281.973 C 142.2349,278.498 134.1839,279.521 131.7419,273.556 C 142.2279,274.774 122.1039,257.869 125.8299,271.964 C 127.4839,278.22 146.1079,292.564 138.5649,303.583 C 133.2079,311.409 127.2289,283.718 125.3749,281.973 C 125.3279,281.929 118.9659,283.753 115.4819,280.267 C 112.9309,277.714 107.6339,271.381 106.7259,267.187 C 117.7359,268.953 105.3919,262.158 103.9969,257.406 C 111.5329,256.235 102.7779,253.97 100.1309,251.263 C 96.916902,247.977 98.514902,247.141 95.013902,243.644 C 91.014902,239.648 83.698902,233.305 80.799902,229.197 C 75.046902,221.043 82.795902,224.311 81.027902,218.051 C 79.099902,211.228 76.887902,216.475 72.158902,216.687 C 69.583902,216.802 72.947902,218.648 68.519902,217.598 C 64.497902,216.644 59.473902,211.994 57.374902,208.726 C 44.624902,188.864 71.977902,202.122 79.662902,193.484 C 69.929902,189.623 66.655902,198.452 56.010902,191.892 C 54.962902,191.246 54.613902,186.848 50.780902,185.522 C 47.659902,184.443 40.242902,186.191 34.633902,184.612 C 34.633902,184.612 34.654902,183.942 34.633902,183.929 C 42.920902,183.888 52.253902,179.286 58.284902,174.375 C 48.322902,172.244 37.061902,181.188 25.535902,179.266 C 16.175902,177.705 11.689902,165.238 6.2049023,164.821 C 3.6669023,144.78 28.383902,124.907 38.954902,110.226 C 45.696902,100.862 51.011902,96.926 62.605902,93.62 C 72.994902,90.657 83.532902,90.71 91.147902,82.247 C 98.258902,74.343 102.3769,67.409 104.4529,57.224 C 105.8379,50.43 106.9519,43.461 110.1389,37.433 C 114.7889,28.635 123.3309,19.889 131.4039,14.117 C 138.7409,8.87 146.9879,-1.906 151.5299,8.771 C 154.0089,14.597 150.7079,29.63 148.8009,35.386 C 145.2399,46.14 133.5819,54.758 125.8639,63.442 C 120.9759,68.942 115.5899,74.069 111.5029,80.199 C 108.5319,84.656 109.1539,80.213 106.2729,80.882 C 102.6129,81.732 100.1329,81.241 96.720902,82.702 C 102.9209,87.765 83.547902,94.867 97.403902,92.938 C 94.210902,107.196 99.738902,93.145 100.8139,92.028 C 106.5359,86.087 113.3349,83.888 118.7809,77.014 C 124.6069,69.66 131.1379,62.788 137.6579,56.086 C 148.1719,45.278 151.5819,42.326 165.8579,40.618 C 181.0169,38.805 202.5799,30.827 193.2619,55.632 C 190.6799,62.507 180.2859,69.584 176.0909,76.332 C 171.7849,83.258 167.4339,91.238 159.7179,95.099 C 152.4029,98.759 143.8239,102.748 135.8379,104.312 C 134.0899,94.699 127.9129,116.086 122.1919,117.961 C 120.8179,118.411 112.6889,117.774 113.0959,117.051 C 110.4529,121.748 118.4089,122.808 121.2829,122.738 C 123.2149,122.691 127.6119,118.228 129.0149,118.871 C 131.2969,119.916 130.6099,124.558 131.9719,125.468 C 134.3899,127.083 135.3559,134.776 135.3829,123.648 C 135.3879,121.674 129.9439,111.888 134.6999,113.411 C 141.6809,115.646 139.6749,132.484 139.9299,137.751 C 145.8189,134.724 139.2129,121.585 144.0239,118.643 C 147.4829,116.527 160.6959,122.804 164.7189,123.306 C 172.5379,124.282 178.5949,130.793 185.1879,131.836 C 191.2409,132.794 196.9229,127.741 203.6089,127.741 C 219.9989,127.741 250.6389,127.151 265.6959,134.679 C 280.7419,142.202 297.9419,145.836 312.5449,153.901 C 333.0179,165.208 344.8559,184.669 354.2779,205.425 C 364.1349,227.141 371.7049,255.057 373.6129,278.897 C 374.9239,295.28 369.8289,307.025 362.3509,319.279 C 361.0299,321.443 353.1939,328.804 359.1649,332.246 C 362.9119,334.406 364.3189,326.245 365.3069,324.057 C 369.8549,313.985 370.9289,306.478 383.9549,309.498 C 389.4999,310.784 403.8269,316.292 405.3339,322.465 C 406.3699,326.71 404.6669,325.526 400.7849,328.151 C 399.6269,328.934 394.4339,328.585 394.4159,328.606 C 394.0289,329.055 393.9309,333.292 395.0989,332.473 C 393.7829,333.395 396.4559,335.95 392.1429,336.569 C 389.7909,336.906 386.0889,331.458 383.9549,332.247 C 379.5509,333.877 389.1399,337.34 388.2759,340.663 C 386.7009,346.722 378.1879,337.258 375.0849,336.112 C 376.6699,340.107 383.7069,343.432 377.3599,346.804 C 376.8789,347.06 363.8869,343.891 361.6679,343.619 C 353.0579,342.565 345.3549,336.696 337.5609,335.658 C 330.5099,334.719 319.9289,338.207 312.7719,339.069 C 300.3399,340.566 287.8989,341.918 275.4249,343.273 C 265.3639,344.366 255.1759,340.68 248.0699,342.71 C 231.7049,347.381 216.7279,351.127 199.5149,351.127 C 200.7859,341.214 213.2099,341.94 217.2539,335.658 C 207.5219,336.439 204.2389,339.635 197.2389,344.983 C 193.4959,347.842 186.4749,353.327 186.3229,347.258 C 186.0829,337.684 198.2209,340.993 200.8789,337.933 C 205.4159,332.705 192.2109,335.665 189.5079,336.567 C 188.0129,337.065 178.8989,351.778 176.9989,346.577 C 175.9859,343.804 187.8149,335.215 189.3939,332.587 C 190.6849,330.438 203.4549,330.166 206.1099,329.972 C 211.3289,329.591 230.6899,334.446 234.0829,331.109 C 234.2919,330.903 234.8189,330.299 234.9929,330.199 C 228.7689,328.173 223.7379,329.308 224.9859,321.1 C 236.4209,323.477 221.4849,313.676 220.8919,306.996 C 223.1139,307.525 225.2799,306.204 226.8049,306.312 C 223.6889,303.871 221.4169,291.58 220.8919,291.528 C 218.6279,291.305 217.8519,304.629 217.9359,307.451 C 217.9919,309.325 221.3599,324.038 221.3469,324.057 C 219.7929,326.36 207.8189,326.665 204.0629,325.422 C 201.5679,324.596 203.3549,319.779 201.1069,319.506 C 198.2499,319.158 200.0069,324.387 198.8329,324.512 C 189.3229,325.525 189.3189,321.658 186.0969,314.502 C 185.0109,312.091 180.9109,312.058 181.5489,308.815 C 182.1149,305.937 186.6869,305.417 188.3719,302.9 C 191.3779,298.413 194.0979,288.27 193.6019,282.882 C 191.9639,265.068 188.1929,287.366 187.5749,293.573 C 186.8839,300.521 178.7719,307.424 175.1799,313.592 C 170.9039,320.936 165.8659,335.428 160.6249,341.571 C 154.2989,348.987 136.8839,351.471 127.4209,351.808"
     id="path5"
     style="fill:#ededed;fill-rule:evenodd" />
  <path
     d="M 84.665902,346.803 C 74.737902,344.439 97.178902,338.135 96.036902,333.61 C 98.066902,333.006 101.1149,332.661 103.7699,333.155 C 101.5179,337.849 90.644902,348.269 84.665902,346.803"
     id="path7"
     style="fill:#b3bcb3;fill-rule:evenodd" />
  <path
     d="M 114.2309,329.288 C 114.8259,322.918 121.0129,310.321 125.8299,305.403 C 133.3039,297.771 132.5909,309.636 131.9709,317.459 C 131.0869,328.606 124.6739,327.753 114.2309,329.288"
     id="path9"
     style="fill:#b3bcb3;fill-rule:evenodd" />
  <path
     d="M 241.5879,332.472 C 232.3409,326.332 261.0759,331.491 241.5879,332.472"
     id="path11"
     style="fill-rule:evenodd" />
  <path
     d="M 348.0229,335.885 C 344.5059,334.685 330.0119,322.396 336.1969,322.917 C 338.3469,323.099 353.9459,333.825 348.0229,335.885"
     id="path13"
     style="fill-rule:evenodd" />
  <path
     d="M 349.1599,330.425 C 346.4709,329.42 340.0929,321.892 345.2939,322.236 C 347.8429,322.404 354.1689,329.306 349.1599,330.425"
     id="path15"
     style="fill-rule:evenodd" />
  <path
     d="M 207.7019,319.279 C 205.7609,318.894 201.2119,313.314 205.4269,313.365 C 208.0019,313.396 209.9359,318.032 207.7019,319.279"
     id="path17"
     style="fill-rule:evenodd" />
  <path
     d="M 352.3439,323.829 C 348.9749,318.135 356.3789,320.377 352.3439,323.829"
     id="path19"
     style="fill-rule:evenodd" />
  <path
     d="M 208.8389,311.771 C 207.8859,308.099 210.2059,308.808 208.8389,311.771"
     id="path21"
     style="fill-rule:evenodd" />
  <path
     d="M 356.2109,318.824 C 356.1839,316.89 354.9659,315.683 358.4839,315.412 C 358.8619,318.227 357.5069,317.715 356.2109,318.824"
     id="path23"
     style="fill-rule:evenodd" />
  <path
     d="M 210.6599,304.947 C 208.4799,300.995 212.1249,301.422 210.6599,304.947"
     id="path25"
     style="fill-rule:evenodd" />
  <path
     d="M 360.3039,308.815 C 360.9469,307.663 359.0459,306.341 361.8959,306.54 C 362.3429,308.955 360.8339,307.866 360.3039,308.815"
     id="path27"
     style="fill-rule:evenodd" />
  <path
     d="M 212.2499,300.171 C 210.4189,296.376 214.5659,297.15 212.2499,300.171"
     id="path29"
     style="fill-rule:evenodd" />
  <path
     d="M 224.9859,292.891 C 221.1189,290.913 221.9099,285.304 223.8489,281.744 C 226.2579,283.183 227.2419,291.163 224.9859,292.891"
     id="path31"
     style="fill-rule:evenodd" />
  <path
     d="M 139.2479,286.521 C 138.6769,285.325 137.7729,285.011 137.6559,283.109 C 141.4929,283.849 139.5939,284.808 139.2479,286.521"
     id="path33"
     style="fill:#ffffff;fill-rule:evenodd" />
  <path
     d="M 156.3039,287.204 C 155.1969,286.46 154.4749,286.7 154.2579,285.157 C 146.2919,290.107 149.2369,275.457 153.1199,284.703 C 158.3749,278.057 162.3659,281.299 156.3039,287.204"
     id="path35"
     style="fill-rule:evenodd" />
  <path
     d="M 164.0369,286.976 C 161.8559,279.511 173.2669,283.746 164.0369,286.976"
     id="path37"
     style="fill-rule:evenodd" />
  <path
     d="M 199.5149,283.109 C 192.3239,275.544 206.1169,276.107 199.5149,283.109"
     id="path39"
     style="fill-rule:evenodd" />
  <path
     d="M 229.7619,276.967 C 227.6929,274.566 227.9969,270.757 231.3539,269.688 C 231.9899,273.06 231.3379,275.648 229.7619,276.967"
     id="path41"
     style="fill-rule:evenodd" />
  <path
     d="M 215.8899,272.417 C 210.9469,257.417 231.8489,230.854 240.6769,221.008 C 235.3889,231.992 227.6649,243.288 223.1669,254.22 C 221.3369,258.67 219.9879,270.215 215.8899,272.417"
     id="path43"
     style="fill-rule:evenodd" />
  <path
     d="M 199.9699,270.371 C 193.7599,265.137 201.0879,238.174 203.8359,231.7 C 205.5649,234.027 205.4199,253.843 204.7449,258.087 C 204.5899,259.071 201.2319,269.764 199.9699,270.371"
     id="path45"
     style="fill-rule:evenodd" />
  <path
     d="M 191.5549,269.915 C 179.1899,254.489 198.9299,263.603 191.5549,269.915"
     id="path47"
     style="fill-rule:evenodd" />
  <path
     d="M 126.2839,261.5 C 126.6039,257.382 130.0069,258.678 126.2839,261.5"
     id="path49"
     style="fill-rule:evenodd" />
  <path
     d="M 233.8559,262.409 C 226.7279,256.543 240.5589,253.281 233.8559,262.409"
     id="path51"
     style="fill-rule:evenodd" />
  <path
     d="M 190.4189,255.811 C 180.7089,248.408 195.1359,247.12 190.4189,255.811"
     id="path53"
     style="fill-rule:evenodd" />
  <path
     d="M 238.4049,252.627 C 237.3699,250.401 239.7739,240.258 242.9529,242.617 C 245.4919,244.501 239.4059,252.378 238.4049,252.627"
     id="path55"
     style="fill-rule:evenodd" />
  <path
     d="M 192.9189,249.897 C 192.1439,248.809 186.1329,236.883 190.8739,237.614 C 194.1469,238.118 193.7489,248.693 192.9189,249.897"
     id="path57"
     style="fill-rule:evenodd" />
  <path
     d="M 207.9289,250.353 C 204.4749,245.747 205.7059,231.146 210.2019,228.514 C 210.3319,233.774 211.2259,247.387 207.9289,250.353"
     id="path59"
     style="fill-rule:evenodd" />
  <path
     d="M 247.0469,242.846 C 243.7689,238.504 247.4069,231.617 252.5059,230.561 C 251.2699,234.654 249.2249,240.489 247.0469,242.846"
     id="path61"
     style="fill-rule:evenodd" />
  <path
     d="M 357.5749,237.386 C 358.6899,234.371 358.5199,234.829 357.5749,237.386"
     id="path63"
     style="fill-rule:evenodd" />
  <path
     d="M 256.3719,230.561 C 256.1189,228.263 258.7709,221.954 261.8289,223.055 C 265.8379,224.5 257.9009,230.321 256.3719,230.561"
     id="path65"
     style="fill-rule:evenodd" />
  <path
     d="M 352.3439,234.656 C 350.3059,232.462 349.0949,229.192 349.3869,225.785 C 351.9319,227.623 353.5329,232.488 352.3439,234.656"
     id="path67"
     style="fill-rule:evenodd" />
  <path
     d="M 84.665902,218.506 C 77.287902,213.698 90.535902,212.902 84.665902,218.506"
     id="path69"
     style="fill-rule:evenodd" />
  <path
     d="M 90.805902,214.866 C 89.670902,212.528 89.204902,211.196 92.852902,211 C 93.347902,214.406 92.024902,214.009 90.805902,214.866"
     id="path71"
     style="fill-rule:evenodd" />
  <path
     d="M 273.2009,223.055 C 273.8279,220.602 273.7789,220.794 273.2009,223.055"
     id="path73"
     style="fill-rule:evenodd" />
  <path
     d="M 250.2299,215.093 C 249.7769,212.119 253.5079,210.845 256.8259,210.771 C 256.0579,213.782 253.6769,215.252 250.2299,215.093"
     id="path75"
     style="fill-rule:evenodd" />
  <path
     d="M 85.574902,193.482 C 83.511902,193.216 76.355902,188.944 81.481902,188.933 C 85.420902,188.925 89.867902,191.568 85.574902,193.482"
     id="path77"
     style="fill-rule:evenodd" />
  <path
     d="M 90.123902,190.525 C 84.060902,183.485 103.5219,192.106 90.123902,190.525"
     id="path79"
     style="fill-rule:evenodd" />
  <path
     d="M 96.718902,187.113 C 93.961902,182.067 105.3149,184.709 96.718902,187.113"
     id="path81"
     style="fill-rule:evenodd" />
  <path
     d="M 13.481902,179.833 C 7.7559023,178.22 5.2069023,174.113 6.4309023,167.095 C 6.4379023,167.108 7.1069023,167.108 7.1139023,167.095 C 7.8809023,171.714 12.564902,176.121 15.528902,179.379 C 14.977902,180.065 14.485902,179.523 13.481902,179.833"
     id="path83"
     style="fill:#b3bcb3;fill-rule:evenodd" />
  <path
     d="M 102.4049,183.701 C 100.5179,178.545 108.5479,181.244 102.4049,183.701"
     id="path85"
     style="fill-rule:evenodd" />
  <path
     d="M 79.888902,180.062 C 69.142902,177.433 82.711902,173.442 79.888902,180.062"
     id="path87"
     style="fill-rule:evenodd" />
  <path
     d="M 28.946902,175.512 C 28.251902,171.818 31.569902,172.557 28.946902,175.512"
     id="path89"
     style="fill-rule:evenodd" />
  <path
     d="M 63.514902,176.876 C 55.201902,172.209 67.763902,171.708 63.514902,176.876"
     id="path91"
     style="fill-rule:evenodd" />
  <path
     d="M 84.437902,177.559 C 78.187902,170.827 95.839902,176.037 84.437902,177.559"
     id="path93"
     style="fill-rule:evenodd" />
  <path
     d="M 106.7259,178.469 C 105.4579,173.647 112.3089,175.791 106.7259,178.469"
     id="path95"
     style="fill-rule:evenodd" />
  <path
     d="M 126.5109,178.469 C 126.6209,176.584 125.6179,175.102 129.0129,176.649 C 128.4249,178.153 127.4609,177.658 126.5109,178.469"
     id="path97"
     style="fill-rule:evenodd" />
  <path
     d="M 37.360902,173.692 C 36.809902,170.572 37.742902,170.954 37.360902,173.692"
     id="path99"
     style="fill-rule:evenodd" />
  <path
     d="M 23.715902,172.1 C 23.917902,169.174 24.203902,169.554 23.715902,172.1"
     id="path101"
     style="fill-rule:evenodd" />
  <path
     d="M 93.306902,175.512 C 93.347902,175.234 92.495902,174.335 92.624902,173.465 C 93.127902,173.548 93.705902,173.457 94.216902,173.465 C 94.580902,174.893 93.330902,175.356 93.306902,175.512"
     id="path103"
     style="fill-rule:evenodd" />
  <path
     d="M 110.5909,173.919 C 111.3219,169.739 115.4809,172.22 110.5909,173.919"
     id="path105"
     style="fill-rule:evenodd" />
  <path
     d="M 30.765902,168.46 C 27.748902,164.666 31.369902,164.409 30.765902,168.46"
     id="path107"
     style="fill-rule:evenodd" />
  <path
     d="M 36.223902,168.005 C 36.111902,164.601 36.428902,165.808 36.223902,168.005"
     id="path109"
     style="fill-rule:evenodd" />
  <path
     d="M 130.3789,171.417 C 129.8589,167.576 132.9969,167.974 130.3789,171.417"
     id="path111"
     style="fill-rule:evenodd" />
  <path
     d="M 9.1609023,161.863 C 6.4819023,157.753 11.705902,151.598 17.120902,154.128 C 22.105902,156.458 10.981902,160.408 9.1609023,161.863"
     id="path113"
     style="fill-rule:evenodd" />
  <path
     d="M 132.8799,165.275 C 132.0989,159.528 137.7019,163.025 132.8799,165.275"
     id="path115"
     style="fill-rule:evenodd" />
  <path
     d="M 135.1539,159.133 C 129.4059,151.917 141.5169,155.163 135.1539,159.133"
     id="path117"
     style="fill-rule:evenodd" />
  <path
     d="M 21.895902,153.219 C 8.9849023,147.163 29.904902,148.013 21.895902,153.219"
     id="path119"
     style="fill-rule:evenodd" />
  <path
     d="M 71.929902,153.674 C 69.125902,152.999 65.284902,147.6 70.336902,148.214 C 72.497902,148.477 78.281902,153 71.929902,153.674"
     id="path121"
     style="fill-rule:evenodd" />
  <path
     d="M 65.106902,152.991 C 53.163902,149.026 69.612902,146.338 65.106902,152.991"
     id="path123"
     style="fill-rule:evenodd" />
  <path
     d="M 124.0099,153.674 C 124.6779,150.237 126.9729,151.493 124.0099,153.674"
     id="path125"
     style="fill-rule:evenodd" />
  <path
     d="M 76.250902,150.944 C 71.621902,146.407 92.269902,138.058 92.625902,138.433 C 96.208902,142.197 79.817902,151.168 76.250902,150.944"
     id="path127"
     style="fill-rule:evenodd" />
  <path
     d="M 126.5109,148.442 C 125.4599,145.973 124.8879,144.352 128.5579,143.665 C 129.2669,147.029 128.0849,147.281 126.5109,148.442"
     id="path129"
     style="fill-rule:evenodd" />
  <path
     d="M 138.3389,147.532 C 130.9009,136.543 146.6139,143.727 138.3389,147.532"
     id="path131"
     style="fill-rule:evenodd" />
  <path
     d="M 67.608902,140.48 C 64.507902,139.788 59.587902,138.794 56.919902,137.067 C 51.620902,133.637 53.950902,136.883 56.691902,132.745 C 60.860902,126.452 66.355902,120.913 75.340902,120.916 C 94.120902,120.923 84.094902,141.188 67.608902,140.48"
     id="path133"
     style="fill-rule:evenodd" />
  <path
     d="M 175.4079,145.257 C 175.1569,144.242 174.0069,144.395 174.4989,142.299 C 178.8099,143.265 177.0509,143.564 175.4079,145.257"
     id="path135"
     style="fill-rule:evenodd" />
  <path
     d="M 68.972902,136.158 C 68.883902,136.99 80.532902,126.101 80.798902,126.376 C 86.642902,132.412 73.473902,136.825 68.972902,136.158"
     id="path137"
     style="fill:#00a33d;fill-rule:evenodd" />
  <path
     d="M 131.5149,138.66 C 122.9419,129.783 138.8449,131.771 131.5149,138.66"
     id="path139"
     style="fill-rule:evenodd" />
  <path
     d="M 44.183902,132.518 C 45.020902,128.672 50.104902,118.805 53.962902,117.049 C 60.332902,114.151 47.570902,131.067 44.183902,132.518"
     id="path141"
     style="fill-rule:evenodd" />
  <path
     d="M 180.8659,138.205 C 169.0609,132.688 189.7339,135.28 180.8659,138.205"
     id="path143"
     style="fill-rule:evenodd" />
  <path
     d="M 67.608902,130.698 C 64.305902,126.971 69.602902,125.635 73.294902,125.921 C 73.377902,129.29 71.374902,130.874 67.608902,130.698"
     id="path145"
     style="fill:#ffffff;fill-rule:evenodd" />
  <path
     d="M 107.1799,117.049 C 105.4789,115.913 101.3289,104.693 105.3609,103.628 C 109.0569,102.651 107.9509,115.743 107.1799,117.049"
     id="path147"
     style="fill-rule:evenodd" />
  <path
     d="M 56.465902,104.311 C 57.879902,102.462 67.778902,93.697 72.384902,95.894 C 75.755902,97.502 59.679902,104.266 56.465902,104.311"
     id="path149"
     style="fill-rule:evenodd" />
  <path
     d="M 118.5509,106.585 C 117.5309,103.642 127.1219,94.092 128.7849,88.615 C 130.7519,82.138 132.9419,74.213 137.4269,67.914 C 143.1989,59.806 149.3239,58.772 157.4409,54.721 C 164.0039,51.445 176.6959,39.899 184.5049,41.754 C 187.2669,42.41 190.0129,45.079 188.1429,49.033 C 186.0869,53.379 184.0549,47.085 181.3209,46.986 C 171.8419,46.644 160.6999,58.041 156.9869,63.137 C 153.1499,68.405 150.0339,74.528 147.6619,79.743 C 147.7379,79.515 147.6619,79.439 147.4349,79.515 C 146.2689,73.261 150.5789,66.754 152.8919,61.317 C 135.9469,63.094 136.7029,89.569 128.5579,99.988 C 126.5359,102.576 122.9389,106.083 118.5509,106.585"
     id="path151"
     style="fill-rule:evenodd" />
  <path
     d="M 110.5909,104.993 C 104.3619,97.084 117.5839,98.106 110.5909,104.993"
     id="path153"
     style="fill-rule:evenodd" />
  <path
     d="M 88.076902,98.851 C 86.354902,95.037 91.578902,96.232 88.076902,98.851"
     id="path155"
     style="fill-rule:evenodd" />
  <path
     d="M 114.4579,97.941 C 108.6369,91.648 120.5329,94.426 114.4579,97.941"
     id="path157"
     style="fill-rule:evenodd" />
  <path
     d="M 143.1139,98.396 C 141.8819,96.491 156.3689,89.008 159.4889,86.567 C 167.0559,80.646 172.2019,81.579 163.5819,88.387 C 157.5139,93.179 152.0639,96.542 143.1139,98.396"
     id="path159"
     style="fill-rule:evenodd" />
  <path
     d="M 116.7329,89.752 C 115.3899,85.238 120.2619,86.655 116.7329,89.752"
     id="path161"
     style="fill-rule:evenodd" />
  <path
     d="M 139.0199,90.662 C 134.8689,86.113 141.7379,87.074 139.0199,90.662"
     id="path163"
     style="fill-rule:evenodd" />
  <path
     d="M 143.7959,88.16 C 140.6549,86.065 139.3969,78.631 144.0239,77.469 C 144.0259,81.804 145.9519,86.513 143.7959,88.16"
     id="path165"
     style="fill-rule:evenodd" />
</svg>
