<?xml version="1.0" encoding="UTF-8" standalone="no"?>
<!-- Generator: Adobe Illustrator 12.0.0, SVG Export Plug-In . SVG Version: 6.00 Build 51448)  --><svg height="240.242" id="Layer_1" inkscape:version="0.40+cvs" sodipodi:docbase="F:\openclip\svg da inviare" sodipodi:docname="farfalla contorno.svg" sodipodi:version="0.32" style="overflow:visible;enable-background:new 0 0 257.849 240.242;" version="1.1" viewBox="0 0 257.849 240.242" width="257.849" xml:space="preserve" xmlns="http://www.w3.org/2000/svg" xmlns:cc="http://web.resource.org/cc/" xmlns:dc="http://purl.org/dc/elements/1.1/" xmlns:inkscape="http://www.inkscape.org/namespaces/inkscape" xmlns:rdf="http://www.w3.org/1999/02/22-rdf-syntax-ns#" xmlns:sodipodi="http://inkscape.sourceforge.net/DTD/sodipodi-0.dtd" xmlns:svg="http://www.w3.org/2000/svg" xmlns:xml="http://www.w3.org/XML/1998/namespace"><metadata><rdf:RDF xmlns:cc="http://web.resource.org/cc/" xmlns:dc="http://purl.org/dc/elements/1.1/" xmlns:rdf="http://www.w3.org/1999/02/22-rdf-syntax-ns#"><cc:Work rdf:about=""><dc:title>Farfalla contorno</dc:title><dc:description></dc:description><dc:subject><rdf:Bag><rdf:li>architetto francesco rollandin</rdf:li><rdf:li>insect</rdf:li></rdf:Bag></dc:subject><dc:publisher><cc:Agent rdf:about="http://www.openclipart.org/"><dc:title>Architetto Francesco Rollandin</dc:title></cc:Agent></dc:publisher><dc:creator><cc:Agent><dc:title>Architetto Francesco Rollandin</dc:title></cc:Agent></dc:creator><dc:rights><cc:Agent><dc:title>Architetto Francesco Rollandin</dc:title></cc:Agent></dc:rights><dc:date></dc:date><dc:format>image/svg+xml</dc:format><dc:type rdf:resource="http://purl.org/dc/dcmitype/StillImage"/><cc:license rdf:resource="http://web.resource.org/cc/PublicDomain"/><dc:language>en</dc:language></cc:Work><cc:License rdf:about="http://web.resource.org/cc/PublicDomain"><cc:permits rdf:resource="http://web.resource.org/cc/Reproduction"/><cc:permits rdf:resource="http://web.resource.org/cc/Distribution"/><cc:permits rdf:resource="http://web.resource.org/cc/DerivativeWorks"/></cc:License></rdf:RDF></metadata>
<defs id="defs38"></defs>
<sodipodi:namedview bordercolor="#666666" borderopacity="1.0" id="base" inkscape:current-layer="Layer_1" inkscape:cx="128.92450" inkscape:cy="120.12100" inkscape:pageopacity="0.0" inkscape:pageshadow="2" inkscape:window-height="540" inkscape:window-width="640" inkscape:window-x="110" inkscape:window-y="145" inkscape:zoom="1.5734134" pagecolor="#ffffff"></sodipodi:namedview>

<path d="M218.946,80.227c-3.354,0.304-5.433-1.339-8.74-1.748  c-2.805-0.347-5.905,0-8.74,0c-6.151,0-12.278-0.519-17.48,1.748c11.235,0,21.574,2.346,29.717,10.488c-2.896,0-5.854,0.191-8.74,0  c-3.939-0.261-6.85-2.078-10.488-1.748c3.84,4.838,11.697,7.968,17.48,8.74c-8.104,10.206-22.665,7.021-33.213,5.243  c-11.143-1.878-22.435-1.748-34.085-1.748c-2.565,0-14.888-1.681-16.606,0c-1.655,1.619,13.671,1.748,15.732,1.748  c6.409,0,12.817,0,19.227,0c5.44,0,14.729,0.193,19.229,3.497c-3.664,0.862-2.974,3.769-1.748,5.244  c0.947,1.14,3.496-1.497,3.496,0.874c0,0.592,2.5,1.953,3.496,2.622c-2.331,0-4.661,0-6.992,0c2.041,2.254,9.178,3.088,12.236,3.496  c-2.739-0.187-3.142,0.275-5.244,1.748c4.627-0.68,12.418,2.851,15.732,5.244c-4.796-2.181-9.188-2.181-13.984,0  c2.51,4.077,6.481,2.985,9.614,6.118c3.126,3.126,7.463,4.403,11.362,6.118c-4.572-0.61-8.219-1.748-13.11-1.748  c-9.161,0-0.365,6.111,4.37,6.99c-1.709-0.216-3.521,0.08-5.244,0c3.357,5.036,5.691,9.188,10.488,13.984  c-3.736-1.386-7.276-4.703-10.488-6.992c-2.979-2.123-7.354-3.858-9.614-6.118c-3.357-3.357-0.042,4.744,0.874,6.118  c1.995,2.992,3.249,5.748,5.244,8.74c-2.39-1.063-5.535-3.107-8.74-5.244c1.344,5.222-3.496,1.604-3.496,6.086  c0,4.161,4.238,6.79,3.496,11.393c-3.538-3.533-6.719-6.226-10.488-8.738c-0.696,4.318,1.748,9.285,1.748,13.982  c-5.793-6.261-4.293,2.909-6.992,5.244c-1.536-4.258-2.111,1.385-4.37-0.874c-2.264-2.264-0.662-5.584-4.37-7.866  c0,3.702,0.58,7.316-1.748,10.488c-0.513-5.184-5.842-5.602-5.244-10.488c0,0.583,0,1.165,0,1.748  c-4.819-9.642-4.624-18.507-7.172-28.693c-3.122-12.484-5.63-20.52-13.803-30.736c1.303,5.212,2.463,9.455,6.118,13.11  c1.965,1.965,2.438,10.627,3.237,13.823c2.956,11.819,6.735,23.442,9.691,35.265c1.186,4.744,0.657,10.268,1.928,14.712  c1.534,5.367,6.123,4.375,9.614,7.866c1.509,1.509-0.044,3.911,1.78,4.823c2.04,1.021,4.716,3.043,6.992,3.043  c5.531,0,10.55-1.748,15.668-1.748c5.139,0,9.387-3.776,14.891,0c4.767,3.271,6.992,11.283,6.992,16.768  c0,2.416,0.597,12.971,1.748,14.697c2.809,4.212,9.134,1.657,10.488-1.748c3.663-9.208-6.216-21.173-10.035-28.811  c-2.234-4.469-2.886-9.931-2.201-14.891c0.172-1.243,1.059-5.973,1.748-6.992c1.417-2.095,5.244-1.396,5.244-4.37  c0-0.574,3.306-2.432,4.37-3.496c2.215-2.215-0.358-3.718-0.874-6.118c-0.467-2.173-1.748-3.179-1.748-6.116  c0-2.753,3.496-1.955,3.496-3.496c0-1.872-0.484-3.886,0.874-5.244c1.223-1.223,4.37-0.221,4.37-1.748  c0-1.372,1.748-0.747,1.748-3.496c0-2.385-1.748-3.363-1.748-5.276c0-3.07-1.748-3.855-1.748-6.926c0-2.169,1.883-3.272,1.748-6.15  c-0.22-4.688-5.244-8.554-5.244-13.11c0-7.369-12.682-7.896-17.48-11.362c12.312,0,21.382,1.34,30.623-7.899  c4.936-4.934,2.85-10.097,5.631-15.667c1.217-2.436,2.201-12.888,2.201-15.709c0-10.117,3.27-19.423,6.992-28.897  c3.31-8.421,11.872-21.704,7.445-30.558c-9.914-19.829-52.494-0.646-65.129,7.833c-20.744,13.923-38.151,33.328-47.454,56.584  c-2.417,6.041-4.386,15.779-8.481,20.329c7.713-11.569,15.772-25.429,24.471-36.708c2.631-3.412,4.688-6.436,7.866-9.614  c2.378-2.377,5.961-5.803,7.413-8.708c1.707-3.415,14.339-12.092,17.934-11.394c-1.287,0.822-5.942,6.992-2.622,6.992  c2.622,0,5.244,0,7.866,0c-1.823,0.444-1.833,0.871-3.496,1.748c6.661,0,10.525,0.024,15.732,3.496  c-5.183,0-9.661-0.218-13.984,1.748c4.631,0,8.141,2.12,12.236,1.748c-2.064,1.594-5.4,1.978-8.74,3.496  c3.077,0.305,3.915,3.191,6.992,3.496c-2.739-0.187-3.142,0.275-5.244,1.748c2.509-0.307,4.127,0.631,5.244,1.748  c2.89,2.89,0.958-0.056-1.748,1.748c-3.1,2.066-4.027-1.362-1.748,1.748c0.712,0.972,3.394,2.254,5.244,3.496  c-4.079,0-8.157,0-12.236,0c2.106,0.958,4.93,0.789,6.992,1.748c2.171,1.01,4.514,3.251,6.992,3.496  c-5.454-0.62-14.715,1.529-19.229,3.496c3.811,2.82,9.604,1.797,13.984,3.496C209.744,75.09,214.355,77.931,218.946,80.227" id="path3" style="fill-rule:evenodd;clip-rule:evenodd;stroke:#3F3F3F;"></path>

<path d="M218.946,80.227  c-3.354,0.304-5.433-1.339-8.74-1.748c-2.805-0.347-5.905,0-8.74,0c-6.151,0-12.278-0.519-17.48,1.748  c11.235,0,21.574,2.346,29.717,10.488c-2.896,0-5.854,0.191-8.74,0c-3.939-0.261-6.85-2.078-10.488-1.748  c3.84,4.838,11.697,7.968,17.48,8.74c-8.104,10.206-22.665,7.021-33.213,5.243c-11.143-1.878-22.435-1.748-34.085-1.748  c-2.565,0-14.888-1.681-16.606,0c-1.655,1.619,13.671,1.748,15.732,1.748c6.409,0,12.817,0,19.227,0  c5.44,0,14.729,0.193,19.229,3.497c-3.664,0.862-2.974,3.769-1.748,5.244c0.947,1.14,3.496-1.497,3.496,0.874  c0,0.592,2.5,1.953,3.496,2.622c-2.331,0-4.661,0-6.992,0c2.041,2.254,9.178,3.088,12.236,3.496  c-2.739-0.187-3.142,0.275-5.244,1.748c4.627-0.68,12.418,2.851,15.732,5.244c-4.796-2.181-9.188-2.181-13.984,0  c2.51,4.077,6.481,2.985,9.614,6.118c3.126,3.126,7.463,4.403,11.362,6.118c-4.572-0.61-8.219-1.748-13.11-1.748  c-9.161,0-0.365,6.111,4.37,6.99c-1.709-0.216-3.521,0.08-5.244,0c3.357,5.036,5.691,9.188,10.488,13.984  c-3.736-1.386-7.276-4.703-10.488-6.992c-2.979-2.123-7.354-3.858-9.614-6.118c-3.357-3.357-0.042,4.744,0.874,6.118  c1.995,2.992,3.249,5.748,5.244,8.74c-2.39-1.063-5.535-3.107-8.74-5.244c1.344,5.222-3.496,1.604-3.496,6.086  c0,4.161,4.238,6.79,3.496,11.393c-3.538-3.533-6.719-6.226-10.488-8.738c-0.696,4.318,1.748,9.285,1.748,13.982  c-5.793-6.261-4.293,2.909-6.992,5.244c-1.536-4.258-2.111,1.385-4.37-0.874c-2.264-2.264-0.662-5.584-4.37-7.866  c0,3.702,0.58,7.316-1.748,10.488c-0.513-5.184-5.842-5.602-5.244-10.488c0,0.583,0,1.165,0,1.748  c-4.819-9.642-4.624-18.507-7.172-28.693c-3.122-12.484-5.63-20.52-13.803-30.736c1.303,5.212,2.463,9.455,6.118,13.11  c1.965,1.965,2.438,10.627,3.237,13.823c2.956,11.819,6.735,23.442,9.691,35.265c1.186,4.744,0.657,10.268,1.928,14.712  c1.534,5.367,6.123,4.375,9.614,7.866c1.509,1.509-0.044,3.911,1.78,4.823c2.04,1.021,4.716,3.043,6.992,3.043  c5.531,0,10.55-1.748,15.668-1.748c5.139,0,9.387-3.776,14.891,0c4.767,3.271,6.992,11.283,6.992,16.768  c0,2.416,0.597,12.971,1.748,14.697c2.809,4.212,9.134,1.657,10.488-1.748c3.663-9.208-6.216-21.173-10.035-28.811  c-2.234-4.469-2.886-9.931-2.201-14.891c0.172-1.243,1.059-5.973,1.748-6.992c1.417-2.095,5.244-1.396,5.244-4.37  c0-0.574,3.306-2.432,4.37-3.496c2.215-2.215-0.358-3.718-0.874-6.118c-0.467-2.173-1.748-3.179-1.748-6.116  c0-2.753,3.496-1.955,3.496-3.496c0-1.872-0.484-3.886,0.874-5.244c1.223-1.223,4.37-0.221,4.37-1.748  c0-1.372,1.748-0.747,1.748-3.496c0-2.385-1.748-3.363-1.748-5.276c0-3.07-1.748-3.855-1.748-6.926c0-2.169,1.883-3.272,1.748-6.15  c-0.22-4.688-5.244-8.554-5.244-13.11c0-7.369-12.682-7.896-17.48-11.362c12.312,0,21.382,1.34,30.623-7.899  c4.936-4.934,2.85-10.097,5.631-15.667c1.217-2.436,2.201-12.888,2.201-15.709c0-10.117,3.27-19.423,6.992-28.897  c3.31-8.421,11.872-21.704,7.445-30.558c-9.914-19.829-52.494-0.646-65.129,7.833c-20.744,13.923-38.151,33.328-47.454,56.584  c-2.417,6.041-4.386,15.779-8.481,20.329c7.713-11.569,15.772-25.429,24.471-36.708c2.631-3.412,4.688-6.436,7.866-9.614  c2.378-2.377,5.961-5.803,7.413-8.708c1.707-3.415,14.339-12.092,17.934-11.394c-1.287,0.822-5.942,6.992-2.622,6.992  c2.622,0,5.244,0,7.866,0c-1.823,0.444-1.833,0.871-3.496,1.748c6.661,0,10.525,0.024,15.732,3.496  c-5.183,0-9.661-0.218-13.984,1.748c4.631,0,8.141,2.12,12.236,1.748c-2.064,1.594-5.4,1.978-8.74,3.496  c3.077,0.305,3.915,3.191,6.992,3.496c-2.739-0.187-3.142,0.275-5.244,1.748c2.509-0.307,4.127,0.631,5.244,1.748  c2.89,2.89,0.958-0.056-1.748,1.748c-3.1,2.066-4.027-1.362-1.748,1.748c0.712,0.972,3.394,2.254,5.244,3.496  c-4.079,0-8.157,0-12.236,0c2.106,0.958,4.93,0.789,6.992,1.748c2.171,1.01,4.514,3.251,6.992,3.496  c-5.454-0.62-14.715,1.529-19.229,3.496c3.811,2.82,9.604,1.797,13.984,3.496C209.744,75.09,214.355,77.931,218.946,80.227" id="path5" style="stroke:#3F3F3F;stroke-width:0;stroke-linecap:square;stroke-miterlimit:10;"></path>

<path d="M38.901,78.479c6.527,0,11.641-1.026,17.48-1.748  c4.297-0.531,14.732,0.476,17.48,3.496c-12.066,0-20.898,1.67-29.716,10.488c2.852,0,5.917,0.351,8.74,0  c3.734-0.464,6.459-2.454,10.488-1.748c-2.236,1.813-6.012,3.943-8.74,5.244c-2.561,1.221-6.842,1.301-8.74,3.496  c2.477,4.021,11.204,6.386,15.732,6.991c5.54,0.74,11.796-0.967,17.48-1.748c11.096-1.525,22.433-1.748,34.085-1.748  c2.565,0,14.888-1.681,16.607,0c1.654,1.619-13.671,1.748-15.733,1.748c-6.409,0-12.818,0-19.227,0c-7.2,0-12.34,1.748-19.228,1.748  c9.489,6.065-1.243,6.921-5.244,8.74c3.261,0,6.445-0.786,8.74,1.748c-2.796-0.254-10.333,1.395-12.236,3.496  c1.161-0.069,2.335,0.069,3.496,0c-3.812,3.467-11.261,4.011-15.732,6.992c2.157-2.382,5.597-1.99,8.74-1.748  c4.638,0.356,5.206-0.824,3.496,1.748c-2.621,3.943-13.463,10.203-19.228,12.236c2.76-3.127,9.076-1.748,13.11-1.748  c9.162,0,0.365,6.111-4.37,6.99c2.246-2.429,3.78-1.51,5.244,0c-3.357,5.036-5.69,9.188-10.488,13.984  c7.336-2.721,14.509-15.229,22.724-13.984c-3.778,4.66-3.204,12.196-8.74,15.732c0.639-2.17,6.992-2.266,6.992-4.37  c0-3.292,2.574,0.974,1.748,0.874c1.029,0.124,0.334,3.375,3.495,0c0.775,6.053-4.414,10.035-3.495,15.73  c1.263-3.064,7.087-6.472,10.488-8.738c0.696,4.318-1.748,9.285-1.748,13.982c5.574-6.024,7.095,7.016,8.74,1.748  c1.487,4.762,5.997-4.171,6.992-6.992c0,6.057,0.458,13.55,5.244,6.992c2.404-3.294,6.991-13.577,6.991-18.206  c0-7.674,1.812-15.257,3.678-22.723c2.078-8.309,7.64-14.639,12.055-21.997c1.238,5.451-3.579,7.755-5.244,12.236  c-1.658,4.459-2.323,8.718-3.769,13.056c-3.823,11.463-6.67,23.446-9.599,35.173c-1.093,4.374-2.363,11.141-2.363,15.571  c0,3.452-5.467,6.342-6.992,7.866c-1.548,1.549-4.108,6.992-7.898,6.992c-2.68,0-4.525,1.748-6.992,1.748  c-3.246,0-5.429-1.748-8.675-1.748c-4.621,0-8.748-3.213-13.962-1.475c-5.698,1.899-9.891,7.698-11.417,13.711  c-1.178,4.646-1.895,30.404-10.488,17.48c-6.272-9.433,4.291-18.117,7.265-27.04c3.803-11.41,5.297-19.715-3.769-27.149  c-1.395-1.144-7.813-6.171-4.37-9.614c1.568-1.567,2.82-3.854,2.622-6.116c-0.237-2.713-3.281-2.808-3.496-3.496  c-0.43-1.373,0.755-4.052,0-5.244c-1.5-2.369-1.643-0.085-3.496-1.748c-4.47-4.011-5.243-3.497-2.201-9.582  c2.612-5.224,0.453-7.345,0.453-12.267c0-4.726,3.279-8.874,5.244-13.11c4.031-8.689,9.218-8.479,17.48-12.236  c-9.698,0-24.141,1.369-30.263-7.812c-3.724-5.584-3.272-10.313-5.993-15.754c-1.004-2.008-0.453-4.738-0.453-6.97  c0-3.264-1.748-5.864-1.748-8.74c0-10.31-3.264-19.41-6.992-28.897C5.876,31.601-2.677,18.299,1.74,9.465  c10.216-20.433,52.379-0.724,65.129,7.833c20.077,13.475,38.325,32.014,47.454,54.836c2.77,6.924,5.385,17.718,8.481,22.077  c-1.905-4.282-5.775-9.292-8.74-13.984c-2.267-3.588-4.671-7.594-6.538-11.33c-1.106-2.215-4.554-9.075-6.603-10.1  c-3.593-1.796-5.695-6.147-8.676-9.128c-2.223-2.223-7.194-6.49-8.352-8.805c-3.348-6.695-12.083-12.465-18.775-14.826  c0.647,1.836,5.399,6.573,3.496,8.74c-0.734,0.836-7.462,0-8.74,0c1.166,0,2.331,0,3.496,0c-4.874-0.487-13.013,0.987-15.732,5.244  c4.15,0,11.12-1.414,13.984,1.748c-3.867,0-9.551-1.217-12.236,1.748c3.34,1.519,6.676,1.902,8.74,3.496  c-2.804,0.682-4.571,1.882-6.992,3.496c1.72-0.217,3.523,0.217,5.244,0c-2.894,1.833-5.115,2.047-6.992,3.496  c1.635,1.262,3.601,2.33,6.992,1.748c-2.421,1.614-4.188,2.815-6.992,3.496c3.867,0,9.551-1.217,12.236,1.748  c-4.776-0.433-10.275,2.771-13.984,5.244c6.515,0,13.775,1.12,19.228,3.496C58.565,68.399,46.302,74.778,38.901,78.479" id="path7" style="fill-rule:evenodd;clip-rule:evenodd;stroke:#3F3F3F;"></path>

<path d="M38.901,78.479  c6.527,0,11.641-1.026,17.48-1.748c4.297-0.531,14.732,0.476,17.48,3.496c-12.066,0-20.898,1.67-29.716,10.488  c2.852,0,5.917,0.351,8.74,0c3.734-0.464,6.459-2.454,10.488-1.748c-2.236,1.813-6.012,3.943-8.74,5.244  c-2.561,1.221-6.842,1.301-8.74,3.496c2.477,4.021,11.204,6.386,15.732,6.991c5.54,0.74,11.796-0.967,17.48-1.748  c11.096-1.525,22.433-1.748,34.085-1.748c2.565,0,14.888-1.681,16.607,0c1.654,1.619-13.671,1.748-15.733,1.748  c-6.409,0-12.818,0-19.227,0c-7.2,0-12.34,1.748-19.228,1.748c9.489,6.065-1.243,6.921-5.244,8.74c3.261,0,6.445-0.786,8.74,1.748  c-2.796-0.254-10.333,1.395-12.236,3.496c1.161-0.069,2.335,0.069,3.496,0c-3.812,3.467-11.261,4.011-15.732,6.992  c2.157-2.382,5.597-1.99,8.74-1.748c4.638,0.356,5.206-0.824,3.496,1.748c-2.621,3.943-13.463,10.203-19.228,12.236  c2.76-3.127,9.076-1.748,13.11-1.748c9.162,0,0.365,6.111-4.37,6.99c2.246-2.429,3.78-1.51,5.244,0  c-3.357,5.036-5.69,9.188-10.488,13.984c7.336-2.721,14.509-15.229,22.724-13.984c-3.778,4.66-3.204,12.196-8.74,15.732  c0.639-2.17,6.992-2.266,6.992-4.37c0-3.292,2.574,0.974,1.748,0.874c1.029,0.124,0.334,3.375,3.495,0  c0.775,6.053-4.414,10.035-3.495,15.73c1.263-3.064,7.087-6.472,10.488-8.738c0.696,4.318-1.748,9.285-1.748,13.982  c5.574-6.024,7.095,7.016,8.74,1.748c1.487,4.762,5.997-4.171,6.992-6.992c0,6.057,0.458,13.55,5.244,6.992  c2.404-3.294,6.991-13.577,6.991-18.206c0-7.674,1.812-15.257,3.678-22.723c2.078-8.309,7.64-14.639,12.055-21.997  c1.238,5.451-3.579,7.755-5.244,12.236c-1.658,4.459-2.323,8.718-3.769,13.056c-3.823,11.463-6.67,23.446-9.599,35.173  c-1.093,4.374-2.363,11.141-2.363,15.571c0,3.452-5.467,6.342-6.992,7.866c-1.548,1.549-4.108,6.992-7.898,6.992  c-2.68,0-4.525,1.748-6.992,1.748c-3.246,0-5.429-1.748-8.675-1.748c-4.621,0-8.748-3.213-13.962-1.475  c-5.698,1.899-9.891,7.698-11.417,13.711c-1.178,4.646-1.895,30.404-10.488,17.48c-6.272-9.433,4.291-18.117,7.265-27.04  c3.803-11.41,5.297-19.715-3.769-27.149c-1.395-1.144-7.813-6.171-4.37-9.614c1.568-1.567,2.82-3.854,2.622-6.116  c-0.237-2.713-3.281-2.808-3.496-3.496c-0.43-1.373,0.755-4.052,0-5.244c-1.5-2.369-1.643-0.085-3.496-1.748  c-4.47-4.011-5.243-3.497-2.201-9.582c2.612-5.224,0.453-7.345,0.453-12.267c0-4.726,3.279-8.874,5.244-13.11  c4.031-8.689,9.218-8.479,17.48-12.236c-9.698,0-24.141,1.369-30.263-7.812c-3.724-5.584-3.272-10.313-5.993-15.754  c-1.004-2.008-0.453-4.738-0.453-6.97c0-3.264-1.748-5.864-1.748-8.74c0-10.31-3.264-19.41-6.992-28.897  C5.876,31.601-2.677,18.299,1.74,9.465c10.216-20.433,52.379-0.724,65.129,7.833c20.077,13.475,38.325,32.014,47.454,54.836  c2.77,6.924,5.385,17.718,8.481,22.077c-1.905-4.282-5.775-9.292-8.74-13.984c-2.267-3.588-4.671-7.594-6.538-11.33  c-1.106-2.215-4.554-9.075-6.603-10.1c-3.593-1.796-5.695-6.147-8.676-9.128c-2.223-2.223-7.194-6.49-8.352-8.805  c-3.348-6.695-12.083-12.465-18.775-14.826c0.647,1.836,5.399,6.573,3.496,8.74c-0.734,0.836-7.462,0-8.74,0  c1.166,0,2.331,0,3.496,0c-4.874-0.487-13.013,0.987-15.732,5.244c4.15,0,11.12-1.414,13.984,1.748  c-3.867,0-9.551-1.217-12.236,1.748c3.34,1.519,6.676,1.902,8.74,3.496c-2.804,0.682-4.571,1.882-6.992,3.496  c1.72-0.217,3.523,0.217,5.244,0c-2.894,1.833-5.115,2.047-6.992,3.496c1.635,1.262,3.601,2.33,6.992,1.748  c-2.421,1.614-4.188,2.815-6.992,3.496c3.867,0,9.551-1.217,12.236,1.748c-4.776-0.433-10.275,2.771-13.984,5.244  c6.515,0,13.775,1.12,19.228,3.496C58.565,68.399,46.302,74.778,38.901,78.479" id="path9" style="stroke:#3F3F3F;stroke-width:0;stroke-linecap:square;stroke-miterlimit:10;"></path>

<path d="M56.381,50.511  c0.292,2.974,5.771,1.748,8.74,1.748" id="path11" style="stroke:#3F3F3F;stroke-width:0;stroke-linecap:square;stroke-miterlimit:10;"></path>

<path d="M61.625,60.999  c1.829-1.412,4.191-3.027,6.992,0" id="path13" style="stroke:#3F3F3F;stroke-width:0;stroke-linecap:square;stroke-miterlimit:10;"></path>

<path d="M129.797,104.698c0,0.583,0,1.166,0,1.749  C129.797,105.864,129.797,105.281,129.797,104.698" id="path15" style="fill-rule:evenodd;clip-rule:evenodd;stroke:#3F3F3F;"></path>

<line id="line17" style="stroke:#3F3F3F;stroke-width:0;stroke-linecap:square;stroke-miterlimit:10;" x1="129.797" x2="129.797" y1="104.698" y2="106.447"></line>

<path d="M131.545,101.202  c-1.3,5.348-6.339,9.484-5.245,15.732c0-0.583,0-1.165,0-1.748" id="path19" style="stroke:#3F3F3F;stroke-width:0;stroke-linecap:square;stroke-miterlimit:10;"></path>

<path d="M201.465,52.259  c-2.913,0-5.827,0-8.74,0" id="path21" style="stroke:#3F3F3F;stroke-width:0;stroke-linecap:square;stroke-miterlimit:10;"></path>

<path d="M196.221,60.999  c-2.263-1.412-4.729-1.412-6.992,0" id="path23" style="stroke:#3F3F3F;stroke-width:0;stroke-linecap:square;stroke-miterlimit:10;"></path>

<path d="M128.049,106.447" id="path25" style="fill-rule:evenodd;clip-rule:evenodd;stroke:#3F3F3F;"></path>

<line id="line27" style="stroke:#3F3F3F;stroke-width:0;stroke-linecap:square;stroke-miterlimit:10;" x1="128.049" x2="128.049" y1="106.447" y2="106.447"></line>

<path d="M128.049,78.479c-6.701-13.395-18.266-25.082-22.997-39.275  c-2.514-7.54-7.429-13.545-9.942-21.085c-0.728-2.185-6.128-15.94-7.265-14.803c-1.316,1.316,1.359,5.955,1.748,6.992  c0.53,1.414,1.748-1.11,1.748,2.589c0,1.625,1.066,2.949,1.748,4.402c2.94,6.269,6.622,17.109,11.33,21.818  c2.404,2.404,3.575,7.533,5.603,10.575c1.896,2.846,4.13,6.637,5.79,9.559C118.355,63.727,122.732,77.327,128.049,78.479" id="path29" style="fill-rule:evenodd;clip-rule:evenodd;stroke:#000000;"></path>

<path d="M128.049,155.39c8.063-0.97,4.798-19.191,6.377-25.506  c1.447-5.788-0.009-11.328,2.363-16.445c2.177-4.695,5.784-6.953,10.488-3.496c-6.481-4.321-7.131-4.968-3.949-11.33  c2.565-5.13,5.358-4.788,9.191-7.898c-4.231,1.059-15.73,9.77-15.73,0.906c0-2.88-1.748-5.572-1.748-8.805  c0-3.969-0.77-7.303-5.244-7.833c-9.192-1.09-6.119,10.264-8.741,15.732c-1.654,3.45-0.016,3.996-5.244,3.496  c-3.469-0.331-6.917-3.02-10.487-3.496c6.945,1.736,18.848,15.601,5.243,17.48c7.25-0.915,4.678-0.565,9.614,4.37  c4.043,4.042,2.622,10.004,2.622,15.586C122.805,133.725,123.118,154.229,128.049,155.39" id="path31" style="fill-rule:evenodd;clip-rule:evenodd;stroke:#3F3F3F;"></path>

<path d="M128.049,155.39  c8.063-0.97,4.798-19.191,6.377-25.506c1.447-5.788-0.009-11.328,2.363-16.445c2.177-4.695,5.784-6.953,10.488-3.496  c-6.481-4.321-7.131-4.968-3.949-11.33c2.565-5.13,5.358-4.788,9.191-7.898c-4.231,1.059-15.73,9.77-15.73,0.906  c0-2.88-1.748-5.572-1.748-8.805c0-3.969-0.77-7.303-5.244-7.833c-9.192-1.09-6.119,10.264-8.741,15.732  c-1.654,3.45-0.016,3.996-5.244,3.496c-3.469-0.331-6.917-3.02-10.487-3.496c6.945,1.736,18.848,15.601,5.243,17.48  c7.25-0.915,4.678-0.565,9.614,4.37c4.043,4.042,2.622,10.004,2.622,15.586C122.805,133.725,123.118,154.229,128.049,155.39" id="path33" style="stroke:#3F3F3F;stroke-width:0;stroke-linecap:square;stroke-miterlimit:10;"></path>

<path d="M129.797,78.479c9.91-9.693,17.063-27.136,23.176-39.362  c3.308-6.616,7.119-13.232,10.035-20.07c0.825-1.935,5.396-17.328,6.992-15.732c1.326,1.327-1.368,5.935-1.748,6.992  c-0.492,1.371-1.748-1.067-1.748,2.589c0,1.828-0.901,3.612-1.475,5.331c-0.986,2.958-4.121,6.306-5.518,9.56  c-1.643,3.826-2.94,7.906-5.244,11.362c-8.689,13.034-15.786,27.204-22.723,41.078C130.962,79.644,130.38,79.061,129.797,78.479" id="path35" style="fill-rule:evenodd;clip-rule:evenodd;stroke:#000000;"></path>

</svg>
