<?xml version="1.0" encoding="UTF-8" standalone="no"?>
<!-- Created with Inkscape (http://www.inkscape.org/) -->

<svg
   xmlns:dc="http://purl.org/dc/elements/1.1/"
   xmlns:cc="http://creativecommons.org/ns#"
   xmlns:rdf="http://www.w3.org/1999/02/22-rdf-syntax-ns#"
   xmlns:svg="http://www.w3.org/2000/svg"
   xmlns="http://www.w3.org/2000/svg"
   xmlns:sodipodi="http://sodipodi.sourceforge.net/DTD/sodipodi-0.dtd"
   xmlns:inkscape="http://www.inkscape.org/namespaces/inkscape"
   width="64"
   height="64"
   id="svg2"
   version="1.1"
   inkscape:version="0.48.0 r9654"
   sodipodi:docname="mud.svg">
  <defs
     id="defs4" />
  <sodipodi:namedview
     id="base"
     pagecolor="#ffffff"
     bordercolor="#666666"
     borderopacity="1.0"
     inkscape:pageopacity="0.0"
     inkscape:pageshadow="2"
     inkscape:zoom="4.2929687"
     inkscape:cx="14.925976"
     inkscape:cy="34.701299"
     inkscape:document-units="px"
     inkscape:current-layer="layer1"
     showgrid="false"
     inkscape:window-width="1400"
     inkscape:window-height="964"
     inkscape:window-x="-4"
     inkscape:window-y="-4"
     inkscape:window-maximized="1" />
  <metadata
     id="metadata7">
    <rdf:RDF>
      <cc:Work
         rdf:about="">
        <dc:format>image/svg+xml</dc:format>
        <dc:type
           rdf:resource="http://purl.org/dc/dcmitype/StillImage" />
        <dc:title></dc:title>
      </cc:Work>
    </rdf:RDF>
  </metadata>
  <g
     inkscape:label="Ebene 1"
     inkscape:groupmode="layer"
     id="layer1"
     transform="translate(0,-988.36218)">
    <path
       style="fill:#c87137;fill-opacity:1;stroke:none"
       d="m -4.1929026,33.950864 c 0,0 3.95309229,-2.833874 6.0564148,-2.32939 4.0632574,0.974574 4.2182551,9.619847 8.3858058,9.317562 3.909141,-0.283542 2.681561,-9.002059 6.522293,-9.78344 3.186611,-0.648303 4.903802,5.493153 8.152866,5.357598 3.647031,-0.152159 4.968585,-6.773422 8.618744,-6.755232 3.977384,0.01982 5.345927,7.239349 9.317562,7.454049 2.021817,0.109296 3.123567,-3.569894 5.124658,-3.261147 3.104822,0.47904 4.680701,6.84006 6.056415,7.221111 3.08547,0.8255 1.395966,-6.769364 3.261147,-7.45405 1.337661,-0.433774 3.811288,-3.996634 5.124658,-3.494086 1.831108,1.685259 2.882057,5.264715 5.357598,4.658782 0,0 7.221111,38.667879 0.232939,34.940855 -6.988171,-3.727025 -71.9781616,-1.630573 -71.9781616,-1.630573 z"
       id="path4875"
       inkscape:connector-curvature="0"
       transform="translate(0,988.36218)"
       sodipodi:nodetypes="caaaaaaaccccscc" />
  </g>
</svg>
