<?xml version="1.0" encoding="UTF-8" standalone="no"?>
<!-- Created with Inkscape (http://www.inkscape.org/) -->
<svg
   xmlns:dc="http://purl.org/dc/elements/1.1/"
   xmlns:cc="http://web.resource.org/cc/"
   xmlns:rdf="http://www.w3.org/1999/02/22-rdf-syntax-ns#"
   xmlns:svg="http://www.w3.org/2000/svg"
   xmlns="http://www.w3.org/2000/svg"
   xmlns:sodipodi="http://sodipodi.sourceforge.net/DTD/sodipodi-0.dtd"
   xmlns:inkscape="http://www.inkscape.org/namespaces/inkscape"
   height="701.48206"
   id="svg1317"
   inkscape:version="0.45.1"
   sodipodi:docbase="C:\Dokumente und Einstellungen\ulfl\Eigene Dateien\svn.openstreetmap.org\applications\share\map-icons\svg\misc"
   sodipodi:docname="no_smoking.svg"
   sodipodi:version="0.32"
   width="702.3114"
   inkscape:output_extension="org.inkscape.output.svg.inkscape"
   version="1.0">
  <metadata
     id="metadata3">
    <rdf:RDF>
      <cc:Work
         rdf:about="">
        <dc:title>No smoking sign</dc:title>
        <dc:description>A No Smoking sign</dc:description>
        <dc:subject>
          <rdf:Bag>
            <rdf:li>smoke</rdf:li>
            <rdf:li>symbol</rdf:li>
            <rdf:li>inkscape</rdf:li>
            <rdf:li>smoking</rdf:li>
            <rdf:li>no</rdf:li>
            <rdf:li>sign</rdf:li>
          </rdf:Bag>
        </dc:subject>
        <dc:publisher>
          <cc:Agent
             rdf:about="http://www.openclipart.org/">
            <dc:title>Open Clip Art Library</dc:title>
          </cc:Agent>
        </dc:publisher>
        <dc:creator>
          <cc:Agent>
            <dc:title>Domas Jokubauskis</dc:title>
          </cc:Agent>
        </dc:creator>
        <dc:rights>
          <cc:Agent>
            <dc:title>Domas Jokubauskis</dc:title>
          </cc:Agent>
        </dc:rights>
        <dc:date />
        <dc:format>image/svg+xml</dc:format>
        <dc:type
           rdf:resource="http://purl.org/dc/dcmitype/StillImage" />
        <cc:license
           rdf:resource="http://web.resource.org/cc/PublicDomain" />
        <dc:language>en</dc:language>
      </cc:Work>
      <cc:License
         rdf:about="http://web.resource.org/cc/PublicDomain">
        <cc:permits
           rdf:resource="http://web.resource.org/cc/Reproduction" />
        <cc:permits
           rdf:resource="http://web.resource.org/cc/Distribution" />
        <cc:permits
           rdf:resource="http://web.resource.org/cc/DerivativeWorks" />
      </cc:License>
    </rdf:RDF>
  </metadata>
  <defs
     id="defs3" />
  <sodipodi:namedview
     bordercolor="#666666"
     borderopacity="1.0"
     id="base"
     inkscape:current-layer="layer1"
     inkscape:cx="190.63943"
     inkscape:cy="354.96331"
     inkscape:document-units="px"
     inkscape:pageopacity="0.0"
     inkscape:pageshadow="2"
     inkscape:window-height="719"
     inkscape:window-width="1024"
     inkscape:window-x="44"
     inkscape:window-y="58"
     inkscape:zoom="0.60938539"
     pagecolor="#ffffff" />
  <g
     id="layer1"
     inkscape:groupmode="layer"
     inkscape:label="Layer 1"
     style="display:inline"
     transform="translate(-18.028585,-34.126237)">
    <path
       sodipodi:type="arc"
       style="fill:#ffffff;fill-opacity:1;fill-rule:nonzero;stroke:#ffffff;stroke-width:30;stroke-miterlimit:4;stroke-dasharray:none;stroke-dashoffset:0;stroke-opacity:1"
       id="path2168"
       sodipodi:cx="346.25052"
       sodipodi:cy="333.89859"
       sodipodi:rx="295.37958"
       sodipodi:ry="295.37958"
       d="M 641.6301 333.89859 A 295.37958 295.37958 0 1 1  50.870941,333.89859 A 295.37958 295.37958 0 1 1  641.6301 333.89859 z"
       transform="translate(24.592576,52.177211)" />
    <path
       style="fill:#080808"
       id="path3143"
       d="M 144.15231,452.60776 C 143.22966,450.20339 142.9109,438.17454 143.44396,425.87699 L 144.41317,403.51779 L 241.96958,402.66095 L 339.52599,401.80407 L 362.77525,426.27948 C 375.56231,439.74096 385.15891,452.15538 384.10102,453.86712 C 382.9283,455.76462 336.05423,456.97933 264.0037,456.97933 C 167.81892,456.97933 145.51768,456.1659 144.15231,452.60776 z M 459.24539,433.16727 C 447.36329,419.89112 437.64158,407.37334 437.64158,405.34994 C 437.64158,402.78404 447.68901,401.9504 470.85254,402.59443 L 504.06349,403.51779 L 504.06349,429.43854 L 504.06349,455.35928 L 492.45634,456.33251 C 481.67289,457.23669 479.31611,455.59276 459.24539,433.16727 z M 526.57517,452.8472 C 525.60197,450.31115 525.24187,438.17454 525.77493,425.87699 C 526.6365,406.00093 527.4638,403.51779 533.22433,403.51779 C 539.16358,403.51779 539.70451,405.67787 539.70451,429.39415 C 539.70451,451.47927 538.87233,455.43079 534.02456,456.36439 C 530.90056,456.96601 527.54836,455.38329 526.57517,452.8472 z M 558.9876,452.87717 C 558.00809,450.32463 557.6428,438.17454 558.17586,425.87699 C 558.92507,408.59298 560.24826,403.51779 564.00521,403.51779 C 567.91607,403.51779 568.86535,408.52795 568.86535,429.16854 C 568.86535,446.80326 567.60019,455.24098 564.81695,456.16872 C 562.59033,456.91093 559.96711,455.42975 558.9876,452.87717 z M 527.39618,386.88931 C 526.14654,385.63967 525.12409,378.57186 525.12409,371.18303 C 525.12409,360.69355 523.13215,355.84044 516.03654,349.0424 C 507.26736,340.64097 505.66306,340.33598 470.24113,340.33598 C 450.05182,340.33598 427.76445,338.60762 420.71368,336.49514 C 402.63782,331.07949 392.92545,317.18023 391.66596,294.92543 C 390.70815,278.00074 390.213,277.10313 381.27155,276.08276 C 362.96246,273.99339 348.08162,261.17403 340.36414,240.84231 C 334.14002,224.44488 333.70873,220.27297 336.95197,207.83393 C 343.42376,183.01203 361.93558,163.61457 381.1318,161.54039 C 389.32606,160.65497 390.66023,161.60451 390.66023,168.32197 C 390.66023,174.36646 388.09534,176.991 379.31991,179.9262 C 364.20176,184.98288 353.39916,201.2233 353.39916,218.89493 C 353.39916,230.16358 355.58879,235.04692 365.80205,246.5558 C 376.42952,258.53147 380.4878,260.79416 394.15286,262.36295 C 411.33131,264.33506 411.28582,264.24638 406.72393,286.87444 C 405.28391,294.01723 406.79126,299.60179 412.40852,307.93505 L 420.05277,319.27537 L 462.05811,321.17783 C 510.15101,323.35598 524.8506,328.00373 534.84291,344.19111 C 542.99363,357.39517 542.88959,386.65214 534.68639,388.209 C 531.92641,388.73283 528.64582,388.13895 527.39618,386.88931 z M 559.77971,386.67835 C 558.9111,385.24772 557.12503,371.05549 555.81063,355.14006 L 553.4208,326.20289 L 538.46242,311.34959 C 525.96794,298.94285 520.26972,295.83725 503.86844,292.49539 C 493.06888,290.29488 476.75193,288.49449 467.60862,288.49449 C 458.4653,288.49449 450.07712,287.0265 448.96823,285.2323 C 447.85935,283.43807 449.96038,277.74532 453.63718,272.58175 C 462.47764,260.16645 462.76507,232.59848 454.20047,218.55345 C 450.7728,212.93248 441.55652,205.47696 433.15198,201.52638 C 410.05336,190.66873 414.24824,177.09102 438.2537,185.01353 C 464.5824,193.70278 485.73581,234.29765 476.99724,259.36508 C 474.99687,265.10335 474.15782,271.08887 475.13267,272.66622 C 476.10755,274.24356 483.7448,275.55605 492.10437,275.58291 C 520.90702,275.67535 547.39494,289.21269 559.63283,310.09512 C 567.52321,323.559 568.49394,328.48385 568.6691,355.9392 C 568.80032,376.50429 567.62144,387.12655 565.11215,387.98919 C 563.04789,388.69884 560.64831,388.10895 559.77971,386.67835 z " />
    <path
       d="M 985.88849 440.20975 A 400 400 0 1 1  185.88849,440.20975 A 400 400 0 1 1  985.88849 440.20975 z"
       id="path2315"
       sodipodi:cx="585.88849"
       sodipodi:cy="440.20975"
       sodipodi:rx="400"
       sodipodi:ry="400"
       sodipodi:type="arc"
       style="fill:none;fill-opacity:1;stroke:#d62619;stroke-width:81.7212677;stroke-miterlimit:4;stroke-opacity:1"
       transform="matrix(0.734203,0,0,0.734203,-60.09925,62.2716)" />
    <path
       d="M 162.45048,158.88455 L 568.57668,602.14228"
       id="path3075"
       style="fill:none;fill-opacity:0.75;fill-rule:evenodd;stroke:#d62619;stroke-width:60;stroke-linecap:butt;stroke-linejoin:miter;stroke-miterlimit:4;stroke-opacity:1" />
  </g>
  <g
     id="layer2"
     inkscape:groupmode="layer"
     inkscape:label="bottom"
     style="display:inline"
     transform="translate(-18.028585,-34.126237)" />
</svg>
