<?xml version="1.0" encoding="UTF-8" standalone="no"?>
<!-- Created with Inkscape (http://www.inkscape.org/) --><svg height="297mm" id="svg1317" inkscape:version="0.40+cvs" sodipodi:docbase="J:\Dokumentai\Grafika" sodipodi:docname="nerūkyti.svg" sodipodi:version="0.32" width="210mm" xmlns="http://www.w3.org/2000/svg" xmlns:cc="http://web.resource.org/cc/" xmlns:dc="http://purl.org/dc/elements/1.1/" xmlns:inkscape="http://www.inkscape.org/namespaces/inkscape" xmlns:rdf="http://www.w3.org/1999/02/22-rdf-syntax-ns#" xmlns:sodipodi="http://inkscape.sourceforge.net/DTD/sodipodi-0.dtd" xmlns:svg="http://www.w3.org/2000/svg">
  <metadata>
    <rdf:RDF xmlns:cc="http://web.resource.org/cc/" xmlns:dc="http://purl.org/dc/elements/1.1/" xmlns:rdf="http://www.w3.org/1999/02/22-rdf-syntax-ns#">
      <cc:Work rdf:about="">
        <dc:title>No smoking sign</dc:title>
        <dc:description>A No Smoking sign</dc:description>
        <dc:subject>
          <rdf:Bag>
            <rdf:li>smoke</rdf:li>
            <rdf:li>symbol</rdf:li>
            <rdf:li>inkscape</rdf:li>
            <rdf:li>smoking</rdf:li>
            <rdf:li>no</rdf:li>
            <rdf:li>sign</rdf:li>
          </rdf:Bag>
        </dc:subject>
        <dc:publisher>
          <cc:Agent rdf:about="http://www.openclipart.org/">
            <dc:title>Open Clip Art Library</dc:title>
          </cc:Agent>
        </dc:publisher>
        <dc:creator>
          <cc:Agent>
            <dc:title>Domas Jokubauskis</dc:title>
          </cc:Agent>
        </dc:creator>
        <dc:rights>
          <cc:Agent>
            <dc:title>Domas Jokubauskis</dc:title>
          </cc:Agent>
        </dc:rights>
        <dc:date></dc:date>
        <dc:format>image/svg+xml</dc:format>
        <dc:type rdf:resource="http://purl.org/dc/dcmitype/StillImage"/>
        <cc:license rdf:resource="http://web.resource.org/cc/PublicDomain"/>
        <dc:language>en</dc:language>
      </cc:Work>
      <cc:License rdf:about="http://web.resource.org/cc/PublicDomain">
        <cc:permits rdf:resource="http://web.resource.org/cc/Reproduction"/>
        <cc:permits rdf:resource="http://web.resource.org/cc/Distribution"/>
        <cc:permits rdf:resource="http://web.resource.org/cc/DerivativeWorks"/>
      </cc:License>
    </rdf:RDF>
  </metadata>
  <defs id="defs3"/>
  <sodipodi:namedview bordercolor="#666666" borderopacity="1.0" id="base" inkscape:current-layer="layer1" inkscape:cx="190.63943" inkscape:cy="628.31751" inkscape:document-units="px" inkscape:pageopacity="0.0" inkscape:pageshadow="2" inkscape:window-height="719" inkscape:window-width="1024" inkscape:window-x="-4" inkscape:window-y="-4" inkscape:zoom="0.60938539" pagecolor="#ffffff"/>
  <g id="layer1" inkscape:groupmode="layer" inkscape:label="Layer 1" style="display:inline">
    <g id="g3141" transform="matrix(3.240093,0.000000,0.000000,3.240093,-1262.279,-2381.883)">
      <path d="M 395.14532,852.16046 L 395.14532,745.66046 L 502.14532,745.66046 L 609.14532,745.66046 L 609.14532,852.16046 L 609.14532,958.66046 L 502.14532,958.66046 L 395.14532,958.66046 L 395.14532,852.16046 z " id="path3145" style="fill:#fefefe"/>
      <path d="M 433.56481,874.31125 C 433.28005,873.56918 433.18167,869.85668 433.34619,866.06125 L 433.64532,859.16046 L 463.75446,858.89601 L 493.86360,858.63155 L 501.03909,866.18547 C 504.98560,870.34013 507.94743,874.17163 507.62093,874.69993 C 507.25899,875.28556 492.79210,875.66046 470.55492,875.66046 C 440.86911,875.66046 433.98621,875.40941 433.56481,874.31125 z M 530.81297,868.31127 C 527.14576,864.21381 524.14532,860.35041 524.14532,859.72592 C 524.14532,858.93400 527.24629,858.67671 534.39532,858.87548 L 544.64532,859.16046 L 544.64532,867.16046 L 544.64532,875.16046 L 541.06297,875.46083 C 537.73484,875.73989 537.00746,875.23252 530.81297,868.31127 z M 551.59317,874.38515 C 551.29281,873.60244 551.18167,869.85668 551.34619,866.06125 C 551.61210,859.92684 551.86743,859.16046 553.64532,859.16046 C 555.47837,859.16046 555.64532,859.82713 555.64532,867.14676 C 555.64532,873.96296 555.38848,875.18253 553.89230,875.47067 C 552.92813,875.65635 551.89353,875.16787 551.59317,874.38515 z M 561.59672,874.39440 C 561.29441,873.60660 561.18167,869.85668 561.34619,866.06125 C 561.57742,860.72683 561.98580,859.16046 563.14532,859.16046 C 564.35234,859.16046 564.64532,860.70676 564.64532,867.07713 C 564.64532,872.51979 564.25485,875.12395 563.39585,875.41028 C 562.70864,875.63935 561.89903,875.18221 561.59672,874.39440 z M 551.84656,854.02836 C 551.46088,853.64268 551.14532,851.46132 551.14532,849.18088 C 551.14532,845.94348 550.53054,844.44565 548.34060,842.34755 C 545.63414,839.75459 545.13900,839.66046 534.20662,839.66046 C 527.97553,839.66046 521.09691,839.12703 518.92081,838.47505 C 513.34200,836.80360 510.34444,832.51383 509.95572,825.64526 C 509.66011,820.42174 509.50729,820.14471 506.74766,819.82979 C 501.09687,819.18494 496.50415,815.22846 494.12228,808.95342 C 492.20131,803.89263 492.06820,802.60504 493.06917,798.76594 C 495.06658,791.10508 500.77994,785.11838 506.70453,784.47822 C 509.23355,784.20495 509.64532,784.49801 509.64532,786.57124 C 509.64532,788.43677 508.85371,789.24679 506.14532,790.15269 C 501.47936,791.71335 498.14532,796.72568 498.14532,802.17973 C 498.14532,805.65761 498.82111,807.16477 501.97326,810.71679 C 505.25325,814.41288 506.50577,815.11122 510.72326,815.59540 C 516.02510,816.20406 516.01106,816.17669 514.60311,823.16046 C 514.15867,825.36496 514.62389,827.08854 516.35756,829.66046 L 518.71683,833.16046 L 531.68107,833.74762 C 546.52413,834.41987 551.06091,835.85432 554.14487,840.85028 C 556.66045,844.92549 556.62834,853.95516 554.09656,854.43566 C 553.24474,854.59733 552.23224,854.41404 551.84656,854.02836 z M 561.84119,853.96325 C 561.57311,853.52171 561.02187,849.14152 560.61620,844.22949 L 559.87862,835.29852 L 555.26197,830.71430 C 551.40576,826.88517 549.64710,825.92668 544.58512,824.89527 C 541.25202,824.21612 536.21607,823.66046 533.39414,823.66046 C 530.57221,823.66046 527.98334,823.20739 527.64110,822.65364 C 527.29886,822.09988 527.94731,820.34291 529.08209,818.74926 C 531.81055,814.91749 531.89926,806.40910 529.25594,802.07434 C 528.19805,800.33952 525.35360,798.03850 522.75968,796.81922 C 515.63068,793.46819 516.92536,789.27766 524.33424,791.72281 C 532.46015,794.40460 538.98879,806.93352 536.29178,814.67016 C 535.67440,816.44118 535.41544,818.28851 535.71631,818.77533 C 536.01719,819.26215 538.37430,819.66723 540.95434,819.67552 C 549.84379,819.70405 558.01884,823.88212 561.79586,830.32713 C 564.23109,834.48253 564.53069,836.00250 564.58475,844.47613 C 564.62525,850.82320 564.26141,854.10158 563.48696,854.36782 C 562.84986,854.58684 562.10927,854.40478 561.84119,853.96325 z " id="path3143" style="fill:#080808"/>
    </g>
    <rect height="697.09668" id="rect1551" style="fill:none;fill-opacity:1.0000000;stroke:#000000;stroke-opacity:1.0000000" width="697.09668" x="22.743286" y="38.011620"/>
    <path d="M 985.88849 440.20975 A 400.00000 400.00000 0 1 1  185.88849,440.20975 A 400.00000 400.00000 0 1 1  985.88849 440.20975 z" id="path2315" sodipodi:cx="585.88849" sodipodi:cy="440.20975" sodipodi:rx="400.00000" sodipodi:ry="400.00000" sodipodi:type="arc" style="fill:none;fill-opacity:1.0000000;stroke:#d62619;stroke-width:81.721268;stroke-miterlimit:4.0000000;stroke-opacity:1.0000000" transform="matrix(0.734203,0.000000,0.000000,0.734203,-60.09925,62.27160)"/>
    <path d="M 162.45048,158.88455 L 568.57668,602.14228" id="path3075" style="fill:none;fill-opacity:0.75000000;fill-rule:evenodd;stroke:#d62619;stroke-width:60.000000;stroke-linecap:butt;stroke-linejoin:miter;stroke-miterlimit:4.0000000;stroke-opacity:1.0000000"/>
  </g>
  <g id="layer2" inkscape:groupmode="layer" inkscape:label="bottom" style="display:inline"/>
</svg>
