<?xml version="1.0" encoding="UTF-8" standalone="no"?>
<!-- Created with Sodipodi ("http://www.sodipodi.com/") -->
<svg
   xmlns:dc="http://purl.org/dc/elements/1.1/"
   xmlns:cc="http://web.resource.org/cc/"
   xmlns:rdf="http://www.w3.org/1999/02/22-rdf-syntax-ns#"
   xmlns:svg="http://www.w3.org/2000/svg"
   xmlns="http://www.w3.org/2000/svg"
   xmlns:sodipodi="http://sodipodi.sourceforge.net/DTD/sodipodi-0.dtd"
   xmlns:inkscape="http://www.inkscape.org/namespaces/inkscape"
   id="svg637"
   sodipodi:version="0.32"
   width="100pt"
   height="100pt"
   sodipodi:docbase="C:\Dokumente und Einstellungen\ulfl\Eigene Dateien\svn.openstreetmap.org\applications\share\map-icons\svg\money"
   sodipodi:docname="bank.svg"
   inkscape:version="0.45.1"
   inkscape:output_extension="org.inkscape.output.svg.inkscape">
  <metadata
     id="metadata2259">
    <rdf:RDF>
      <cc:Work
         rdf:about="">
        <dc:format>image/svg+xml</dc:format>
        <dc:type
           rdf:resource="http://purl.org/dc/dcmitype/StillImage" />
        <cc:license
           rdf:resource="http://web.resource.org/cc/PublicDomain" />
      </cc:Work>
      <cc:License
         rdf:about="http://web.resource.org/cc/PublicDomain">
        <cc:permits
           rdf:resource="http://web.resource.org/cc/Reproduction" />
        <cc:permits
           rdf:resource="http://web.resource.org/cc/Distribution" />
        <cc:permits
           rdf:resource="http://web.resource.org/cc/DerivativeWorks" />
      </cc:License>
    </rdf:RDF>
  </metadata>
  <defs
     id="defs639" />
  <sodipodi:namedview
     id="base"
     showgrid="true"
     snaptogrid="true"
     inkscape:zoom="3.016"
     inkscape:cx="62.5"
     inkscape:cy="63.577692"
     inkscape:window-width="797"
     inkscape:window-height="573"
     inkscape:window-x="154"
     inkscape:window-y="203"
     inkscape:current-layer="svg637" />
  <path
     sodipodi:nodetypes="ccccccccccccc"
     id="path645"
     d="M 63.292483,5.270052 L 19.263701,50.459172 L 28.069398,50.459172 L 28.069398,118.24282 L 54.486727,118.24282 L 54.486727,83.795835 L 72.702038,83.795835 L 72.702098,118.24282 L 98.515562,118.24282 L 98.515562,50.459172 L 107.32131,50.459172 L 63.292483,5.270052 L 63.292483,5.270052 L 63.292483,5.270052 z "
     style="font-size:12px;fill-rule:evenodd;stroke:#000000;stroke-width:0.25177151" />
  <rect
     style="fill:#000000;fill-opacity:1;stroke:none;stroke-width:10;stroke-miterlimit:4;stroke-dasharray:none;stroke-dashoffset:0;stroke-opacity:1"
     id="rect2254"
     width="38.793102"
     height="39.7878"
     x="44.098145"
     y="78.580902" />
  <path
     style="font-size:12px;font-weight:900;fill:#ffffff;stroke-width:1pt;font-family:VAG Rounded Black SSi"
     id="path828"
     d="M 61.077636,105.26416 L 61.077636,101.50201 C 58.405961,101.31117 55.679765,100.94314 52.899049,100.39789 C 50.118327,99.852661 47.623857,98.871231 45.415641,97.453601 C 43.234684,96.008721 42.144206,94.086761 42.144206,91.687701 C 42.144206,89.888411 42.716705,88.266331 43.861711,86.821431 C 45.033977,85.376556 46.465228,84.65413 48.155467,84.65413 C 48.891541,84.65413 50.213744,85.063053 52.122085,85.880913 C 54.030418,86.698761 55.584348,87.312161 56.783874,87.721091 C 58.010666,88.130021 59.441918,88.334481 61.077636,88.334481 L 61.077636,75.207855 C 57.588106,74.144636 54.657445,73.040527 52.285653,71.895528 C 49.913861,70.723263 47.991898,69.441949 46.519749,68.051588 C 45.047606,66.633966 43.984389,65.107297 43.330103,63.471581 C 42.703075,61.835863 42.389563,60.022946 42.389563,58.032819 C 42.389563,55.252103 42.88028,52.716743 43.861711,50.426739 C 44.843142,48.109468 46.178975,46.119346 47.869221,44.456369 C 49.586719,42.766125 51.590475,41.416661 53.88048,40.40797 C 56.170484,39.39928 58.569536,38.799514 61.077636,38.608678 L 61.077636,34.642066 C 61.077636,32.979089 61.909122,32.147596 63.572106,32.147596 C 65.262343,32.147596 66.107466,32.979089 66.107466,34.642066 L 66.107466,38.608678 C 68.152113,38.663206 70.319441,38.976718 72.609444,39.549218 C 74.926709,40.094456 76.88957,41.02136 78.498026,42.329934 C 80.106477,43.638507 80.910709,45.383272 80.910709,47.564228 C 80.910709,48.627446 80.665345,49.663404 80.174635,50.672096 C 79.711183,51.653525 79.043266,52.44412 78.170884,53.043886 C 77.325761,53.643646 76.371591,53.94353 75.308373,53.94353 C 74.654086,53.94353 73.863491,53.739064 72.936588,53.330134 C 72.036939,52.921209 71.219083,52.525907 70.483009,52.144237 C 69.746934,51.735313 69.024497,51.40817 68.315683,51.162806 C 67.606875,50.890191 66.870801,50.753883 66.107466,50.753883 L 66.107466,62.735512 C 71.805212,64.289442 76.371591,66.484028 79.8066,69.319272 C 83.26886,72.154515 85,76.230175 85,81.546258 C 85,84.708643 84.413873,87.530251 83.241603,90.011091 C 82.096604,92.464671 80.583565,94.522951 78.702485,96.185931 C 76.848672,97.821631 74.817661,99.075691 72.609444,99.948081 C 70.401221,100.82047 68.233895,101.33844 66.107466,101.50201 L 66.107466,105.26416 C 66.107466,106.92714 65.262343,107.75862 63.572106,107.75862 C 61.909122,107.75862 61.077636,106.92714 61.077636,105.26416 z M 61.077636,61.222473 L 61.077636,50.753883 C 59.714534,51.053759 58.596797,51.694416 57.724414,52.675845 C 56.879292,53.630017 56.45673,54.856803 56.45673,56.356212 C 56.45673,57.610265 56.879292,58.646215 57.724414,59.464078 C 58.596797,60.281933 59.714534,60.868062 61.077636,61.222473 z M 66.107466,76.516428 L 66.107466,88.334481 C 67.4433,88.334481 68.574675,87.748351 69.501578,86.576081 C 70.455748,85.403827 70.93283,84.067988 70.93283,82.56858 C 70.93283,80.85108 70.5239,79.542507 69.706044,78.642856 C 68.915449,77.715953 67.715922,77.00714 66.107466,76.516428 z " />
</svg>
