<?xml version="1.0" encoding="UTF-8" standalone="no"?>
<svg height="624.151" id="svg2818" inkscape:version="0.41" sodipodi:docbase="/datas/Projs/Cliparts Stocker/tmp/AIGA" sodipodi:docname="AIGA_Curreny_Exchange.svg" sodipodi:version="0.32" width="843.911" xmlns="http://www.w3.org/2000/svg" xmlns:cc="http://web.resource.org/cc/" xmlns:dc="http://purl.org/dc/elements/1.1/" xmlns:inkscape="http://www.inkscape.org/namespaces/inkscape" xmlns:rdf="http://www.w3.org/1999/02/22-rdf-syntax-ns#" xmlns:sodipodi="http://inkscape.sourceforge.net/DTD/sodipodi-0.dtd" xmlns:svg="http://www.w3.org/2000/svg">
  <metadata>
    <rdf:RDF xmlns:cc="http://web.resource.org/cc/" xmlns:dc="http://purl.org/dc/elements/1.1/" xmlns:rdf="http://www.w3.org/1999/02/22-rdf-syntax-ns#">
      <cc:Work rdf:about="">
        <dc:title>AIGA_Symbol_Signs</dc:title>
        <dc:description>EPS converted from  http://aiga.org</dc:description>
        <dc:subject>
          <rdf:Bag>
            <rdf:li>symbol</rdf:li>
            <rdf:li>mapsym</rdf:li>
          </rdf:Bag>
        </dc:subject>
        <dc:publisher>
          <cc:Agent rdf:about="http://www.openclipart.org/">
            <dc:title>Open Clip Art Library</dc:title>
          </cc:Agent>
        </dc:publisher>
        <dc:creator>
          <cc:Agent>
            <dc:title>Jean-Victor Balin</dc:title>
          </cc:Agent>
        </dc:creator>
        <dc:rights>
          <cc:Agent>
            <dc:title>Jean-Victor Balin</dc:title>
          </cc:Agent>
        </dc:rights>
        <dc:date></dc:date>
        <dc:format>image/svg+xml</dc:format>
        <dc:type rdf:resource="http://purl.org/dc/dcmitype/StillImage"/>
        <cc:license rdf:resource="http://web.resource.org/cc/PublicDomain"/>
        <dc:language>en</dc:language>
      </cc:Work>
      <cc:License rdf:about="http://web.resource.org/cc/PublicDomain">
        <cc:permits rdf:resource="http://web.resource.org/cc/Reproduction"/>
        <cc:permits rdf:resource="http://web.resource.org/cc/Distribution"/>
        <cc:permits rdf:resource="http://web.resource.org/cc/DerivativeWorks"/>
      </cc:License>
    </rdf:RDF>
  </metadata>
  <sodipodi:namedview bordercolor="#666666" borderopacity="1.0" id="base" inkscape:current-layer="svg2818" inkscape:cx="305.25953" inkscape:cy="417.84947" inkscape:pageopacity="0.0" inkscape:pageshadow="2" inkscape:window-height="543" inkscape:window-width="640" inkscape:window-x="5" inkscape:window-y="70" inkscape:zoom="0.43415836" pagecolor="#ffffff"/>
  <defs id="defs2820">
    <marker id="ArrowEnd" markerHeight="3" markerUnits="strokeWidth" markerWidth="4" orient="auto" refX="0" refY="5" viewBox="0 0 10 10">
      <path d="M 0 0 L 10 5 L 0 10 z" id="path2823"/>
    </marker>
    <marker id="ArrowStart" markerHeight="3" markerUnits="strokeWidth" markerWidth="4" orient="auto" refX="10" refY="5" viewBox="0 0 10 10">
      <path d="M 10 0 L 0 5 L 10 10 z" id="path2826"/>
    </marker>
  </defs>
  <g id="g2828">
    <g id="g2830">
      <path d="M 623.795 399.016L 623.795 220.115L 220.115 220.115L 220.115 399.016L 623.795 399.016z" id="path2832" style="stroke:#000000; stroke-width:42; fill:none"/>
      <path d="M 421.954 309.565" id="path2834" style="stroke:#000000; stroke-width:42; fill:none"/>
    </g>
    <path d="M 478.562 557.236" id="path2836" style="stroke:#000000; stroke-width:1.859; fill:#000000"/>
    <g id="g2838">
      <g id="g2840">
        <path d="M 423.484 367.158C 454.92 367.158 480.406 341.672 480.406 310.236C 480.406 278.8 454.92 253.314 423.484 253.314C 392.048 253.314 366.562 278.8 366.562 310.236C 366.562 341.672 392.048 367.158 423.484 367.158z" id="path2842" style="stroke:#000000; stroke-width:1.859; fill:#000000"/>
        <path d="M 423.484 310.236" id="path2844" style="stroke:#000000; stroke-width:1.859; fill:#000000"/>
      </g>
      <g id="g2846">
        <path d="M 392.543 320.323L 407.408 320.323C 408.349 324.612 409.587 329.799 416.358 331.724L 416.34 314.875C 407.067 313.542 393.69 309.476 393.69 294.563C 393.69 277.799 412.237 272.572 416.358 272.572L 416.358 262.435L 430.338 262.435L 430.338 272.572C 439.765 273.118 453.447 280.998 453.447 295.978L 438.728 295.978C 438.354 291.531 434.907 287.162 430.485 286.85L 430.485 302.298C 441.723 303.451 454.919 307.74 454.919 322.84C 454.919 336.025 441.672 345.641 430.485 346.233L 430.485 356.395L 416.358 356.395L 416.358 346.085C 408.263 344.901 393.462 337.096 392.543 320.323z" id="path2848" style="stroke:none; fill:#ffffff"/>
        <g id="g2850">
          <path d="M 416.431 287.003L 416.431 299.802C 406.468 299.646 406.274 288.779 416.431 287.003z" id="path2852" style="stroke:none; fill:#000000"/>
          <g id="g2854">
            <path d="M 430.649 317.278C 442.977 317.59 444.349 329.839 430.635 331.798" id="path2856" style="stroke:none; fill:#000000"/>
            <path d="M 430.635 331.798L 430.649 317.278" id="path2858" style="stroke:none; fill:#000000"/>
          </g>
        </g>
      </g>
    </g>
    <g id="g2860">
      <g id="g2862">
        <path d="M 516.758 466.408C 548.194 466.408 573.68 440.922 573.68 409.486C 573.68 378.049 548.194 352.563 516.758 352.563C 485.321 352.563 459.835 378.049 459.835 409.486C 459.835 440.922 485.321 466.408 516.758 466.408z" id="path2864" style="stroke:#000000; stroke-width:1.859; fill:#000000"/>
        <path d="M 516.758 409.486" id="path2866" style="stroke:#000000; stroke-width:1.859; fill:#000000"/>
      </g>
      <path d="M 543.053 432.234L 543.053 444.505L 490.335 444.505L 490.335 432.234C 496.325 428.222 499.441 418.075 497.524 412.646L 486.501 412.646L 486.501 400.14L 495.366 400.14C 492.97 394.477 492.97 392.589 492.97 387.633C 492.97 382.678 497.045 366.52 518.37 366.632C 538.008 366.736 543.708 382.916 543.708 394.477L 528.758 394.486C 527.758 387.486 525.008 381.736 518.508 381.736C 508.564 381.736 508.547 387.987 508.547 390.112C 508.547 392.235 508.905 397.426 510.943 400.259L 523.883 400.259L 523.883 412.529L 513.339 412.529C 514.656 423.739 508.187 428.458 507.827 432.234L 543.053 432.234z" id="path2868" style="stroke:none; fill:#ffffff"/>
    </g>
    <g id="g2870">
      <g id="g2872">
        <path d="M 478.758 614.408C 510.194 614.408 535.68 588.922 535.68 557.486C 535.68 526.049 510.194 500.563 478.758 500.563C 447.321 500.563 421.836 526.049 421.836 557.486C 421.836 588.922 447.321 614.408 478.758 614.408z" id="path2874" style="stroke:#000000; stroke-width:1.859; fill:#000000"/>
        <path d="M 478.758 557.486" id="path2876" style="stroke:#000000; stroke-width:1.859; fill:#000000"/>
      </g>
      <path d="M 446.766 522.577L 463.301 522.577L 478.637 549.644L 495.277 522.577L 510.506 522.577L 485.826 566.225L 504.276 566.225L 504.276 580.123L 486.544 580.123L 486.544 599.631L 471.448 599.631L 471.448 580.123L 452.517 580.123L 452.517 566.468L 471.687 566.468L 446.766 522.577z" id="path2878" style="stroke:none; fill:#ffffff"/>
    </g>
    <g id="g2880">
      <g id="g2882">
        <path d="M 299.258 549.908C 330.695 549.908 356.181 524.422 356.181 492.986C 356.181 461.549 330.695 436.063 299.258 436.063C 267.822 436.063 242.336 461.549 242.336 492.986C 242.336 524.422 267.822 549.908 299.258 549.908z" id="path2884" style="stroke:#000000; stroke-width:1.859; fill:#000000"/>
        <path d="M 299.258 492.986" id="path2886" style="stroke:#000000; stroke-width:1.859; fill:#000000"/>
      </g>
      <g id="g2888">
        <path d="M 304.973 482.13L 319.351 482.13L 319.351 489.319C 322.467 485.723 326.06 481.889 333.728 481.889L 333.728 495.549C 322.008 496.986 319.351 503.236 319.351 510.986L 319.351 528.138L 304.973 528.138L 304.973 482.13z" id="path2890" style="stroke:none; fill:#ffffff"/>
        <path d="M 301.067 482.13L 301.067 495.668L 290.846 495.668L 290.846 528.138L 276.349 528.138L 276.349 495.788L 267.723 495.788L 267.723 482.249L 276.349 482.249L 276.349 470.149C 276.349 465.476 280.901 451.217 298.034 451.217C 315.526 451.217 319.258 464.986 319.258 476.498L 305.008 476.498C 305.008 469.111 304.008 465.235 298.153 465.235C 291.883 465.235 290.846 469.548 290.846 476.379L 290.846 482.13L 301.067 482.13z" id="path2892" style="stroke:none; fill:#ffffff"/>
      </g>
    </g>
  </g>
</svg>
