<?xml version="1.0" encoding="UTF-8" standalone="no"?>
<!-- Created with Inkscape (http://www.inkscape.org/) -->
<svg
   xmlns:svg="http://www.w3.org/2000/svg"
   xmlns="http://www.w3.org/2000/svg"
   version="1.0"
   width="124.377"
   height="84.519997"
   viewBox="0 0 124.377 84.52"
   id="Hotel_e_xA0_Image_1_"
   xml:space="preserve"><defs
   id="defs26" />
<g
   id="g3">
	<path
   d="M 92.289,2.052 C 101.634,4.046 109.433,6.993 115.02,10.291 L 115.02,10.291 C 120.526,13.629 124.216,17.134 124.377,21.523 L 124.377,21.523 C 124.377,21.807 124.358,22.098 124.317,22.398 L 124.317,22.398 C 123.468,28.324 122.462,37.604 122.46,37.618 L 122.46,37.618 C 122.412,38.06 122.209,38.484 121.899,38.804 L 121.899,38.804 L 120.811,39.914 C 120.288,40.445 119.511,40.644 118.798,40.427 L 118.798,40.427 L 114.771,39.197 L 110.762,42.664 C 110.651,42.761 110.54,42.843 110.435,42.914 L 110.435,42.914 C 110.364,42.988 110.316,43.032 110.288,43.057 L 110.288,43.057 L 110.288,43.057 C 110.236,43.103 110.153,43.182 110.028,43.277 L 110.028,43.277 L 103.05,49.75 C 102.914,49.876 102.765,49.979 102.606,50.062 L 102.606,50.062 C 102.552,50.099 102.501,50.133 102.451,50.164 L 102.451,50.164 C 102.335,50.234 102.248,50.276 102.205,50.297 L 102.205,50.297 L 102.203,50.297 C 102.033,50.382 101.832,50.462 101.604,50.525 L 101.604,50.525 C 101.558,50.536 101.48,50.557 101.365,50.579 L 101.365,50.579 C 101.339,50.603 101.311,50.627 101.284,50.651 L 101.284,50.651 L 73.83,74.707 L 73.757,79.484 C 73.684,81.019 72.903,82.008 72.071,82.827 L 72.071,82.827 C 71.236,83.59 70.263,84.2 69.031,84.418 L 69.031,84.418 C 68.774,84.478 68.485,84.52 68.172,84.52 L 68.172,84.52 C 68.165,84.52 68.158,84.52 68.151,84.52 L 68.151,84.52 C 67.537,84.52 66.933,84.377 66.366,84.125 L 66.366,84.125 L 6.025,57.145 C 3.838,56.068 2.306,54.053 1.855,51.658 L 1.855,51.658 L 0.058,39.714 C 0.019,39.461 0,39.215 0,38.985 L 0,38.985 C -0.004,38.205 0.219,37.386 0.726,36.728 L 0.726,36.728 L 0.727,36.729 C 1.921,35.147 3.596,34.423 5.462,34.339 L 5.462,34.339 C 5.927,34.339 6.418,34.404 6.922,34.599 L 6.922,34.599 L 10.972,36.18 L 41.568,21.237 C 41.849,21.103 42.117,21.007 42.376,20.933 L 42.376,20.933 C 42.584,20.709 42.804,20.543 43.005,20.416 L 43.005,20.416 C 43.107,20.352 43.171,20.319 43.193,20.306 L 43.193,20.306 C 43.212,20.296 43.23,20.286 43.249,20.277 L 43.249,20.277 C 43.335,20.216 43.427,20.161 43.524,20.114 L 43.524,20.114 L 52.638,15.649 C 52.671,15.632 52.696,15.62 52.714,15.611 L 52.714,15.611 C 52.77,15.58 52.873,15.526 53.026,15.464 L 53.026,15.464 C 53.266,15.373 53.361,15.362 53.39,15.352 L 53.39,15.352 C 53.39,15.352 53.39,15.352 53.44,15.338 L 53.44,15.338 C 53.464,15.332 53.496,15.323 53.535,15.315 L 53.535,15.315 C 53.803,15.057 54.082,14.878 54.367,14.728 L 54.367,14.728 L 55.226,14.278 C 55.377,13.323 55.806,12.509 56.336,11.778 L 56.336,11.778 C 57.002,10.884 57.873,10.115 58.94,9.585 L 58.94,9.585 L 60.649,8.747 C 60.649,8.563 60.649,8.382 60.649,8.204 L 60.649,8.204 C 60.606,5.443 62.577,3.154 65.302,2.046 L 65.302,2.046 C 67.797,0.639 71.224,0.012 75.762,0 L 75.762,0 C 80.184,0 85.667,0.641 92.289,2.052 L 92.289,2.052"
   id="path5" />
</g>
<path
   d="M 63.052,10.354 L 60.044,11.83 C 58.718,12.455 57.636,13.998 57.669,14.961 L 57.669,14.961 C 57.669,14.961 57.669,14.973 57.669,14.985 L 57.669,14.985 C 57.65,15.915 58.811,17.227 60.235,17.595 L 60.235,17.595 L 75.196,21.687 C 75.592,21.796 76.069,21.851 76.574,21.851 L 76.574,21.851 C 77.857,21.855 79.327,21.484 80.202,20.907 L 80.202,20.907 L 82.943,19.125 C 84.212,18.329 85.286,16.641 85.274,15.778 L 85.274,15.778 C 85.268,15.725 85.272,15.702 85.27,15.702 L 85.27,15.702 C 85.311,14.87 84.208,13.659 82.777,13.328 L 82.777,13.328 L 68.319,9.784 L 68.438,9.3 L 68.319,9.784 C 67.869,9.673 67.317,9.616 66.732,9.617 L 66.732,9.617 C 66.723,9.617 66.713,9.617 66.704,9.617 L 66.704,9.617 C 65.416,9.617 63.964,9.902 63.052,10.354 L 63.052,10.354 z"
   id="path7"
   style="fill:#ffffff" />
<path
   d="M 84.17,22.16 C 84.17,22.16 84.168,22.172 84.168,22.205 L 84.168,22.205 C 84.142,23.19 85.209,24.453 86.583,24.805 L 86.583,24.805 L 105.267,29.787 C 105.584,29.871 105.952,29.917 106.341,29.917 L 106.341,29.917 C 107.628,29.923 109.133,29.42 109.954,28.683 L 109.954,28.683 L 112.062,26.825 C 113.208,25.836 114.29,23.897 114.375,22.815 L 114.375,22.815 C 114.38,22.749 114.384,22.693 114.384,22.65 L 114.384,22.65 C 114.406,21.719 113.421,20.577 112.074,20.266 L 112.074,20.266 L 94.362,16.058 C 93.993,15.967 93.556,15.924 93.093,15.924 L 93.093,15.924 C 91.76,15.92 90.198,16.303 89.273,16.884 L 89.273,16.884 L 86.601,18.541 C 85.33,19.303 84.197,21.057 84.172,22.13 L 84.172,22.13 L 83.671,22.105 L 84.17,22.16 L 84.17,22.16 z"
   id="path9"
   style="fill:#ffffff" />
<path
   d="M 91.873,4.008 C 78.53,1.164 70.042,1.556 66.179,3.85 C 70.436,2.057 78.579,1.951 90.784,4.552 C 109.747,8.594 122.105,16.676 121.249,22.66 C 120.395,28.644 119.384,38.514 119.384,38.514 L 120.473,37.403 C 120.473,37.403 121.483,28.1 122.338,22.116 C 123.193,16.132 110.835,8.049 91.873,4.008 z"
   id="path11"
   style="fill:#ffffff" />
<path
   d="M 69.384,61.137 L 6.195,36.464 C 5.058,36.02 3.032,36.831 2.314,37.944 C 2.693,37.446 3.389,37.292 4.252,37.63 L 67.44,62.303 C 68.893,62.87 70.061,64.61 70.037,66.168 L 69.813,80.622 C 69.798,81.606 69.319,82.267 68.611,82.463 C 70.016,82.283 71.736,80.731 71.756,79.456 L 71.98,65.002 C 72.005,63.443 70.836,61.704 69.384,61.137 z"
   id="path13"
   style="fill:#ffffff" />
<path
   d="M 117.245,25.379 L 114.788,24.774 C 114.295,25.808 113.548,26.835 112.724,27.575 L 110.617,29.433 C 109.529,30.381 107.87,30.908 106.342,30.916 C 106.215,30.916 106.092,30.902 105.967,30.895 L 108.296,31.535 C 109.408,31.859 110.197,32.919 110.212,34.071 C 110.212,34.112 110.212,34.149 110.21,34.195 L 109.854,40.668 C 109.851,40.725 109.834,40.776 109.828,40.832 L 116.681,34.903 C 117.388,34.292 118.056,33.03 118.163,32.101 L 118.702,27.475 C 118.807,26.546 118.153,25.603 117.245,25.379 z"
   id="path15"
   style="fill:#ffffff" />
<path
   d="M 86.066,17.698 L 85.68,17.603 C 85.515,17.898 85.321,18.186 85.102,18.463 C 85.404,18.177 85.726,17.915 86.066,17.698 z"
   id="path17"
   style="fill:#ffffff" />
<path
   d="M 56.796,15.714 L 55.296,16.5 C 55.091,16.607 54.942,16.723 54.844,16.84 L 58.442,17.829 C 57.648,17.282 57.042,16.539 56.796,15.714 z"
   id="path19"
   style="fill:#ffffff" />
<path
   d="M 83.168,22.206 C 83.168,22.173 83.168,22.122 83.174,22.054 C 83.243,21.109 83.723,20.088 84.421,19.207 C 84.129,19.485 83.818,19.744 83.489,19.964 L 80.746,21.746 C 79.657,22.449 78.12,22.823 76.684,22.845 L 84.913,25.108 C 83.891,24.409 83.188,23.349 83.168,22.206 z"
   id="path21"
   style="fill:#ffffff" />
<path
   d="M 53.082,17.391 C 52.917,17.391 52.79,17.433 52.631,17.533 L 44.806,21.364 L 101.086,38.113 C 102.183,38.455 102.944,39.513 102.959,40.648 C 102.959,40.704 102.957,40.749 102.957,40.806 L 102.537,46.815 L 108.447,41.334 L 108.486,41.31 C 108.684,41.184 108.831,40.968 108.853,40.614 L 109.209,34.153 C 109.211,34.122 109.211,34.093 109.211,34.073 C 109.228,33.416 108.656,32.656 108.03,32.501 L 53.364,17.432 C 53.259,17.403 53.164,17.391 53.082,17.391 z"
   id="path23"
   style="fill:#ffffff" />
</svg>