<?xml version="1.0" standalone="no"?>
<!DOCTYPE svg PUBLIC "-//W3C//DTD SVG 1.1//EN" "http://www.w3.org/Graphics/SVG/1.1/DTD/svg11.dtd">
<svg xml:space="default" width="250" height="380" xmlns="http://www.w3.org/2000/svg">
	<title>日本の地図記号 - 高等専門学校</title>
	<rect fill="white" x="0" y="0" width="250" height="380" />
	<path fill="none" stroke="black" stroke-width="10px"
		d="M 50 10 Q 0 70 50 130 M 200 10 Q 250 70 200 130"
	/>
	<path fill="none" stroke="black" stroke-width="10px"
		d="M 65 25 L 185 25
		 M 80 70 L 80 40 170 40 170 70 75 70
		 M 75 55 L 175 55 
		 M 125 10 L 125 70
		 M 60 85 L 185 85
		 M 155 70 L 155 128 Q 155 130 130 130
		 M 90 90 L 110 110
		 "
	/>
	<polygon fill="black" stroke="black" stroke-width="1px"
		points="50,216 20,216 20,184 102,184 102,150 148,150 148,184 230,184 230,216"
	/>
	<line stroke="black" stroke-width="32px" x1="56" y1="204" x2="210" y2="350" />
	<line stroke="black" stroke-width="32px" x1="194" y1="204" x2="40" y2="350" />
</svg>
