<?xml version="1.0" encoding="UTF-8" standalone="no"?>
<!-- Created with Inkscape (http://www.inkscape.org/) -->
<svg
   xmlns:dc="http://purl.org/dc/elements/1.1/"
   xmlns:cc="http://creativecommons.org/ns#"
   xmlns:rdf="http://www.w3.org/1999/02/22-rdf-syntax-ns#"
   xmlns:svg="http://www.w3.org/2000/svg"
   xmlns="http://www.w3.org/2000/svg"
   xmlns:xlink="http://www.w3.org/1999/xlink"
   xmlns:sodipodi="http://sodipodi.sourceforge.net/DTD/sodipodi-0.dtd"
   xmlns:inkscape="http://www.inkscape.org/namespaces/inkscape"
   width="479.16837"
   height="435.09128"
   id="svg2"
   sodipodi:version="0.32"
   inkscape:version="0.46"
   sodipodi:docname="power_photo_water_3_AC.svg"
   inkscape:output_extension="org.inkscape.output.svg.inkscape"
   version="1.0">
  <defs
     id="defs4">
    <linearGradient
       inkscape:collect="always"
       id="linearGradient6120">
      <stop
         style="stop-color:#0000b0;stop-opacity:1;"
         offset="0"
         id="stop6122" />
      <stop
         style="stop-color:#0000b0;stop-opacity:0;"
         offset="1"
         id="stop6124" />
    </linearGradient>
    <linearGradient
       id="linearGradient6026">
      <stop
         id="stop6028"
         offset="0"
         style="stop-color:#2000c9;stop-opacity:1;" />
      <stop
         id="stop6030"
         offset="1"
         style="stop-color:#120dc9;stop-opacity:0;" />
    </linearGradient>
    <linearGradient
       id="linearGradient6014">
      <stop
         style="stop-color:#2000c9;stop-opacity:1;"
         offset="0"
         id="stop6016" />
      <stop
         style="stop-color:#120dc9;stop-opacity:0;"
         offset="1"
         id="stop6018" />
    </linearGradient>
    <linearGradient
       inkscape:collect="always"
       id="linearGradient3387">
      <stop
         style="stop-color:#0000a4;stop-opacity:1;"
         offset="0"
         id="stop3389" />
      <stop
         style="stop-color:#0000a4;stop-opacity:0;"
         offset="1"
         id="stop3391" />
    </linearGradient>
    <inkscape:perspective
       sodipodi:type="inkscape:persp3d"
       inkscape:vp_x="0 : 526.18109 : 1"
       inkscape:vp_y="0 : 1000 : 0"
       inkscape:vp_z="744.09448 : 526.18109 : 1"
       inkscape:persp3d-origin="372.04724 : 350.78739 : 1"
       id="perspective10" />
    <linearGradient
       inkscape:collect="always"
       xlink:href="#linearGradient3387"
       id="linearGradient3393"
       x1="262.82663"
       y1="142.72249"
       x2="580.5307"
       y2="142.72249"
       gradientUnits="userSpaceOnUse" />
    <linearGradient
       inkscape:collect="always"
       xlink:href="#linearGradient3387"
       id="linearGradient5099"
       gradientUnits="userSpaceOnUse"
       x1="262.82663"
       y1="142.72249"
       x2="580.5307"
       y2="142.72249" />
    <linearGradient
       inkscape:collect="always"
       xlink:href="#linearGradient3387"
       id="linearGradient5102"
       gradientUnits="userSpaceOnUse"
       x1="262.82663"
       y1="142.72249"
       x2="580.5307"
       y2="142.72249"
       gradientTransform="matrix(-1.6344348,0,0,-1.6344348,1143.3014,648.13186)" />
    <linearGradient
       inkscape:collect="always"
       xlink:href="#linearGradient3387"
       id="linearGradient5105"
       gradientUnits="userSpaceOnUse"
       x1="262.82663"
       y1="142.72249"
       x2="580.5307"
       y2="142.72249"
       gradientTransform="matrix(-1.6344348,0,0,-1.6344348,1336.6509,640.39788)" />
    <linearGradient
       inkscape:collect="always"
       xlink:href="#linearGradient3387"
       id="linearGradient5108"
       gradientUnits="userSpaceOnUse"
       x1="262.82663"
       y1="142.72249"
       x2="580.5307"
       y2="142.72249"
       gradientTransform="matrix(-1.6344348,0,0,-1.6344348,1132.2528,642.60759)" />
    <linearGradient
       inkscape:collect="always"
       xlink:href="#linearGradient6120"
       id="linearGradient6126"
       x1="332.21204"
       y1="412.09912"
       x2="739.21344"
       y2="412.09912"
       gradientUnits="userSpaceOnUse" />
    <linearGradient
       inkscape:collect="always"
       xlink:href="#linearGradient6120"
       id="linearGradient6162"
       gradientUnits="userSpaceOnUse"
       x1="332.21204"
       y1="412.09912"
       x2="739.21344"
       y2="412.09912" />
    <linearGradient
       inkscape:collect="always"
       xlink:href="#linearGradient6120"
       id="linearGradient6164"
       gradientUnits="userSpaceOnUse"
       x1="332.21204"
       y1="412.09912"
       x2="739.21344"
       y2="412.09912" />
    <linearGradient
       inkscape:collect="always"
       xlink:href="#linearGradient6120"
       id="linearGradient6166"
       gradientUnits="userSpaceOnUse"
       x1="332.21204"
       y1="412.09912"
       x2="739.21344"
       y2="412.09912" />
    <linearGradient
       inkscape:collect="always"
       xlink:href="#linearGradient6120"
       id="linearGradient6169"
       gradientUnits="userSpaceOnUse"
       x1="332.21204"
       y1="412.09912"
       x2="739.21344"
       y2="412.09912"
       gradientTransform="matrix(-1,0,0,-1,1059.2721,818.67396)" />
  </defs>
  <sodipodi:namedview
     id="base"
     pagecolor="#ffffff"
     bordercolor="#666666"
     borderopacity="1.0"
     inkscape:pageopacity="0.0"
     inkscape:pageshadow="2"
     inkscape:zoom="0.45254834"
     inkscape:cx="422.80569"
     inkscape:cy="849.24865"
     inkscape:document-units="px"
     inkscape:current-layer="layer1"
     showgrid="false"
     inkscape:window-width="1272"
     inkscape:window-height="996"
     inkscape:window-x="0"
     inkscape:window-y="0" />
  <metadata
     id="metadata7">
    <rdf:RDF>
      <cc:Work
         rdf:about="">
        <dc:format>image/svg+xml</dc:format>
        <dc:type
           rdf:resource="http://purl.org/dc/dcmitype/StillImage" />
        <cc:license
           rdf:resource="http://creativecommons.org/licenses/by-sa/2.0/" />
        <dc:creator>
          <cc:Agent>
            <dc:title>malenki</dc:title>
          </cc:Agent>
        </dc:creator>
      </cc:Work>
    </rdf:RDF>
  </metadata>
  <g
     inkscape:label="Ebene 1"
     inkscape:groupmode="layer"
     id="layer1"
     transform="translate(-263.37146,-3.9003302)">
    <path
       style="opacity:0.98000004;fill:#000000;fill-opacity:1;fill-rule:nonzero;stroke:#ffffff;stroke-width:3.1574223;stroke-miterlimit:4;stroke-dasharray:none;stroke-opacity:1"
       d="M 299.18054,409.924 C 299.18054,409.48639 315.12001,380.45002 334.60158,345.39868 L 370.02262,281.669 L 317.48646,216.81891 L 264.95017,151.96896 L 328.03795,82.294835 C 362.73619,43.974145 391.36102,12.856163 391.64867,13.143833 C 391.93636,13.431493 380.13686,43.091115 365.42759,79.054075 C 350.71833,115.01712 338.28184,146.02951 337.79098,147.9706 C 337.05551,150.87908 348.26114,161.33832 401.49426,207.43079 C 437.0219,238.19283 465.95654,263.88221 465.79337,264.51839 C 465.4277,265.94413 301.32944,410.71958 300.07901,410.71958 C 299.58488,410.71958 299.18054,410.36156 299.18054,409.92398 L 299.18054,409.924 z"
       id="path3263" />
    <g
       id="g5235"
       transform="translate(181.19611,-339.19029)">
      <g
         id="g5229">
        <path
           sodipodi:type="star"
           style="fill:#f0f000;fill-opacity:1"
           id="path2415"
           sodipodi:sides="5"
           sodipodi:cx="378.57144"
           sodipodi:cy="515.21936"
           sodipodi:r1="199.31003"
           sodipodi:r2="66.459663"
           sodipodi:arg1="0.99472159"
           sodipodi:arg2="1.6230401"
           inkscape:flatsided="false"
           inkscape:rounded="0"
           inkscape:randomized="0"
           d="M 487.14287,682.36221 L 375.10092,581.58835 L 253.15956,670.1269 L 314.37833,532.42784 L 192.49121,443.81463 L 342.36844,459.4858 L 388.97942,316.18127 L 420.38987,463.56565 L 571.08416,463.61178 L 440.61965,539.02917 L 487.14287,682.36221 z"
           transform="translate(-9.7404419,26.90935)" />
        <path
           sodipodi:type="star"
           style="fill:#ffff07;fill-opacity:1"
           id="path2421"
           sodipodi:sides="5"
           sodipodi:cx="372.85715"
           sodipodi:cy="499.50504"
           sodipodi:r1="163.6946"
           sodipodi:r2="54.583744"
           sodipodi:arg1="0.3659207"
           sodipodi:arg2="0.99423923"
           inkscape:flatsided="false"
           inkscape:rounded="0"
           inkscape:randomized="0"
           d="M 525.7143,558.07647 L 402.61297,545.26502 L 364.38786,662.98039 L 338.53188,541.94512 L 214.76569,541.96693 L 321.88714,479.97447 L 283.62054,362.27257 L 375.68122,444.9944 L 475.79734,372.22882 L 425.57253,485.34617 L 525.7143,558.07647 z"
           transform="translate(1.8072467,13.554609)" />
      </g>
      <path
         transform="matrix(1.1813333,0,0,1.1755949,-240.74475,307.33661)"
         d="M 603.25048,186.15637 A 84.521355,87.283493 0 1 1 434.20777,186.15637 A 84.521355,87.283493 0 1 1 603.25048,186.15637 z"
         sodipodi:ry="87.283493"
         sodipodi:rx="84.521355"
         sodipodi:cy="186.15637"
         sodipodi:cx="518.72913"
         id="path5233"
         style="opacity:1;fill:#ffff00;fill-opacity:1;fill-rule:evenodd;stroke:#ffff00;stroke-width:7.77600002;stroke-miterlimit:4;stroke-dasharray:none;stroke-opacity:1"
         sodipodi:type="arc" />
    </g>
    <g
       id="g6183">
      <path
         d="M 389.65831,366.85594 C 392.65426,367.23006 395.49092,366.56225 398.39778,365.96305 C 401.8035,365.01429 405.16149,363.8636 408.33674,362.30134 C 411.4712,360.9755 414.76586,360.23615 417.90314,358.88925 C 421.86217,357.20467 425.5193,354.92754 429.36298,353.01129 C 432.32722,351.42756 435.39777,349.95935 438.61131,348.95486 C 441.5405,347.75345 444.63999,347.43712 447.76652,347.25933 C 451.80522,347.02652 455.84037,347.82074 459.74573,348.78321 C 463.93463,349.94292 467.92721,351.61634 471.86845,353.4262 C 476.20568,355.55957 480.54919,357.66221 485.08475,359.34303 C 490.16771,361.21454 494.80591,363.98839 499.71149,366.25997 C 504.69674,368.66207 509.7358,370.89108 515.00857,372.58082 C 518.79791,373.68868 522.75213,373.85831 526.67154,373.96797 C 530.15083,374.16274 533.56939,373.81811 536.83475,372.58838 C 537.37132,372.34736 537.9182,372.12813 538.44444,371.86537 C 547.34206,367.42222 520.00432,382.79083 528.65393,377.42298 C 529.23456,377.06266 529.8021,376.68075 530.39248,376.33662 C 535.7747,373.19923 541.17803,370.09818 546.5708,366.97896 C 542.4602,369.3154 538.39071,371.72569 534.23899,373.98828 C 533.42509,374.43184 535.77859,372.95558 536.54923,372.44048 C 537.30163,371.93758 540.59406,369.72718 541.37333,369.27453 C 556.72798,360.35528 553.21023,362.24157 561.63602,357.8427 C 568.08766,354.87386 574.5364,351.84815 581.36009,349.83546 C 586.46459,348.06873 591.82359,347.60963 597.17524,347.32366 C 604.10194,347.16365 611.0445,347.13223 617.96837,347.40742 C 625.20857,348.13244 632.20348,350.02853 638.83763,352.974 C 644.16123,355.21564 648.88119,358.68752 653.75019,361.76462 C 657.39775,364.11363 660.96012,366.62664 664.84824,368.5686 C 667.69306,370.1288 670.59429,371.55621 673.59842,372.78302 C 676.01969,373.98737 678.59019,374.89128 681.20977,375.55348 C 683.94129,376.15036 686.74928,376.21113 689.53354,376.25816 C 692.5992,376.65204 695.41757,375.53641 698.3563,374.90653 C 701.46156,374.02159 704.54152,372.93852 707.35527,371.34097 C 709.56677,370.07136 711.99716,369.30601 714.31897,368.29424 C 716.76008,367.71539 718.87999,366.39243 721.2114,365.52819 C 723.15051,364.66524 725.04224,363.71444 727.06006,363.04491 L 713.5587,373.60964 C 711.60762,374.42051 709.70045,375.33324 707.74351,376.13154 C 705.47186,377.14183 703.19641,378.09784 700.84345,378.90674 C 698.51088,379.79816 696.25515,380.86814 694.03354,382.00754 C 691.05428,383.33792 688.01639,384.52289 684.81765,385.21873 C 681.78913,385.96372 678.80499,386.60673 675.65846,386.27665 C 672.7908,386.15621 669.8959,385.99401 667.11543,385.22607 C 664.459,384.43682 661.84564,383.51434 659.36666,382.26354 C 656.4025,380.92112 653.5244,379.42683 650.67462,377.85686 C 646.85019,375.76737 643.31203,373.2394 639.71359,370.79043 C 634.92947,367.69883 630.25651,364.34876 624.9421,362.20223 C 618.51491,359.30125 611.75121,357.35275 604.66458,356.99654 C 597.68235,356.74598 590.69497,356.90738 583.71684,357.22905 C 578.4418,357.59866 573.20789,358.30013 568.17979,360.02361 C 561.4883,362.15367 555.06507,365.04221 548.78346,368.16788 C 542.85166,371.31781 541.15165,372.2763 556.89873,363.23457 C 557.73095,362.75671 555.27096,364.25166 554.46528,364.77301 C 553.6702,365.2875 552.8816,365.81207 552.09666,366.34192 C 543.40006,372.21226 559.22494,362.33411 533.40883,377.62538 C 537.65917,375.15743 541.89723,372.66817 546.15987,370.22152 C 547.28771,369.57417 543.99019,371.65819 542.86699,372.31356 C 536.54485,376.00248 530.36664,380.48811 523.38724,383.00319 C 519.9537,383.89726 516.44519,384.14492 512.90363,383.89038 C 508.90002,383.69524 504.86666,383.33266 501.04609,382.03778 C 495.86403,380.14934 490.93608,377.75216 485.9678,375.36675 C 481.03377,373.11063 476.16289,370.7074 471.10685,368.72992 C 466.60528,366.913 462.24993,364.78088 457.84984,362.73546 C 453.95055,361.03222 449.98873,359.45754 445.85915,358.3962 C 442.00435,357.55826 438.06672,356.94187 434.11296,357.35002 C 431.02046,357.67906 428.0045,358.29076 425.11008,359.46761 C 422.05241,360.63155 419.07675,362.00263 416.1986,363.55932 C 412.35628,365.56673 408.60657,367.77145 404.57202,369.38691 C 401.40529,370.6135 398.07137,371.36018 395.01863,372.87844 C 391.7431,374.26553 388.37755,375.43942 384.89628,376.1985 C 381.83216,376.83116 378.78953,377.11408 375.65792,377.02781 L 389.65831,366.85594 z"
         id="path5582"
         style="fill:#0000b0;fill-opacity:1;fill-rule:nonzero;stroke:none;stroke-width:0.68099999;stroke-miterlimit:4;stroke-dasharray:none;stroke-opacity:1" />
      <path
         style="fill:#0000b0;fill-opacity:1;fill-rule:nonzero;stroke:none;stroke-width:0.68099999;stroke-miterlimit:4;stroke-dasharray:none;stroke-opacity:1"
         id="path5592"
         d="M 351.73671,419.4821 C 354.73266,419.85623 357.56932,419.18841 360.47618,418.58921 C 363.8819,417.64045 367.2399,416.48976 370.41514,414.92751 C 373.5496,413.60167 376.84426,412.86232 379.98154,411.51541 C 383.94057,409.83083 387.5977,407.5537 391.44138,405.63746 C 394.40562,404.05373 397.47617,402.58551 400.68971,401.58102 C 403.6189,400.37961 406.71839,400.06329 409.84492,399.88549 C 413.88362,399.65268 417.91877,400.4469 421.82413,401.40937 C 426.01303,402.56909 430.00561,404.2425 433.94685,406.05236 C 438.28409,408.18574 442.6276,410.28837 447.16315,411.96919 C 452.24611,413.8407 456.88431,416.61455 461.78989,418.88614 C 466.77514,421.28824 471.8142,423.51724 477.08697,425.20699 C 480.87631,426.31484 484.83053,426.48448 488.74994,426.59413 C 492.22923,426.78891 495.64779,426.44427 498.91315,425.21454 C 499.44972,424.97353 499.9966,424.7543 500.52284,424.49153 C 509.42046,420.04839 482.08272,435.41699 490.73233,430.04915 C 491.31296,429.68882 491.8805,429.30692 492.47088,428.96279 C 497.8531,425.82539 503.25643,422.72435 508.6492,419.60513 C 504.5386,421.94157 500.46912,424.35185 496.31739,426.61445 C 495.50349,427.058 497.85699,425.58175 498.62763,425.06664 C 499.38003,424.56374 502.67246,422.35335 503.45173,421.90069 C 518.80638,412.98145 515.28863,414.86773 523.71442,410.46887 C 530.16606,407.50003 536.6148,404.47431 543.43849,402.46162 C 548.54299,400.6949 553.90199,400.2358 559.25364,399.94982 C 566.18034,399.78981 573.1229,399.7584 580.04677,400.03359 C 587.28697,400.75861 594.28188,402.6547 600.91604,405.60016 C 606.23963,407.84181 610.95959,411.31369 615.82859,414.39079 C 619.47615,416.7398 623.03852,419.25281 626.92664,421.19476 C 629.77146,422.75496 632.6727,424.18238 635.67682,425.40918 C 638.09809,426.61353 640.6686,427.51744 643.28817,428.17965 C 646.01969,428.77653 648.82768,428.8373 651.61194,428.88432 C 654.6776,429.2782 657.49597,428.16257 660.4347,427.53269 C 663.53996,426.64776 666.61992,425.56469 669.43367,423.96714 C 671.64517,422.69753 674.07556,421.93217 676.39737,420.92041 C 678.83848,420.34155 680.95839,419.01859 683.2898,418.15435 C 685.22891,417.2914 687.12064,416.34061 689.13846,415.67108 L 675.6371,426.2358 C 673.68603,427.04668 671.77885,427.95941 669.82191,428.7577 C 667.55026,429.76799 665.27482,430.72401 662.92185,431.53291 C 660.58928,432.42433 658.33355,433.49431 656.11194,434.63371 C 653.13268,435.96409 650.09479,437.14905 646.89605,437.8449 C 643.86753,438.58989 640.88339,439.23289 637.73686,438.90282 C 634.8692,438.78238 631.9743,438.62017 629.19383,437.85224 C 626.5374,437.06298 623.92404,436.14051 621.44506,434.88971 C 618.4809,433.54728 615.60281,432.053 612.75302,430.48303 C 608.92859,428.39353 605.39043,425.86557 601.79199,423.4166 C 597.00787,420.325 592.33491,416.97493 587.0205,414.82839 C 580.59331,411.92742 573.82961,409.97891 566.74298,409.6227 C 559.76075,409.37214 552.77337,409.53354 545.79525,409.85522 C 540.5202,410.22483 535.28629,410.92629 530.25819,412.64977 C 523.5667,414.77983 517.14347,417.66837 510.86187,420.79405 C 504.93006,423.94398 503.23005,424.90246 518.97713,415.86074 C 519.80935,415.38288 517.34936,416.87783 516.54368,417.39918 C 515.7486,417.91367 514.96,418.43824 514.17506,418.96809 C 505.47846,424.83842 521.30334,414.96028 495.48723,430.25154 C 499.73758,427.78359 503.97563,425.29433 508.23827,422.84768 C 509.36611,422.20033 506.06859,424.28435 504.94539,424.93973 C 498.62325,428.62865 492.44504,433.11427 485.46564,435.62935 C 482.0321,436.52342 478.52359,436.77109 474.98203,436.51654 C 470.97842,436.32141 466.94506,435.95882 463.12449,434.66394 C 457.94243,432.7755 453.01448,430.37832 448.0462,427.99292 C 443.11217,425.73679 438.2413,423.33357 433.18525,421.35608 C 428.68368,419.53916 424.32833,417.40704 419.92824,415.36163 C 416.02895,413.65838 412.06713,412.0837 407.93755,411.02237 C 404.08275,410.18442 400.14512,409.56803 396.19136,409.97618 C 393.09886,410.30523 390.0829,410.91693 387.18848,412.09377 C 384.13081,413.25772 381.15515,414.6288 378.277,416.18548 C 374.43468,418.19289 370.68497,420.39762 366.65042,422.01307 C 363.48369,423.23967 360.14977,423.98634 357.09703,425.5046 C 353.8215,426.8917 350.45595,428.06558 346.97469,428.82466 C 343.91056,429.45732 340.86793,429.74024 337.73632,429.65398 L 351.73671,419.4821 z" />
    </g>
    <path
       sodipodi:type="arc"
       style="fill:#ffff07;fill-opacity:0"
       id="path2411"
       sodipodi:cx="375"
       sodipodi:cy="505.93362"
       sodipodi:rx="95"
       sodipodi:ry="95"
       d="M 470,505.93362 A 95,95 0 1 1 280,505.93362 A 95,95 0 1 1 470,505.93362 z"
       transform="translate(178.24335,-318.94282)" />
    <g
       id="g6879"
       transform="translate(1.3707316,-2.1662078)">
      <path
         sodipodi:nodetypes="cssss"
         id="path1326"
         d="M 492.10657,189.15701 C 505.68168,162.19797 514.31844,152.44683 521.584,152.44683 C 528.84955,152.44683 536.68871,159.32999 551.79342,189.15701 C 566.89813,218.98404 574.16369,225.86719 581.81164,225.86719 C 589.4596,225.86719 598.06355,217.26325 611.63867,189.15701"
         style="fill:#ffff07;fill-opacity:0;fill-rule:evenodd;stroke:#000000;stroke-width:8.37199974;stroke-linecap:butt;stroke-linejoin:miter;stroke-miterlimit:4;stroke-dasharray:none;stroke-opacity:1" />
      <path
         transform="matrix(0.1167872,-0.2976561,0.3041065,0.119318,280.13548,241.66636)"
         d="M 712.5,715.64343 A 249.21875,242.96875 0 1 1 214.0625,715.64343 A 249.21875,242.96875 0 1 1 712.5,715.64343 z"
         sodipodi:ry="242.96875"
         sodipodi:rx="249.21875"
         sodipodi:cy="715.64343"
         sodipodi:cx="463.28125"
         id="path3533"
         style="fill:#ffff07;fill-opacity:0;fill-rule:evenodd;stroke:#010101;stroke-width:24.05989838;stroke-miterlimit:4;stroke-dasharray:none;stroke-opacity:1"
         sodipodi:type="arc" />
    </g>
  </g>
</svg>
