<?xml version="1.0" encoding="UTF-8" standalone="no"?>
<!-- Created with Inkscape (http://www.inkscape.org/) -->
<svg
   xmlns:dc="http://purl.org/dc/elements/1.1/"
   xmlns:cc="http://creativecommons.org/ns#"
   xmlns:rdf="http://www.w3.org/1999/02/22-rdf-syntax-ns#"
   xmlns:svg="http://www.w3.org/2000/svg"
   xmlns="http://www.w3.org/2000/svg"
   xmlns:sodipodi="http://sodipodi.sourceforge.net/DTD/sodipodi-0.dtd"
   xmlns:inkscape="http://www.inkscape.org/namespaces/inkscape"
   version="1.0"
   width="344.12"
   height="344.51999"
   id="svg2"
   sodipodi:version="0.32"
   inkscape:version="0.46"
   sodipodi:docname="Zeichen_136.svg"
   inkscape:output_extension="org.inkscape.output.svg.inkscape">
  <metadata
     id="metadata12">
    <rdf:RDF>
      <cc:Work
         rdf:about="">
        <dc:format>image/svg+xml</dc:format>
        <dc:type
           rdf:resource="http://purl.org/dc/dcmitype/StillImage" />
        <cc:license
           rdf:resource="http://creativecommons.org/licenses/publicdomain/" />
      </cc:Work>
      <cc:License
         rdf:about="http://creativecommons.org/licenses/publicdomain/">
        <cc:permits
           rdf:resource="http://creativecommons.org/ns#Reproduction" />
        <cc:permits
           rdf:resource="http://creativecommons.org/ns#Distribution" />
        <cc:permits
           rdf:resource="http://creativecommons.org/ns#DerivativeWorks" />
      </cc:License>
    </rdf:RDF>
  </metadata>
  <sodipodi:namedview
     inkscape:window-height="667"
     inkscape:window-width="788"
     inkscape:pageshadow="2"
     inkscape:pageopacity="0.0"
     guidetolerance="10.0"
     gridtolerance="10.0"
     objecttolerance="10.0"
     borderopacity="1.0"
     bordercolor="#666666"
     pagecolor="#ffffff"
     id="base"
     showgrid="false"
     inkscape:zoom="0.6879914"
     inkscape:cx="446.12873"
     inkscape:cy="335.76001"
     inkscape:window-x="22"
     inkscape:window-y="29"
     inkscape:current-layer="svg2" />
  <defs
     id="defs11">
    <inkscape:perspective
       sodipodi:type="inkscape:persp3d"
       inkscape:vp_x="0 : 335.76001 : 1"
       inkscape:vp_y="0 : 1000 : 0"
       inkscape:vp_z="753.12 : 335.76001 : 1"
       inkscape:persp3d-origin="376.56 : 223.84001 : 1"
       id="perspective14" />
  </defs>
  <path
     d="M 245.65209,60.332071 C 245.65209,75.128401 233.65729,87.123201 218.86097,87.123201 C 204.06463,87.123201 192.06984,75.128401 192.06984,60.332071 C 192.06984,45.535731 204.06463,33.540951 218.86097,33.540951 C 233.65729,33.540951 245.65209,45.535731 245.65209,60.332071 z"
     style="opacity:1;fill:#000000;fill-opacity:1;fill-rule:nonzero;stroke:none;stroke-width:7;stroke-linecap:round;stroke-linejoin:round;stroke-miterlimit:4;stroke-dasharray:none;stroke-dashoffset:0;stroke-opacity:1"
     id="path5681" />
  <path
     d="M 68.975261,308.74492 L 63.803131,190.93524 L 31.046291,217.37059 C 23.884731,216.80296 16.315191,216.79631 12.433001,211.71955 L 63.611571,161.72228 C 75.230771,164.97526 86.217821,164.01388 96.559961,158.75309 L 133.33957,166.22395 L 151.15469,203.00355 C 145.64055,204.04919 142.70897,209.19653 130.46616,199.55546 L 121.27126,181.16566 L 106.32955,180.59098 L 119.54722,233.46166 L 154.0281,237.48443 C 163.2029,238.60527 163.77393,246.81158 166.09641,253.57551 L 110.35232,254.15019 L 100.58273,240.35784 L 84.491651,244.95529 L 85.066341,297.82598 C 80.252101,305.31177 74.622101,307.08733 68.975261,308.74492 z"
     style="fill:#000000;fill-opacity:1;fill-rule:evenodd;stroke:none;stroke-width:1px;stroke-linecap:butt;stroke-linejoin:miter;stroke-opacity:1"
     id="path5675" />
  <path
     d="M 120.18778,142.59355 C 127.41198,140.33599 200.55697,95.184761 200.55697,95.184761 C 217.6312,104.73573 232.01184,97.740351 246.15971,89.315101 L 291.76246,103.76349 L 315.69261,150.72077 C 306.30322,155.68355 297.11453,154.4248 288.15036,146.20565 L 275.95953,121.82398 L 250.67484,113.24525 L 256.99601,171.94185 L 277.31406,221.15669 L 322.91681,241.02323 C 334.25237,253.76154 330.01133,260.10757 328.78647,268.56549 L 261.51113,241.47475 C 257.98664,240.81658 256.68823,236.81928 254.73845,233.79904 L 233.51737,184.13268 L 210.94175,294.30169 L 185.65706,307.84706 L 207.32965,182.32663 L 201.45999,122.72701 L 145.02096,153.88136 C 130.45014,156.13824 125.18697,149.49214 120.18778,142.59355 z"
     style="fill:#000000;fill-opacity:1;fill-rule:evenodd;stroke:none;stroke-width:1px;stroke-linecap:butt;stroke-linejoin:miter;stroke-opacity:1"
     id="path5677" />
  <path
     d="M 100.85158,130.49687 C 100.85158,143.53168 90.284781,154.09848 77.249981,154.09848 C 64.215171,154.09848 53.648371,143.53168 53.648371,130.49687 C 53.648371,117.46206 64.215171,106.89527 77.249981,106.89527 C 90.284781,106.89527 100.85158,117.46206 100.85158,130.49687 z"
     style="opacity:1;fill:#000000;fill-opacity:1;fill-rule:nonzero;stroke:none;stroke-width:7;stroke-linecap:round;stroke-linejoin:round;stroke-miterlimit:4;stroke-dasharray:none;stroke-dashoffset:0;stroke-opacity:1"
     id="path5679" />
</svg>
