<?xml version="1.0" encoding="UTF-8" standalone="no"?>
<!-- Created with Inkscape (http://www.inkscape.org/) -->
<svg
   xmlns:dc="http://purl.org/dc/elements/1.1/"
   xmlns:cc="http://creativecommons.org/ns#"
   xmlns:rdf="http://www.w3.org/1999/02/22-rdf-syntax-ns#"
   xmlns:svg="http://www.w3.org/2000/svg"
   xmlns="http://www.w3.org/2000/svg"
   xmlns:sodipodi="http://sodipodi.sourceforge.net/DTD/sodipodi-0.dtd"
   xmlns:inkscape="http://www.inkscape.org/namespaces/inkscape"
   width="20"
   height="20"
   id="svg2"
   sodipodi:version="0.32"
   inkscape:version="0.46"
   version="1.0"
   sodipodi:docname="2020_st_amenity_restaurant.svg"
   inkscape:output_extension="org.inkscape.output.svg.inkscape">
  <metadata
     id="metadata10">
    <rdf:RDF>
      <cc:Work
         rdf:about="">
        <dc:format>image/svg+xml</dc:format>
        <dc:type
           rdf:resource="http://purl.org/dc/dcmitype/StillImage" />
        <cc:license
           rdf:resource="http://web.resource.org/cc/PublicDomain" />
      </cc:Work>
      <cc:License
         rdf:about="http://web.resource.org/cc/PublicDomain">
        <cc:permits
           rdf:resource="http://web.resource.org/cc/Reproduction" />
        <cc:permits
           rdf:resource="http://web.resource.org/cc/Distribution" />
        <cc:permits
           rdf:resource="http://web.resource.org/cc/DerivativeWorks" />
      </cc:License>
    </rdf:RDF>
  </metadata>
  <sodipodi:namedview
     inkscape:window-height="844"
     inkscape:window-width="1440"
     inkscape:pageshadow="2"
     inkscape:pageopacity="0.0"
     guidetolerance="10.0"
     gridtolerance="20"
     objecttolerance="10.0"
     borderopacity="1.0"
     bordercolor="#666666"
     pagecolor="#ffffff"
     id="base"
     showgrid="true"
     inkscape:zoom="23.1"
     inkscape:cx="3.961039"
     inkscape:cy="10"
     inkscape:window-x="0"
     inkscape:window-y="22"
     inkscape:current-layer="svg2">
    <inkscape:grid
       type="xygrid"
       id="grid2383"
       visible="true"
       enabled="true" />
  </sodipodi:namedview>
  <defs
     id="defs4">
    <inkscape:perspective
       sodipodi:type="inkscape:persp3d"
       inkscape:vp_x="0 : 526.18109 : 1"
       inkscape:vp_y="0 : 1000 : 0"
       inkscape:vp_z="744.09448 : 526.18109 : 1"
       inkscape:persp3d-origin="372.04724 : 350.78739 : 1"
       id="perspective10" />
    <inkscape:perspective
       id="perspective2461"
       inkscape:persp3d-origin="10 : 6.6666667 : 1"
       inkscape:vp_z="20 : 10 : 1"
       inkscape:vp_y="0 : 1000 : 0"
       inkscape:vp_x="0 : 10 : 1"
       sodipodi:type="inkscape:persp3d" />
    <inkscape:perspective
       id="perspective2466"
       inkscape:persp3d-origin="400 : 200 : 1"
       inkscape:vp_z="800 : 300 : 1"
       inkscape:vp_y="0 : 1000 : 0"
       inkscape:vp_x="0 : 300 : 1"
       sodipodi:type="inkscape:persp3d" />
  </defs>
  <rect
     style="fill:#cccc66;fill-opacity:1;stroke:none;stroke-opacity:1"
     id="background"
     width="20"
     height="20"
     x="0"
     y="0"
     ry="3" />
  <path
     id="path2453"
     d="M 12.513304,4.686131 C 11.806334,5.3934543 11.099363,6.1004248 11.806334,6.8073953 C 11.113122,7.5009602 6.0602582,12.55347 4.0278942,14.585834 C 3.3209242,15.293158 2.6139532,16.000128 3.3212772,16.707099 C 4.0286002,17.414069 4.7348652,16.707451 5.4421882,16.000128 C 6.8564822,14.585834 11.806334,9.6363363 13.220275,8.2216892 C 13.927598,8.9290125 14.626808,8.2146336 15.334131,7.507663 L 17.882611,4.9665909 L 17.882964,4.9662381 C 18.039246,4.8096039 18.038893,4.5556025 17.882611,4.3993211 C 17.72633,4.2433925 17.472329,4.2426869 17.316047,4.3993211 L 17.315695,4.3993211 L 15.054377,6.6609918 C 14.898095,6.8172732 14.643741,6.8172732 14.48746,6.6609918 C 14.331178,6.5047104 14.331178,6.2503562 14.48746,6.0940748 L 16.748778,3.8324041 L 16.748778,3.8324041 C 16.905412,3.6757699 16.905059,3.4217686 16.748778,3.2654871 C 16.592496,3.1092057 16.338495,3.108853 16.181861,3.2651344 L 16.181861,3.2654871 L 13.920543,5.5271578 C 13.763908,5.6834392 13.509907,5.6830864 13.353626,5.526805 C 13.197344,5.3705236 13.197344,5.1165222 13.353626,4.959888 L 15.614944,2.6985702 L 15.614944,2.6982174 C 15.771225,2.541936 15.771225,2.2875818 15.614944,2.1313004 C 15.458662,1.975019 15.204308,1.975019 15.048027,2.1313004 L 15.048027,2.1313004 L 12.513304,4.686131 z" />
  <path
     id="path2455"
     d="M 4.6864193,7.5144301 C 5.3933903,8.2217534 6.1007133,8.9287239 6.8076843,8.2217534 C 7.5008963,8.9153182 12.553407,13.967475 14.586123,16.000192 C 15.293094,16.707163 16.000064,17.414133 16.707035,16.707163 C 17.414005,15.999486 16.70774,15.293222 16.000064,14.585898 C 14.586123,13.171604 9.6362713,8.2217534 8.2219783,6.8074595 C 8.9293013,6.100489 8.2145693,5.4005741 7.5075993,4.6936036 C 7.5075993,4.6936036 4.6758363,1.8685437 3.2650703,3.2793098 C 1.8543043,4.6900758 4.6864193,7.5144301 4.6864193,7.5144301 z" />
</svg>