<?xml version="1.0" encoding="UTF-8" standalone="no"?>
<!-- Created with Inkscape (http://www.inkscape.org/) -->
<svg
   xmlns:dc="http://purl.org/dc/elements/1.1/"
   xmlns:cc="http://creativecommons.org/ns#"
   xmlns:rdf="http://www.w3.org/1999/02/22-rdf-syntax-ns#"
   xmlns:svg="http://www.w3.org/2000/svg"
   xmlns="http://www.w3.org/2000/svg"
   xmlns:sodipodi="http://sodipodi.sourceforge.net/DTD/sodipodi-0.dtd"
   xmlns:inkscape="http://www.inkscape.org/namespaces/inkscape"
   width="20"
   height="20"
   id="svg2"
   sodipodi:version="0.32"
   inkscape:version="0.46"
   version="1.0"
   sodipodi:docname="2020_st_placeofworship_pastafarian2.svg"
   inkscape:output_extension="org.inkscape.output.svg.inkscape">
  <metadata
     id="metadata10">
    <rdf:RDF>
      <cc:Work
         rdf:about="">
        <dc:format>image/svg+xml</dc:format>
        <dc:type
           rdf:resource="http://purl.org/dc/dcmitype/StillImage" />
        <cc:license
           rdf:resource="http://web.resource.org/cc/PublicDomain" />
      </cc:Work>
      <cc:License
         rdf:about="http://web.resource.org/cc/PublicDomain">
        <cc:permits
           rdf:resource="http://web.resource.org/cc/Reproduction" />
        <cc:permits
           rdf:resource="http://web.resource.org/cc/Distribution" />
        <cc:permits
           rdf:resource="http://web.resource.org/cc/DerivativeWorks" />
      </cc:License>
    </rdf:RDF>
  </metadata>
  <sodipodi:namedview
     inkscape:window-height="844"
     inkscape:window-width="1440"
     inkscape:pageshadow="2"
     inkscape:pageopacity="0.0"
     guidetolerance="10.0"
     gridtolerance="10.0"
     objecttolerance="10.0"
     borderopacity="1.0"
     bordercolor="#666666"
     pagecolor="#ffffff"
     id="base"
     showgrid="true"
     inkscape:zoom="23.1"
     inkscape:cx="9.0390717"
     inkscape:cy="10"
     inkscape:window-x="0"
     inkscape:window-y="22"
     inkscape:current-layer="svg2">
    <inkscape:grid
       type="xygrid"
       id="grid2383"
       visible="true"
       enabled="true" />
  </sodipodi:namedview>
  <defs
     id="defs4">
    <inkscape:perspective
       sodipodi:type="inkscape:persp3d"
       inkscape:vp_x="0 : 526.18109 : 1"
       inkscape:vp_y="0 : 1000 : 0"
       inkscape:vp_z="744.09448 : 526.18109 : 1"
       inkscape:persp3d-origin="372.04724 : 350.78739 : 1"
       id="perspective10" />
    <inkscape:perspective
       id="perspective2461"
       inkscape:persp3d-origin="10 : 6.6666667 : 1"
       inkscape:vp_z="20 : 10 : 1"
       inkscape:vp_y="0 : 1000 : 0"
       inkscape:vp_x="0 : 10 : 1"
       sodipodi:type="inkscape:persp3d" />
    <inkscape:perspective
       id="perspective2466"
       inkscape:persp3d-origin="400 : 200 : 1"
       inkscape:vp_z="800 : 300 : 1"
       inkscape:vp_y="0 : 1000 : 0"
       inkscape:vp_x="0 : 300 : 1"
       sodipodi:type="inkscape:persp3d" />
    <inkscape:perspective
       id="perspective2389"
       inkscape:persp3d-origin="372.04724 : 350.78739 : 1"
       inkscape:vp_z="744.09448 : 526.18109 : 1"
       inkscape:vp_y="0 : 1000 : 0"
       inkscape:vp_x="0 : 526.18109 : 1"
       sodipodi:type="inkscape:persp3d" />
    <inkscape:perspective
       id="perspective2966"
       inkscape:persp3d-origin="9.0185003 : 4.0076666 : 1"
       inkscape:vp_z="18.037001 : 6.0114999 : 1"
       inkscape:vp_y="0 : 1000 : 0"
       inkscape:vp_x="0 : 6.0114999 : 1"
       sodipodi:type="inkscape:persp3d" />
  </defs>
  <path
     style="fill:#000000;fill-opacity:1;fill-rule:evenodd;stroke:none;stroke-width:1px;stroke-linecap:butt;stroke-linejoin:miter;stroke-opacity:1"
     d="M 0,2 L 2,0 L 4,2 L 4,5 L 10,0 L 20,8 L 20,20 L 0,20 L 0,2 z"
     id="path2389"
     sodipodi:nodetypes="ccccccccc" />
  <g
     id="g2953"
     transform="matrix(0.9980325,0,0,0.9980325,1.000559,5.9986525)"
     style="fill:#ffffff">
    <path
       id="path2955"
       d="M 6.285,0.015 C 7.148,-0.095 7.654,0.432 7.842,0.773 C 8.203,1.436 7.951,2.17 7.621,2.529 C 6.762,3.466 4.999,2.956 4.988,1.511 C 4.982,0.84 5.316,0.451 5.686,0.214 C 5.836,0.119 6.031,0.046 6.285,0.015 z M 6.305,1.97 C 7.102,2.285 7.263,0.873 6.425,1.012 C 5.912,1.097 5.855,1.792 6.305,1.97 z"
       clip-rule="evenodd"
       style="fill:#ffffff;fill-rule:evenodd" />
    <path
       id="path2957"
       d="M 11.313,0.015 C 12.054,-0.079 12.627,0.32 12.869,0.773 C 13.207,1.407 13.013,2.113 12.67,2.509 C 11.822,3.491 10.035,2.92 10.016,1.512 C 10.011,1.127 10.179,0.776 10.276,0.634 C 10.461,0.36 10.832,0.076 11.313,0.015 z M 11.333,1.97 C 11.666,2.1 12.095,1.879 12.031,1.411 C 11.996,1.142 11.754,0.962 11.453,1.011 C 10.968,1.092 10.867,1.788 11.333,1.97 z"
       clip-rule="evenodd"
       style="fill:#ffffff;fill-rule:evenodd" />
    <path
       id="path2959"
       d="M 16.063,5.063 C 15.639,5.292 15.338,5.727 14.985,6.081 C 14.63,6.437 14.235,6.748 13.848,7.06 C 14.42,7.321 14.881,7.56 15.024,8.197 C 15.062,8.364 15.016,8.599 15.085,8.796 C 15.194,9.106 15.712,9.125 16.144,9.095 C 16.326,9.083 16.509,9.01 16.662,9.035 C 17.084,9.103 17.214,9.779 16.803,9.993 C 16.584,10.106 16.192,10.112 15.905,10.113 C 14.911,10.116 14.192,9.699 14.069,8.836 C 14.052,8.716 14.082,8.577 14.049,8.437 C 13.975,8.119 13.482,7.964 13.091,7.938 C 12.369,7.89 12.012,8.271 11.515,8.457 C 11.708,8.719 11.939,8.993 12.014,9.435 C 12.047,9.63 12,9.871 12.074,10.073 C 12.159,10.305 12.528,10.361 12.892,10.492 C 13.178,10.596 13.495,10.746 13.69,10.911 C 13.831,11.03 14.038,11.233 14.049,11.49 C 14.066,11.857 13.758,12.085 13.391,11.989 C 13.189,11.937 13.086,11.701 12.912,11.59 C 12.718,11.467 12.395,11.407 12.094,11.291 C 11.601,11.1 11.267,10.847 11.116,10.353 C 11.033,10.079 11.083,9.677 10.957,9.415 C 10.604,8.688 9.855,9.034 9.02,9.034 C 8.811,9.034 8.615,9.019 8.42,8.994 C 8.227,8.968 8.033,8.912 7.881,8.914 C 7.51,8.917 7.061,9.24 7.003,9.612 C 6.957,9.916 6.996,10.14 6.924,10.37 C 6.776,10.838 6.445,11.085 5.926,11.287 C 5.684,11.382 5.369,11.436 5.128,11.586 C 4.914,11.719 4.815,12.105 4.35,12.005 C 4.204,11.973 4.012,11.825 3.991,11.565 C 3.953,11.095 4.477,10.801 4.789,10.648 C 5.094,10.499 5.87,10.341 5.966,10.069 C 6.048,9.842 5.987,9.594 6.027,9.391 C 6.107,8.986 6.295,8.741 6.546,8.453 C 6.032,8.283 5.686,7.897 4.968,7.936 C 4.58,7.958 4.107,8.094 4.01,8.396 C 3.93,8.646 3.967,8.888 3.891,9.114 C 3.673,9.758 3.065,10.107 2.155,10.112 C 1.721,10.114 1.11,10.07 0.997,9.732 C 0.879,9.375 1.115,9.076 1.377,9.034 C 1.529,9.009 1.695,9.081 1.875,9.094 C 2.305,9.125 2.842,9.097 2.953,8.815 C 3.056,8.552 2.965,8.269 3.053,8.037 C 3.248,7.52 3.631,7.286 4.19,7.079 C 3.809,6.74 3.41,6.438 3.053,6.08 C 2.701,5.729 2.398,5.319 1.976,5.043 C 2.141,5.778 2.932,6.283 3.033,7.078 C 3.144,7.957 2.059,8.334 1.437,7.856 C 1.153,7.639 0.979,7.185 0.658,7.078 C 0.57,7.048 0.425,7.075 0.318,7.038 C -0.127,6.883 -0.086,6.211 0.318,6.08 C 0.918,5.886 1.364,6.346 1.695,6.619 C 1.398,6.14 0.547,5.067 1.177,4.384 C 1.329,4.219 1.586,4.074 1.835,4.045 C 2.789,3.932 3.232,4.948 3.73,5.342 C 4.427,4.791 5.183,4.271 6.025,3.826 C 6.844,3.392 7.826,3.008 8.998,3.008 C 10.195,3.008 11.144,3.4 11.992,3.826 C 12.838,4.251 13.596,4.768 14.266,5.342 C 14.866,4.935 15.207,3.951 16.181,4.046 C 16.558,4.082 17.025,4.422 17.079,4.863 C 17.162,5.534 16.6,6.146 16.36,6.579 C 16.356,6.595 16.34,6.599 16.34,6.619 C 16.602,6.388 17.119,5.887 17.717,6.08 C 18.097,6.204 18.168,6.841 17.756,7.018 C 17.656,7.061 17.499,7.045 17.398,7.078 C 16.887,7.239 16.765,8.052 16.001,8.075 C 15.317,8.096 14.894,7.663 15.022,6.998 C 15.175,6.231 15.852,5.794 16.063,5.063 z"
       clip-rule="evenodd"
       style="fill:#ffffff;fill-rule:evenodd"
       sodipodi:nodetypes="cscssssssssscsssssssssssssssssssssscssssssssscscssssscsscssscsssssssssc" />
  </g>
</svg>
