<?xml version="1.0" encoding="UTF-8" standalone="no"?>
<!-- Created with Inkscape (http://www.inkscape.org/) -->
<svg
   xmlns:dc="http://purl.org/dc/elements/1.1/"
   xmlns:cc="http://creativecommons.org/ns#"
   xmlns:rdf="http://www.w3.org/1999/02/22-rdf-syntax-ns#"
   xmlns:svg="http://www.w3.org/2000/svg"
   xmlns="http://www.w3.org/2000/svg"
   xmlns:sodipodi="http://sodipodi.sourceforge.net/DTD/sodipodi-0.dtd"
   xmlns:inkscape="http://www.inkscape.org/namespaces/inkscape"
   width="20"
   height="20"
   id="svg2"
   sodipodi:version="0.32"
   inkscape:version="0.46"
   version="1.0"
   sodipodi:docname="2020_st_placeofworship_sikh.svg"
   inkscape:output_extension="org.inkscape.output.svg.inkscape">
  <metadata
     id="metadata10">
    <rdf:RDF>
      <cc:Work
         rdf:about="">
        <dc:format>image/svg+xml</dc:format>
        <dc:type
           rdf:resource="http://purl.org/dc/dcmitype/StillImage" />
        <cc:license
           rdf:resource="http://web.resource.org/cc/PublicDomain" />
      </cc:Work>
      <cc:License
         rdf:about="http://web.resource.org/cc/PublicDomain">
        <cc:permits
           rdf:resource="http://web.resource.org/cc/Reproduction" />
        <cc:permits
           rdf:resource="http://web.resource.org/cc/Distribution" />
        <cc:permits
           rdf:resource="http://web.resource.org/cc/DerivativeWorks" />
      </cc:License>
    </rdf:RDF>
  </metadata>
  <sodipodi:namedview
     inkscape:window-height="844"
     inkscape:window-width="1440"
     inkscape:pageshadow="2"
     inkscape:pageopacity="0.0"
     guidetolerance="10.0"
     gridtolerance="10.0"
     objecttolerance="10.0"
     borderopacity="1.0"
     bordercolor="#666666"
     pagecolor="#ffffff"
     id="base"
     showgrid="true"
     inkscape:object-paths="false"
     inkscape:object-nodes="false"
     inkscape:snap-nodes="true"
     inkscape:snap-global="true"
     inkscape:zoom="26.631011"
     inkscape:cx="10.301209"
     inkscape:cy="10.351093"
     inkscape:window-x="0"
     inkscape:window-y="22"
     inkscape:current-layer="svg2">
    <inkscape:grid
       type="xygrid"
       id="grid2383"
       visible="true"
       enabled="true"
       spacingx="1px"
       spacingy="1px" />
  </sodipodi:namedview>
  <defs
     id="defs4">
    <inkscape:perspective
       sodipodi:type="inkscape:persp3d"
       inkscape:vp_x="0 : 526.18109 : 1"
       inkscape:vp_y="0 : 1000 : 0"
       inkscape:vp_z="744.09448 : 526.18109 : 1"
       inkscape:persp3d-origin="372.04724 : 350.78739 : 1"
       id="perspective10" />
    <inkscape:perspective
       id="perspective2461"
       inkscape:persp3d-origin="10 : 6.6666667 : 1"
       inkscape:vp_z="20 : 10 : 1"
       inkscape:vp_y="0 : 1000 : 0"
       inkscape:vp_x="0 : 10 : 1"
       sodipodi:type="inkscape:persp3d" />
    <inkscape:perspective
       id="perspective2466"
       inkscape:persp3d-origin="400 : 200 : 1"
       inkscape:vp_z="800 : 300 : 1"
       inkscape:vp_y="0 : 1000 : 0"
       inkscape:vp_x="0 : 300 : 1"
       sodipodi:type="inkscape:persp3d" />
    <inkscape:perspective
       id="perspective2926"
       inkscape:persp3d-origin="6.1500001 : 5.2146667 : 1"
       inkscape:vp_z="12.3 : 7.822 : 1"
       inkscape:vp_y="0 : 1000 : 0"
       inkscape:vp_x="0 : 7.822 : 1"
       sodipodi:type="inkscape:persp3d" />
  </defs>
  <path
     style="fill:#000000;fill-opacity:1;fill-rule:evenodd;stroke:none;stroke-width:1px;stroke-linecap:butt;stroke-linejoin:miter;stroke-opacity:1"
     d="M 0,2 L 2,0 L 4,2 L 4,5 L 10,0 L 20,8 L 20,20 L 0,20 L 0,2 z"
     id="path2389"
     sodipodi:nodetypes="ccccccccc" />
  <g
     id="g2391">
    <path
       transform="translate(0,-1)"
       d="M 11,18 A 1,1 0 1 1 9,18 A 1,1 0 1 1 11,18 z"
       sodipodi:ry="1"
       sodipodi:rx="1"
       sodipodi:cy="18"
       sodipodi:cx="10"
       id="path2978"
       style="fill:#ffffff;fill-opacity:1;stroke:none;stroke-opacity:1"
       sodipodi:type="arc" />
    <path
       transform="matrix(0.75,0,0,0.7997692,2.5,1.6030006)"
       d="M 14,9.2489176 A 4,3.7510822 0 1 1 6,9.2489176 A 4,3.7510822 0 1 1 14,9.2489176 z"
       sodipodi:ry="3.7510822"
       sodipodi:rx="4"
       sodipodi:cy="9.2489176"
       sodipodi:cx="10"
       id="path2982"
       style="fill:#ffffff;fill-opacity:1;stroke:none;stroke-opacity:1"
       sodipodi:type="arc" />
    <path
       transform="matrix(0.6666666,0,0,0.6666668,3.333334,2.9999984)"
       d="M 13,9 A 3,3 0 1 1 7,9 A 3,3 0 1 1 13,9 z"
       sodipodi:ry="3"
       sodipodi:rx="3"
       sodipodi:cy="9"
       sodipodi:cx="10"
       id="path2980"
       style="fill:#000000;fill-opacity:1;stroke:none;stroke-opacity:1"
       sodipodi:type="arc" />
    <path
       sodipodi:nodetypes="cccccccccc"
       d="M 10,4 C 10,4 9,5 9,5 C 9.5,8.5 9.5,10 9,13 C 9,13 9.5,13.5 9.5,13.5 L 9.589,17 L 10.44,17 L 10.5,13.5 C 10.5,13.5 11,13 11,13 C 10.5,10 10.5,8 11,5 C 11,5 10,4 10,4 z"
       nodetypes="ccccccccccc"
       id="path1922_3_"
       style="fill:#ffffff" />
    <path
       d="M 13,15 C 13,14 16,13 16,10 C 16,7.3084098 14,5.5 12,5 C 14.5,6.5 15.0338,10 13,12 C 11.543506,13.432288 8,15.5 8,15.5 L 8.5,16 L 12,14 L 13,15 z"
       nodetypes="cscscccc"
       id="path2984"
       style="fill:#ffffff"
       sodipodi:nodetypes="cscscccc" />
    <path
       sodipodi:nodetypes="cscscccc"
       style="fill:#ffffff"
       id="path2998"
       nodetypes="cscscccc"
       d="M 7,15 C 7,14 4.009262,13 4.009262,10 C 4.009262,7.3084098 6.0030873,5.5 7.9969127,5 C 5.504631,6.5 4.972479,10 7,12 C 8.4519973,13.432288 11.984563,15.5 11.984563,15.5 L 11.486106,16 L 7.9969127,14 L 7,15 z" />
    <path
       d="M 8,16.5 A 0.5,0.5 0 1 1 7,16.5 A 0.5,0.5 0 1 1 8,16.5 z"
       sodipodi:ry="0.5"
       sodipodi:rx="0.5"
       sodipodi:cy="16.5"
       sodipodi:cx="7.5"
       id="path3808"
       style="fill:#ffffff;fill-opacity:1;stroke:none;stroke-opacity:1"
       sodipodi:type="arc" />
    <path
       d="M 13,16.5 A 0.5,0.5 0 1 1 12,16.5 A 0.5,0.5 0 1 1 13,16.5 z"
       sodipodi:ry="0.5"
       sodipodi:rx="0.5"
       sodipodi:cy="16.5"
       sodipodi:cx="12.5"
       id="path3810"
       style="fill:#ffffff;fill-opacity:1;stroke:none;stroke-opacity:1"
       sodipodi:type="arc" />
  </g>
</svg>
