<?xml version="1.0" encoding="UTF-8" standalone="no"?>
<!-- Created with Inkscape (http://www.inkscape.org/) -->
<svg
   xmlns:dc="http://purl.org/dc/elements/1.1/"
   xmlns:cc="http://creativecommons.org/ns#"
   xmlns:rdf="http://www.w3.org/1999/02/22-rdf-syntax-ns#"
   xmlns:svg="http://www.w3.org/2000/svg"
   xmlns="http://www.w3.org/2000/svg"
   xmlns:sodipodi="http://sodipodi.sourceforge.net/DTD/sodipodi-0.dtd"
   xmlns:inkscape="http://www.inkscape.org/namespaces/inkscape"
   width="20"
   height="20"
   id="svg2"
   sodipodi:version="0.32"
   inkscape:version="0.46"
   version="1.0"
   sodipodi:docname="2020_st_placeofworship_hindu.svg"
   inkscape:output_extension="org.inkscape.output.svg.inkscape">
  <metadata
     id="metadata10">
    <rdf:RDF>
      <cc:Work
         rdf:about="">
        <dc:format>image/svg+xml</dc:format>
        <dc:type
           rdf:resource="http://purl.org/dc/dcmitype/StillImage" />
        <cc:license
           rdf:resource="http://web.resource.org/cc/PublicDomain" />
      </cc:Work>
      <cc:License
         rdf:about="http://web.resource.org/cc/PublicDomain">
        <cc:permits
           rdf:resource="http://web.resource.org/cc/Reproduction" />
        <cc:permits
           rdf:resource="http://web.resource.org/cc/Distribution" />
        <cc:permits
           rdf:resource="http://web.resource.org/cc/DerivativeWorks" />
      </cc:License>
    </rdf:RDF>
  </metadata>
  <sodipodi:namedview
     inkscape:window-height="844"
     inkscape:window-width="1440"
     inkscape:pageshadow="2"
     inkscape:pageopacity="0.0"
     guidetolerance="10.0"
     gridtolerance="10.0"
     objecttolerance="10.0"
     borderopacity="1.0"
     bordercolor="#666666"
     pagecolor="#ffffff"
     id="base"
     showgrid="true"
     inkscape:zoom="21.763394"
     inkscape:cx="3.5814246"
     inkscape:cy="8.4857178"
     inkscape:window-x="-4"
     inkscape:window-y="-4"
     inkscape:current-layer="svg2">
    <inkscape:grid
       type="xygrid"
       id="grid2383"
       visible="true"
       enabled="true" />
  </sodipodi:namedview>
  <defs
     id="defs4">
    <inkscape:perspective
       sodipodi:type="inkscape:persp3d"
       inkscape:vp_x="0 : 526.18109 : 1"
       inkscape:vp_y="0 : 1000 : 0"
       inkscape:vp_z="744.09448 : 526.18109 : 1"
       inkscape:persp3d-origin="372.04724 : 350.78739 : 1"
       id="perspective10" />
    <inkscape:perspective
       id="perspective2461"
       inkscape:persp3d-origin="10 : 6.6666667 : 1"
       inkscape:vp_z="20 : 10 : 1"
       inkscape:vp_y="0 : 1000 : 0"
       inkscape:vp_x="0 : 10 : 1"
       sodipodi:type="inkscape:persp3d" />
    <inkscape:perspective
       id="perspective2466"
       inkscape:persp3d-origin="400 : 200 : 1"
       inkscape:vp_z="800 : 300 : 1"
       inkscape:vp_y="0 : 1000 : 0"
       inkscape:vp_x="0 : 300 : 1"
       sodipodi:type="inkscape:persp3d" />
    <inkscape:perspective
       id="perspective2953"
       inkscape:persp3d-origin="72.258003 : 51.075333 : 1"
       inkscape:vp_z="144.51601 : 76.612999 : 1"
       inkscape:vp_y="0 : 1000 : 0"
       inkscape:vp_x="0 : 76.612999 : 1"
       sodipodi:type="inkscape:persp3d" />
  </defs>
  <path
     style="fill:#000000;fill-opacity:1;fill-rule:evenodd;stroke:none;stroke-width:1px;stroke-linecap:butt;stroke-linejoin:miter;stroke-opacity:1"
     d="M 0,2 L 2,0 L 4,2 L 4,5 L 10,0 L 20,8 L 20,20 L 0,20 L 0,2 z"
     id="path2389"
     sodipodi:nodetypes="ccccccccc" />
  <g
     id="g2956"
     transform="matrix(8.6805556e-2,0,0,8.6805556e-2,3.4420036,4.1594607)"
     style="fill:#ffffff">
    <path
       id="path2940"
       d="M 74.517,17.707 C 75.538,19.737 78.733,26.152 81.477,26.107 C 83.009,26.082 85.126,23.736 86.757,22.987 C 89.043,21.937 91.087,21.91 92.517,20.347 C 93.476,16.871 91.683,12.087 89.877,8.347 C 88.16,4.788 84.825,-1.127 81.717,0.187 C 78.708,1.458 73.622,2.798 71.397,5.707 C 71.219,10.028 72.695,14.082 74.517,17.707 z M 46.677,11.947 C 46.173,17.586 49.665,26.586 53.157,30.187 C 57.691,34.863 67.54,39.617 74.757,42.907 C 83.031,46.679 91.533,50.637 102.117,49.867 C 107.469,49.478 114.437,46.779 115.317,42.428 C 116.194,38.09 113.474,33.938 111.957,31.148 C 110.057,27.654 108.566,24.491 105.477,22.749 C 103.254,23.923 102.041,25.717 99.717,26.829 C 96.332,28.447 91.478,28.794 87.957,28.509 C 77.006,27.622 64.796,21.639 56.517,16.749 C 53.487,14.958 49.49,11.484 47.157,11.228 C 46.82,11.29 46.884,11.753 46.677,11.947 z M 59.157,38.107 C 48.767,25.823 30.604,36.834 16.437,37.627 C 16.813,46.379 20.255,54.125 25.797,58.508 C 37.385,58.416 43.839,53.19 55.557,53.228 C 52.145,61.189 46.733,67.37 40.437,73.148 C 38.553,74.877 35.041,76.93 34.677,79.148 C 34.007,83.226 36.591,87.11 38.277,90.188 C 39.384,92.209 42.411,98.225 44.997,98.348 C 46.611,98.424 49.072,95.876 50.757,95.228 C 60.011,91.669 74.848,92.622 83.157,96.668 C 85.485,107.783 81.551,115.98 76.197,121.867 C 70.704,127.907 63.461,132.211 52.917,132.187 C 39.468,132.158 26.642,126.705 18.597,120.187 C 16.144,118.201 11.632,114.577 11.157,112.027 C 10.13,106.509 14.22,103.89 14.517,99.787 C 14.794,95.955 12.704,92.312 10.917,88.987 C 9.736,86.79 6.65,80.771 3.957,81.307 C 2.509,81.595 1.648,85.074 1.077,87.067 C -1.966,97.694 2.014,108.195 5.877,116.347 C 14.705,134.976 31.23,149.129 53.637,152.587 C 72.72,155.531 85.143,148.012 91.317,135.787 C 98.577,121.411 93.852,103.176 87.717,91.146 C 89.727,89.635 92.176,87.287 94.437,86.827 C 94.76,100.24 97.357,109.409 102.837,118.026 C 107.185,124.864 114.955,133.712 127.077,133.627 C 138.696,133.545 143.703,123.038 144.357,112.507 C 145.61,92.341 139.251,75.051 131.397,63.307 C 127.431,57.376 122.878,50.733 115.077,49.867 C 108.837,49.175 101.193,53.401 100.437,57.067 C 99.512,61.55 102.447,65.593 104.037,68.347 C 106.072,71.872 107.618,74.688 110.517,76.747 C 113.928,74.667 117.143,70.382 122.517,70.507 C 125.706,70.581 129.26,72.471 130.676,75.307 C 134.172,82.3 134.033,96.554 130.676,103.627 C 126.306,112.836 113.677,115.018 105.957,108.187 C 105.139,100.778 107.767,94.504 107.157,86.587 C 106.751,81.313 104.557,76.446 102.357,72.187 C 100.245,68.097 97.159,63.13 92.757,62.587 C 87.362,61.921 84.138,65.539 80.757,67.866 C 77.612,70.031 74.771,72.343 72.357,74.346 C 70.753,73.47 68.283,73.459 66.597,72.666 C 71.033,60.994 65.742,45.892 59.157,38.107 z"
       clip-rule="evenodd"
       style="fill:#ffffff;fill-rule:evenodd" />
    <path
       id="path2942"
       d="M 71.397,5.707 C 73.622,2.798 78.708,1.459 81.717,0.187 C 84.825,-1.126 88.16,4.789 89.877,8.347 C 91.682,12.087 93.476,16.871 92.517,20.347 C 91.087,21.91 89.043,21.937 86.757,22.987 C 85.127,23.736 83.009,26.082 81.477,26.107 C 78.732,26.152 75.538,19.737 74.517,17.707 C 72.695,14.082 71.219,10.028 71.397,5.707 z"
       clip-rule="evenodd"
       style="fill-rule:evenodd;fill:#ffffff" />
    <path
       id="path2944"
       d="M 47.157,11.227 C 49.49,11.483 53.487,14.956 56.517,16.748 C 64.796,21.638 77.007,27.621 87.957,28.508 C 91.478,28.793 96.332,28.446 99.717,26.828 C 102.041,25.716 103.254,23.922 105.477,22.748 C 108.566,24.49 110.057,27.653 111.957,31.147 C 113.474,33.937 116.194,38.089 115.317,42.427 C 114.437,46.779 107.468,49.478 102.117,49.866 C 91.533,50.637 83.031,46.678 74.757,42.906 C 67.54,39.616 57.691,34.862 53.157,30.186 C 49.665,26.584 46.173,17.584 46.677,11.946 C 46.884,11.753 46.82,11.29 47.157,11.227 z"
       clip-rule="evenodd"
       style="fill-rule:evenodd;fill:#ffffff" />
    <path
       id="path2946"
       d="M 66.597,72.667 C 68.283,73.46 70.753,73.471 72.357,74.347 C 74.771,72.343 77.612,70.032 80.757,67.867 C 84.138,65.54 87.362,61.922 92.757,62.588 C 97.159,63.131 100.245,68.098 102.357,72.188 C 104.557,76.448 106.751,81.314 107.157,86.588 C 107.767,94.505 105.139,100.778 105.957,108.188 C 113.678,115.019 126.306,112.837 130.676,103.628 C 134.033,96.555 134.172,82.301 130.676,75.308 C 129.26,72.472 125.706,70.582 122.517,70.508 C 117.143,70.383 113.928,74.668 110.517,76.748 C 107.618,74.688 106.072,71.873 104.037,68.348 C 102.447,65.594 99.512,61.551 100.437,57.068 C 101.193,53.402 108.836,49.175 115.077,49.868 C 122.878,50.734 127.431,57.378 131.397,63.308 C 139.251,75.052 145.61,92.342 144.357,112.508 C 143.703,123.039 138.696,133.546 127.077,133.628 C 114.955,133.713 107.185,124.865 102.837,118.027 C 97.358,109.41 94.76,100.241 94.437,86.828 C 92.176,87.288 89.727,89.637 87.717,91.147 C 93.852,103.176 98.577,121.412 91.317,135.788 C 85.143,148.013 72.72,155.532 53.637,152.588 C 31.229,149.13 14.705,134.977 5.877,116.348 C 2.014,108.196 -1.966,97.695 1.077,87.068 C 1.648,85.075 2.509,81.596 3.957,81.308 C 6.65,80.772 9.736,86.79 10.917,88.988 C 12.705,92.313 14.794,95.956 14.517,99.788 C 14.221,103.892 10.13,106.511 11.157,112.028 C 11.632,114.578 16.144,118.202 18.597,120.188 C 26.642,126.706 39.468,132.159 52.917,132.188 C 63.461,132.211 70.704,127.908 76.197,121.868 C 81.551,115.98 85.485,107.784 83.157,96.669 C 74.848,92.622 60.011,91.67 50.757,95.229 C 49.071,95.877 46.611,98.425 44.997,98.349 C 42.411,98.226 39.384,92.21 38.277,90.189 C 36.59,87.111 34.007,83.227 34.677,79.149 C 35.041,76.931 38.552,74.878 40.437,73.149 C 46.733,67.371 52.145,61.19 55.557,53.229 C 43.839,53.191 37.385,58.417 25.797,58.509 C 20.255,54.126 16.813,46.38 16.437,37.628 C 30.604,36.835 48.768,25.824 59.157,38.108 C 65.742,45.892 71.033,60.994 66.597,72.667 z"
       clip-rule="evenodd"
       style="fill-rule:evenodd;fill:#ffffff" />
  </g>
</svg>
