<?xml version="1.0" encoding="UTF-8" standalone="no"?>
<!-- Created with Inkscape (http://www.inkscape.org/) -->
<svg
   xmlns:dc="http://purl.org/dc/elements/1.1/"
   xmlns:cc="http://creativecommons.org/ns#"
   xmlns:rdf="http://www.w3.org/1999/02/22-rdf-syntax-ns#"
   xmlns:svg="http://www.w3.org/2000/svg"
   xmlns="http://www.w3.org/2000/svg"
   xmlns:sodipodi="http://sodipodi.sourceforge.net/DTD/sodipodi-0.dtd"
   xmlns:inkscape="http://www.inkscape.org/namespaces/inkscape"
   width="20"
   height="20"
   id="svg2"
   sodipodi:version="0.32"
   inkscape:version="0.46"
   version="1.0"
   sodipodi:docname="2020_stBN_placeofworship_zoroastrian.svg"
   inkscape:output_extension="org.inkscape.output.svg.inkscape">
  <metadata
     id="metadata10">
    <rdf:RDF>
      <cc:Work
         rdf:about="">
        <dc:format>image/svg+xml</dc:format>
        <dc:type
           rdf:resource="http://purl.org/dc/dcmitype/StillImage" />
        <cc:license
           rdf:resource="http://web.resource.org/cc/PublicDomain" />
      </cc:Work>
      <cc:License
         rdf:about="http://web.resource.org/cc/PublicDomain">
        <cc:permits
           rdf:resource="http://web.resource.org/cc/Reproduction" />
        <cc:permits
           rdf:resource="http://web.resource.org/cc/Distribution" />
        <cc:permits
           rdf:resource="http://web.resource.org/cc/DerivativeWorks" />
      </cc:License>
    </rdf:RDF>
  </metadata>
  <sodipodi:namedview
     inkscape:window-height="844"
     inkscape:window-width="1440"
     inkscape:pageshadow="2"
     inkscape:pageopacity="0.0"
     guidetolerance="10.0"
     gridtolerance="10.0"
     objecttolerance="10.0"
     borderopacity="1.0"
     bordercolor="#666666"
     pagecolor="#ffffff"
     id="base"
     showgrid="true"
     inkscape:zoom="20.894753"
     inkscape:cx="10.937255"
     inkscape:cy="9.556825"
     inkscape:window-x="-4"
     inkscape:window-y="-4"
     inkscape:current-layer="svg2"
     inkscape:snap-global="true">
    <inkscape:grid
       type="xygrid"
       id="grid2383"
       visible="true"
       enabled="true"
       spacingy="0.5px"
       spacingx="0.5px" />
  </sodipodi:namedview>
  <defs
     id="defs4">
    <inkscape:perspective
       sodipodi:type="inkscape:persp3d"
       inkscape:vp_x="0 : 526.18109 : 1"
       inkscape:vp_y="0 : 1000 : 0"
       inkscape:vp_z="744.09448 : 526.18109 : 1"
       inkscape:persp3d-origin="372.04724 : 350.78739 : 1"
       id="perspective10" />
    <inkscape:perspective
       id="perspective2461"
       inkscape:persp3d-origin="10 : 6.6666667 : 1"
       inkscape:vp_z="20 : 10 : 1"
       inkscape:vp_y="0 : 1000 : 0"
       inkscape:vp_x="0 : 10 : 1"
       sodipodi:type="inkscape:persp3d" />
    <inkscape:perspective
       id="perspective2466"
       inkscape:persp3d-origin="400 : 200 : 1"
       inkscape:vp_z="800 : 300 : 1"
       inkscape:vp_y="0 : 1000 : 0"
       inkscape:vp_x="0 : 300 : 1"
       sodipodi:type="inkscape:persp3d" />
  </defs>
  <path
     style="fill:#ffffff;fill-opacity:1;fill-rule:evenodd;stroke:#000000;stroke-width:1px;stroke-linecap:butt;stroke-linejoin:miter;stroke-opacity:1"
     d="M 0.5,8 L 10,0.5 L 19.5,8 L 19.5,19.5 L 0.5,19.5 L 0.5,8 z"
     id="background"
     sodipodi:nodetypes="cccccc" />
  <path
     style="fill:#000000;fill-opacity:1;fill-rule:evenodd;stroke:none;stroke-width:1px;stroke-linecap:butt;stroke-linejoin:miter;stroke-opacity:1"
     d="M 17,10.995261 L 2,10.995261 C 2,10.995261 3,13.995261 5,13.995261 L 9,13.995261 L 8,17.995261 L 12,17.995261 L 11,13.995261 L 15,13.995261 C 17,13.995261 18,10.995261 18,10.995261"
     id="path2384"
     sodipodi:nodetypes="ccsccccsc" />
  <path
     style="fill:#000000;fill-opacity:1;fill-rule:evenodd;stroke:none;stroke-width:1px;stroke-linecap:butt;stroke-linejoin:miter;stroke-opacity:1"
     d="M 9,6.9952607 L 8,7.5 L 8.751461,6.2678822 L 8.5,6 L 9,5.5 L 9,4.9952607 L 9,3.9952607 L 10.466455,3.9952607 L 10.463275,4.9952607 L 9.9936399,6.9952607 L 11.5,8 L 11,11 L 9,11"
     id="path3162"
     sodipodi:nodetypes="ccccccccccccc" />
  <path
     sodipodi:type="arc"
     style="fill:#000000;fill-opacity:1;stroke:none;stroke-opacity:1"
     id="path3170"
     sodipodi:cx="6.5"
     sodipodi:cy="8.5"
     sodipodi:rx="0.5"
     sodipodi:ry="0.5"
     d="M 7,8.5 A 0.5,0.5 0 1 1 6,8.5 A 0.5,0.5 0 1 1 7,8.5 z"
     transform="translate(1.5,1)" />
  <rect
     style="fill:#000000;fill-opacity:1;stroke:none;stroke-opacity:1"
     id="rect3172"
     width="3"
     height="1"
     x="16.526279"
     y="5.6243558"
     transform="matrix(0.8660254,0.5,-0.5,0.8660254,0,0)"
     inkscape:transform-center-x="-1.5490381"
     inkscape:transform-center-y="0.50000039" />
  <rect
     style="fill:#000000;fill-opacity:1;stroke:none;stroke-opacity:1"
     id="rect3174"
     width="3"
     height="0.99999994"
     x="-2.2057714"
     y="15.624355"
     transform="matrix(0.8660254,-0.5,0.5,0.8660254,0,0)" />
  <path
     style="fill:#000000;fill-opacity:1;fill-rule:evenodd;stroke:none;stroke-width:1px;stroke-linecap:butt;stroke-linejoin:miter;stroke-opacity:1"
     d="M 9,9 L 9,8 L 8,8.4793464 L 8,8 L 7,8.4549825 L 7,9 L 9,9 z"
     id="path3176"
     sodipodi:nodetypes="ccccccc" />
  <path
     style="fill:#ffffff;fill-opacity:1;fill-rule:evenodd;stroke:none;stroke-width:1px;stroke-linecap:butt;stroke-linejoin:miter;stroke-opacity:1"
     d="M 9,12 L 9,12.5 C 9,12.5 8,12.5 7,12.5 C 6,12.5 5,12 5,12 L 9,12 z"
     id="path2388"
     sodipodi:nodetypes="ccscc" />
  <path
     sodipodi:nodetypes="ccscc"
     id="path3160"
     d="M 11,12 L 11,12.5 C 11,12.5 12,12.5 13,12.5 C 14,12.5 15,12 15,12 L 11,12 z"
     style="fill:#ffffff;fill-opacity:1;fill-rule:evenodd;stroke:none;stroke-width:1px;stroke-linecap:butt;stroke-linejoin:miter;stroke-opacity:1" />
  <path
     sodipodi:type="arc"
     style="fill:#ffffff;fill-opacity:1;stroke:none;stroke-opacity:1"
     id="path3165"
     sodipodi:cx="10"
     sodipodi:cy="13"
     sodipodi:rx="1"
     sodipodi:ry="1"
     d="M 11,13 A 1,1 0 1 1 9,13 A 1,1 0 1 1 11,13 z"
     transform="matrix(1.5,0,0,1.5,-5,-7)" />
  <rect
     style="fill:#000000;fill-opacity:1;stroke:none;stroke-opacity:1"
     id="rect2394"
     width="1"
     height="0.5"
     x="8"
     y="9.5" />
  <path
     sodipodi:type="arc"
     style="fill:#000000;fill-opacity:1;stroke:none;stroke-opacity:1"
     id="path2394"
     sodipodi:cx="10.25"
     sodipodi:cy="12.796144"
     sodipodi:rx="0.75"
     sodipodi:ry="0.70385653"
     d="M 11,12.796144 A 0.75,0.70385653 0 1 1 9.5,12.796144 A 0.75,0.70385653 0 1 1 11,12.796144 z"
     transform="matrix(1.3035824,0,0,1.4207439,-3.3617196,-5.680043)" />
</svg>
