<?xml version="1.0" encoding="UTF-8" standalone="no"?>
<!-- Created with Inkscape (http://www.inkscape.org/) -->
<svg
   xmlns:dc="http://purl.org/dc/elements/1.1/"
   xmlns:cc="http://web.resource.org/cc/"
   xmlns:rdf="http://www.w3.org/1999/02/22-rdf-syntax-ns#"
   xmlns:svg="http://www.w3.org/2000/svg"
   xmlns="http://www.w3.org/2000/svg"
   xmlns:sodipodi="http://sodipodi.sourceforge.net/DTD/sodipodi-0.dtd"
   xmlns:inkscape="http://www.inkscape.org/namespaces/inkscape"
   version="1.0"
   width="48"
   height="48"
   id="svg2"
   sodipodi:version="0.32"
   inkscape:version="0.45.1"
   sodipodi:docname="crane.svg"
   inkscape:output_extension="org.inkscape.output.svg.inkscape"
   sodipodi:docbase="C:\Dokumente und Einstellungen\ulfl\Eigene Dateien">
  <metadata
     id="metadata6">
    <rdf:RDF>
      <cc:Work
         rdf:about="">
        <dc:format>image/svg+xml</dc:format>
        <dc:type
           rdf:resource="http://purl.org/dc/dcmitype/StillImage" />
        <cc:license
           rdf:resource="http://web.resource.org/cc/PublicDomain" />
        <dc:creator>
          <cc:Agent>
            <dc:title>Christian Koerner</dc:title>
          </cc:Agent>
        </dc:creator>
      </cc:Work>
      <cc:License
         rdf:about="http://web.resource.org/cc/PublicDomain">
        <cc:permits
           rdf:resource="http://web.resource.org/cc/Reproduction" />
        <cc:permits
           rdf:resource="http://web.resource.org/cc/Distribution" />
        <cc:permits
           rdf:resource="http://web.resource.org/cc/DerivativeWorks" />
      </cc:License>
    </rdf:RDF>
  </metadata>
  <sodipodi:namedview
     inkscape:window-height="573"
     inkscape:window-width="797"
     inkscape:pageshadow="2"
     inkscape:pageopacity="0.0"
     guidetolerance="10.0"
     gridtolerance="10.0"
     objecttolerance="10.0"
     borderopacity="1.0"
     bordercolor="#666666"
     pagecolor="#ffffff"
     id="base"
     inkscape:zoom="7.8541667"
     inkscape:cx="24"
     inkscape:cy="24"
     inkscape:window-x="176"
     inkscape:window-y="232"
     inkscape:current-layer="svg2" />
  <defs
     id="defs4" />
  <path
     d="M 10.0625,10.6875 L 10.0625,14.5625 L 13.96875,14.59375 L 13.96875,15.90625 L 22.96875,15.9375 L 24.875,15.9375 L 24.84375,14.125 L 23.15625,14.09375 L 24.71875,13.34375 L 36.90625,13.21875 L 36.90625,14.09375 L 38,14.09375 L 38,20.125 C 37.849301,20.140678 37.684701,20.144805 37.5625,20.15625 C 37.257063,20.317078 36.9375,20.8125 36.9375,20.8125 L 36.9375,21.875 L 37.78125,23.5 L 38.03125,23.5 L 38.03125,24.34375 C 38.03125,24.34375 38.010231,24.622211 38.25,24.75 C 38.695275,24.987316 38.649538,25.56387 38.28125,25.625 C 38.117386,25.652199 37.879334,25.379693 37.875,25 C 37.873532,24.868774 37.691002,25.083866 37.6875,25.125 C 37.662287,25.421318 37.861521,25.968571 38.28125,26.03125 C 38.417868,26.05165 38.955644,25.803854 38.9375,25.09375 C 38.92813,24.717842 38.312498,24.34375 38.3125,24.34375 L 38.3125,23.5 L 38.5625,23.5 L 39.375,21.875 L 39.375,20.8125 C 39.375,20.8125 39.086688,20.317077 38.78125,20.15625 C 38.645762,20.101018 38.485999,20.09132 38.3125,20.09375 L 38.3125,14.09375 L 39.3125,14.09375 L 39.3125,13.1875 L 41.53125,13.15625 L 41.53125,11.625 L 24.71875,11.3125 L 22.90625,10.71875 L 10.0625,10.6875 z M 14.125,16.28125 L 13.84375,22.5625 L 14.125,28.84375 L 13.625,35.125 L 13.0625,41.0625 L 4.15625,41.0625 L 4.15625,42.375 L 44.3125,42.375 L 44.3125,41.0625 L 24,41.0625 L 23.46875,35.125 L 22.96875,28.84375 L 23.25,22.5625 L 22.96875,16.28125 L 14.125,16.28125 z M 15.90625,17 L 21.15625,17 L 21.4375,21.84375 L 15.625,21.84375 L 15.90625,17 z M 15.625,23.28125 L 21.4375,23.28125 L 21.15625,28.125 L 15.90625,28.125 L 15.625,23.28125 z M 15.90625,29.5625 L 21.15625,29.5625 L 21.65625,34.40625 L 15.40625,34.40625 L 15.90625,29.5625 z M 15.40625,35.84375 L 21.65625,35.84375 L 22.1875,41.0625 L 14.90625,41.0625 L 15.40625,35.84375 z "
     style="fill:#000000;fill-opacity:1;stroke:none;stroke-width:0.94199997;stroke-miterlimit:4;stroke-opacity:1"
     id="symbol1" />
</svg>
