<?xml version="1.0" encoding="utf-8"?>
<!DOCTYPE svg PUBLIC "-//W3C//DTD SVG 1.1//EN" "http://www.w3.org/Graphics/SVG/1.1/DTD/svg11.dtd" [
	<!ENTITY ns_svg "http://www.w3.org/2000/svg">
	<!ENTITY ns_xlink "http://www.w3.org/1999/xlink">
]>
<svg  version="1.1" id="Layer_1" xmlns="&ns_svg;" xmlns:xlink="&ns_xlink;" width="486" height="347"
	 viewBox="0 0 486 347" overflow="visible" xml:space="preserve">
<g id="XMLID_4_">
	<g>
		<path d="M486.25,4.25c0,3,0,6,0,9c-14.15,31.03-30.58,72.23-46,109c-3.52,8.39-8.83,31.86-20,31c-9.24-0.71-14.1-24.24-17-33
			c-4.94-14.93-7.62-25.51-12-38c-50.74,20.65-87.69,53.67-86,122c1.34,54.26,21.16,99.67,33,143c-49.33,0-98.67,0-148,0
			c-4.55-115.45-8.99-231.01-13-347c17,0,34,0,51,0c11.73,38.61,24.47,76.2,36,115c25.44-24.63,60.55-50.85,103-63
			c-6.69-8.75-16.41-15.01-25-22c-7.83-6.37-20.32-12.24-20-26c1.99-0.68,2.29-3.05,4-4c52,0,104,0,156,0c0.44,1.23,1.28,2.05,3,2
			C485.09,3.41,485.47,4.03,486.25,4.25z"/>
		<path d="M111.25,0.25c17,0,34,0,51,0c-4.53,115.47-8.94,231.06-13,347c-49.67,0-99.33,0-149,0c0-1,0-2,0-3
			C37.98,230.31,73.81,114.48,111.25,0.25z"/>
	</g>
</g>
</svg>
