<?xml version="1.0" encoding="UTF-8" standalone="no"?>
<!-- Created with Inkscape (http://www.inkscape.org/) -->
<svg
   xmlns:dc="http://purl.org/dc/elements/1.1/"
   xmlns:cc="http://web.resource.org/cc/"
   xmlns:rdf="http://www.w3.org/1999/02/22-rdf-syntax-ns#"
   xmlns:svg="http://www.w3.org/2000/svg"
   xmlns="http://www.w3.org/2000/svg"
   xmlns:sodipodi="http://sodipodi.sourceforge.net/DTD/sodipodi-0.dtd"
   xmlns:inkscape="http://www.inkscape.org/namespaces/inkscape"
   version="1.0"
   width="181.00414"
   height="99.524338"
   id="svg2"
   sodipodi:version="0.32"
   inkscape:version="0.45.1"
   sodipodi:docname="ford.svg"
   inkscape:output_extension="org.inkscape.output.svg.inkscape"
   sodipodi:docbase="C:\Dokumente und Einstellungen\ulfl\Eigene Dateien\svn.openstreetmap.org\applications\share\map-icons\svg\vehicle">
  <metadata
     id="metadata11">
    <rdf:RDF>
      <cc:Work
         rdf:about="">
        <dc:format>image/svg+xml</dc:format>
        <dc:type
           rdf:resource="http://purl.org/dc/dcmitype/StillImage" />
        <cc:license
           rdf:resource="http://web.resource.org/cc/PublicDomain" />
      </cc:Work>
      <cc:License
         rdf:about="http://web.resource.org/cc/PublicDomain">
        <cc:permits
           rdf:resource="http://web.resource.org/cc/Reproduction" />
        <cc:permits
           rdf:resource="http://web.resource.org/cc/Distribution" />
        <cc:permits
           rdf:resource="http://web.resource.org/cc/DerivativeWorks" />
      </cc:License>
    </rdf:RDF>
  </metadata>
  <sodipodi:namedview
     inkscape:window-height="573"
     inkscape:window-width="797"
     inkscape:pageshadow="2"
     inkscape:pageopacity="0.0"
     guidetolerance="10.0"
     gridtolerance="10.0"
     objecttolerance="10.0"
     borderopacity="1.0"
     bordercolor="#666666"
     pagecolor="#ffffff"
     id="base"
     inkscape:zoom="1.4593045"
     inkscape:cx="97.813264"
     inkscape:cy="21.590987"
     inkscape:window-x="110"
     inkscape:window-y="145"
     inkscape:current-layer="svg2" />
  <defs
     id="defs4" />
  <g
     id="layer1"
     transform="matrix(-0.2620706,0,0,0.3812408,182.4435,-1.7181815)">
    <path
       d="M 640.23853,222.03787 C 640.23853,249.14264 618.26578,271.11539 591.16101,271.11539 C 564.05624,271.11539 542.08349,249.14264 542.08349,222.03787 C 542.08349,194.9331 564.05624,172.96035 591.16101,172.96035 C 618.26578,172.96035 640.23853,194.9331 640.23853,222.03787 L 640.23853,222.03787 z "
       transform="matrix(1.079545,0,0,1.079545,-521.3741,-27.12071)"
       style="opacity:1;fill:#000000;fill-opacity:1;fill-rule:nonzero;stroke:none;stroke-width:30;stroke-linecap:round;stroke-linejoin:round;stroke-miterlimit:4;stroke-dasharray:none;stroke-dashoffset:0;stroke-opacity:1"
       id="path25345" />
    <path
       d="M 285.83418,10.247082 C 288.65554,6.9807461 291.87058,4.1737036 297.80466,4.5388804 L 554.11195,4.5388804 L 681.49562,105.68157 C 682.90126,108.65248 683.61253,110.92902 683.96915,112.85091 L 684.45326,202.47755 C 682.08558,207.61498 679.30008,212.00034 674.33227,212.45753 L 644.76683,212.45753 C 644.76683,124.83077 515.22193,124.6518 515.22193,212.45753 L 182.38817,212.45753 C 182.38817,125.17065 51.857393,124.83574 51.857393,212.45753 L 15.791737,212.45753 C 12.71653,211.01909 9.9497784,212.35674 5.8866518,202.02701 L 5.492299,137.57457 C 7.5896054,131.71045 10.205427,129.47594 12.815364,127.20023 L 200.16379,96.077198 L 285.83418,10.247082 z "
       style="fill:#000000;fill-opacity:1;fill-rule:evenodd;stroke:none;stroke-width:1px;stroke-linecap:butt;stroke-linejoin:miter;stroke-opacity:1"
       id="path24454" />
    <path
       d="M 640.23853,222.03787 C 640.23853,249.14264 618.26578,271.11539 591.16101,271.11539 C 564.05624,271.11539 542.08349,249.14264 542.08349,222.03787 C 542.08349,194.9331 564.05624,172.96035 591.16101,172.96035 C 618.26578,172.96035 640.23853,194.9331 640.23853,222.03787 L 640.23853,222.03787 z "
       transform="matrix(1.079545,0,0,1.079545,-58.73586,-27.14299)"
       style="opacity:1;fill:#000000;fill-opacity:1;fill-rule:nonzero;stroke:none;stroke-width:30;stroke-linecap:round;stroke-linejoin:round;stroke-miterlimit:4;stroke-dasharray:none;stroke-dashoffset:0;stroke-opacity:1"
       id="path25343" />
    <path
       d="M 226.41173,97.07302 L 290.25519,34.075171 C 291.69464,32.851906 292.82676,31.167654 295.32884,31.538345 L 408.85181,31.538345 L 408.85181,108.70014 L 231.27398,108.70014 C 224.51388,106.03369 223.59914,101.99187 226.41173,97.07302 z "
       style="fill:#ffffff;fill-opacity:1;fill-rule:evenodd;stroke:none;stroke-width:1px;stroke-linecap:butt;stroke-linejoin:miter;stroke-opacity:1"
       id="path25349" />
    <path
       d="M 585.23723,89.186408 L 530.52565,34.0864 C 529.0862,32.863135 527.95408,31.178883 525.452,31.549574 L 429.94598,31.549574 L 429.94598,108.71136 L 592.71536,108.71136 C 600.41757,107.17544 590.2821,96.783985 585.23723,89.186408 z "
       style="fill:#ffffff;fill-opacity:1;fill-rule:evenodd;stroke:none;stroke-width:1px;stroke-linecap:butt;stroke-linejoin:miter;stroke-opacity:1"
       id="path26236" />
  </g>
  <path
     style="font-size:12px;fill:#0000ff;fill-rule:evenodd;stroke-width:10.30560017"
     sodipodi:nodetypes="ccccccccccccccccccc"
     id="path625"
     d="M 105.43866,92.428352 C 97.918879,100.26031 80.451117,100.37805 73.743394,92.612494 C 70.101977,88.392844 60.212043,88.22055 56.091949,92.115541 C 49.61934,100.06404 31.7517,100.18445 25.038007,92.373339 C 21.24294,88.016019 10.840072,87.96817 7.0709959,92.428352 C 4.9423893,91.207781 2.8138746,89.987026 0.68526812,88.766271 C 4.000281,84.92216 10.155211,83.035372 16.054456,83.06173 C 21.970599,83.049791 28.282302,84.918395 31.496473,88.85848 C 35.199057,93.073446 45.182944,93.202299 49.172164,89.079358 C 55.709338,81.24116 73.600672,81.386636 80.226014,89.079358 C 83.981406,93.397278 93.973743,93.383686 98.526042,89.023978 C 102.36813,84.92216 108.52315,83.035372 114.42222,83.06173 C 120.33836,83.049791 126.65034,84.918395 129.86414,88.85848 C 133.56682,93.073446 143.55061,93.202299 147.54002,89.079358 C 154.07719,81.24116 171.96852,81.386636 178.59377,89.079358 C 182.34935,93.397278 178.81879,100.37805 172.11106,92.612494 C 168.46964,88.392844 158.57999,88.22055 154.4598,92.115541 C 147.9871,100.06404 130.11937,100.18445 123.40586,92.373339 C 119.61061,88.016019 109.20774,87.96817 105.43866,92.428352 z " />
  <g
     transform="matrix(9.1841331,0,0,9.1841331,-2280.7749,-1724.5485)"
     id="g3209">
    <path
       style="font-size:12px;fill:#0000ff;fill-rule:evenodd;stroke-width:10.30560017"
       sodipodi:nodetypes="ccccccccccccccccccc"
       id="path3211"
       d="M 259.81914,196.28221 C 259.00036,197.13495 257.09841,197.14778 256.36805,196.30225 C 255.97156,195.84279 254.89471,195.82404 254.4461,196.24815 C 253.74134,197.1136 251.79585,197.12672 251.06484,196.27619 C 250.65162,195.80178 249.51892,195.79654 249.10853,196.28221 C 248.87676,196.1493 248.645,196.01638 248.41323,195.88348 C 248.77418,195.46489 249.44435,195.25946 250.08668,195.26233 C 250.73085,195.26104 251.41809,195.46449 251.76806,195.89349 C 252.17121,196.35243 253.25829,196.36648 253.69265,195.91754 C 254.40444,195.06408 256.35251,195.07993 257.0739,195.91754 C 257.4828,196.38768 258.5708,196.38621 259.06647,195.91151 C 259.48481,195.46489 260.15499,195.25946 260.7973,195.26233 C 261.44147,195.26104 262.12874,195.46449 262.47867,195.89349 C 262.88183,196.35243 263.9689,196.36648 264.40328,195.91754 C 265.11507,195.06408 267.06314,195.07993 267.78452,195.91754 C 268.19344,196.38768 267.80902,197.14778 267.07866,196.30225 C 266.68217,195.84279 265.60535,195.82404 265.15673,196.24815 C 264.45196,197.1136 262.50646,197.12672 261.77547,196.27619 C 261.36223,195.80178 260.22953,195.79654 259.81914,196.28221 z " />
    <path
       style="font-size:12px;fill:#0000ff;fill-rule:evenodd;stroke-width:10.30560017"
       sodipodi:nodetypes="ccccccccccccccccccc"
       id="path3213"
       d="M 259.81914,194.70494 C 259.00036,195.55771 257.09841,195.57053 256.36805,194.72499 C 255.97156,194.26554 254.89471,194.24678 254.4461,194.67088 C 253.74134,195.53634 251.79585,195.54945 251.06484,194.69895 C 250.65162,194.22451 249.51892,194.2193 249.10853,194.70494 C 248.87676,194.57204 248.645,194.43912 248.41323,194.3062 C 248.77418,193.88764 249.44435,193.6822 250.08668,193.68507 C 250.73085,193.68377 251.41809,193.88723 251.76806,194.31624 C 252.17121,194.77518 253.25829,194.78921 253.69265,194.34029 C 254.40444,193.48684 256.35251,193.50268 257.0739,194.34029 C 257.4828,194.81044 258.5708,194.80896 259.06647,194.33426 C 259.48481,193.88764 260.15499,193.6822 260.7973,193.68507 C 261.44147,193.68377 262.12874,193.88723 262.47867,194.31624 C 262.88183,194.77518 263.9689,194.78921 264.40328,194.34029 C 265.11507,193.48684 267.06314,193.50268 267.78452,194.34029 C 268.19344,194.81044 267.80902,195.57053 267.07866,194.72499 C 266.68217,194.26554 265.60535,194.24678 265.15673,194.67088 C 264.45196,195.53634 262.50646,195.54945 261.77547,194.69895 C 261.36223,194.22451 260.22953,194.2193 259.81914,194.70494 z " />
  </g>
</svg>
