<?xml version="1.0" encoding="UTF-8" standalone="no"?>
<!-- Created with Inkscape (http://www.inkscape.org/) -->
<svg
   xmlns:dc="http://purl.org/dc/elements/1.1/"
   xmlns:cc="http://web.resource.org/cc/"
   xmlns:rdf="http://www.w3.org/1999/02/22-rdf-syntax-ns#"
   xmlns:svg="http://www.w3.org/2000/svg"
   xmlns="http://www.w3.org/2000/svg"
   xmlns:sodipodi="http://sodipodi.sourceforge.net/DTD/sodipodi-0.dtd"
   xmlns:inkscape="http://www.inkscape.org/namespaces/inkscape"
   width="600"
   height="600"
   id="svg2"
   sodipodi:version="0.32"
   inkscape:version="0.45.1"
   version="1.0"
   sodipodi:docbase="C:\Dokumente und Einstellungen\ulfl\Eigene Dateien"
   sodipodi:docname="viaduct.svg"
   inkscape:output_extension="org.inkscape.output.svg.inkscape">
  <defs
     id="defs4" />
  <sodipodi:namedview
     id="base"
     pagecolor="#ffffff"
     bordercolor="#666666"
     borderopacity="1.0"
     inkscape:pageopacity="0.0"
     inkscape:pageshadow="2"
     inkscape:zoom="1.2733333"
     inkscape:cx="299.99999"
     inkscape:cy="246.8875"
     inkscape:document-units="px"
     inkscape:current-layer="layer1"
     showgrid="true"
     inkscape:object-bbox="true"
     objecttolerance="50"
     inkscape:object-points="true"
     inkscape:object-nodes="true"
     gridtolerance="10000"
     height="600px"
     width="600px"
     inkscape:window-width="1400"
     inkscape:window-height="960"
     inkscape:window-x="0"
     inkscape:window-y="56" />
  <metadata
     id="metadata7">
    <rdf:RDF>
      <cc:Work
         rdf:about="">
        <dc:format>image/svg+xml</dc:format>
        <dc:type
           rdf:resource="http://purl.org/dc/dcmitype/StillImage" />
        <cc:license
           rdf:resource="http://web.resource.org/cc/PublicDomain" />
        <dc:creator>
          <cc:Agent>
            <dc:title>Ulf Lamping</dc:title>
          </cc:Agent>
        </dc:creator>
      </cc:Work>
      <cc:License
         rdf:about="http://web.resource.org/cc/PublicDomain">
        <cc:permits
           rdf:resource="http://web.resource.org/cc/Reproduction" />
        <cc:permits
           rdf:resource="http://web.resource.org/cc/Distribution" />
        <cc:permits
           rdf:resource="http://web.resource.org/cc/DerivativeWorks" />
      </cc:License>
    </rdf:RDF>
  </metadata>
  <g
     inkscape:label="Ebene 1"
     inkscape:groupmode="layer"
     id="layer1">
    <path
       style="fill:#000000;fill-opacity:1"
       d="M -40 160 L -40 253.40625 C -25.28494 244.88105 -8.2167532 240 10 240 C 64.576468 240 108.97242 283.79532 109.96875 338.15625 L 110 338.15625 L 110 340.03125 L 110 634.28125 L 200 634.28125 L 200 340.03125 L 200 338.15625 L 200.03125 338.15625 C 200.06274 336.45884 200.13487 334.76956 200.25 333.09375 C 200.30735 332.25898 200.39102 331.42279 200.46875 330.59375 C 200.53262 329.91253 200.61002 329.23969 200.6875 328.5625 C 200.72083 328.27113 200.74542 327.9781 200.78125 327.6875 C 200.81596 327.40614 200.83796 327.12438 200.875 326.84375 C 200.94942 326.27965 201.00996 325.71735 201.09375 325.15625 C 201.19241 324.49552 201.32598 323.84395 201.4375 323.1875 C 201.57556 322.37487 201.71746 321.55585 201.875 320.75 C 202.03308 319.94139 202.19755 319.14528 202.375 318.34375 C 202.53757 317.60943 202.69638 316.88442 202.875 316.15625 C 202.90562 316.03129 202.93766 315.90602 202.96875 315.78125 C 203.02864 315.54114 203.09463 315.30192 203.15625 315.0625 C 203.48541 313.78365 203.8408 312.50857 204.21875 311.25 C 204.31159 310.94091 204.40426 310.62033 204.5 310.3125 C 204.64673 309.8409 204.81526 309.37484 204.96875 308.90625 C 205.45808 307.41242 205.97439 305.93072 206.53125 304.46875 C 206.56973 304.36767 206.5862 304.25717 206.625 304.15625 C 206.86843 303.52338 207.1504 302.90785 207.40625 302.28125 C 207.49093 302.07367 207.57022 301.86313 207.65625 301.65625 C 207.78162 301.35505 207.90303 301.0497 208.03125 300.75 C 208.19257 300.37263 208.36544 299.99997 208.53125 299.625 C 209.14176 298.24518 209.76727 296.8775 210.4375 295.53125 C 210.79374 294.81569 211.1585 294.11196 211.53125 293.40625 C 212.6501 291.28798 213.83075 289.21244 215.09375 287.1875 C 215.47946 286.56911 215.88252 285.95302 216.28125 285.34375 C 216.41735 285.13574 216.5499 284.92568 216.6875 284.71875 C 217.89114 282.90907 219.15305 281.13055 220.46875 279.40625 C 220.50029 279.36492 220.5309 279.32252 220.5625 279.28125 C 221.02234 278.68054 221.49572 278.08988 221.96875 277.5 C 222.46974 276.87526 222.98447 276.26858 223.5 275.65625 C 223.90516 275.175 224.30475 274.69219 224.71875 274.21875 C 224.95685 273.94642 225.19651 273.67597 225.4375 273.40625 C 225.71202 273.09902 226.00301 272.8038 226.28125 272.5 C 226.64474 272.10305 227.00524 271.70353 227.375 271.3125 C 227.50197 271.17827 227.62229 271.03978 227.75 270.90625 C 228.26273 270.36998 228.78808 269.83728 229.3125 269.3125 C 229.52005 269.10487 229.72814 268.89331 229.9375 268.6875 C 230.0377 268.58896 230.14939 268.50437 230.25 268.40625 C 231.25546 267.42602 232.26668 266.46881 233.3125 265.53125 C 233.40581 265.44755 233.50013 265.36461 233.59375 265.28125 C 234.10144 264.82954 234.60814 264.37894 235.125 263.9375 C 235.17605 263.89387 235.23011 263.85603 235.28125 263.8125 C 236.45239 262.81625 237.65836 261.84856 238.875 260.90625 C 239.31732 260.56361 239.73933 260.21034 240.1875 259.875 C 240.85252 259.37737 241.50985 258.88757 242.1875 258.40625 C 242.62623 258.09453 243.08732 257.80478 243.53125 257.5 C 243.80309 257.31346 244.06998 257.12141 244.34375 256.9375 C 244.93232 256.54189 245.52766 256.16459 246.125 255.78125 C 246.30317 255.66694 246.47731 255.55071 246.65625 255.4375 C 246.8418 255.32008 247.03237 255.20998 247.21875 255.09375 C 248.3357 254.39742 249.47921 253.71541 250.625 253.0625 C 251.19569 252.73724 251.76612 252.40802 252.34375 252.09375 C 252.50982 252.00346 252.67711 251.90187 252.84375 251.8125 C 253.04916 251.70227 253.26249 251.60883 253.46875 251.5 C 255.42671 250.46729 257.40557 249.49757 259.4375 248.59375 C 259.98354 248.35081 260.54262 248.10838 261.09375 247.875 C 261.23089 247.81694 261.36254 247.74497 261.5 247.6875 C 261.93237 247.50669 262.37708 247.33113 262.8125 247.15625 C 263.12482 247.03088 263.43614 246.90355 263.75 246.78125 C 263.77168 246.7728 263.79081 246.75844 263.8125 246.75 C 264.53675 246.46838 265.2677 246.2026 266 245.9375 C 266.75436 245.66441 267.51859 245.41157 268.28125 245.15625 C 269.02635 244.90681 269.77846 244.66974 270.53125 244.4375 C 271.22434 244.2237 271.92558 244.01153 272.625 243.8125 C 272.72841 243.7831 272.83396 243.74783 272.9375 243.71875 C 273.40709 243.58679 273.8714 243.46899 274.34375 243.34375 C 274.65409 243.26145 274.96973 243.17313 275.28125 243.09375 C 275.98936 242.91346 276.72346 242.72756 277.4375 242.5625 C 277.52177 242.54302 277.60315 242.51926 277.6875 242.5 C 277.8745 242.45728 278.0626 242.41667 278.25 242.375 C 278.86596 242.23813 279.47359 242.12544 280.09375 242 C 280.88833 241.83928 281.69873 241.67298 282.5 241.53125 C 283.25934 241.39699 284.01612 241.27324 284.78125 241.15625 C 284.83339 241.14827 284.88533 241.1329 284.9375 241.125 C 285.7137 241.00759 286.49931 240.91192 287.28125 240.8125 C 287.32358 240.80711 287.36391 240.78658 287.40625 240.78125 C 288.18901 240.68274 288.99298 240.61152 289.78125 240.53125 C 290.38419 240.46985 290.98769 240.39436 291.59375 240.34375 C 294.36648 240.11245 297.16788 240 300 240 C 300.85264 240 301.71496 240.00999 302.5625 240.03125 C 302.57283 240.03151 302.58342 240.03099 302.59375 240.03125 C 303.43078 240.05251 304.26194 240.08325 305.09375 240.125 C 305.1145 240.12604 305.1355 240.12395 305.15625 240.125 C 305.97734 240.16673 306.77799 240.21979 307.59375 240.28125 C 307.62498 240.2836 307.65628 240.27887 307.6875 240.28125 C 307.92795 240.29959 308.16628 240.32371 308.40625 240.34375 C 309.01231 240.39436 309.61581 240.46985 310.21875 240.53125 C 312.67519 240.78106 315.09924 241.1066 317.5 241.53125 C 317.56291 241.54237 317.62463 241.55126 317.6875 241.5625 C 318.42592 241.69457 319.17353 241.85179 319.90625 242 C 320.52641 242.12544 321.13404 242.23813 321.75 242.375 C 322.74822 242.59682 323.73198 242.8423 324.71875 243.09375 C 325.03486 243.17423 325.34135 243.26026 325.65625 243.34375 C 326.93753 243.68354 328.20815 244.0486 329.46875 244.4375 C 329.55066 244.46277 329.63693 244.47453 329.71875 244.5 C 330.3882 244.70845 331.0554 244.93418 331.71875 245.15625 C 332.48141 245.41157 333.24564 245.66441 334 245.9375 C 334.73631 246.20414 335.45933 246.46665 336.1875 246.75 C 336.20909 246.7584 336.22841 246.77284 336.25 246.78125 C 336.56203 246.90292 336.877 247.03154 337.1875 247.15625 C 338.37233 247.63186 339.5568 248.13707 340.71875 248.65625 C 340.86519 248.7217 341.01019 248.77762 341.15625 248.84375 C 341.73659 249.10637 342.30062 249.38292 342.875 249.65625 C 343.03037 249.73024 343.18883 249.80023 343.34375 249.875 C 343.91558 250.15078 344.46552 250.43247 345.03125 250.71875 C 345.53544 250.97392 346.032 251.23657 346.53125 251.5 C 347.49111 252.00627 348.43389 252.52622 349.375 253.0625 C 349.49577 253.13133 349.62955 253.18068 349.75 253.25 C 350.27157 253.55014 350.7969 253.87827 351.3125 254.1875 C 351.806 254.48357 352.29332 254.78945 352.78125 255.09375 C 353.74731 255.69601 354.71257 256.30356 355.65625 256.9375 C 355.92931 257.12104 356.19761 257.31385 356.46875 257.5 C 356.91533 257.80644 357.37118 258.09279 357.8125 258.40625 C 357.83607 258.423 357.85145 258.45198 357.875 258.46875 C 358.33912 258.79901 358.7918 259.13081 359.25 259.46875 C 360.08522 260.08469 360.90363 260.70273 361.71875 261.34375 C 362.15009 261.68291 362.57441 262.02894 363 262.375 C 363.58493 262.85064 364.14487 263.32401 364.71875 263.8125 C 364.76921 263.85543 364.82462 263.89447 364.875 263.9375 C 365.3922 264.37953 365.89824 264.82893 366.40625 265.28125 C 366.50038 265.365 366.59369 265.44715 366.6875 265.53125 C 366.86214 265.68792 367.04522 265.84212 367.21875 266 C 367.60237 266.34883 367.96561 266.70783 368.34375 267.0625 C 368.8181 267.50749 369.28439 267.95219 369.75 268.40625 C 370.59095 269.22611 371.4382 270.05745 372.25 270.90625 C 372.37775 271.03987 372.49799 271.17818 372.625 271.3125 C 372.99671 271.70546 373.35338 272.10106 373.71875 272.5 C 373.99545 272.80217 374.28948 273.10069 374.5625 273.40625 C 374.80217 273.67448 375.04444 273.94794 375.28125 274.21875 C 375.38947 274.34252 375.48614 274.46944 375.59375 274.59375 C 375.89954 274.94687 376.19909 275.29883 376.5 275.65625 C 377.01553 276.26858 377.53026 276.87526 378.03125 277.5 C 378.50324 278.08858 378.97864 278.68189 379.4375 279.28125 C 379.46913 279.32256 379.49969 279.36488 379.53125 279.40625 C 379.73032 279.66712 379.92844 279.92463 380.125 280.1875 C 380.39451 280.54794 380.64151 280.91708 380.90625 281.28125 C 381.11223 281.56458 381.32818 281.83944 381.53125 282.125 C 381.78526 282.48224 382.03184 282.85805 382.28125 283.21875 C 382.62581 283.7171 382.97681 284.21391 383.3125 284.71875 C 383.45008 284.9256 383.58267 285.13582 383.71875 285.34375 C 383.89162 285.60797 384.07956 285.85905 384.25 286.125 C 384.47307 286.47297 384.68739 286.83661 384.90625 287.1875 C 386.16925 289.21244 387.3499 291.28798 388.46875 293.40625 C 388.8415 294.11196 389.20626 294.81569 389.5625 295.53125 C 389.75402 295.91612 389.93831 296.29984 390.125 296.6875 C 390.2854 297.02035 390.43694 297.35262 390.59375 297.6875 C 390.89361 298.32833 391.18216 298.97687 391.46875 299.625 C 391.63366 299.99771 391.80828 300.37491 391.96875 300.75 C 392.0972 301.05049 392.21817 301.35426 392.34375 301.65625 C 392.42997 301.86339 392.50889 302.07341 392.59375 302.28125 C 392.84796 302.90438 393.13307 303.52693 393.375 304.15625 C 393.41394 304.25748 393.43013 304.36737 393.46875 304.46875 C 394.02561 305.93072 394.54192 307.41242 395.03125 308.90625 C 395.28296 309.67542 395.54781 310.47276 395.78125 311.25 C 396.1592 312.50857 396.51459 313.78365 396.84375 315.0625 C 396.90596 315.30436 396.97081 315.53868 397.03125 315.78125 C 397.06242 315.90621 397.0943 316.03111 397.125 316.15625 C 397.23114 316.58937 397.33702 317.03344 397.4375 317.46875 C 397.50513 317.76162 397.55995 318.04991 397.625 318.34375 C 397.80245 319.14528 397.96692 319.94139 398.125 320.75 C 398.28254 321.55585 398.42444 322.37487 398.5625 323.1875 C 398.67434 323.84562 398.80733 324.49383 398.90625 325.15625 C 398.98967 325.71493 399.05087 326.2821 399.125 326.84375 C 399.16206 327.12464 399.18403 327.40588 399.21875 327.6875 C 399.25478 327.97961 399.27899 328.26961 399.3125 328.5625 C 399.35996 328.9774 399.42638 329.39608 399.46875 329.8125 C 399.49506 330.07141 399.50692 330.33426 399.53125 330.59375 C 399.60898 331.42279 399.69265 332.25898 399.75 333.09375 C 399.86513 334.76956 399.93726 336.45884 399.96875 338.15625 L 400 338.15625 L 400 340.03125 L 400 634.28125 L 490 634.28125 L 490 340.03125 L 490 338.15625 L 490.03125 338.15625 C 491.02758 283.79531 535.42353 240 590 240 C 608.21675 240 625.28494 244.88105 640 253.40625 L 640 160 L -40 160 z "
       id="rect2160" />
  </g>
</svg>
