<?xml version="1.0" encoding="UTF-8" standalone="no"?>
<!-- Created with Inkscape (http://www.inkscape.org/) --><svg height="160.00000px" id="svg2" inkscape:version="0.41" sodipodi:docbase="/home/nicu/Desktop/newsvg" sodipodi:docname="eye.svg" sodipodi:version="0.32" width="240.00000px" xmlns="http://www.w3.org/2000/svg" xmlns:cc="http://web.resource.org/cc/" xmlns:dc="http://purl.org/dc/elements/1.1/" xmlns:inkscape="http://www.inkscape.org/namespaces/inkscape" xmlns:rdf="http://www.w3.org/1999/02/22-rdf-syntax-ns#" xmlns:sodipodi="http://inkscape.sourceforge.net/DTD/sodipodi-0.dtd" xmlns:svg="http://www.w3.org/2000/svg">
  <metadata>
    <rdf:RDF xmlns:cc="http://web.resource.org/cc/" xmlns:dc="http://purl.org/dc/elements/1.1/" xmlns:rdf="http://www.w3.org/1999/02/22-rdf-syntax-ns#">
      <cc:Work rdf:about="">
        <dc:title>eye</dc:title>
        <dc:description></dc:description>
        <dc:subject>
          <rdf:Bag>
            <rdf:li>face</rdf:li>
            <rdf:li>bodypart</rdf:li>
          </rdf:Bag>
        </dc:subject>
        <dc:publisher>
          <cc:Agent rdf:about="http://www.openclipart.org">
            <dc:title>Open Clip Art Library</dc:title>
          </cc:Agent>
        </dc:publisher>
        <dc:creator>
          <cc:Agent>
            <dc:title>Nicu Buculei</dc:title>
          </cc:Agent>
        </dc:creator>
        <dc:rights>
          <cc:Agent>
            <dc:title>Nicu Buculei</dc:title>
          </cc:Agent>
        </dc:rights>
        <dc:date></dc:date>
        <dc:format>image/svg+xml</dc:format>
        <dc:type rdf:resource="http://purl.org/dc/dcmitype/StillImage"/>
        <cc:license rdf:resource="http://web.resource.org/cc/PublicDomain"/>
        <dc:language>en</dc:language>
      </cc:Work>
      <cc:License rdf:about="http://web.resource.org/cc/PublicDomain">
        <cc:permits rdf:resource="http://web.resource.org/cc/Reproduction"/>
        <cc:permits rdf:resource="http://web.resource.org/cc/Distribution"/>
        <cc:permits rdf:resource="http://web.resource.org/cc/DerivativeWorks"/>
      </cc:License>
    </rdf:RDF>
  </metadata>
  <defs id="defs3"/>
  <sodipodi:namedview bordercolor="#666666" borderopacity="1.0" id="base" inkscape:current-layer="layer1" inkscape:cx="120.00000" inkscape:cy="80.000000" inkscape:document-units="px" inkscape:pageopacity="0.0" inkscape:pageshadow="2" inkscape:window-height="791" inkscape:window-width="1152" inkscape:window-x="0" inkscape:window-y="24" inkscape:zoom="1.0000000" pagecolor="#ffffff"/>
  <g id="layer1" inkscape:groupmode="layer" inkscape:label="Layer 1">
    <path d="M 129.06745,9.9791853 C 121.24987,16.611883 125.73944,25.232590 123.04705,32.309468 C 119.60939,38.549660 109.64920,35.529677 103.39679,37.397575 C 99.356691,34.330748 99.614961,25.527513 96.135321,21.864928 C 92.537579,28.466957 102.62553,40.975089 89.924316,42.073694 C 77.712677,44.150578 88.375986,27.599885 84.280652,20.888257 C 83.343675,22.630012 82.569655,23.278064 81.657699,23.133956 C 84.817371,32.572218 77.281523,48.456949 67.324384,50.514332 C 58.424229,58.201957 60.477074,39.676934 55.577092,35.324761 C 56.431665,34.773938 53.566383,36.649305 54.357676,37.476576 C 59.278471,43.480794 56.547774,51.090569 55.329625,58.860999 C 54.854826,62.554571 42.945603,64.232491 46.355597,65.577739 C 50.176894,63.763127 40.577324,71.966357 36.038617,71.092295 C 37.086442,65.229920 31.057994,61.202314 28.379724,59.912846 C 30.887989,66.813053 35.946622,85.698762 22.425417,83.954124 C 19.840720,80.432232 18.337495,77.058023 12.064735,73.799110 C 20.489962,85.456153 17.221696,100.71315 9.0305662,105.19918 C 20.716921,99.877295 35.053971,76.569333 47.010952,71.560456 C 66.576996,61.940887 86.845884,53.036070 108.25693,48.480257 C 115.30238,48.474930 129.35993,41.930436 129.00415,53.050670 C 133.22017,63.526233 131.17907,75.332091 124.14805,84.110903 C 117.51753,94.264927 105.72794,103.24805 93.042443,98.587863 C 80.872740,95.545900 72.200888,84.856042 69.981088,72.741422 C 70.737623,67.570598 65.019109,60.997611 61.195910,66.219774 C 61.981505,76.843604 67.542379,89.506995 75.812282,96.641778 C 86.141244,105.36684 101.76343,105.80581 112.68002,97.892772 C 125.02342,89.954379 136.65992,77.349141 137.35453,62.004756 C 137.69975,56.596948 130.59062,43.358047 138.94510,47.427496 C 156.00396,49.632579 166.01678,60.172278 172.75313,59.703790 C 178.75725,60.112229 184.60206,58.847212 176.28495,65.779735 C 183.15038,65.898589 169.01489,73.059298 167.53395,77.369085 C 153.30538,94.857303 131.05973,103.51783 109.63450,108.31314 C 93.257061,111.30201 76.339729,111.80725 59.801127,110.05296 C 51.222905,107.01663 42.298481,109.05347 33.855772,111.43189 C 27.138068,113.02739 18.644489,114.15612 13.687848,108.30004 C 4.7699419,101.47446 2.8934672,115.14305 12.576663,115.58302 C 25.100691,119.69197 37.047744,110.44432 49.687641,113.03003 C 56.133845,112.64108 62.050153,115.69694 55.601016,121.60308 C 55.095400,128.76385 54.960531,135.03121 53.969983,145.80402 C 59.484228,139.30685 57.058846,129.22889 60.767295,121.44715 C 61.671602,110.52592 79.046594,113.46657 77.117406,123.99975 C 78.902688,133.13332 82.709354,142.89731 78.683204,151.86474 C 90.636637,147.89343 81.739782,131.95458 81.307303,122.84425 C 79.714916,117.03207 80.530483,112.74953 88.167292,114.55206 C 93.948939,114.78773 103.09260,110.19042 99.478901,118.99953 C 102.43696,126.85260 104.14161,134.95853 103.95337,143.39153 C 106.86524,138.46706 109.73085,131.84837 106.19835,127.62314 C 103.34677,121.34612 103.28990,106.37962 114.33564,111.71860 C 120.61461,116.33420 117.97140,125.77121 120.10077,131.96382 C 127.34406,126.28071 121.09082,117.88608 121.83353,110.55174 C 125.44856,99.661071 142.42431,104.08283 139.38665,115.79969 C 139.58026,120.80598 141.79135,125.47588 142.80687,126.84080 C 146.93093,117.13451 136.26586,102.96285 145.30886,96.228444 C 155.33199,94.465824 161.80607,103.64493 168.58739,109.23215 C 166.82964,103.71701 164.55917,97.115353 159.60472,94.518456 C 147.44246,89.335545 169.59160,85.704196 174.32481,92.366660 C 175.80496,94.317258 175.28132,89.986464 174.63885,89.788964 C 168.46894,88.323444 164.26800,78.198727 173.73004,79.427317 C 184.38937,78.698141 189.92757,91.527885 197.95216,93.310253 C 195.70045,87.693550 187.92682,79.852686 182.13035,76.603490 C 178.92858,75.397853 169.95010,74.707203 177.56827,72.340811 C 185.89613,74.373949 193.22138,76.766568 200.31488,81.429201 C 200.86967,81.416884 199.55677,79.999750 199.54691,80.093102 C 195.12731,77.076162 184.48238,69.356151 185.35774,68.149064 C 193.55105,65.936726 201.37717,70.779552 207.80793,73.089879 C 204.60557,68.025007 198.62986,64.175382 196.52372,63.778240 C 209.40198,63.437198 226.53630,59.163266 236.52372,50.983802 C 227.34786,55.491991 218.04844,60.288822 207.43252,60.300874 C 202.62789,60.571959 192.08868,61.582519 191.24058,60.386988 C 201.49034,55.336026 213.80928,53.201856 222.28205,45.348393 C 205.26244,53.630623 193.87422,55.491115 196.82012,53.344540 C 205.69774,52.770727 218.03556,36.036577 220.03547,33.457216 C 205.25894,44.337676 216.39338,30.341439 219.55239,25.836204 C 214.08504,29.388377 209.41923,38.490393 200.72178,38.274877 C 198.41297,34.211080 185.60679,40.566834 180.52265,35.144817 C 181.01599,26.580246 180.76123,27.384103 172.12767,36.137574 C 163.33846,37.989245 166.32828,28.331502 163.71843,24.734486 C 158.99955,29.417683 162.90029,38.663559 151.92048,35.075621 C 143.22573,36.914319 144.93133,25.348524 144.25415,20.830724 C 139.77154,24.900998 146.67835,37.932543 135.91465,34.960289 C 122.33634,38.254047 129.61063,22.343672 127.91794,14.910886 C 127.92887,12.822657 129.20655,12.063007 129.06745,9.9791853 z M 99.001901,51.777395 C 90.175387,53.792676 77.541088,63.946062 82.485608,73.550642 C 91.387878,82.008234 110.75466,75.295740 109.10783,61.923720 C 107.91001,57.054190 102.68586,54.576944 99.001901,51.777395 z M 93.408986,55.921714 C 98.553701,62.242481 81.105646,73.578728 88.934123,61.325504 C 90.172309,59.329601 91.764291,57.585777 93.408986,55.921714 z M 100.10514,62.531529 C 99.414041,68.442165 87.109451,73.524256 96.588321,66.565134 C 97.935481,65.390362 99.186491,64.075181 100.10514,62.531529 z M 102.96396,65.025800 C 103.10112,69.110993 97.034351,67.357347 102.64498,65.320565 L 102.96396,65.025800 z M 103.27094,67.078777 C 106.13513,72.535232 92.655087,74.230354 100.74310,69.383777 C 101.62582,68.661097 102.47261,67.893942 103.27094,67.078777 z M 97.092831,70.743431 L 95.621828,71.560526 L 97.092831,70.743431 z " id="path1311" sodipodi:nodetypes="ccccccccccccccccccccccccccccccccccccccccccccccccccccccccccccccccccccccccccccccccccccccccccccccccccccc" style="fill:#000000;fill-opacity:1.0000000;fill-rule:nonzero;stroke:none;stroke-width:1.0000000px;stroke-linecap:butt;stroke-linejoin:miter;stroke-opacity:1.0000000"/>
  </g>
</svg>
