<?xml version="1.0" standalone="no"?>
<!DOCTYPE svg PUBLIC "-//W3C//DTD SVG 1.1//EN" "http://www.w3.org/Graphics/SVG/1.1/DTD/svg11.dtd">
<svg xml:space="default" width="250" height="380" xmlns="http://www.w3.org/2000/svg">
	<title>日本の地図記号 - 大学</title>
	<rect fill="white" x="0" y="0" width="250" height="380" />
	<path fill="none" stroke="black" stroke-width="10px"
		d="M 50 10 Q 0 70 50 130 M 200 10 Q 250 70 200 130"
	/>
	<path fill="none" stroke="black" stroke-width="10px"
		d="M 65 40 L 185 40 M 125 10 L 125 35 Q 125 100 65 130 M 125 35 Q 125 100 185 130"
	/>
	<polygon fill="black" stroke="black" stroke-width="1px"
		points="50,216 20,216 20,184 102,184 102,150 148,150 148,184 230,184 230,216"
	/>
	<line stroke="black" stroke-width="32px" x1="56" y1="204" x2="210" y2="350" />
	<line stroke="black" stroke-width="32px" x1="194" y1="204" x2="40" y2="350" />
</svg>
